<svg width="741" height="741" viewBox="0 0 741 741" fill="none" xmlns="http://www.w3.org/2000/svg">
<path d="M609.067 597.551C597.676 593.565 586.665 590.212 576.124 585.716C565.922 581.364 556.204 575.835 544.635 569.996C548.216 578.793 551.232 586.203 554.32 593.789C566.829 585.241 581.368 593.015 595.163 615.2C590.134 620.999 588.885 621.441 572.092 623.208C575 632.031 568.806 633.005 562.948 633.291C544.716 634.183 530.036 627.177 520.372 611.171C505.536 586.599 495.677 559.99 490.388 531.638C490.08 529.986 489.597 528.368 489.115 526.408C473.199 529.068 457.674 531.968 442.057 534.202C415.821 537.953 389.406 540.439 363.927 530.631C354.047 526.827 345.135 520.396 335.824 515.086C332.664 513.283 329.517 511.41 326.563 509.283C318.129 503.207 311.433 495.3 309.464 485.008C308.123 477.997 303.646 474.172 300.024 469.06C293.589 459.974 286.689 459.141 276.577 462.551C259.032 468.469 240.913 472.625 221.819 477.853C219.25 468.266 216.528 459.11 214.407 449.811C213.19 444.477 210.934 442.367 205.215 442.049C194.79 441.469 184.432 439.596 174.053 438.208C144.821 434.301 125.674 406.324 132.435 377.431C134.761 367.491 140.705 360.564 148.729 354.498C159.42 346.413 169.542 337.458 179.183 328.102C181.007 326.332 179.445 320.944 179.445 315.909C204.893 313.389 224.631 297.134 245.104 286.542C235.6 271.903 226.278 257.327 216.63 242.977C215.506 241.306 212.676 240.462 210.478 239.96C193.168 236.008 187.691 229.734 188.05 211.578C188.296 199.208 189.395 186.786 191.156 174.543C192.145 167.666 190.793 162.613 186.194 157.719C184.518 155.935 184.241 152.79 183.325 150.265C186.198 149.993 189.309 148.858 191.902 149.6C202.063 152.507 206.543 160.821 208.483 170.443C210.49 180.397 211.427 190.57 213.047 200.612C213.609 204.1 214.815 207.481 216.293 210.854C226.302 151.493 260.151 119.1 321.097 113.78C317.146 112.298 314.741 111.312 312.281 110.496C309.734 109.652 307.104 109.067 304.564 108.204C296.037 105.306 287.304 102.874 279.089 99.2336C271.509 95.8748 266.822 89.381 266.098 80.738C265.922 78.6421 267.428 76.4002 268.16 74.2253C270.255 75.0027 273.309 75.1433 274.282 76.6643C279.358 84.5965 286.09 85.8869 295.018 85.3523C306.371 84.6725 317.979 85.5455 329.264 87.2341C345.76 89.7027 351.889 97.4663 352.165 114.515C352.238 119.017 353.184 121.404 357.612 123.31C405.844 144.072 429.312 198.341 414.209 244.804C413.843 245.931 413.936 247.212 413.717 249.397C434.194 248.307 454.402 247.928 473.499 240.407C476.628 239.175 479.757 234.511 480.454 230.941C482.731 219.279 484.045 207.408 485.323 195.571C485.558 193.392 484.048 190.93 483.079 188.718C479.422 180.368 477.327 171.863 480.136 161.921C483.412 162.352 486.681 162.781 490.31 163.257C495.194 158.562 499.432 153.616 499.842 145.41C500.119 139.871 503.656 134.502 506.139 127.998C511.054 131.725 514.696 134.487 518.502 137.373C520.293 134.491 522.144 131.511 524.239 128.141C533.895 133.389 538.179 142.281 544.068 150.138C556.508 166.738 557.019 186.291 558.94 205.235C560.883 224.39 559.921 243.837 560.649 263.139C561.242 278.861 555.292 291.405 543.255 300.622C517.558 320.301 492.097 340.558 459.282 347.937C461.002 355.837 458.503 361.416 454.651 367.733C451.303 373.223 452.134 381.356 451.136 388.198C465.37 382.478 478.272 375.684 491.986 372.244C505.267 368.912 519.507 367.098 533.108 368.002C570.205 370.468 588.259 396.318 578.616 432.8C575.422 444.882 574.633 454.964 579.549 467.123C586.721 484.856 582.463 502.91 572.867 519.196C569.831 524.35 570.772 528.571 574.654 531.499C591.166 543.951 608.472 555.094 628.263 561.535C629.844 562.05 631.553 562.158 633.122 562.44C639.467 547.379 658.619 541.075 678.731 548.579C674.861 555.982 671.13 563.116 667.194 570.644C675.019 572.964 671.98 578.226 668.324 582.876C655.904 598.675 639.8 604.497 620.308 600.337C616.732 599.574 613.203 598.575 609.067 597.551ZM560.31 445.006C560.159 444.943 560.008 444.881 559.857 444.818C560.023 445.079 560.188 445.341 559.933 446.354C559.456 446.655 558.978 446.955 557.617 446.817C554.326 444.59 551.035 442.363 547.821 440.189C545.301 445.17 543.323 449.078 540.086 453.089C539.356 453.497 538.627 453.904 537.285 454.236C537.285 454.236 536.857 453.784 537.749 452.864C539.757 448.532 541.766 444.2 543.989 439.404C534.456 436.77 527.014 438.5 519.829 442.973C518.553 443.767 516.292 442.919 515.531 442.157C523.577 434.903 533.223 433.815 543.56 434.586C541.951 433.372 540.295 432.612 538.58 432.034C491.838 416.295 445.205 417.732 398.795 433.378C382.59 438.841 367.077 445.846 354.102 459.2C341.512 471.733 335.832 486.954 336.704 504.848C336.965 510.208 338.959 513.886 343.526 516.942C362.604 529.71 383.765 534.186 406.128 533.64C440.382 532.804 473.819 526.283 507.171 517.606C517.636 531.638 531.287 538.699 548.585 534.32C563.866 530.452 571.296 518.353 576.266 502.976C581.602 484.804 579.982 467.716 568.146 451.432C567.523 450.489 566.901 449.545 566.324 447.378C566.386 446.565 566.448 445.751 567.365 445.421C568.316 446.295 569.267 447.169 571.28 449.019C573.554 439.452 575.552 431.048 577.696 422.026C570.499 428.111 564.623 433.078 558.884 437.93C560.714 439.615 563.023 441.739 564.323 444.002C563.058 444.475 561.794 444.948 560.31 445.006ZM246.499 297.827C250.884 296.592 255.27 295.358 259.821 294.077C253.261 286.507 247.092 287.719 239.878 293.433C234.372 296.593 228.866 299.753 223.36 302.913C223.559 303.376 223.758 303.84 223.956 304.303C231.088 302.13 238.219 299.958 246.499 297.827ZM357.144 357.106C359.168 364.239 361.192 371.372 363.541 379.675C367.683 395.162 371.826 410.649 375.864 425.746C390.977 421.398 405.64 417.179 421.436 413.005C426.52 413.236 430.058 411.056 432.769 406.562C436.076 401.082 439.622 395.666 443.707 390.779C448.907 384.557 449.398 377.601 448.767 369.818C437.143 373.075 425.966 376.417 414.68 379.316C401.779 382.628 388.78 385.546 375.155 387.884C371.825 384.725 368.496 381.566 365.043 377.291C363.053 370.131 361.064 362.971 358.655 354.657C356.653 347.161 354.746 339.636 352.619 332.178C350.761 325.666 351.302 319.693 356.581 313.89C362.021 311.794 367.462 309.699 374.08 307.326C394.847 301.58 415.615 295.833 436.764 289.982C430.072 276.394 420.657 266.16 407.57 258.731C405.933 261.32 404.395 263.751 402.088 266.719C386.873 286.202 366.114 296.319 342.636 302.242C344.103 307.192 345.358 311.428 346.534 316.833C350.029 329.886 353.524 342.938 357.144 357.106ZM356.309 179.928C364.092 175.01 370.248 168.901 371.081 157.834C364.673 159.983 358.264 162.132 351.158 164.515C352.929 166.773 354.071 168.229 355.267 170.576C355.251 171.159 355.235 171.742 354.126 172.495C350.75 173.557 347.374 174.62 343.998 175.683C347.949 177.178 349.039 185.992 356.309 179.928ZM289.977 267.145C289.977 267.145 290.021 266.997 289.564 266.11C286.832 261.257 284.099 256.403 281.259 251.358C276.535 253.933 271.923 256.447 266.192 258.999C256.048 261.8 245.903 264.601 235.642 267.433C242.335 277.224 251.263 284.662 261.764 290.184C263.6 291.15 266.053 292.161 267.868 291.703C279.705 288.716 291.445 285.329 303.414 282.019C299.059 277.337 295.257 273.25 291.155 268.413C290.81 268.007 290.465 267.601 289.977 267.145ZM317.729 167.736C310.965 172.183 304.269 176.742 297.416 181.042C292.137 184.355 290.566 188.158 295.957 194.496C299.783 189.222 303.314 184.095 307.165 179.231C308.139 178.001 310.136 177.611 310.788 177.007C310.464 177.483 310.141 177.96 309.676 179.518C307.388 188.107 302.606 194.535 293.871 198.381C292.321 194.938 290.869 191.712 288.451 186.34C284.063 191.584 280.28 195.77 276.911 200.276C275.243 202.506 272.968 205.55 273.326 207.845C274.907 217.971 277.345 227.959 279.473 237.997C280.172 237.994 280.87 237.991 281.569 237.988C283.47 234.784 285.372 231.58 287.188 228.522C288.578 230.335 289.988 232.173 292.78 235.815C297.822 226.771 302.116 219.069 306.151 211.83C302.476 211.087 300.347 210.657 298.218 210.227C300.676 206.003 302.837 201.544 305.781 197.707C306.607 196.631 309.738 197.388 311.811 197.304C310.663 200.939 309.515 204.573 307.933 209.58C311.362 212.365 316.092 216.206 321.748 220.799C323.389 216.056 324.383 213.184 325.601 209.663C327.417 212.602 328.883 214.974 330.862 218.175C337.456 208.57 342.823 199.48 342.376 189.181C338.482 188.541 332.932 188.949 332.256 187.293C329.205 179.822 338.605 182.17 340.432 178.126C339.53 175.944 338.662 173.843 337.715 171.551C342.081 171.208 345.78 170.917 350.17 170.573C341.306 159.059 338.116 158.176 326.804 163.34C324.823 164.245 322.915 165.317 320.314 166.224C319.769 166.538 319.225 166.853 317.729 167.736ZM297.878 268.411C297.22 268.308 296.562 268.205 295.904 268.102C296.255 268.83 296.606 269.558 297.552 271.104C301.912 273.929 306.454 279.375 310.596 279.075C321.715 278.27 332.663 275.008 343.679 272.721C336.924 271.078 330.154 271.324 323.41 271.016C315.035 270.633 306.681 269.79 297.878 268.411ZM277.526 94.3052C283.478 96.2897 289.784 100.604 295.302 99.734C304.473 98.2886 313.139 93.5157 322.856 89.8259C309.339 87.7895 296.388 87.9073 283.27 89.3767C278.702 85.4245 274.135 81.4723 269.158 77.1656C268.889 84.5873 271.857 89.5361 277.526 94.3052ZM533.711 606.355C538.212 598.948 544.58 597.131 552.692 600.586C548.843 591.049 544.706 582.398 541.918 573.318C540.085 567.345 537.673 562.428 532.175 557.994C529.357 552.447 525.542 547.18 523.951 541.29C521.417 531.912 515.85 532.477 507.852 534.332C505.836 534.167 503.82 534.002 500.8 533.468C499.074 532.976 497.349 532.485 494.899 531.787C500.844 562.725 511.967 590.445 528.788 616.617C530.408 612.813 531.654 609.886 533.711 606.355ZM628.352 587.408C626.426 579.131 628.645 572.617 636.115 569.78C622.853 563.887 610.072 558.207 596.706 551.728C588.752 546.602 580.799 541.477 572.825 536.339C567.943 546.889 565.687 549.064 553.138 554.222C550.221 554.383 547.303 554.544 543.231 554.443C540.693 553.872 538.155 553.301 535.308 552.66C541.886 568.607 609.09 599.017 632.098 596.787C630.904 594.052 629.732 591.369 628.352 587.408ZM446.734 414.587C445.61 418.094 447.104 418.847 450.32 418.524C473.938 416.15 497.344 417.836 520.163 422.827C518.447 416.372 516.769 410.063 515.44 402.644C516.962 385.918 526.352 376.435 542.288 372.827C514.07 367.46 488.442 374.437 463.397 386.842C451.723 392.624 446.966 401.09 446.734 414.587ZM328.818 222.206C327.827 221.595 326.058 220.339 325.957 220.465C322.139 225.247 318.532 222.27 315.042 220.159C312.833 218.823 310.856 217.089 309.221 215.867C305.433 221.901 302.701 228.645 297.928 233.144C293.648 237.177 287.122 238.737 281.736 241.318C287.422 263.852 301.919 272.912 332.875 266.86C331.554 263.198 330.252 259.587 329.258 254.942C330.423 256.329 332.276 257.553 332.638 259.131C334.357 266.635 338.818 270.094 346.236 269.227C354.829 268.222 363.419 267.094 371.949 265.644C379.181 264.414 381.016 259.266 380.486 252.453C380.251 249.432 380.182 246.075 381.213 243.328C387.006 227.873 384.485 219.482 369.869 212.361C361.284 208.179 356.231 201.633 352.605 193.255C351.651 191.053 350.432 188.969 348.878 185.941C344.25 196.212 344.856 200.831 350.423 204.65C350.039 205.286 349.655 205.921 349.271 206.556C347.42 205.492 345.57 204.427 345.544 204.412C339.854 210.809 334.383 216.959 328.818 222.206ZM493.702 272.572C487.563 263.135 481.424 253.698 476.094 245.505C453.702 248.508 431.729 251.455 407.704 254.677C424.046 263.878 434.537 276.367 442.272 292.676C443.57 295.257 445.316 297.706 446.09 300.44C450.245 315.119 454.157 329.869 458.238 344.91C486.714 336.877 511.14 322.801 533.378 302.601C515.993 297.554 504.868 285.83 493.702 272.572ZM533.042 155.314C526.749 155.419 520.36 154.849 514.181 155.756C495.578 158.487 494.166 159.705 491.376 178.271C488.516 197.299 486.5 216.46 483.961 236.796C495.154 242.18 507.18 247.965 520.018 254.361C531.956 258.967 543.772 264.143 559.234 263.05C558.002 239.32 556.807 216.296 555.595 192.932C548.912 192.932 544.372 192.932 539.488 192.932C538.245 184.797 537.061 177.052 535.788 168.719C540.565 168.719 544.874 168.719 549.232 168.719C548.016 158.713 546.216 157.245 533.042 155.314ZM184.061 390.614C178.233 404.733 176.896 419.308 179.96 435.548C189.234 436.609 198.803 438.18 208.427 438.722C245.234 440.795 280.691 434.953 315.403 418.548C315.815 412.173 316.228 405.798 316.896 398.334C316.786 397.603 316.675 396.873 316.756 394.913C314.103 383.699 311.7 372.412 308.583 361.333C307.966 359.141 304.6 357.75 302.503 355.989C301.998 356.557 301.493 357.125 300.988 357.693C307.353 371.927 307.093 387.095 306.861 403.283C299.602 404.399 292.343 405.515 285.193 405.452C287.33 389.907 282.939 375.474 277.566 361.307C277.028 359.889 273.868 358.807 271.899 358.76C260.43 358.49 248.917 359.15 237.486 358.415C216.057 357.038 193.804 370.045 184.061 390.614ZM243.775 210.926C246.296 219.466 248.816 228.006 251.048 237.689C248.111 253.731 243.498 258.605 230.957 258.918C233.96 264.479 250.601 262.521 267.277 254.637C271.582 252.475 275.887 250.313 279.145 248.677C275.985 235.553 272.53 223.42 270.396 211.052C269.719 207.125 271.36 201.477 273.988 198.476C291.81 178.13 313.284 162.645 339.024 154.895C354.131 150.347 370.102 148.775 384.872 146.015C352.058 109.565 285.363 107.127 247.065 149.822C232.896 165.458 224.437 183.721 221.763 205.769C230.93 200.397 237.324 204.404 243.775 210.926ZM335.116 373.598C334.486 374.843 333.857 376.089 333.252 377.288C336.804 378.544 339.918 379.645 343.355 380.86C340.586 391.472 334.457 398.8 326.471 404.183C321.976 407.213 319.603 410.039 319.521 415.765C319.485 418.282 316.575 421.889 314.095 423.029C306.357 426.585 298.349 429.746 290.172 432.054C277.091 435.748 263.789 438.634 250.348 441.919C252.408 449.371 254.484 456.879 256.631 464.648C296.253 453.63 335.103 442.827 374.077 431.99C360.18 380.154 346.535 329.261 332.657 277.496C293.421 288.386 254.575 299.166 215.104 310.121C218.92 324.352 222.451 337.966 226.368 351.465C226.773 352.861 229.436 354.386 231.111 354.46C242.806 354.977 254.521 355.404 266.22 355.219C269.577 355.166 272.96 353.149 276.229 351.781C283.237 348.849 290.178 345.753 298.018 342.345C298.97 347.325 299.509 350.145 299.75 351.406C303.721 353.443 307.571 354.267 309.477 356.681C311.979 359.849 314.28 360.413 318.017 360.463C325.073 360.557 332.116 361.718 340.353 362.557C338.19 367.322 336.978 369.994 335.116 373.598ZM440.645 361.799C443.919 360.858 447.175 359.84 450.472 358.991C455.893 357.596 457.347 354.123 455.935 348.887C451.56 332.675 447.285 316.434 442.867 300.234C441.492 295.189 438.607 292.973 433.051 294.553C410.815 300.878 388.499 306.906 366.231 313.111C361.243 314.501 359.047 317.355 360.663 323.068C365.234 339.227 369.509 355.474 373.73 371.732C375.235 377.528 378.252 379.194 383.967 377.537C402.421 372.186 420.961 367.147 440.645 361.799ZM389.307 433.143C407.012 428.004 424.716 422.865 442.608 417.672C444.073 409.945 445.725 401.223 447.704 390.782C442.501 398.283 438.481 404.685 433.796 410.535C431.885 412.921 428.741 414.849 425.797 415.717C411.305 419.991 396.679 423.787 382.141 427.904C380.435 428.388 377.531 430.051 377.645 430.753C378.595 436.605 373.81 435.928 371.147 436.412C348.462 440.535 331.105 453.804 315.264 469.694C313.482 471.483 311.639 474.039 311.37 476.42C310.107 487.631 321.982 504.471 332.974 507.722C334.456 479.15 338.645 467.089 355.783 453.231C365.562 445.324 377.356 440 389.307 433.143ZM196.172 369.323C201.781 365.566 207.391 361.809 214.082 357.328C208.231 358.035 203.472 358.393 198.791 359.212C179.522 362.585 166.027 375.657 163.572 394.852C162.391 404.091 163.382 413.635 163.598 423.036C163.774 430.72 167.795 434.652 175.827 434.636C173.181 410.246 176.225 387.55 196.172 369.323ZM198.19 314.728C193.2 316.257 188.21 317.785 182.915 319.406C185.302 328.394 187.356 336.538 189.709 344.591C190.108 345.96 191.636 347.722 192.901 347.978C202.796 349.984 212.754 351.667 223.355 353.568C219.504 339.258 215.761 325.348 211.939 311.148C207.272 312.356 203.306 313.382 198.19 314.728ZM151.442 423.908C154.42 425.822 157.399 427.736 161.074 430.098C154.603 389.988 163.287 363.339 200.228 354.925C171.808 351.512 148.71 367.762 144.98 394.93C143.663 404.527 141.294 415.343 151.442 423.908ZM568.594 388.817C564.58 385.448 560.566 382.078 555.774 378.057C549.963 396.954 537.473 408.335 523.315 418.047C528.731 428.043 538.948 430.759 547.647 424.866C558.856 417.273 565.53 406.27 569.967 393.676C570.355 392.575 569.507 391.022 568.594 388.817ZM222.724 468.024C224.244 469.578 226.094 472.688 227.231 472.438C235.864 470.539 244.357 467.983 253.377 465.499C251.027 456.922 248.91 449.197 247.03 442.336C236.2 442.336 226.356 442.336 215.935 442.336C218.226 451.178 220.256 459.014 222.724 468.024ZM194.928 224.322C196.16 226.836 196.743 230.364 198.737 231.69C207.56 237.556 217.467 238.389 229.682 237.316C212.293 223.179 209.389 204.406 207.021 184.181C198.645 196.956 194.14 209.224 194.928 224.322ZM488.659 247.79C485.909 245.722 483.159 243.655 480.408 241.587C481.521 244.938 483.464 247.324 485.544 249.579C500.601 265.913 516.44 281.272 537.264 289.872C547.422 294.067 551.214 291.754 553.711 280.694C529.678 275.361 509.288 262.516 488.659 247.79ZM381.617 265.828C369.365 269.571 357.112 273.313 344.849 277.059C346.052 283.856 347.186 290.265 348.647 298.517C359.675 292.962 370.048 288.196 379.962 282.59C387.274 278.456 387.732 273.177 381.617 265.828ZM344.026 97.8142C328.399 91.2887 313.924 95.3333 298.658 102.295C315.82 108.523 331.768 114.309 347.715 120.095C348.472 119.443 349.228 118.79 349.985 118.138C348.26 111.66 346.535 105.182 344.026 97.8142ZM303.423 382.861C301.888 374.92 300.353 366.979 298.744 358.653C292.184 359.143 286.795 359.546 282.295 359.883C285.225 374.865 287.962 388.862 290.717 402.952C294.503 402.395 299.046 401.727 303.567 401.062C303.567 395.095 303.567 389.653 303.423 382.861ZM539.672 399.729C544.106 392.934 548.54 386.139 553.782 378.105C540.447 375.531 531.362 378.302 524.583 387.109C518.257 395.328 517.717 404.504 521.647 415.501C527.957 410.038 533.461 405.272 539.672 399.729ZM141.742 392.161C146.302 368.217 162.12 356.314 184.448 351.291C165.56 351.358 147.133 352.399 137.685 372.65C131.579 385.738 133.509 403.463 141.519 411.679C141.519 405.337 141.519 399.395 141.742 392.161ZM423.071 373.555C433.452 370.453 443.834 367.35 454.215 364.248C453.958 363.41 453.701 362.571 453.444 361.733C431.41 367.851 409.378 373.973 387.343 380.087C375.948 383.248 372.897 381.537 369.832 370.265C365.377 353.882 360.933 337.497 356.484 321.112C355.274 323.918 354.729 326.663 355.362 329.09C359.488 344.915 363.683 360.728 368.251 376.426C370.371 383.712 375.65 386.419 383.089 384.482C396.071 381.102 408.977 377.421 423.071 373.555ZM534.397 547.808C543.553 552.683 552.612 552.574 561.274 546.76C568.568 541.864 570.668 534.765 567.335 527.008C555.694 539.307 541.536 541.251 525.186 538.346C527.954 541.287 530.721 544.229 534.397 547.808ZM544.475 274.685C548.153 275.591 551.831 276.497 556.336 277.607C556.767 273.46 557.099 270.264 557.466 266.723C534.847 266.944 516.425 255.536 496.906 248.009C496.541 248.965 496.175 249.921 495.809 250.877C511.669 258.66 527.529 266.443 544.475 274.685ZM550.474 433.34C559.464 435.174 565.404 430.161 570.273 423.635C576.125 415.793 576.72 406.114 572.353 397.464C566.962 411.537 558.349 422.789 545.185 430.852C547.297 431.815 548.369 432.304 550.474 433.34ZM335.464 447.329C321.953 450.652 308.442 453.976 293.53 457.644C299.17 463.267 303.589 467.672 307.335 471.407C316.743 463.619 325.96 455.989 335.464 447.329ZM197.398 169.178C190.504 182.813 191.245 197.521 190.851 211.346C194.311 203.262 197.413 194.476 201.716 186.348C207.032 176.305 207.195 170.693 200.418 161.249C199.605 163.571 198.793 165.894 197.398 169.178ZM525.16 295.962C531.103 297.648 537.143 302.981 543.811 295.595C522.606 289.6 507.254 275.803 491.57 262.436C500.197 275.849 510.077 287.815 525.16 295.962ZM242.66 241.043C244.217 240.13 247.168 239.109 247.109 238.323C246.65 232.224 245.771 226.136 244.561 220.142C244.396 219.325 241.192 218.14 240.221 218.676C236.772 220.583 231.14 222.908 230.889 225.527C229.763 237.275 232.709 240.719 242.66 241.043ZM171.027 348.003C176.081 347.597 181.134 347.191 186.665 346.747C185.212 341.573 183.797 336.537 182.115 330.547C175.224 336.737 169.148 342.195 161.607 348.968C165.668 348.599 167.723 348.412 171.027 348.003ZM550.111 179.137C549.538 176.842 548.966 174.546 548.504 172.692C545.163 172.692 542.592 172.692 539.644 172.692C540.733 178.698 541.727 184.181 542.678 189.425C546.128 189.425 548.727 189.425 551.907 189.425C551.308 186.126 550.788 183.259 550.111 179.137ZM393.735 244.253C391.053 243.223 388.37 242.193 384.212 240.596C383.791 248.086 383.422 254.645 383.014 261.91C387.381 260.143 391.031 258.667 395.344 256.922C392.622 254.459 390.66 252.684 388.073 250.344C390.399 248.42 392.478 246.701 393.735 244.253ZM224.118 214.136C225.575 216.063 227.033 217.99 228.168 219.491C232.623 217.5 236.834 215.617 243.41 212.678C237.544 210.147 233.681 207.539 229.562 207.017C226.569 206.638 221.701 207.531 224.118 214.136ZM245.729 245.556C241.285 244.831 236.841 244.105 232.121 243.334C230.984 246.722 229.934 249.849 228.901 252.926C237.475 256.707 240.312 255.551 245.729 245.556ZM400.272 263.583C401.44 261.671 402.608 259.759 404.71 256.32C397.706 259.372 392.499 261.641 387.293 263.909C388.107 267.947 388.79 271.338 389.67 275.708C393.459 271.388 396.515 267.903 400.272 263.583ZM494.232 524.589C494.022 524.717 493.784 524.814 493.614 524.982C493.498 525.097 493.38 525.421 493.428 525.466C499.209 530.802 505.871 531.504 513.659 529.914C505.555 521.464 505.555 521.464 494.232 524.589ZM340.654 294.896C341.252 296.134 341.85 297.372 342.448 298.609C343.262 298.447 344.075 298.284 344.889 298.122C343.612 291.493 342.395 284.85 340.882 278.277C340.807 277.95 338.169 278.235 336.176 278.235C337.762 283.975 339.12 288.886 340.654 294.896ZM195.097 154.451C192.417 153.408 189.738 152.365 187.058 151.322C186.833 151.764 186.607 152.206 186.381 152.648C189.326 156.52 192.271 160.392 195.216 164.264C195.74 164.148 196.263 164.031 196.787 163.915C196.53 160.987 196.273 158.059 195.097 154.451ZM218.044 214.335C220.537 219.79 223.03 225.246 225.524 230.701C226.647 230.042 227.771 229.383 228.895 228.725C225.646 223.942 222.396 219.159 218.044 214.335ZM552.628 438.625C552.517 438.238 552.406 437.852 552.295 437.465C551.873 437.885 551.452 438.305 551.03 438.725C551.407 438.847 551.784 438.969 552.628 438.625Z" fill="#0A0C0E"/>
<path d="M587.205 318.805C590.563 314.721 590.323 311.338 588.401 306.905C579.915 287.332 583.94 266.781 598.553 252.076C612.938 237.601 633.341 234.171 652.723 242.459C655.286 243.555 659.001 242.934 661.85 242.026C666.677 240.487 671.094 237.551 675.949 236.174C682.847 234.216 686.58 237.691 684.961 244.864C683.787 250.065 681.389 255.13 678.744 259.789C676.625 263.52 676.098 266.487 677.509 270.773C683.802 289.898 680.102 307.253 666.115 321.511C652.114 335.783 635.17 339.103 616.163 333.47C612.996 332.531 608.931 333.602 605.58 334.695C600.301 336.417 595.443 339.685 590.1 340.937C583.954 342.376 580.589 338.667 581.983 332.423C582.991 327.905 585.233 323.672 587.205 318.805ZM598.029 257.776C580.314 281.974 586.192 313.552 611.191 326.788C633.336 310.454 652.733 291.053 668.898 268.408C670.09 266.738 669.431 262.309 668.037 260.325C651.547 236.857 619.91 235.438 598.029 257.776ZM643.236 303.71C633.957 312.043 624.678 320.376 615.477 328.639C630.414 336.244 650.279 332.534 663.415 319.51C676.659 306.38 680.565 285.958 673.163 270.229C663.524 281.046 653.752 292.012 643.236 303.71ZM587.858 325.271C587.291 326.628 586.367 327.952 586.237 329.351C586.001 331.888 586.239 334.47 586.28 337.033C588.799 336.885 591.558 337.354 593.789 336.46C598.357 334.631 602.641 332.071 607.245 329.708C601.987 324.846 597.488 320.686 592.664 316.226C591.099 319.113 589.707 321.681 587.858 325.271ZM672.988 260.422C675.991 254.901 679.595 249.614 681.792 243.778C683.323 239.711 679.605 238.542 676.517 239.637C671.21 241.52 666.142 244.098 660.85 246.439C665.208 251.538 668.692 255.614 672.988 260.422Z" fill="#0D1417"/>
<path d="M21.3457 477.13C24.3719 451.131 38.8724 434.587 61.9279 430.189C82.1063 426.339 103.205 436.72 113.087 455.359C122.634 473.366 120.511 495.035 107.694 510.423C94.2389 526.577 73.1215 532.687 54.1224 525.922C34.3327 518.875 21.8664 500.578 21.3457 477.13ZM57.513 495.395C58.6965 505.019 59.8801 514.643 61.0209 523.921C81.9992 526.949 100.734 518.379 107.318 503.466C100.577 497.604 91.9025 492.824 92.7745 481.93C93.4067 474.033 90.2277 468.309 84.3142 464.184C78.9356 460.431 73.1209 457.233 67.228 454.366C61.6661 451.661 58.3753 447.654 57.5193 441.477C57.2292 439.384 56.7758 437.314 56.3884 435.186C34.3298 441.706 21.3235 467.451 25.9185 481.799C31.0422 481.091 36.0424 479.894 41.0603 479.812C51.9729 479.633 56.2001 483.565 57.513 495.395ZM68.0491 450.75C74.5619 454.566 81.8624 457.489 87.3305 462.489C91.47 466.275 95.7015 472.751 95.6168 477.958C95.4302 489.428 101.6 495.036 109.649 500.322C118.18 485.867 117.116 465.914 106.665 451.907C95.1568 436.483 79.7349 430.847 60.792 434.015C60.1102 440.834 60.6501 446.698 68.0491 450.75ZM57.6273 518.228C56.2242 511.524 53.6572 504.817 53.6771 498.118C53.7113 486.616 50.8804 482.532 39.5109 483.093C34.8562 483.323 30.2725 485.044 25.7125 486.073C29.1183 503.708 39.5995 516.754 53.6616 521.838C56.1 522.72 58.6229 524.135 57.6273 518.228Z" fill="#0A1113"/>
<path d="M239.184 574.41C244.423 571.581 249.014 568.746 253.775 566.248C259.976 562.994 265.63 566.468 263.77 573.133C260.158 586.08 263.642 595.073 274.272 602.797C280.307 607.181 278.32 613.941 270.744 614.539C258.056 615.542 250.167 621.038 246.923 633.801C246.357 636.027 242.955 638.843 240.773 638.925C238.643 639.005 236.381 635.957 234.22 634.227C233.867 633.945 233.673 633.4 233.51 632.939C229.96 622.922 224.022 616.455 212.499 617.964C211.103 618.147 209.597 617.64 208.167 617.331C202.09 616.017 199.622 610.511 204.308 606.565C214.77 597.753 217.884 588.07 213.312 574.768C211.163 568.516 216.294 565.071 222.49 567.599C227.906 569.808 233.24 572.227 239.184 574.41ZM259.385 569.547C256.524 570.422 253.08 570.55 250.905 572.306C242.606 579.003 234.485 579.499 225.684 573.48C223.256 571.819 220.195 571.117 215.547 569.2C216.63 575.385 216.907 579.759 218.21 583.789C220.544 591.008 219.097 596.555 213.435 601.639C210.321 604.434 208.28 608.469 205.755 611.945C209.762 613.045 213.799 615.157 217.771 615.037C226.169 614.784 230.74 618.738 233.657 626.247C235.08 629.911 237.549 633.155 239.544 636.589C240.388 636.551 241.231 636.512 242.074 636.473C244.202 631.642 246.537 626.891 248.398 621.955C250.239 617.075 253.107 614.405 258.501 613.885C263.636 613.39 268.664 611.747 275.267 610.265C272.954 607.306 271.998 605.179 270.372 604.149C259.693 597.388 256.07 588.131 259.896 575.834C260.387 574.258 260.015 572.405 259.385 569.547Z" fill="#0C0D0B"/>
<path d="M483.854 21.1277C486.976 22.7648 489.661 24.5763 492.222 26.5558C492.665 26.8983 492.731 27.957 492.711 28.6776C492.38 40.8407 497.785 48.3677 509.494 51.6719C511.996 52.3777 515.552 55.9458 515.411 57.9615C515.223 60.6319 511.916 63.1062 509.857 65.5847C509.423 66.1072 508.618 66.3889 507.93 66.6027C497.987 69.693 493.901 76.4803 494.094 87.0422C494.155 90.3731 491.12 93.7626 489.501 97.1254C486.247 95.4924 481.928 94.698 479.933 92.0729C473.337 83.3914 465.639 81.8323 455.761 85.1039C452.841 86.071 447.643 85.4318 446.039 83.4205C444.479 81.4649 446.083 76.7925 446.523 73.3428C446.672 72.1741 447.331 70.959 448.056 69.9985C453.265 63.0942 452.528 56.4508 447.545 49.7943C446.23 48.0383 445.224 46.0032 444.304 43.9882C441.562 37.9814 444.99 32.076 450.815 34.128C465.067 39.149 474.331 33.2546 482.156 22.1585C482.419 21.7867 482.962 21.6208 483.854 21.1277ZM448.135 44.1457C454.777 53.495 458.487 62.9304 450.312 73.5893C448.762 75.6099 448.872 78.9507 448.217 81.6824C450.982 81.6499 453.96 82.2926 456.473 81.4663C466.59 78.1399 474.843 79.8029 481.32 89.0115C482.934 91.307 485.92 92.6032 489.498 95.2701C490.352 89.9088 491.462 86.3004 491.393 82.7152C491.225 73.9269 494.876 68.2086 503.025 65.2818C505.299 64.4652 507.424 63.1581 509.521 61.9083C512.84 59.9303 514.077 56.9814 509.652 55.6454C496.166 51.5735 488.944 43.2336 489.135 28.4957C489.184 24.7672 485.998 22.3727 483.49 26.0917C475.288 38.2539 464.888 42.1862 450.981 37.8554C446.805 36.5547 445.871 39.4496 448.135 44.1457Z" fill="#0C0D0B"/>
<path d="M719.34 391.838C722.102 397.6 719.152 399.996 714.636 400.229C708.133 400.564 704.513 403.615 702.536 409.797C701.896 411.8 699.286 414.78 698.005 414.572C695.887 414.229 693.187 412.036 692.379 409.959C690.09 404.077 686.383 401.652 680.22 401.676C677.974 401.685 674.492 399.995 673.821 398.207C673.168 396.469 674.741 392.671 676.479 391.418C682.21 387.282 681.58 382.197 680.277 376.381C679.811 374.303 680.169 370.963 681.493 369.844C682.783 368.754 686.321 368.931 687.942 370.006C693.604 373.759 698.546 373.444 703.94 369.444C705.535 368.261 708.729 367.984 710.495 368.819C711.745 369.409 712.808 372.92 712.257 374.522C709.557 382.368 713.277 387.209 719.34 391.838ZM688.443 374.002C686.938 373.51 685.433 373.018 682.338 372.007C687.269 382.745 684.484 390.654 676.113 397.374C686.989 396.911 693.859 401.495 697.786 412.288C699.639 400.274 707.572 396.666 717.92 395.194C707.548 389.625 706.878 380.932 709.243 370.678C702.006 373.591 696.758 380.468 688.443 374.002Z" fill="#0D0F0D"/>
<path d="M90.3912 229.488C91.0806 231.34 91.7968 232.884 91.503 234.194C89.9022 241.333 91.437 246.752 97.5774 251.436C102.291 255.032 100.771 259.619 94.626 260.379C87.8201 261.22 83.5451 264.039 81.5407 270.842C81.0187 272.614 78.5967 275.204 77.3589 275.036C75.4127 274.773 72.8279 272.854 72.0991 270.993C69.4818 264.308 64.9295 261.984 58.0749 261.782C52.0024 261.603 50.3268 257.209 54.7826 252.992C60.0465 248.01 61.3699 243.077 59.4019 235.988C57.7296 229.964 61.4743 227.148 66.788 230.368C72.8538 234.044 77.8361 233.862 83.4255 229.75C84.9601 228.621 87.7422 229.25 90.3912 229.488ZM87.9876 236.903C87.9876 235.29 87.9876 233.678 87.9876 230.302C79.5702 238.975 71.162 237.811 62.4222 231.747C63.1177 237.84 64.9086 242.762 63.7954 246.867C62.7239 250.818 58.6494 253.925 54.3322 259.375C67.2273 256.456 72.7224 262.712 76.9071 272.188C79.5321 261.049 86.5226 256.581 97.3526 256.69C93.0925 250.026 83.9904 247.292 87.9876 236.903Z" fill="#0D0F0D"/>
<path d="M368.016 582.129C370.182 585.554 372.307 588.441 374.681 591.096C378.788 595.688 377.979 599.788 372.008 600.422C364.762 601.192 360.944 604.63 358.454 611.428C356.417 616.991 352.138 617.208 349.689 611.776C346.52 604.75 342.075 601.874 334.522 601.849C329.428 601.832 327.676 597.132 331.506 593.618C337.338 588.266 338.566 582.779 336.454 575.219C335.066 570.251 338.99 567.354 343.49 570.092C349.997 574.052 355.293 573.643 361.439 569.39C365.896 566.305 368.644 568.403 368.662 574.06C368.67 576.535 368.291 579.011 368.016 582.129ZM338.964 599.006C348.723 597.026 349.185 606.9 354.677 612.746C356.807 601.226 363.596 596.475 374.409 596.062C365.253 589.928 362.175 581.986 365.352 571.121C356.759 578.595 348.549 578.486 339.398 572.023C344.016 582.777 340.991 590.768 331.899 597.576C335.021 598.258 336.417 598.562 338.964 599.006Z" fill="#0C0D0B"/>
<path d="M633.857 104.502C633.757 101.983 633.507 100.025 633.249 98.0685C632.608 93.1957 635.545 91.925 638.912 93.6964C643.057 95.8765 646.248 95.8883 650.205 93.3526C654.526 90.5834 656.977 93.0299 656.097 97.5768C655.214 102.144 656.682 104.929 659.846 107.833C663.272 110.977 662.819 114.381 657.997 115.166C653.66 115.872 651.221 117.556 649.55 121.806C647.609 126.744 644.77 126.429 641.631 122.152C639.959 119.875 637.431 117.52 634.857 116.798C627.189 114.648 626.68 113.622 631.94 107.414C632.572 106.668 633.118 105.848 633.857 104.502ZM654.657 112.513C655.404 111.673 656.956 110.47 656.773 110.05C654.903 105.747 652.752 101.571 651.013 98.0388C647.057 98.0388 642.021 98.0388 638.169 98.0388C636.873 102.64 635.462 107.649 634.297 111.787C637.752 114.155 642.008 117.072 645.605 119.536C647.86 117.577 650.698 115.112 654.657 112.513Z" fill="#0D0F0D"/>
<path d="M153.847 41.3767C152.293 46.1571 153.264 49.3597 156.875 52.2698C160.866 55.4862 160.585 59.1359 155.23 59.9486C150.725 60.6325 148.511 62.5916 146.831 66.6852C145.121 70.8516 141.921 71.996 139.542 67.232C137.554 63.2504 134.915 61.4951 130.619 61.0189C125.472 60.4483 124.788 57.9826 127.843 53.4382C129.664 50.7292 130.663 46.9009 130.648 43.582C130.624 37.9927 132.592 37.4545 137.374 38.6113C140.479 39.3627 144.243 39.036 147.27 37.9348C150.909 36.6113 152.826 37.0881 153.847 41.3767ZM143.156 44.1674C140.234 43.4189 137.311 42.6703 132.977 41.5601C137.342 48.236 134.208 52.7567 130.721 55.9106C135.065 58.944 139.319 61.9147 142.664 64.2503C146.264 61.4343 150.399 58.2002 153.371 55.8754C151.789 51.3142 150.141 46.5648 148.43 41.6319C147.668 42.0272 145.97 42.9082 143.156 44.1674Z" fill="#0C0D0B"/>
<path d="M159.212 289.99C155.365 285.491 152.991 279.83 145.923 280.664C145.631 280.698 143.735 275.443 144.525 274.646C148.013 271.13 149.185 267.809 147.826 262.737C146.709 258.564 149.474 256.5 153.442 258.599C157.541 260.766 160.901 260.82 164.916 258.101C167.91 256.074 171.015 257.338 170.59 261.627C170.114 266.429 170.835 270.184 174.838 273.356C175.741 274.072 174.747 279.142 174.553 279.147C167.526 279.322 164.953 284.828 161.775 289.681C161.489 290.118 160.423 290.026 159.212 289.99ZM150.967 278.271C154.228 280.497 157.489 282.723 159.746 284.263C163.471 281.31 167.324 278.255 170.387 275.826C168.933 271.49 167.281 266.563 165.978 262.679C161.768 262.91 156.691 263.188 153.347 263.372C151.418 267.59 149.474 271.623 147.819 275.776C147.639 276.227 149.132 277.369 150.967 278.271Z" fill="#0F0E09"/>
<path d="M474.655 719.241C472.639 718.746 470.277 718.354 469.629 717.068C467.572 712.982 465.077 710.723 460.196 710.598C455.993 710.49 454.479 707.057 457.389 703.938C460.578 700.52 461.646 697.346 460.785 692.726C459.899 687.976 462.456 685.956 466.769 688.335C470.677 690.492 473.73 689.976 477.495 687.782C481.528 685.432 483.531 687.278 483.764 692.237C483.915 695.455 485.173 698.987 486.966 701.661C489.072 704.8 490.68 708.594 486.397 709.061C479.703 709.792 477.812 714.45 474.655 719.241ZM461.751 703.863C461.018 704.702 460.285 705.54 460.299 705.525C464.856 708.603 469.116 711.481 472.586 713.825C475.995 711.146 480.011 707.991 483.369 705.354C481.956 701.306 480.17 696.192 478.86 692.443C474.005 692.443 469.117 692.443 464.813 692.443C464.146 695.493 463.32 699.276 461.751 703.863Z" fill="#080B0C"/>
<path d="M335.442 373.131C336.98 369.994 338.192 367.322 340.355 362.557C332.117 361.718 325.075 360.557 318.019 360.463C314.282 360.413 311.98 359.849 309.479 356.681C307.572 354.267 303.722 353.443 299.751 351.406C299.51 350.144 298.971 347.325 298.02 342.345C290.179 345.753 283.238 348.849 276.231 351.781C272.961 353.149 269.579 355.166 266.222 355.219C254.523 355.404 242.808 354.977 231.112 354.46C229.437 354.386 226.774 352.861 226.369 351.465C222.453 337.966 218.921 324.352 215.105 310.12C254.576 299.166 293.422 288.385 332.659 277.496C346.537 329.261 360.182 380.154 374.079 431.99C335.105 442.827 296.254 453.63 256.633 464.648C254.485 456.879 252.41 449.371 250.35 441.919C263.791 438.634 277.092 435.748 290.174 432.054C298.351 429.745 306.358 426.585 314.097 423.028C316.576 421.889 319.487 418.282 319.523 415.764C319.605 410.039 321.977 407.213 326.472 404.183C334.458 398.8 340.587 391.472 343.357 380.86C339.919 379.645 336.806 378.544 333.253 377.287C333.859 376.089 334.488 374.843 335.442 373.131ZM333.603 316.287C331.108 306.79 328.613 297.292 326.023 287.433C311.74 291.449 298.251 295.242 284.012 299.245C286.874 309.814 289.543 319.671 292.437 330.358C306.786 325.894 320.191 321.725 333.603 316.287Z" fill="#FB9B00"/>
<path d="M575.61 503.871C571.296 518.353 563.866 530.452 548.585 534.32C531.287 538.698 517.636 531.638 507.171 517.605C473.819 526.282 440.382 532.803 406.128 533.639C383.765 534.185 362.604 529.71 343.526 516.942C338.959 513.886 336.965 510.207 336.704 504.847C335.832 486.954 341.512 471.733 355.091 459.099C361.384 461.961 366.622 465.055 372.004 467.864C390.932 477.744 411.748 477.764 432.205 479.96C444.442 481.273 456.968 482.436 468.628 486.097C488.544 492.35 507.935 500.373 527.447 507.919C543.189 514.008 558.475 516.508 572.804 504.407C573.444 503.866 574.662 504.034 575.61 503.871Z" fill="#D3EEFE"/>
<path d="M575.939 503.424C574.663 504.034 573.445 503.867 572.805 504.408C558.476 516.509 543.19 514.008 527.448 507.92C507.936 500.373 488.546 492.351 468.629 486.097C456.969 482.436 444.443 481.273 432.206 479.96C411.749 477.764 390.933 477.745 372.005 467.865C366.624 465.055 361.385 461.962 355.551 458.923C367.078 445.846 382.591 438.841 398.796 433.378C445.206 417.732 491.839 416.295 538.582 432.034C540.296 432.612 541.952 433.372 543.561 434.586C533.224 433.815 523.578 434.903 514.773 442.492C513.823 443.449 513.631 444.071 512.962 444.955C511.583 446.759 510.681 448.301 509.333 449.991C508.421 451.846 507.955 453.552 506.972 455.583C503.356 465.36 504.419 474.441 509.001 483.117C509.408 483.886 510.878 484.073 511.957 484.439C512.06 484.348 511.83 484.498 511.301 484.867C513.095 487.94 515.417 490.644 517.76 493.405C517.782 493.462 517.898 493.495 517.959 494.069C519.177 495.633 520.334 496.622 521.465 497.754C521.44 497.896 521.887 498.025 521.887 498.025C521.887 498.025 522.341 497.98 522.873 498.206C526.502 498.768 529.599 499.103 532.656 499.329C532.616 499.221 532.399 499.29 531.856 499.808C537.396 500.945 543.479 501.565 549.953 502.144C551.71 501.402 553.076 500.701 555.154 499.59C555.99 497.941 556.115 496.701 556.601 495.564C557.361 494.896 557.76 494.126 558.35 493.71C558.807 494.078 559.071 494.093 559.614 494.627C560.794 494.589 561.695 494.031 563.081 493.11C562.564 492.133 561.562 491.519 560.929 491.224C562.545 490.447 563.793 489.353 565.69 488.512C566.865 487.578 567.392 486.39 567.849 485.163C567.779 485.124 567.921 485.182 568.468 484.876C569.139 483.739 569.262 482.907 569.66 481.885C570.142 481.173 569.995 480.795 570.035 480.288C570.204 473.753 569.833 467.49 569.723 460.99C570.127 460.175 569.916 459.806 569.327 459.088C568.685 456.782 568.067 455.035 567.749 453.01C568.239 452.536 568.43 452.341 568.622 452.147C579.983 467.716 581.603 484.804 575.939 503.424Z" fill="#FDFDFD"/>
<path d="M251.338 236.547C248.817 228.006 246.297 219.466 244.07 210.065C244.611 206.558 245.026 203.913 245.071 201.261C245.157 196.181 244.727 191.076 245.059 186.019C245.862 173.778 246.979 161.559 247.97 149.331C285.364 107.127 352.06 109.565 384.874 146.015C370.104 148.774 354.132 150.346 339.025 154.895C313.285 162.644 291.811 178.13 273.989 198.476C271.361 201.476 269.72 207.124 270.398 211.051C272.531 223.42 275.986 235.553 279.146 248.677C275.888 250.313 271.583 252.475 266.294 254.456C260.653 248.366 255.995 242.456 251.338 236.547ZM319.258 154.695C321.744 152.733 324.578 151.091 326.651 148.751C333.819 140.662 330.989 131.229 320.692 128.199C310.96 125.336 296.504 130.128 290.299 138.273C284.101 146.409 286.479 155.822 296.474 157.516C303.432 158.696 311 156.147 319.258 154.695Z" fill="#FBFBFC"/>
<path d="M440.056 361.893C420.96 367.147 402.42 372.186 383.967 377.537C378.251 379.194 375.234 377.528 373.73 371.732C369.508 355.474 365.233 339.227 360.663 323.068C359.047 317.355 361.242 314.501 366.23 313.111C388.498 306.906 410.815 300.878 433.05 294.553C438.606 292.973 441.491 295.189 442.867 300.233C447.285 316.434 451.56 332.674 455.934 348.887C457.346 354.123 455.892 357.596 450.471 358.991C447.174 359.84 443.919 360.857 440.056 361.893ZM370.61 323.413C364.684 331.356 370.543 341.766 378.564 342.573C384.644 343.184 389.027 340.494 391.199 334.831C393.283 329.395 391.72 324.476 387.126 321.071C381.638 317.001 376.261 317.786 370.61 323.413ZM378.687 356.259C381.239 358.081 383.611 360.765 386.418 361.374C387.886 361.692 391.045 358.717 391.81 356.614C393.373 352.317 391.474 348.483 386.93 347.646C381.704 346.683 378.815 349.663 378.687 356.259Z" fill="#B2DFFC"/>
<path d="M314.301 419.018C280.692 434.952 245.234 440.794 208.428 438.721C198.803 438.179 189.234 436.609 179.961 435.547C176.897 419.308 178.233 404.733 184.765 390.781C201.365 394.714 217.095 399.944 233.203 401.832C249.257 403.714 265.69 402.244 282.658 402.244C283.044 402.943 284.064 404.786 285.084 406.63C292.343 405.514 299.602 404.399 307.609 402.597C309.149 399.794 309.941 397.677 311.045 394.726C312.771 395.168 314.668 395.655 316.565 396.142C316.676 396.872 316.786 397.603 316.464 399.339C315.455 406.568 314.878 412.793 314.301 419.018Z" fill="#D2EDFC"/>
<path d="M519.21 253.749C507.184 247.964 495.157 242.179 483.965 236.796C486.504 216.459 488.52 197.299 491.38 178.27C494.169 159.705 495.582 158.487 514.184 155.756C520.364 154.849 526.753 155.419 533.574 156.311C533.117 172.536 533.237 187.946 530.856 202.944C528.136 220.07 523.189 236.83 519.21 253.749Z" fill="#FDFDFD"/>
<path d="M494.154 273.545C504.867 285.829 515.992 297.554 533.377 302.601C511.139 322.8 486.713 336.877 458.237 344.909C454.156 329.869 450.243 315.119 446.089 300.44C445.315 297.705 443.568 295.256 442.455 291.888C459.811 285.249 476.982 279.397 494.154 273.545Z" fill="#D2EEFD"/>
<path d="M285.137 406.041C284.062 404.787 283.042 402.943 282.656 402.244C265.688 402.244 249.255 403.714 233.201 401.832C217.093 399.944 201.363 394.714 185.197 390.45C193.802 370.045 216.056 357.038 237.484 358.415C248.915 359.15 260.428 358.489 271.897 358.76C273.867 358.807 277.026 359.888 277.564 361.307C282.937 375.473 287.328 389.907 285.137 406.041Z" fill="#FDFDFD"/>
<path d="M328.91 223.109C334.381 216.959 339.852 210.809 345.542 204.412C345.568 204.427 347.419 205.491 349.269 206.556C349.653 205.92 350.037 205.285 350.421 204.65C344.854 200.831 344.248 196.212 348.877 185.94C350.43 188.969 351.65 191.052 352.603 193.255C356.229 201.633 361.283 208.179 369.867 212.361C384.483 219.481 387.005 227.873 381.211 243.327C380.181 246.075 380.249 249.431 380.484 252.452C381.014 259.266 379.179 264.414 371.947 265.644C363.417 267.094 354.827 268.222 346.234 269.227C338.817 270.094 334.355 266.635 332.636 259.13C332.275 257.553 330.422 256.329 328.686 255.15C327.655 253.539 327.193 251.718 327.041 251.116C325.456 252.609 323.661 255.755 321.867 255.754C310.342 255.746 298.814 255.054 292.475 244.887C297.479 238.929 302.062 233.373 306.769 227.926C308.228 226.237 310.02 224.846 311.543 223.9C313.204 228.706 313.05 234.474 319.965 235.872C319.965 232.549 319.965 230.113 320.494 227.655C323.653 226.125 326.282 224.617 328.91 223.109ZM336.079 249.748C335.707 250.702 335.335 251.656 334.963 252.61C335.787 252.817 336.612 253.023 337.985 254.168C351.581 260.679 364.545 261.022 375.789 251.019C374.787 246.011 373.944 241.795 373.822 236.907C375.581 233.104 377.341 229.301 379.34 224.981C371.004 229.517 363.864 233.402 357.031 237.12C358.241 237.855 360.19 239.039 363.083 240.556C365.87 240.839 368.658 241.122 370.821 241.341C373.683 250.373 369.192 253.055 361.884 254.75C353.537 256.686 346.063 254.851 338.283 251.266C338.022 250.954 337.871 250.593 338.521 249.884C338.545 249.577 338.57 249.27 338.595 248.963C338.054 249.06 337.513 249.157 336.079 249.748Z" fill="#F5F7F8"/>
<path d="M320.973 166.311C322.914 165.316 324.822 164.244 326.803 163.34C338.115 158.176 341.305 159.059 350.169 170.572C345.779 170.917 342.08 171.208 337.714 171.551C338.661 173.843 339.529 175.943 340.43 178.126C338.604 182.17 329.203 179.822 332.255 187.293C332.931 188.949 338.481 188.541 342.374 189.18C342.822 199.48 337.455 208.57 330.86 218.175C328.882 214.973 327.416 212.601 325.6 209.663C324.382 213.184 323.388 216.056 321.746 220.799C316.091 216.206 311.361 212.364 307.932 209.58C309.513 204.573 310.662 200.939 311.81 197.304C309.736 197.388 306.606 196.631 305.78 197.707C302.836 201.543 300.675 206.003 298.217 210.227C300.346 210.657 302.475 211.087 306.15 211.83C302.115 219.069 297.821 226.771 292.779 235.815C289.987 232.173 288.577 230.335 287.187 228.522C285.371 231.58 283.469 234.784 281.567 237.988C280.869 237.991 280.17 237.993 279.472 237.996C277.344 227.958 274.905 217.971 273.325 207.844C272.967 205.55 275.242 202.506 276.91 200.276C280.279 195.769 284.062 191.584 288.449 186.34C290.867 191.712 292.32 194.938 293.87 198.381C302.605 194.535 307.387 188.106 310.239 179.02C312.746 180.813 314.689 183.103 316.945 185.761C322.012 179.312 322.312 172.979 320.973 166.311Z" fill="#A1D9FA"/>
<path d="M519.615 254.055C523.188 236.83 528.135 220.07 530.855 202.944C533.236 187.946 533.116 172.536 534.107 156.609C546.219 157.245 548.018 158.713 549.235 168.719C544.876 168.719 540.568 168.719 535.79 168.719C537.064 177.051 538.247 184.797 539.491 192.931C544.374 192.931 548.915 192.931 555.597 192.931C556.81 216.296 558.005 239.32 559.237 263.05C543.775 264.143 531.958 258.966 519.615 254.055Z" fill="#D1ECFA"/>
<path d="M493.929 273.059C476.984 279.397 459.813 285.249 442.227 291.419C434.538 276.367 424.047 263.878 407.705 254.677C431.73 251.455 453.703 248.508 476.094 245.505C481.424 253.698 487.563 263.135 493.929 273.059Z" fill="#FCFCFC"/>
<path d="M388.775 433.327C377.356 440 365.562 445.324 355.783 453.231C338.644 467.089 334.455 479.15 332.974 507.721C321.982 504.47 310.107 487.631 311.37 476.42C311.638 474.039 313.482 471.482 315.264 469.694C331.104 453.804 348.462 440.534 371.147 436.412C373.81 435.928 378.595 436.604 377.645 430.753C377.531 430.051 380.435 428.387 382.141 427.904C396.679 423.787 411.305 419.99 425.797 415.717C428.741 414.849 431.885 412.921 433.796 410.534C438.481 404.685 442.5 398.282 447.704 390.782C445.725 401.223 444.073 409.944 442.608 417.672C424.716 422.865 407.011 428.004 388.775 433.327Z" fill="#64C3F3"/>
<path d="M447.373 413.574C446.968 401.089 451.725 392.623 463.398 386.842C488.443 374.437 514.071 367.46 542.29 372.827C526.354 376.435 516.963 385.918 514.74 402.993C513.364 403.064 512.657 402.482 512.02 402.552C494.742 404.442 477.422 406.053 460.235 408.595C456.096 409.207 449.06 407.447 448.712 415.587C448.266 414.916 447.82 414.245 447.373 413.574Z" fill="#FBFBFC"/>
<path d="M375.822 388.635C388.778 385.546 401.777 382.628 414.678 379.315C425.965 376.417 437.142 373.075 448.765 369.817C449.397 377.6 448.905 384.557 443.706 390.778C439.621 395.666 436.075 401.082 432.768 406.562C430.057 411.055 426.518 413.236 420.337 412.739C409.029 407.515 398.706 402.78 388.66 397.499C384.098 395.101 380.084 391.623 375.822 388.635Z" fill="#FBFBFC"/>
<path d="M544.387 554.704C547.304 554.544 550.222 554.383 554.096 554.661C561.705 557.356 568.212 560.556 575.043 561.632C583.739 563 592.157 561.313 597.292 552.527C610.073 558.207 622.855 563.886 636.116 569.779C628.646 572.617 626.427 579.131 627.821 588.082C612.734 584.831 597.99 581.502 583.676 576.812C569.289 572.098 555.722 565.313 544.387 554.704Z" fill="#65C5FA"/>
<path d="M532.527 559.024C537.675 562.427 540.087 567.345 541.921 573.318C544.708 582.398 548.846 591.049 552.694 600.586C544.583 597.13 538.214 598.948 532.871 606.369C525.054 593.33 517.209 580.664 511.387 567.097C506.88 556.594 504.906 544.965 501.807 533.837C503.822 534.002 505.838 534.167 508.511 535C510.465 538.592 511.478 541.692 513.114 544.404C517.626 551.882 522.566 558.966 532.527 559.024Z" fill="#64C4F8"/>
<path d="M541.348 452.985C543.325 449.077 545.302 445.169 547.822 440.188C551.036 442.363 554.327 444.59 558.231 447.436C560.005 449.316 561.167 450.576 562.571 452.358C562.244 455.404 561.674 457.927 560.909 460.798C560.117 462.33 559.52 463.513 558.861 465.251C558.591 466.512 558.383 467.218 558.008 468.166C557.724 468.982 557.608 469.556 556.93 470.24C555.765 472.019 555.163 473.686 554.574 475.364C554.587 475.374 554.566 475.348 553.954 475.301C552.772 477.302 552.201 479.351 551.658 481.386C551.685 481.373 551.699 481.312 551.367 480.715C549.147 481.465 547.364 483.007 545.352 484.123C538.459 487.948 531.486 491.624 524.081 494.99C521.711 494.248 519.805 493.871 517.898 493.495C517.898 493.495 517.782 493.462 518.403 493.17C516.626 490.085 514.228 487.291 511.83 484.498C511.83 484.498 512.061 484.348 512.423 484.007C513.045 481.889 513.304 480.113 513.552 478.347C513.541 478.358 513.515 478.375 513.908 479.041C515.52 478.259 516.739 476.811 517.949 475.369C517.94 475.374 517.925 475.389 518.398 476.042C520.023 475.019 521.177 473.344 522.404 471.261C523.687 469.395 524.895 467.936 526.457 467.219C528.54 467.199 530.27 466.438 532.345 465.368C532.912 464.519 533.134 463.978 533.582 463.03C534.824 459.677 535.841 456.731 536.859 453.784C536.859 453.784 537.286 454.236 537.817 454.728C539.348 454.475 540.348 453.73 541.348 452.985Z" fill="#65C4F7"/>
<path d="M195.775 369.67C176.223 387.55 173.179 410.245 175.825 434.636C167.793 434.652 163.773 430.72 163.596 423.036C163.38 413.635 162.389 404.091 163.571 394.852C166.025 375.657 179.52 362.585 198.79 359.212C203.471 358.393 208.23 358.034 214.08 357.328C207.389 361.809 201.78 365.566 195.775 369.67Z" fill="#64C3F4"/>
<path d="M198.764 314.568C203.305 313.382 207.271 312.356 211.938 311.148C215.759 325.347 219.503 339.258 223.354 353.567C212.753 351.666 202.795 349.984 192.899 347.978C191.634 347.722 190.107 345.96 189.707 344.591C187.355 336.537 185.301 328.393 182.914 319.406C188.209 317.785 193.199 316.256 198.764 314.568Z" fill="#F97200"/>
<path d="M402.857 266.181C404.394 263.75 405.932 261.32 407.57 258.731C420.656 266.159 430.072 276.393 436.764 289.981C415.614 295.833 394.846 301.579 373.656 306.943C375.256 305.27 377.251 303.93 379.305 302.695C391.464 295.386 400.127 285.254 403.642 271.099C404.009 269.622 403.148 267.828 402.857 266.181Z" fill="#FAFAFA"/>
<path d="M151.015 423.558C141.295 415.343 143.664 404.527 144.981 394.93C148.711 367.762 171.81 351.512 200.23 354.925C163.288 363.339 154.604 389.988 161.075 430.098C157.4 427.736 154.422 425.822 151.015 423.558Z" fill="#64C3F4"/>
<path d="M568.917 389.248C569.51 391.022 570.358 392.574 569.97 393.675C565.533 406.27 558.86 417.272 547.65 424.866C538.951 430.759 528.734 428.043 523.318 418.047C537.476 408.334 549.967 396.954 555.777 378.057C560.569 382.078 564.583 385.447 568.917 389.248Z" fill="#65C4F7"/>
<path d="M291.451 269.162C295.253 273.25 299.055 277.337 303.41 282.019C291.441 285.329 279.701 288.716 267.864 291.703C266.049 292.161 263.596 291.15 261.76 290.184C251.259 284.662 242.332 277.223 235.639 267.433C245.9 264.6 256.044 261.8 266.756 259.568C267.383 260.918 267.443 261.7 267.296 262.968C263.418 268.158 262.692 273.599 267.256 277.332C270.087 279.648 275.374 280.859 278.855 279.904C285.006 278.217 285.715 272.338 285.32 266.528C287.244 266.711 288.631 266.854 290.018 266.997C290.018 266.997 289.973 267.145 289.977 267.646C290.471 268.486 290.961 268.824 291.451 269.162Z" fill="#D1EBF7"/>
<path d="M375.489 388.259C380.086 391.623 384.099 395.101 388.661 397.499C398.708 402.78 409.031 407.515 419.772 412.717C405.639 417.179 390.976 421.397 375.863 425.745C371.825 410.649 367.683 395.161 363.867 379.091C364.518 378.474 364.842 378.441 365.167 378.407C368.496 381.566 371.825 384.725 375.489 388.259Z" fill="#D2ECFA"/>
<path d="M447.055 414.08C447.82 414.245 448.266 414.916 448.713 415.586C449.06 407.447 456.097 409.207 460.236 408.595C477.423 406.053 494.743 404.442 512.021 402.552C512.658 402.482 513.364 403.063 514.566 403.548C516.771 410.063 518.449 416.372 520.166 422.827C497.346 417.836 473.94 416.149 450.322 418.524C447.106 418.847 445.612 418.094 447.055 414.08Z" fill="#D1EBF9"/>
<path d="M311.662 223.319C310.022 224.846 308.23 226.237 306.771 227.926C302.065 233.372 297.481 238.929 292.477 244.887C298.817 255.054 310.344 255.746 321.869 255.754C323.663 255.755 325.459 252.609 327.043 251.116C327.196 251.718 327.657 253.539 328.534 255.667C330.253 259.586 331.555 263.198 332.876 266.86C301.919 272.912 287.422 263.851 281.736 241.317C287.123 238.737 293.649 237.176 297.928 233.143C302.702 228.645 305.433 221.9 309.221 215.867C310.857 217.089 312.834 218.822 315.043 220.158C318.533 222.269 322.14 225.247 325.958 220.465C326.059 220.339 327.828 221.594 328.866 222.657C326.284 224.617 323.655 226.125 320.078 227.367C316.64 225.841 314.151 224.58 311.662 223.319Z" fill="#D1EBF7"/>
<path d="M402.471 266.45C403.147 267.828 404.008 269.622 403.641 271.1C400.127 285.254 391.463 295.386 379.305 302.695C377.25 303.93 375.255 305.27 373.067 307.082C367.461 309.699 362.02 311.794 355.544 314.127C351.877 314.798 349.244 315.231 346.612 315.664C345.357 311.428 344.101 307.192 342.635 302.242C366.112 296.319 386.871 286.201 402.471 266.45Z" fill="#D2EDFB"/>
<path d="M222.506 467.437C220.257 459.014 218.227 451.178 215.936 442.336C226.356 442.336 236.201 442.336 247.031 442.336C248.911 449.197 251.028 456.922 253.378 465.499C244.358 467.983 235.865 470.539 227.232 472.438C226.095 472.688 224.245 469.578 222.506 467.437Z" fill="#F97200"/>
<path d="M526.105 466.477C524.896 467.936 523.688 469.395 521.849 471.113C520.122 472.71 519.024 474.049 517.926 475.389C517.926 475.389 517.941 475.374 517.49 475.042C515.865 475.932 514.69 477.153 513.516 478.375C513.516 478.375 513.542 478.358 513.023 478.139C510.982 473.813 509.459 469.706 508.124 465.309C508.449 464.542 508.377 464.101 508.383 463.036C508.277 460.004 507.883 457.631 507.49 455.258C507.956 453.552 508.422 451.846 509.924 450.721C512.978 449.562 517.074 448.631 513.441 444.693C513.632 444.071 513.824 443.449 514.252 442.828C516.295 442.919 518.556 443.767 519.831 442.973C527.016 438.5 534.459 436.77 543.991 439.404C541.768 444.2 539.76 448.532 537.306 453.324C535.842 456.731 534.825 459.677 533.609 462.261C532.932 461.738 532.453 461.578 531.651 461.463C530.347 462.668 529.366 463.829 527.98 465.199C527.084 465.764 526.595 466.121 526.105 466.477Z" fill="#65C4F7"/>
<path d="M194.8 223.72C194.138 209.224 198.643 196.955 207.019 184.181C209.387 204.406 212.291 223.179 229.681 237.316C217.466 238.388 207.558 237.556 198.736 231.69C196.741 230.364 196.159 226.836 194.8 223.72Z" fill="#F67100"/>
<path d="M247.515 149.577C246.977 161.559 245.859 173.778 245.056 186.019C244.724 191.076 245.155 196.181 245.068 201.261C245.023 203.913 244.609 206.558 243.865 209.572C237.323 204.404 230.928 200.397 221.762 205.769C224.436 183.721 232.895 165.458 247.515 149.577Z" fill="#D2ECFA"/>
<path d="M489.081 248.115C509.292 262.516 529.682 275.361 553.715 280.693C551.218 291.754 547.426 294.067 537.268 289.871C516.444 281.272 500.605 265.913 485.548 249.579C483.468 247.323 481.525 244.938 480.412 241.587C483.163 243.654 485.913 245.722 489.081 248.115Z" fill="#64C3F2"/>
<path d="M382.139 265.572C387.732 273.177 387.274 278.456 379.962 282.59C370.048 288.196 359.675 292.962 348.647 298.517C347.186 290.265 346.052 283.855 344.85 277.059C357.112 273.313 369.365 269.57 382.139 265.572Z" fill="#D1EBF7"/>
<path d="M344.417 98.2586C346.534 105.181 348.259 111.659 349.984 118.137C349.227 118.79 348.47 119.443 347.713 120.095C331.766 114.309 315.819 108.522 298.656 102.295C313.923 95.3329 328.398 91.2883 344.417 98.2586Z" fill="#F87201"/>
<path d="M543.811 554.574C555.724 565.313 569.29 572.098 583.677 576.812C597.991 581.503 612.735 584.831 627.927 588.721C629.735 591.368 630.906 594.052 632.101 596.787C609.093 599.017 541.889 568.607 535.311 552.66C538.158 553.301 540.696 553.872 543.811 554.574Z" fill="#33B0ED"/>
<path d="M303.495 383.536C303.568 389.653 303.568 395.095 303.568 401.062C299.046 401.727 294.504 402.395 290.718 402.952C287.962 388.862 285.225 374.865 282.295 359.882C286.795 359.546 292.184 359.143 298.745 358.653C300.354 366.979 301.889 374.92 303.495 383.536Z" fill="#B0DCF7"/>
<path d="M539.32 400.117C533.462 405.272 527.957 410.038 521.648 415.501C517.717 404.504 518.258 395.328 524.584 387.109C531.362 378.302 540.448 375.531 553.783 378.105C548.541 386.139 544.107 392.934 539.32 400.117Z" fill="#64C4F6"/>
<path d="M141.628 392.807C141.517 399.395 141.517 405.337 141.517 411.679C133.507 403.463 131.577 385.737 137.683 372.65C147.131 352.399 165.558 351.357 184.446 351.291C162.118 356.314 146.3 368.217 141.628 392.807Z" fill="#62C0ED"/>
<path d="M596.999 552.127C592.157 561.314 583.739 563 575.043 561.632C568.212 560.557 561.705 557.356 554.723 554.661C565.688 549.063 567.944 546.889 572.827 536.339C580.8 541.477 588.754 546.602 596.999 552.127Z" fill="#33B0EF"/>
<path d="M501.303 533.652C504.905 544.965 506.879 556.594 511.386 567.097C517.207 580.663 525.053 593.329 532.465 606.671C531.655 609.885 530.409 612.813 528.789 616.617C511.968 590.444 500.845 562.724 494.9 531.787C497.35 532.485 499.075 532.976 501.303 533.652Z" fill="#33B0EF"/>
<path d="M422.492 373.711C408.976 377.421 396.07 381.102 383.089 384.481C375.649 386.418 370.371 383.712 368.25 376.426C363.682 360.728 359.488 344.915 355.362 329.089C354.729 326.662 355.273 323.917 356.483 321.112C360.932 337.496 365.376 353.882 369.831 370.265C372.897 381.536 375.948 383.248 387.342 380.086C409.377 373.973 431.41 367.851 453.443 361.733C453.7 362.571 453.957 363.409 454.214 364.248C443.833 367.35 433.452 370.452 422.492 373.711Z" fill="#63C2E4"/>
<path d="M533.947 547.489C530.725 544.228 527.957 541.287 525.189 538.346C541.54 541.251 555.698 539.307 567.338 527.008C570.671 534.765 568.571 541.864 561.277 546.76C552.616 552.574 543.556 552.683 533.947 547.489Z" fill="#AFDBF4"/>
<path d="M543.933 274.455C527.53 266.443 511.67 258.66 495.811 250.877C496.176 249.921 496.542 248.965 496.908 248.008C516.427 255.536 534.848 266.944 557.468 266.723C557.1 270.264 556.768 273.46 556.337 277.607C551.832 276.497 548.154 275.591 543.933 274.455Z" fill="#63C2EE"/>
<path d="M549.958 433.066C548.37 432.304 547.298 431.815 545.186 430.851C558.35 422.789 566.962 411.537 572.353 397.464C576.72 406.113 576.126 415.793 570.274 423.635C565.404 430.161 559.465 435.174 549.958 433.066Z" fill="#64C3F2"/>
<path d="M335.32 447.843C325.959 455.988 316.742 463.619 307.335 471.407C303.589 467.672 299.17 463.267 293.529 457.644C308.441 453.976 321.952 450.652 335.32 447.843Z" fill="#D2ECF7"/>
<path d="M197.688 168.697C198.791 165.894 199.604 163.571 200.424 161.252C207.193 170.693 207.031 176.305 201.714 186.347C197.412 194.475 194.309 203.262 190.85 211.346C191.244 197.521 190.502 182.813 197.688 168.697Z" fill="#F67100"/>
<path d="M524.693 295.661C510.079 287.815 500.2 275.849 491.572 262.436C507.257 275.803 522.608 289.6 543.813 295.594C537.145 302.981 531.106 297.648 524.693 295.661Z" fill="#63C2EE"/>
<path d="M316.658 395.527C314.666 395.655 312.769 395.169 311.043 394.726C309.939 397.677 309.147 399.794 307.861 402.05C307.091 387.095 307.351 371.927 300.986 357.693C301.491 357.125 301.996 356.557 302.501 355.989C304.598 357.749 307.964 359.14 308.581 361.333C311.698 372.412 314.101 383.699 316.658 395.527Z" fill="#EAEFF0"/>
<path d="M242.037 241.071C232.706 240.719 229.76 237.275 230.886 225.526C231.137 222.908 236.769 220.582 240.218 218.676C241.189 218.14 244.393 219.324 244.558 220.141C245.768 226.136 246.647 232.223 247.106 238.322C247.165 239.109 244.214 240.13 242.037 241.071Z" fill="#64C3F4"/>
<path d="M251.192 237.118C255.994 242.456 260.651 248.366 265.774 254.52C250.602 262.52 233.961 264.479 230.957 258.918C243.498 258.604 248.111 253.73 251.192 237.118Z" fill="#D2ECF7"/>
<path d="M283.414 90.3967C296.388 87.9069 309.338 87.7891 322.855 89.8255C313.138 93.5153 304.473 98.2882 295.301 99.7336C289.783 100.603 283.478 96.2893 277.828 93.8119C279.398 92.864 280.665 92.4091 282.38 91.818C283.051 91.2186 283.276 90.7553 283.455 90.298C283.409 90.3041 283.414 90.3967 283.414 90.3967Z" fill="#F87200"/>
<path d="M532.355 558.509C522.569 558.966 517.629 551.882 513.117 544.404C511.481 541.692 510.468 538.591 509.092 535.186C515.855 532.477 521.423 531.911 523.956 541.289C525.547 547.179 529.362 552.447 532.355 558.509Z" fill="#33B0ED"/>
<path d="M298.316 269.146C306.679 269.79 315.034 270.632 323.408 271.015C330.153 271.324 336.922 271.078 343.677 272.721C332.662 275.008 321.714 278.27 310.595 279.075C306.453 279.375 301.911 273.929 297.607 270.427C297.881 269.55 298.099 269.348 298.316 269.146Z" fill="#62C0ED"/>
<path d="M311.662 176.835C310.135 177.611 308.138 178 307.165 179.23C303.314 184.094 299.783 189.221 295.956 194.495C290.566 188.158 292.137 184.354 297.415 181.042C304.268 176.742 310.965 172.183 318.678 167.778C318.693 171.882 317.758 175.944 316.619 180.896C314.166 178.886 312.914 177.86 311.662 176.835Z" fill="#8AD2F3"/>
<path d="M565.333 443.863C563.025 441.739 560.717 439.614 558.887 437.93C564.626 433.078 570.501 428.111 577.699 422.026C575.554 431.047 573.557 439.452 571.283 449.018C569.27 447.169 568.319 446.295 566.863 444.89C566.107 443.999 565.765 443.834 565.333 443.863Z" fill="#CEE6F0"/>
<path d="M170.401 348.114C167.721 348.412 165.666 348.599 161.605 348.968C169.146 342.195 175.222 336.737 182.113 330.547C183.796 336.537 185.21 341.573 186.663 346.747C181.132 347.191 176.079 347.597 170.401 348.114Z" fill="#F4F5F5"/>
<path d="M550.191 179.764C550.79 183.259 551.311 186.126 551.909 189.424C548.729 189.424 546.131 189.424 542.68 189.424C541.729 184.181 540.735 178.698 539.646 172.692C542.594 172.692 545.165 172.692 548.506 172.692C548.968 174.546 549.541 176.841 550.191 179.764Z" fill="#AFDBF4"/>
<path d="M394.144 244.617C392.476 246.701 390.397 248.42 388.071 250.343C390.658 252.684 392.62 254.459 395.342 256.922C391.029 258.667 387.379 260.143 383.012 261.909C383.42 254.645 383.789 248.085 384.21 240.596C388.368 242.192 391.051 243.223 394.144 244.617Z" fill="#61BDE9"/>
<path d="M223.751 213.758C221.701 207.53 226.569 206.638 229.562 207.017C233.681 207.539 237.545 210.147 243.41 212.678C236.835 215.617 232.624 217.499 228.169 219.491C227.033 217.989 225.576 216.062 223.751 213.758Z" fill="#63C2F0"/>
<path d="M245.592 246.083C240.312 255.551 237.474 256.706 228.9 252.926C229.933 249.849 230.983 246.722 232.121 243.334C236.841 244.105 241.285 244.831 245.592 246.083Z" fill="#61BDE9"/>
<path d="M267.506 262.481C267.446 261.7 267.386 260.918 267.318 259.549C271.923 256.447 276.535 253.933 281.259 251.358C284.099 256.403 286.831 261.256 289.792 266.553C288.634 266.854 287.248 266.711 284.927 266.184C279.68 258.605 273.885 259.042 267.506 262.481Z" fill="#E7EBEC"/>
<path d="M371.139 158.934C370.248 168.9 364.092 175.01 355.445 179.71C354.794 177.103 355.006 174.714 355.219 172.325C355.235 171.742 355.251 171.159 355.78 170.09C361.242 166.048 366.19 162.491 371.139 158.934Z" fill="#AFDBF4"/>
<path d="M346.574 316.248C349.247 315.231 351.88 314.798 355.091 314.352C351.303 319.693 350.762 325.666 352.62 332.177C354.747 339.636 356.653 347.16 358.351 355.266C357.704 355.914 357.362 355.952 357.02 355.99C353.525 342.938 350.03 329.885 346.574 316.248Z" fill="#E3E3E3"/>
<path d="M399.921 264.001C396.515 267.903 393.459 271.388 389.67 275.708C388.79 271.338 388.107 267.947 387.293 263.909C392.498 261.641 397.706 259.372 404.71 256.32C402.608 259.759 401.44 261.671 399.921 264.001Z" fill="#D0E8F3"/>
<path d="M494.782 524.471C505.557 521.464 505.557 521.464 513.662 529.914C505.873 531.504 499.211 530.802 493.431 525.465C493.383 525.421 493.501 525.097 493.617 524.982C493.787 524.814 494.025 524.716 494.782 524.471Z" fill="#B2DFFC"/>
<path d="M240.908 293.271C247.092 287.719 253.262 286.507 259.822 294.077C255.27 295.358 250.885 296.592 245.738 297.379C243.621 295.711 242.264 294.491 240.908 293.271Z" fill="#CEE6F0"/>
<path d="M281.93 91.9542C280.662 92.4092 279.395 92.8641 277.591 93.3219C271.854 89.5358 268.886 84.5869 269.156 77.1653C274.132 81.472 278.7 85.4242 283.34 89.8866C283.412 90.3968 283.407 90.3042 283.045 90.4485C282.432 91.0466 282.181 91.5004 281.93 91.9542Z" fill="#C53E00"/>
<path d="M340.566 294.347C339.12 288.886 337.762 283.975 336.176 278.235C338.169 278.235 340.807 277.95 340.882 278.277C342.395 284.849 343.612 291.493 344.889 298.122C344.075 298.284 343.262 298.446 342.448 298.609C341.85 297.371 341.252 296.134 340.566 294.347Z" fill="#C5DAE0"/>
<path d="M371.11 158.384C366.191 162.491 361.242 166.048 355.753 169.645C354.071 168.229 352.929 166.773 351.158 164.515C358.265 162.132 364.673 159.983 371.11 158.384Z" fill="#F4F5F5"/>
<path d="M240.39 293.352C242.261 294.491 243.617 295.711 245.16 297.358C238.216 299.957 231.085 302.13 223.953 304.303C223.755 303.84 223.556 303.376 223.357 302.912C228.863 299.753 234.369 296.593 240.39 293.352Z" fill="#EAEFF0"/>
<path d="M311.224 176.921C312.913 177.861 314.165 178.886 316.619 180.896C317.758 175.945 318.692 171.883 319.153 167.494C319.224 166.852 319.769 166.538 320.643 166.267C322.313 172.979 322.012 179.312 316.945 185.761C314.689 183.103 312.746 180.813 310.31 178.479C310.14 177.959 310.463 177.483 311.224 176.921Z" fill="#2D2F30"/>
<path d="M195.558 154.791C196.274 158.058 196.531 160.986 196.788 163.914C196.265 164.031 195.741 164.147 195.218 164.264C192.273 160.392 189.328 156.52 186.383 152.648C186.608 152.206 186.834 151.764 187.06 151.322C189.739 152.365 192.419 153.408 195.558 154.791Z" fill="#C53E00"/>
<path d="M218.596 214.355C222.396 219.159 225.646 223.942 228.895 228.724C227.771 229.383 226.648 230.042 225.524 230.7C223.031 225.245 220.537 219.79 218.596 214.355Z" fill="#DD4E06"/>
<path d="M354.672 172.41C355.006 174.715 354.794 177.103 354.947 179.841C349.039 185.992 347.949 177.178 343.998 175.683C347.374 174.62 350.75 173.557 354.672 172.41Z" fill="#63C2EE"/>
<path d="M357.078 356.548C357.358 355.952 357.7 355.914 358.556 355.843C361.061 362.971 363.05 370.131 365.102 377.849C364.839 378.441 364.515 378.474 363.701 378.506C361.188 371.372 359.164 364.239 357.078 356.548Z" fill="#C5DAE0"/>
<path d="M314.85 418.783C314.876 412.793 315.453 406.569 316.334 399.884C316.226 405.798 315.813 412.173 314.85 418.783Z" fill="#EAEFF0"/>
<path d="M564.827 443.932C565.764 443.834 566.105 443.999 566.434 444.648C566.449 445.751 566.387 446.564 565.797 447.987C565.275 449.498 565.281 450.4 564.545 451.423C563.311 451.641 562.82 451.739 562.328 451.836C561.166 450.576 560.004 449.316 558.672 447.656C558.979 446.955 559.456 446.654 560.191 445.935C560.448 445.517 560.53 445.421 560.53 445.421C561.795 444.948 563.059 444.475 564.827 443.932Z" fill="#10171A"/>
<path d="M565.289 451.302C565.282 450.401 565.276 449.498 565.775 448.599C566.903 449.545 567.525 450.488 568.385 451.789C568.431 452.341 568.24 452.535 567.392 452.868C566.254 452.439 565.771 451.87 565.289 451.302Z" fill="#FDFDFD"/>
<path d="M552.398 438.858C551.787 438.969 551.41 438.847 551.033 438.725C551.455 438.305 551.877 437.885 552.299 437.465C552.41 437.851 552.521 438.238 552.398 438.858Z" fill="#10171A"/>
<path d="M297.309 270.018C296.604 269.557 296.253 268.829 295.902 268.102C296.56 268.205 297.218 268.308 298.096 268.778C298.098 269.348 297.881 269.55 297.309 270.018Z" fill="#62C0ED"/>
<path d="M540.718 453.037C540.348 453.73 539.348 454.475 538.123 454.765C538.628 453.903 539.358 453.496 540.718 453.037Z" fill="#10171A"/>
<path d="M560.405 445.559C560.193 445.34 560.027 445.079 559.861 444.818C560.012 444.88 560.164 444.943 560.424 445.213C560.534 445.421 560.452 445.517 560.405 445.559Z" fill="#10171A"/>
<path d="M291.303 268.787C290.963 268.824 290.473 268.486 290.051 267.672C290.464 267.601 290.809 268.007 291.303 268.787Z" fill="#E7EBEC"/>
<path d="M598.376 257.373C619.907 235.438 651.544 236.857 668.034 260.325C669.428 262.309 670.087 266.738 668.895 268.408C652.73 291.054 633.333 310.454 611.188 326.788C586.189 313.552 580.311 281.974 598.376 257.373Z" fill="#F8FDD3"/>
<path d="M643.604 303.344C653.748 292.012 663.52 281.046 673.159 270.229C680.561 285.959 676.655 306.38 663.411 319.51C650.275 332.534 630.409 336.244 615.473 328.639C624.674 320.376 633.953 312.043 643.604 303.344Z" fill="#F7FBD3"/>
<path d="M588.081 324.76C589.702 321.681 591.094 319.113 592.659 316.226C597.483 320.686 601.982 324.846 607.239 329.708C602.636 332.071 598.351 334.632 593.784 336.46C591.552 337.354 588.794 336.885 586.274 337.033C586.234 334.47 585.996 331.888 586.232 329.351C586.361 327.952 587.286 326.629 588.081 324.76Z" fill="#046DD5"/>
<path d="M672.577 260.056C668.687 255.614 665.204 251.538 660.846 246.439C666.137 244.098 671.206 241.52 676.513 239.637C679.601 238.542 683.318 239.711 681.787 243.778C679.591 249.614 675.987 254.901 672.577 260.056Z" fill="#056FD7"/>
<path d="M57.5359 494.778C56.1994 483.565 51.9721 479.633 41.0595 479.812C36.0417 479.894 31.0414 481.091 25.9177 481.799C21.3227 467.451 34.329 441.706 56.3876 435.187C56.775 437.314 57.2285 439.384 57.5185 441.477C58.3745 447.654 61.6653 451.661 67.2273 454.367C73.1201 457.233 78.9349 460.431 84.3135 464.184C90.227 468.309 93.4059 474.033 92.7737 481.93C91.9017 492.824 100.576 497.604 107.318 503.466C100.733 518.379 81.9984 526.95 61.0202 523.921C59.8793 514.643 58.6958 505.019 57.5359 494.778Z" fill="#D3EEFC"/>
<path d="M67.55 450.509C60.6498 446.698 60.1099 440.834 60.7918 434.015C79.7346 430.847 95.1565 436.484 106.665 451.907C117.116 465.914 118.18 485.867 109.649 500.322C101.6 495.036 95.4299 489.428 95.6165 477.959C95.7012 472.752 91.4697 466.275 87.3303 462.49C81.8621 457.489 74.5616 454.566 67.55 450.509Z" fill="#78B65E"/>
<path d="M57.7334 518.823C58.6252 524.136 56.1023 522.72 53.6639 521.838C39.6018 516.754 29.1206 503.708 25.7148 486.074C30.2748 485.044 34.8585 483.323 39.5132 483.094C50.8827 482.532 53.7136 486.616 53.6794 498.118C53.6595 504.817 56.2266 511.525 57.7334 518.823Z" fill="#77B55D"/>
<path d="M259.715 570.114C260.016 572.405 260.388 574.258 259.897 575.834C256.071 588.131 259.694 597.388 270.373 604.149C271.999 605.179 272.955 607.306 275.268 610.266C268.665 611.747 263.637 613.39 258.502 613.885C253.108 614.405 250.24 617.076 248.399 621.956C246.538 626.891 244.203 631.642 242.075 636.473C241.232 636.512 240.388 636.551 239.545 636.589C237.55 633.155 235.081 629.911 233.658 626.247C230.741 618.738 226.17 614.784 217.772 615.037C213.8 615.157 209.763 613.045 205.756 611.945C208.281 608.469 210.322 604.435 213.436 601.639C219.098 596.555 220.545 591.008 218.211 583.789C216.908 579.759 216.631 575.385 215.548 569.2C220.196 571.117 223.257 571.819 225.685 573.48C234.486 579.499 242.607 579.003 250.906 572.306C253.081 570.55 256.525 570.423 259.715 570.114Z" fill="#FB9B00"/>
<path d="M447.884 43.6395C445.872 39.4494 446.806 36.5545 450.983 37.8552C464.889 42.1861 475.29 38.2538 483.492 26.0916C486 22.3725 489.185 24.767 489.137 28.4955C488.946 43.2335 496.167 51.5734 509.653 55.6452C514.078 56.9812 512.841 59.9302 509.522 61.9082C507.425 63.1579 505.3 64.4651 503.027 65.2816C494.877 68.2085 491.227 73.9267 491.395 82.7151C491.463 86.3002 490.354 89.9086 489.499 95.27C485.921 92.603 482.936 91.3069 481.321 89.0114C474.845 79.8027 466.591 78.1398 456.475 81.4662C453.962 82.2924 450.983 81.6497 448.219 81.6823C448.874 78.9506 448.763 75.6098 450.313 73.5891C458.488 62.9303 454.778 53.4948 447.884 43.6395Z" fill="#FB9B00"/>
<path d="M688.963 374.279C696.755 380.468 702.003 373.591 709.24 370.677C706.875 380.932 707.545 389.625 717.917 395.194C707.568 396.666 699.635 400.274 697.782 412.288C693.856 401.495 686.986 396.911 676.109 397.374C684.481 390.654 687.265 382.744 682.335 372.007C685.429 373.018 686.935 373.51 688.963 374.279Z" fill="#F79B00"/>
<path d="M87.8387 237.498C83.9902 247.292 93.0923 250.026 97.3524 256.69C86.5224 256.581 79.5319 261.049 76.9069 272.187C72.7222 262.712 67.2271 256.456 54.332 259.375C58.6492 253.925 62.7237 250.818 63.7952 246.867C64.9084 242.762 63.1175 237.84 62.422 231.747C71.1617 237.811 79.57 238.975 87.9874 230.302C87.9874 233.678 87.9874 235.29 87.8387 237.498Z" fill="#F79B00"/>
<path d="M338.388 598.937C336.417 598.563 335.021 598.258 331.898 597.576C340.991 590.768 344.016 582.777 339.398 572.023C348.549 578.486 356.759 578.595 365.352 571.122C362.175 581.986 365.252 589.928 374.409 596.062C363.596 596.476 356.807 601.227 354.677 612.746C349.185 606.9 348.723 597.026 338.388 598.937Z" fill="#F79B00"/>
<path d="M654.097 112.58C650.699 115.112 647.861 117.577 645.605 119.536C642.009 117.071 637.752 114.154 634.297 111.786C635.462 107.648 636.873 102.64 638.169 98.0386C642.021 98.0386 647.058 98.0386 651.013 98.0386C652.752 101.571 654.904 105.747 656.773 110.049C656.956 110.47 655.404 111.673 654.097 112.58Z" fill="#F49A00"/>
<path d="M143.717 43.9786C145.973 42.9084 147.672 42.0274 148.434 41.6321C150.145 46.565 151.792 51.3144 153.374 55.8756C150.402 58.2004 146.268 61.4345 142.668 64.2505C139.323 61.9149 135.069 58.9442 130.725 55.9108C134.212 52.7569 137.346 48.2362 132.981 41.5603C137.315 42.6705 140.237 43.419 143.717 43.9786Z" fill="#F49A00"/>
<path d="M150.406 278.231C149.13 277.369 147.638 276.227 147.818 275.776C149.473 271.623 151.417 267.59 153.346 263.372C156.689 263.189 161.767 262.91 165.977 262.679C167.279 266.563 168.931 271.49 170.385 275.826C167.322 278.255 163.47 281.31 159.745 284.263C157.488 282.723 154.227 280.497 150.406 278.231Z" fill="#F49A00"/>
<path d="M462.126 703.461C463.324 699.276 464.15 695.493 464.817 692.444C469.121 692.444 474.009 692.444 478.865 692.444C480.174 696.192 481.96 701.307 483.373 705.354C480.015 707.992 475.999 711.147 472.59 713.825C469.12 711.481 464.86 708.603 460.303 705.525C460.29 705.541 461.022 704.702 462.126 703.461Z" fill="#EF9700"/>
<path d="M333.598 316.921C320.189 321.725 306.784 325.894 292.435 330.358C289.541 319.671 286.872 309.814 284.01 299.245C298.249 295.242 311.738 291.449 326.021 287.433C328.611 297.292 331.106 306.79 333.598 316.921ZM326.86 303.729C325.71 299.805 324.56 295.88 323.377 291.842C311.269 295.287 299.753 298.563 288.165 301.86C290.471 310.309 292.519 317.813 294.684 325.748C306.841 322.321 318.386 319.066 329.917 315.816C328.858 311.591 328.023 308.26 326.86 303.729Z" fill="#1A150C"/>
<path d="M557.494 470.129C557.611 469.556 557.727 468.982 558.52 468.829C560.118 467.633 561.039 466.018 561.961 464.402C560.949 464.5 559.937 464.599 558.925 464.697C559.523 463.513 560.12 462.33 561.306 461.523C564.381 461.149 566.868 460.398 569.356 459.647C569.92 459.806 570.13 460.175 568.963 460.983C567.96 466.244 567.875 471.28 568.071 476.304C568.127 477.739 568.999 479.141 569.497 480.559C569.998 480.794 570.145 481.173 568.711 481.841C567.631 483.052 567.778 484.117 567.924 485.182C567.924 485.182 567.782 485.124 567.185 484.727C566.073 485.639 565.559 486.949 565.044 488.259C563.797 489.353 562.549 490.447 560.646 491.74C559.382 492.412 558.772 492.884 558.162 493.356C557.763 494.126 557.364 494.896 555.859 495.947C554.65 497.485 554.548 498.743 554.446 500C553.08 500.701 551.713 501.402 550.298 501.403C544.299 500.232 538.351 499.761 532.402 499.29C532.402 499.29 532.62 499.22 532.26 498.854C533.247 497.391 534.628 496.335 535.935 495.191C541.203 490.579 546.448 485.941 551.702 481.313C551.702 481.313 551.688 481.373 552.244 481.29C553.39 479.254 553.979 477.301 554.569 475.348C554.569 475.348 554.59 475.374 554.987 475.907C556.088 474.336 556.791 472.232 557.494 470.129Z" fill="#64C3F4"/>
<path d="M551.367 480.715C546.445 485.941 541.2 490.579 535.932 495.191C534.625 496.335 533.244 497.391 532.296 498.963C529.599 499.103 526.502 498.768 523.105 498.18C522.805 497.928 522.637 497.483 523.121 496.958C523.917 496.074 524.231 495.715 524.544 495.356C531.486 491.624 538.459 487.948 545.352 484.123C547.364 483.007 549.147 481.465 551.367 480.715Z" fill="#0A0C0E"/>
<path d="M507.938 465.599C509.461 469.705 510.984 473.812 513.036 478.128C513.307 480.112 513.047 481.889 512.323 484.098C510.881 484.073 509.411 483.886 509.004 483.117C504.422 474.441 503.359 465.36 506.975 455.583C507.885 457.631 508.278 460.003 508.254 463.335C507.749 464.739 507.782 465.174 507.938 465.599Z" fill="#0A0C0E"/>
<path d="M570.038 480.288C568.999 479.141 568.127 477.739 568.071 476.304C567.875 471.28 567.96 466.244 568.701 461.219C569.836 467.49 570.208 473.753 570.038 480.288Z" fill="#0A0C0E"/>
<path d="M531.859 499.807C538.351 499.761 544.3 500.232 549.907 501.444C543.482 501.565 537.399 500.945 531.859 499.807Z" fill="#0A0C0E"/>
<path d="M569.328 459.087C566.866 460.398 564.379 461.149 561.498 461.175C561.675 457.927 562.245 455.404 562.572 452.358C562.821 451.739 563.313 451.642 564.547 451.423C565.771 451.87 566.254 452.438 567.094 453.148C568.069 455.035 568.686 456.782 569.328 459.087Z" fill="#0A0C0E"/>
<path d="M511.301 484.867C514.228 487.291 516.626 490.084 518.381 493.113C515.416 490.644 513.094 487.94 511.301 484.867Z" fill="#0A0C0E"/>
<path d="M517.963 494.069C519.808 493.871 521.715 494.248 524.085 494.99C524.234 495.715 523.921 496.074 522.919 496.957C521.955 497.348 521.709 497.391 521.495 497.611C520.338 496.622 519.181 495.633 517.963 494.069Z" fill="#0A0C0E"/>
<path d="M512.962 444.954C517.073 448.631 512.977 449.562 510.369 450.572C510.681 448.301 511.583 446.758 512.962 444.954Z" fill="#0A0C0E"/>
<path d="M558.354 493.71C558.772 492.884 559.382 492.411 560.277 491.422C561.565 491.519 562.567 492.133 562.247 493.149C560.395 493.736 559.867 493.922 559.338 494.107C559.074 494.093 558.81 494.078 558.354 493.71Z" fill="#10171A"/>
<path d="M565.691 488.512C565.556 486.949 566.07 485.639 567.252 484.765C567.393 486.39 566.866 487.578 565.691 488.512Z" fill="#0A0C0E"/>
<path d="M555.154 499.59C554.545 498.742 554.647 497.485 555.495 495.845C556.116 496.701 555.991 497.941 555.154 499.59Z" fill="#0A0C0E"/>
<path d="M521.47 497.753C521.71 497.391 521.955 497.348 522.436 497.483C522.642 497.483 522.809 497.927 522.578 497.954C522.346 497.98 521.892 498.025 521.892 498.025C521.892 498.025 521.444 497.896 521.47 497.753Z" fill="#65C4F7"/>
<path d="M568.469 484.876C567.775 484.117 567.628 483.052 568.434 482.031C569.263 482.907 569.139 483.739 568.469 484.876Z" fill="#0A0C0E"/>
<path d="M559.615 494.627C559.865 493.922 560.393 493.736 561.759 493.512C561.696 494.031 560.795 494.589 559.615 494.627Z" fill="#0A0C0E"/>
<path d="M318.776 154.98C310.999 156.147 303.432 158.696 296.473 157.516C286.479 155.822 284.101 146.409 290.298 138.273C296.503 130.128 310.96 125.336 320.691 128.2C330.989 131.229 333.819 140.662 326.651 148.751C324.577 151.091 321.743 152.733 318.776 154.98ZM310.942 154.368C315.762 151.232 321.344 148.844 325.203 144.766C329.743 139.968 327.531 134.419 321.299 132.067C312.261 128.655 297.702 133.348 292.51 141.345C288.922 146.872 290.496 152.59 296.757 154.14C300.861 155.157 305.37 154.483 310.942 154.368Z" fill="#14191C"/>
<path d="M371.009 322.986C376.259 317.786 381.636 317.001 387.124 321.071C391.718 324.476 393.281 329.395 391.197 334.831C389.025 340.494 384.642 343.184 378.562 342.573C370.541 341.766 364.682 331.356 371.009 322.986ZM377.442 338.803C385.907 339.428 391.327 333.643 387.686 327.381C386.22 324.858 382.464 322.21 379.846 322.308C377.215 322.405 372.768 325.681 372.589 327.86C372.315 331.206 375.011 334.804 377.442 338.803Z" fill="#101112"/>
<path d="M378.613 355.678C378.817 349.662 381.706 346.683 386.931 347.645C391.475 348.482 393.375 352.317 391.811 356.614C391.046 358.717 387.888 361.692 386.419 361.373C383.613 360.765 381.24 358.081 378.613 355.678Z" fill="#211B0F"/>
<path d="M338.541 251.801C346.066 254.851 353.54 256.686 361.887 254.75C369.195 253.055 373.686 250.373 370.824 241.341C368.661 241.122 365.873 240.839 363.138 240.306C366.495 239.231 369.8 238.405 373.104 237.58C373.947 241.796 374.79 246.011 375.792 251.019C364.548 261.022 351.584 260.679 338.004 253.354C338.193 252.293 338.367 252.047 338.541 251.801Z" fill="#2D2F30"/>
<path d="M373.46 237.243C369.795 238.406 366.491 239.231 362.662 240.139C360.189 239.039 358.24 237.855 357.029 237.12C363.863 233.402 371.003 229.517 379.338 224.981C377.339 229.301 375.58 233.104 373.46 237.243Z" fill="#61BDE9"/>
<path d="M311.543 223.9C314.149 224.58 316.638 225.841 319.546 227.39C319.965 230.113 319.965 232.549 319.965 235.872C313.051 234.474 313.204 228.706 311.543 223.9Z" fill="#0D0F0D"/>
<path d="M337.831 250.185C337.873 250.593 338.024 250.954 338.412 251.534C338.366 252.047 338.193 252.293 337.728 252.884C336.614 253.023 335.789 252.817 334.965 252.61C335.337 251.656 335.709 250.702 336.734 249.741C337.388 249.733 337.831 250.185 337.831 250.185Z" fill="#2D2F30"/>
<path d="M337.178 249.494C337.512 249.157 338.053 249.06 338.595 248.963C338.57 249.27 338.545 249.577 338.174 250.035C337.829 250.186 337.385 249.734 337.178 249.494Z" fill="#2D2F30"/>
<path d="M556.931 470.24C556.79 472.232 556.086 474.336 554.973 475.897C555.165 473.686 555.767 472.019 556.931 470.24Z" fill="#0A0C0E"/>
<path d="M553.953 475.301C553.975 477.301 553.386 479.254 552.213 481.303C552.2 479.351 552.771 477.302 553.953 475.301Z" fill="#0A0C0E"/>
<path d="M513.91 479.041C514.692 477.153 515.866 475.932 517.5 475.037C516.741 476.812 515.522 478.259 513.91 479.041Z" fill="#0A0C0E"/>
<path d="M518.398 476.042C519.024 474.049 520.122 472.71 521.775 471.519C521.177 473.343 520.024 475.019 518.398 476.042Z" fill="#0A0C0E"/>
<path d="M558.862 465.251C559.935 464.599 560.947 464.5 561.958 464.402C561.037 466.018 560.116 467.633 558.685 468.586C558.384 467.218 558.592 466.512 558.862 465.251Z" fill="#0A0C0E"/>
<path d="M526.459 467.219C526.596 466.121 527.085 465.764 528.439 465.186C529.912 464.95 530.523 464.937 531.346 465.118C531.558 465.312 532.002 465.676 532.002 465.676C530.272 466.438 528.542 467.199 526.459 467.219Z" fill="#0A0C0E"/>
<path d="M533.385 462.668C533.135 463.978 532.913 464.519 532.346 465.368C532.002 465.676 531.557 465.312 531.596 464.556C531.748 463.007 531.861 462.213 531.975 461.418C532.453 461.578 532.933 461.738 533.385 462.668Z" fill="#0A0C0E"/>
<path d="M267.297 262.968C273.883 259.042 279.678 258.605 284.388 266.144C285.716 272.338 285.008 278.217 278.856 279.904C275.376 280.859 270.088 279.648 267.257 277.332C262.694 273.599 263.419 268.158 267.297 262.968ZM274.133 277.732C280.815 275.856 283.681 272.118 280.981 267.966C279.628 265.885 276.378 263.745 274.189 263.944C272.008 264.141 268.259 267.444 268.434 269.01C268.764 271.96 271.42 274.639 274.133 277.732Z" fill="#0D1417"/>
<path d="M531.652 461.463C531.861 462.213 531.748 463.007 531.384 464.362C530.522 464.937 529.912 464.95 528.844 464.977C529.367 463.829 530.348 462.668 531.652 461.463Z" fill="#10171A"/>
<path d="M508.122 465.309C507.779 465.174 507.745 464.739 507.964 463.995C508.375 464.101 508.447 464.542 508.122 465.309Z" fill="#10171A"/>
<path d="M282.38 91.8182C282.183 91.5005 282.434 91.0467 283.093 90.4425C283.276 90.7555 283.052 91.2188 282.38 91.8182Z" fill="#0A0C0E"/>
<path d="M327.023 304.328C328.022 308.259 328.857 311.591 329.916 315.816C318.385 319.066 306.84 322.321 294.683 325.748C292.517 317.813 290.47 310.308 288.164 301.86C299.752 298.563 311.268 295.287 323.376 291.842C324.559 295.88 325.709 299.804 327.023 304.328Z" fill="#FAF9F9"/>
<path d="M310.316 154.468C305.366 154.483 300.857 155.157 296.753 154.14C290.492 152.59 288.918 146.872 292.506 141.346C297.698 133.348 312.257 128.656 321.296 132.067C327.528 134.419 329.739 139.968 325.199 144.766C321.34 148.844 315.758 151.233 310.316 154.468Z" fill="#65C4F7"/>
<path d="M376.945 338.55C375.011 334.804 372.315 331.206 372.59 327.86C372.768 325.682 377.216 322.406 379.847 322.308C382.465 322.211 386.22 324.858 387.687 327.381C391.327 333.644 385.907 339.428 376.945 338.55Z" fill="#EF9700"/>
<path d="M273.623 277.582C271.422 274.639 268.766 271.96 268.436 269.01C268.26 267.444 272.01 264.141 274.19 263.944C276.38 263.745 279.63 265.885 280.983 267.966C283.682 272.118 280.816 275.856 273.623 277.582Z" fill="#63C2F0"/>
</svg>
