<svg width="741" height="741" viewBox="0 0 741 741" fill="none" xmlns="http://www.w3.org/2000/svg">
<path d="M221.275 174.337C220.735 170.392 220.194 166.447 219.654 162.502C220.284 162.077 220.915 161.653 221.546 161.229C230.266 165.335 238.986 169.442 248.461 173.904C249.088 170.83 249.582 168.406 250.077 165.978C257.629 167.808 262.097 173.163 262.41 182.205C262.704 190.714 265.828 197.858 270.516 204.677C273.239 208.638 275.12 213.198 277.97 217.05C282.993 223.838 288.244 230.489 293.844 236.8C296.708 240.028 300.537 242.397 303.144 244.516C307.628 235.734 313.316 225.531 317.989 214.882C319.419 211.621 318.005 207.134 318.013 203.209C318.017 201.073 318.271 198.938 318.413 196.802C320.307 197.352 322.533 197.441 324.042 198.528C332.506 204.625 332.15 213.54 330.754 222.384C329.732 228.86 327.656 235.162 326.339 241.601C324.584 250.179 325.213 251.05 333.659 253.457C335.126 253.876 336.653 254.084 338.754 254.512C341.262 242.832 348.897 235.098 359.196 229.356C356.239 226.24 353.589 223.448 350.774 220.482C358.861 214.606 366.972 211.856 376.46 214.898C377.918 215.366 379.814 214.339 381.524 214.175C383.102 214.025 385.458 213.419 386.166 214.201C389.892 218.32 393.821 216.721 398.098 215.596C407.509 213.121 416.754 213.315 425.264 218.722C432.745 211.867 432.855 210.132 425.504 204.223C418.853 198.879 411.74 194.094 405.266 188.553C399.856 183.922 396.812 177.789 398.417 170.399C398.865 168.337 400.712 166.58 401.917 164.683C403.439 166.222 405.738 167.508 406.335 169.348C408.129 174.87 411.636 177.552 417.059 179.587C427.246 183.41 437.172 188.046 446.889 192.974C453.618 196.387 455.885 202.594 455.218 210.151C454.506 218.223 450.451 225.376 450.178 233.876C450.026 238.609 442.7 243.223 438.355 247.643C436.923 249.099 434.704 249.779 432.599 250.95C438.858 254.912 444.65 258.578 451.271 262.768C454.722 257.715 458.731 251.844 462.74 245.973C462.058 245.815 461.377 245.656 460.695 245.498C460.993 242.293 460.257 238.449 461.77 235.995C467.731 226.325 474.473 217.142 480.745 207.658C482.077 205.644 482.392 202.974 483.627 200.873C486.917 195.28 490.151 189.61 493.973 184.387C498.019 178.858 503.268 174.531 504.621 166.897C505.326 162.913 510.087 159.649 513.84 155.051C515.314 158.465 516.039 160.143 517.526 163.587C522.549 156.107 527.043 149.414 532.466 141.339C535.098 145.758 536.907 148.795 538.937 152.203C540.624 151.357 542.692 150.32 545.126 149.1C549.33 154.141 552.641 159.247 552.011 166.191C550.683 180.824 549.754 195.5 548.096 210.093C547.667 213.868 545.145 217.405 542.625 220.429C542.625 229.179 542.625 237.929 542.625 248.199C552.269 243.649 560.858 239.595 569.827 235.363C577.275 244.422 584.992 253.809 593.946 264.699C582.144 270.458 570.865 276.388 559.219 281.479C552.653 284.349 545.586 286.347 538.549 287.751C534.379 288.583 533.341 290.615 532.618 294.149C531.481 299.714 530.31 305.341 528.345 310.641C527.07 314.079 526.807 319.399 520.504 318.508C519.901 318.423 518.675 321.498 518.026 323.216C514.349 332.944 510.264 342.446 501.064 348.315C499.274 349.458 496.591 349.195 494.179 348.839C488.414 351.024 488.406 361.125 479.133 359.548C477.78 366.781 476.429 374.002 475.178 380.685C489.667 387.565 503.985 394.363 518.908 401.448C510.266 412.07 502.602 421.488 494.987 430.846C483.932 426.09 472.637 421.23 461.204 416.311C459.836 423.956 458.707 430.262 457.426 437.42C455.047 436 453.882 435.304 452.778 434.645C447.296 440.274 454.084 451.463 441.598 453.438C442.132 453.968 442.665 454.498 443.199 455.028C446.725 455.33 450.267 455.504 453.774 455.953C482.612 459.644 498.805 479.639 493.903 508.213C488.389 540.351 469.374 563.351 440.704 578.244C435.978 580.699 430.199 581.039 425.07 582.824C421.61 584.028 418.284 585.81 415.164 587.761C407.861 592.325 407.191 598.793 410.116 606.346C412.558 612.651 414.225 619.283 416.995 625.426C419.19 630.293 421.966 634.455 428.59 635.566C435.571 636.736 434.794 644.174 436.242 650.594C436.327 654.596 436.327 657.539 436.327 660.649C430.262 660.367 424.535 661.4 419.97 659.552C414.565 657.364 410.162 652.691 405.131 648.671C403.591 646.396 402.245 644.545 401.331 642.512C403.27 641.562 404.778 640.794 406.748 639.919C411.173 638.314 415.135 636.816 418.125 635.686C414.314 626.111 410.283 615.986 406.345 605.311C405.321 599.201 404.206 593.64 403.47 589.973C396.978 585.883 391.754 582.593 386.509 579.34C386.487 579.377 386.573 579.373 386.514 578.977C386.089 578.208 385.725 577.836 385.298 577.06C384.212 575.645 383.189 574.635 381.795 573.92C380.69 577.018 378.809 580.105 379.419 582.574C382.381 594.555 385.504 606.548 389.576 618.182C392.535 626.636 397.063 634.539 400.455 642.929C394.574 633.331 389.13 623.491 383.611 613.514C372.17 617.398 360.567 621.337 347.532 625.762C347.532 633.021 347.532 641.091 347.441 649.691C347.709 653.697 347.905 657.201 348.512 660.633C348.74 661.92 349.984 664.103 350.659 664.064C356.792 663.707 359.919 667.445 362.013 672.266C364.022 676.894 365.487 681.759 367.334 686.918C364.177 686.918 362.215 686.485 360.601 687.049C359.184 687.543 358.271 689.962 356.94 690.152C342.479 692.212 328.617 682.77 325.086 668.527C323.723 663.031 322.787 657.429 321.656 651.874C321.279 640.709 320.766 629.546 320.572 618.378C320.451 611.391 322.728 605.76 328.015 600.354C340.681 587.4 344.851 570.59 345.173 553.014C345.352 543.207 343.809 533.355 342.795 523.549C342.58 521.477 341.696 519.199 340.425 517.556C328.483 502.127 324.901 484.289 326.234 465.442C327.488 447.725 324.725 430.556 321.381 413.36C320.962 411.21 320.36 409.087 320.067 406.921C319.004 399.072 315.849 393.811 308.342 389.125C299.305 383.485 289.721 377.335 283.698 367.693C283.359 367.151 282.815 366.739 282.44 366.343C269.738 373.196 257.248 380.275 244.449 386.742C232.651 392.703 232.504 392.414 224.474 381.83C223.552 380.615 222.647 379.385 221.191 377.434C215.831 380.543 210.479 383.647 204.771 386.958C186.853 364.273 163.021 350.852 135.014 343.308C144.859 330.059 156.333 319.36 169.312 310.31C170.694 309.347 173.88 309.998 175.76 310.891C194.17 319.633 210.107 331.791 224.558 347.448C235.222 341.84 245.957 336.195 256.632 330.581C253.261 321.71 250.244 313.765 247.218 305.823C246.923 305.047 246.447 303.596 246.261 303.629C239.343 304.85 240.023 298.597 238.628 295.243C232.696 280.981 229.331 266.061 228.492 250.569C228.399 248.861 226.379 247.327 225.548 245.571C224.737 243.858 223.823 241.975 223.785 240.148C223.603 231.431 223.703 222.708 223.703 213.087C221.345 211.287 218.325 209.349 220.396 203.766C221.367 201.149 218.247 195.694 215.467 193.258C208.85 187.458 207.041 180.932 209.423 171.754C212.901 173.046 216.06 174.22 219.991 175.719C220.934 175.476 221.104 174.906 221.275 174.337ZM466.783 396.286C466.783 396.286 466.833 396.382 467.567 395.817C467.793 394.61 468.019 393.402 468.893 391.475C469.977 387.485 471.061 383.495 472.871 378.784C473.26 376.777 473.649 374.769 474.351 371.978C474.42 370.863 474.49 369.749 475.1 367.701C475.408 363.684 475.717 359.668 477.009 355.584C481.172 357.455 483.937 356.309 486.521 352.379C489.533 347.798 493.44 343.807 496.918 339.509C496.918 339.509 496.881 339.456 497.633 340.355C497.438 342.293 497.242 344.232 496.915 347.477C512.386 336.803 515.156 320.97 519.947 305.492C520.679 309.16 521.222 311.883 521.765 314.607C522.408 314.694 523.052 314.782 523.695 314.869C526.036 306.73 528.377 298.591 530.918 289.755C522.064 290.712 514.739 291.503 506.273 292.13C503.296 292.13 500.318 292.13 496.922 292.13C494.896 279.184 492.99 267 491.116 255.026C501.253 254.214 510.276 253.491 520.408 252.913C524.062 252.265 528.595 252.695 531.102 250.641C533.272 248.863 533.144 244.267 534.061 240.807C535.414 243.345 536.81 245.966 538.207 248.586C538.954 248.385 539.7 248.184 540.447 247.983C539.61 234.686 538.772 221.39 537.862 206.941C539.815 210.34 541.22 212.787 542.626 215.233C543.376 215.136 544.126 215.039 544.876 214.943C546.304 198.339 547.732 181.735 549.191 164.773C547.04 165.044 545.882 165.19 544.763 165.331C543.978 161.651 543.235 158.171 542.571 155.061C538.343 155.659 534.765 156.166 531.187 156.672C530.758 155.782 530.329 154.892 529.9 154.001C527.849 156.57 526.052 159.41 523.683 161.64C520.739 164.41 517.54 165.98 516.885 171.251C516.042 178.025 506.371 182.652 501.386 179.481C496.228 186.203 491.033 192.974 485.501 200.183C488.191 200.904 489.429 201.236 490.908 201.632C478.51 212.996 469.746 225.969 462.609 240.896C464.975 241.005 466.47 241.074 467.865 241.797C467.89 242.237 467.915 242.676 467.572 243.95C463.061 250.845 458.549 257.741 453.93 264.802C456.734 266.697 459.062 268.269 461.741 270.634C462.163 271.772 462.768 272.881 462.952 274.056C463.119 275.12 462.365 276.514 462.812 277.317C465.355 281.878 468.137 286.306 470.758 291.477C471.048 291.801 471.338 292.125 471.778 292.226C471.778 292.226 471.566 292.391 471.606 293.427C473.866 299.166 476.127 304.905 478.32 311.719C478.299 316.997 478.278 322.275 477.661 328.319C476.325 330.645 474.989 332.97 473.654 335.296C472.321 339.652 472.355 344.602 471.43 349.365C470.62 353.543 469.376 358.105 463.363 357.697C462.852 357.662 461.862 358.649 461.781 359.254C460.632 367.779 454.936 373.74 449.977 380.037C448.62 381.76 445.606 384.021 444.195 383.542C437.268 381.192 430.625 378.002 424.671 375.447C423.141 376.404 421.943 377.795 420.801 377.751C417.135 377.609 413.407 377.27 409.854 376.393C404.117 374.976 398.485 371.627 392.836 371.688C382.794 371.795 375.34 367.641 369.639 361.937C367.335 362.783 365.636 364.085 364.426 363.727C360.308 362.511 356.362 360.708 352.054 358.368C350.876 356.911 349.698 355.453 348.406 352.981C346.464 348.235 344.533 343.475 336.728 344.857C336.515 341.836 335.81 338.742 336.239 335.816C336.601 333.344 339.765 330.502 339.122 328.795C335.741 319.818 345.231 313.593 343.568 304.727C342.979 301.588 347.566 297.475 349.254 294.691C342.771 293.739 336.066 292.755 328.741 291.051C326.39 289.534 324.039 288.017 321.042 286.084C323.245 284.193 325.053 282.64 327.475 280.56C316.166 270.663 301.695 264.179 296.398 248.253C296.533 248.106 297.581 246.965 298.777 245.662C296.667 243.652 295.06 241.839 293.182 240.377C277.055 227.822 269.141 209.532 260.886 191.909C256.387 182.306 249.68 177.614 240.633 173.867C240.503 176.046 240.411 177.589 240.355 179.038C240.355 179.038 240.4 178.948 239.323 178.748C236.076 177.977 232.829 177.207 229.191 176.343C228.921 178.772 228.714 180.044 228.653 181.323C228.581 182.812 228.636 184.307 228.636 185.816C220.096 185.42 218.94 186.731 220.997 194.747C221.753 197.694 223.304 200.431 224.167 203.36C224.64 204.963 224.435 206.766 224.535 208.479C225.817 211.452 226.745 214.546 226.834 217.664C227.06 225.575 226.909 233.496 226.909 243.169C228.738 241.058 229.232 240.414 229.804 239.849C230.425 239.237 231.12 238.7 232.046 237.904C230.672 259.733 235.203 279.703 243.763 299.393C245.146 297.5 246.161 296.11 247.084 294.845C250.862 305.504 254.511 315.8 258.323 326.555C260.535 324.873 261.461 324.168 261.873 323.855C267.611 334.484 273.436 344.748 278.76 355.266C285.425 368.437 297.864 375.92 307.99 385.657C310.263 387.843 314.008 388.494 318.736 390.588C324.131 407.865 327.94 427.599 329.015 447.808C329.352 454.128 333.167 457.296 338.015 459.525C339.659 460.281 342.213 459.052 344.591 458.693C347.924 461.69 351.729 465.111 355.454 468.46C357.123 466.272 358.269 464.771 359.415 463.268C359.572 463.967 359.729 464.666 359.885 465.365C363.521 466.482 367.411 469.061 370.75 468.477C391.603 464.826 412.321 460.408 433.112 456.39C438.089 455.429 446.731 447.145 447.752 442.356C448.726 437.789 450.281 433.347 451.664 428.562C453.681 429.869 454.757 430.566 456.622 431.775C456.98 427.168 456.935 423.416 457.659 419.819C458.218 417.049 459.743 414.475 461.741 412.351C462.155 413.067 462.404 414.193 463.008 414.438C473.435 418.658 483.905 422.769 494.332 426.89C500.405 419.084 506.554 411.181 513.953 401.672C501.275 396.216 489.175 390.947 476.988 385.89C476.064 385.506 474.517 386.63 473.26 387.053C473.891 388.439 474.341 389.95 475.192 391.183C476.658 393.305 478.373 395.253 479.059 397.547C476.725 396.116 474.391 394.686 472.008 393.225C469.445 397.105 467.195 400.511 464.864 402.942C465.057 401.994 465.25 401.047 465.694 399.929C465.694 399.929 465.625 399.632 466.353 399.025C466.531 398.104 466.71 397.184 466.783 396.286ZM414.085 273.665C414.085 273.665 413.881 273.46 413.008 273.698C411.173 274.576 409.339 275.454 407.471 276.301C407.471 276.301 407.447 276.34 407.377 275.388C402.397 274.883 397.205 275.069 393.615 270.417C393.393 270.129 390.195 271.183 389.652 272.258C384.374 282.692 374.215 283.132 364.602 284.707C372.071 304.947 382.688 311.684 404.44 310.183C404.602 308.913 404.762 307.657 405.785 306.783C406.8 308.68 407.364 311.161 408.915 312.363C413.703 316.074 418.63 319.739 423.946 322.594C430.264 325.988 436.303 323.213 441.795 319.852C445.876 317.355 445.488 313.318 444.398 308.26C443.968 305.597 443.537 302.933 443.825 299.681C448.871 295.065 452.215 288.793 448.757 282.952C445.155 276.868 439.133 272.026 433.496 267.479C432.005 266.277 428.032 268.165 425.622 267.64C427.231 265.516 428.84 263.392 431.292 260.156C430.18 258.661 428.365 256.223 426.378 253.552C423.463 259.117 421.392 263.072 419.357 267.072C419.357 267.072 419.305 267.047 418.522 267.387C416.98 269.407 415.437 271.427 414.085 273.665ZM320.621 199.295C320.439 199.278 320.256 199.26 320.074 199.243C320.139 199.599 320.203 199.956 320.371 201.321C321.301 204.283 322.231 207.246 323.375 210.886C328.088 205.024 325.825 201.968 320.621 199.295ZM448.024 233.439C447.167 232.789 446.194 231.473 445.472 231.599C441.146 232.353 436.879 233.439 432.141 234.516C433.318 236.523 434.163 237.964 434.911 240.054C434.656 240.423 434.327 240.705 432.84 240.915C430.523 241.347 428.206 241.78 425.455 242.293C425.812 244.456 426.138 246.423 426.55 248.911C428.991 248.126 430.816 247.538 433.507 246.797C439.443 244.048 445.163 241.061 448.024 233.439ZM358.314 284.978C362.779 282.595 361.206 279.955 358.476 276.441C355.092 273.402 351.708 270.363 347.964 267.002C340.638 273.27 333.319 279.532 325.555 286.174C327.574 287.083 328.744 287.61 330.521 288.907C340.274 293.373 349.267 292.167 358.314 284.978ZM311.67 238.392C315.445 234.754 319.007 230.856 323.046 227.541C328.92 222.72 330.236 218.603 327.609 211.051C318.663 217.868 313.502 227.337 309.266 238.395C309.136 239.13 309.006 239.864 308.675 241.741C309.97 240.195 310.488 239.577 311.67 238.392ZM334.957 672.963C338.448 670.959 341.94 668.954 345.613 666.845C345.152 658.653 344.667 650.052 344.409 640.261C344.753 635.959 345.345 631.656 345.319 627.356C345.308 625.615 344.298 623.593 343.141 622.2C339.385 617.68 335.352 613.391 331.428 608.12C330.91 603.492 330.91 603.492 327.874 605.097C326.435 608.35 323.873 611.566 323.764 614.863C323.41 625.549 323.296 636.33 324.348 646.949C325.343 656.999 327.925 666.891 330.168 678.745C332.44 675.695 333.291 674.553 334.957 672.963ZM346.993 524.578C346.864 524.975 346.735 525.372 346.534 526.903C347.128 534.098 348.86 541.421 348.076 548.462C346.513 562.514 343.772 576.449 341.115 590.356C339.685 597.836 341.746 603.609 347.352 608.523C357.035 617.009 369.705 617.581 382.663 609.843C380.674 601.212 378.244 592.594 376.882 583.809C376.337 580.295 377.729 576.27 378.957 572.727C382.534 562.407 386.475 552.212 390.676 540.882C373.519 539.585 359.663 534.202 346.993 524.578ZM420.915 370.678C422.736 371.271 424.657 371.665 426.353 372.511C428.271 373.467 431.415 376.035 431.579 375.839C435.384 371.309 436.981 376.413 439.323 377.528C441.394 378.513 443.282 379.885 445.825 381.437C446.992 378.859 448.044 376.988 448.687 374.985C449.312 373.039 449.518 370.957 450.12 367.833C453.009 373.493 454.813 370.519 455.581 367.857C456.994 362.963 457.72 357.87 458.685 352.903C458.685 352.903 458.647 352.955 459.436 352.351C461.361 353.135 463.287 353.92 466.987 355.428C467.308 350.356 467.588 346.255 467.822 342.151C468.038 338.349 468.204 334.545 468.406 330.471C470.06 330.276 472.075 330.038 473.369 329.885C477.624 322.774 470.669 316.48 473.636 309.454C474.419 307.601 469.589 303.369 467.673 300.699C471.235 295.088 466.986 290.582 464.827 286.432C462.421 281.809 458.491 277.984 455.242 273.834C455.863 273.429 456.922 272.737 460.013 270.72C451.833 268.114 445.263 266.02 438.707 263.931C440.165 262.991 441.573 262.082 443.902 260.579C439.798 258.861 436.465 257.465 433.131 256.07C432.593 256.692 432.054 257.315 431.516 257.937C434.484 261.904 436.854 266.578 440.534 269.701C450.877 278.476 455.526 284.092 448.649 298.739C447.888 301.862 446.754 304.951 446.464 308.117C446.125 311.831 446.52 315.612 446.614 319.643C446.614 319.643 446.369 319.776 445.678 320.013C435.261 328.697 426.948 328.801 416.741 320.314C410.587 315.197 403.469 313.036 395.557 313.025C382.607 313.007 373.101 307.023 366.669 295.939C364.941 292.961 363.44 289.85 361.538 286.236C360.019 287.441 358.748 288.45 356.627 289.783C353.402 294.403 349.88 298.852 347.1 303.726C345.997 305.661 346.538 308.538 346.33 310.986C346.857 311.027 347.384 311.068 347.911 311.109C345.454 315.329 342.997 319.549 340.395 324.019C342.586 324.559 343.71 324.837 344.384 325.003C341.779 330.559 339.303 335.841 336.058 342.759C340.944 341.866 343.451 341.408 346.45 340.859C348.26 345.019 349.88 349.428 352.049 353.547C354.713 358.608 359.371 360.575 364.992 361.035C365.487 358.842 365.886 357.07 366.363 354.955C381.199 370.131 388.62 370.847 391.674 366.04C393.999 367.888 396.334 369.744 398.957 371.829C399.388 369.856 399.653 368.643 399.993 367.091C405.863 371.75 411.573 376.122 419.485 374.975C419.396 373.432 419.334 372.344 419.695 370.907C419.695 370.907 420.096 370.531 420.915 370.678ZM351.949 480.364C348.08 479.611 349.607 478.203 351.661 477.088C355.595 474.952 359.629 472.999 363.622 470.971C361.698 469.737 360.149 470.063 358.588 470.148C356.823 470.244 354.095 470.857 353.423 469.982C347.467 462.231 337.081 464.309 329.686 458.081C329.686 466.467 329.176 473.911 329.775 481.264C332.375 513.18 354.46 534.809 386.34 537.51C390.819 537.889 392.937 536.498 395.088 532.772C399.463 525.195 404.44 517.963 409.267 510.655C410.185 509.266 411.557 508.178 412.719 506.951C413.228 507.356 413.738 507.761 414.247 508.165C413.337 509.715 412.464 511.288 411.51 512.809C405.693 522.084 399.655 531.227 394.078 540.644C387.054 552.508 389.521 564.277 400.495 572.573C412.829 581.896 426.308 582.084 439.533 575.598C465.071 563.071 481.53 542.337 489.651 515.283C493.296 503.138 493.439 490.644 486.293 478.23C476.723 460.892 460.146 457.267 442.929 458.644C423.2 460.223 403.498 463.672 384.156 467.983C373.327 470.396 363.251 476.2 351.949 480.364ZM421.563 254.511C420.29 252.99 418.106 251.513 418.032 249.935C417.972 248.652 420.439 247.25 422.291 245.394C421.915 243.674 421.341 241.049 420.706 238.14C423.926 238.14 426.664 238.14 431.699 238.14C426.184 233.08 422.06 229.295 418.047 225.613C420.009 224.662 421.983 223.704 424.726 222.373C415.718 215.857 406.782 216.108 397.718 218.662C392.8 220.049 387.971 223.247 384.34 215.413C383.141 218.169 382.513 219.614 381.883 221.063C371.238 215.135 363.341 215.351 355.654 222.201C359.104 224.607 362.42 226.92 365.981 229.404C354.688 235.387 343.684 241.587 341.899 256.553C345.494 256.553 348.647 256.553 351.085 256.553C351.642 260.705 352.139 264.412 352.731 268.82C354.979 267.547 356.181 266.867 357.464 266.14C359.25 270.031 360.599 273.735 362.563 277.076C365.885 282.731 368.123 282.713 372.127 277.474C372.701 276.722 373.272 275.968 373.89 275.154C374.925 276.972 375.752 278.423 377.419 281.347C384.458 272.433 390.92 264.25 397.446 255.986C405.579 262.175 396.11 263.991 396.48 268.404C398.076 269.662 400.033 271.203 402.241 272.942C403.915 270.284 405.156 268.313 406.581 266.049C407.556 268.354 408.36 270.252 410.009 274.148C414.323 267.131 417.893 261.322 421.563 254.511ZM174.556 356.117C185.265 364.641 195.975 373.165 206.771 381.758C215.473 377.391 225.19 372.516 235.269 367.46C233.994 365.532 232.738 363.516 231.369 361.579C217.823 342.411 200.145 328.076 179.868 316.551C173.871 313.142 169.399 312.947 164.387 317.944C156.774 325.536 148.765 332.732 140.946 340.075C152.868 345.722 163.302 350.664 174.556 356.117ZM521.982 287.819C545.577 284.35 567.722 276.977 588.091 263.617C581.479 255.181 575.192 247.159 568.605 238.755C546.204 252.432 521.655 257.489 495.101 257.615C496.25 264.746 496.923 271.036 498.32 277.161C501.448 290.878 498.56 289.932 512.949 288.501C515.563 288.241 518.193 288.151 521.982 287.819ZM256.658 377.537C264.492 372.86 272.325 368.184 280.575 363.259C278.617 360.801 277.338 359.196 276.059 357.591C276.049 358.327 276.04 359.063 276.03 359.799C268.843 361.826 261.745 364.759 254.43 365.478C251.028 365.812 245.57 362.649 244.073 359.586C242.801 356.984 244.773 351.089 247.265 348.701C252.188 343.983 258.465 340.682 264.697 336.446C264.251 335.419 263.332 333.302 262.244 330.794C250.303 337.32 238.755 343.631 226.784 350.173C230.329 354.674 233.692 358.681 236.732 362.92C238.127 364.864 240.327 368.26 239.643 369.253C238.154 371.41 235.178 372.764 232.563 373.848C230.18 374.835 227.471 375.03 224.257 375.713C226.402 378.697 227.972 380.542 229.162 382.608C231.995 387.522 235.518 388.357 240.477 385.525C245.413 382.708 250.655 380.429 256.658 377.537ZM431.382 205.605C436.337 212.81 441.292 220.014 446.904 228.174C448.73 221.636 450.951 214.724 452.436 207.658C452.82 205.83 451.492 202.705 449.935 201.557C440.583 194.663 429.871 193.076 417.104 194.002C422.379 198.3 426.51 201.667 431.382 205.605ZM323.68 230.59C316.123 236.535 310.02 243.635 307.131 252.961C306.421 255.252 306.1 258.6 307.26 260.373C311.854 267.404 318.894 270.78 328.049 272.723C321.345 259.496 322.082 247.005 325.177 234.345C325.488 233.072 324.814 231.557 323.68 230.59ZM269.306 345.636C267.969 341.361 265.131 340.038 261.425 342.449C256.914 345.384 252.141 348.297 248.586 352.223C244.564 356.664 246.816 362.123 252.773 362.597C256.927 362.928 261.505 362.023 265.416 360.465C274.364 356.902 274.831 354.664 269.306 345.636ZM337.728 594.294C337.5 594.025 337.304 593.711 337.026 593.508C336.921 593.432 336.545 593.545 336.436 593.685C332.161 599.171 333.347 609.38 338.946 615.411C344.891 621.816 353.068 622.93 359.623 618.255C348.821 613.968 338.64 609.081 337.728 594.294ZM397.79 574.046C394.083 569.346 390.377 564.647 386.889 560.224C384.085 567.584 385.933 575.151 392.242 580.438C398.021 585.279 405.038 585.952 411.157 582.228C406.949 579.681 402.755 577.143 397.79 574.046ZM335.091 274.214C343.545 266.846 344.73 263.473 339.216 259.092C335.764 256.349 330.964 255.309 325.642 253.02C326.728 262.149 327.621 269.542 335.091 274.214ZM410.798 181.791C408.554 181.791 406.31 181.791 401.873 181.791C406.684 185.895 409.741 190.625 413.479 191.246C421.216 192.532 429.314 191.634 437.264 191.634C437.403 190.98 437.542 190.325 437.681 189.671C429.093 187.043 420.505 184.414 410.798 181.791ZM427.82 229.481C432.228 229.925 436.636 230.368 441.044 230.811C441.427 230.117 441.811 229.423 442.194 228.728C439.778 223.423 437.363 218.118 434.338 211.477C430.699 217.536 427.966 221.97 425.441 226.519C425.247 226.869 426.525 228.038 427.82 229.481ZM400.873 171.859C400.243 176.527 402.353 178.547 407.457 178.496C406.101 175.342 404.986 172.627 403.673 170.012C403.598 169.863 401.901 170.531 400.873 171.859ZM440.441 193.008C440.44 192.759 440.504 192.48 440.41 192.273C440.365 192.174 440.022 192.21 439.814 192.184C439.812 192.466 439.81 192.749 440.441 193.008ZM308.173 243.064C308.306 242.932 308.532 242.809 308.544 242.667C308.556 242.525 308.354 242.365 308.245 242.213C308.113 242.345 307.98 242.476 308.173 243.064Z" fill="#15120C"/>
<path d="M320.993 651.85C322.785 657.429 323.722 663.031 325.084 668.527C328.615 682.771 342.478 692.212 356.938 690.152C358.27 689.963 359.183 687.543 360.599 687.049C362.214 686.485 364.176 686.918 367.332 686.918C365.486 681.759 364.021 676.894 362.011 672.266C359.918 667.445 356.79 663.708 350.657 664.064C349.982 664.103 348.738 661.92 348.511 660.634C347.904 657.202 347.707 653.697 348.02 649.715C367.57 649.171 386.447 649.133 405.324 649.096C410.161 652.691 414.564 657.364 419.968 659.552C424.534 661.4 430.261 660.367 436.326 660.649C436.326 657.539 436.326 654.597 436.398 651.086C464.643 652.818 492.876 654.797 519.775 664.602C523.026 665.787 526.298 667.197 529.165 669.1C536.595 674.033 536.477 678.668 529.056 683.609C527.426 684.694 525.659 685.572 523.107 686.931C509.684 684.792 497.109 682.267 484.049 679.645C481.17 685.546 477.824 692.407 474.477 699.268C459.727 700.47 444.977 701.672 430.227 702.877C429.139 702.966 428.055 703.132 426.967 703.164C411.692 703.607 396.389 704.831 381.146 704.31C340.018 702.907 298.747 702.119 258.644 691.213C252.004 689.408 245.378 686.572 239.583 682.888C233.143 678.794 233.31 673.129 239.984 669.53C246.996 665.749 254.614 662.319 262.366 660.846C281.566 657.198 300.995 654.753 320.993 651.85Z" fill="#DD4F06"/>
<path d="M273.756 102.754C271.27 103.127 268.495 104.157 267.186 103.192C242.637 85.1014 221.839 63.4276 205.354 37.3803C217.608 29.9922 229.658 22.7271 242.345 15.0784C260.722 38.2384 283.012 57.5871 310.423 73.6811C297.66 83.8151 285.904 93.1492 273.756 102.754ZM241.906 19.7471C231.277 25.8389 220.649 31.9306 209.668 38.2245C225.663 62.3348 245.124 82.2577 267.556 99.3319C268.671 100.181 271.513 100.233 272.605 99.4043C283.195 91.3724 293.583 83.0726 304.75 74.2807C280.337 59.1894 259.774 41.7214 241.906 19.7471Z" fill="#181606"/>
<path d="M513.712 476.975C509.397 470.949 505.37 465.295 501.449 459.789C514.203 452.115 526.312 444.83 538.748 437.349C556.894 460.914 579.551 479.926 606.768 496.111C593.568 506.466 581.319 516.294 568.715 525.642C567.378 526.633 563.417 525.536 561.591 524.174C543.606 510.756 527.751 495.111 513.712 476.975ZM580.425 513.496C586.981 507.897 593.537 502.297 600.663 496.21C575.587 481.129 555.212 462.728 537.954 441.506C526.969 448.146 516.732 454.334 506.163 460.723C519.33 480.871 535.274 498.212 553.516 513.465C566.227 524.093 566.305 523.999 580.425 513.496Z" fill="#151305"/>
<path d="M186.027 607.731C183.757 599.927 181.679 592.613 179.393 584.563C209.523 579.92 237.407 570.792 263.403 555.952C271.202 567.521 278.888 578.923 286.901 590.81C257.656 608.587 226.198 619.682 192.137 625.661C190.115 619.702 188.167 613.962 186.027 607.731ZM198.925 621.448C228.352 615.437 256.301 605.625 282.269 590.067C275.296 579.53 268.924 569.9 262.317 559.916C237.509 573.734 211.317 582.334 183.078 587.236C186.779 598.434 190.027 608.631 193.627 618.701C194.089 619.993 196.386 620.627 198.925 621.448Z" fill="#181606"/>
<path d="M361.649 181.513C356.318 181.872 351.028 182.268 345.912 181.501C318.924 177.455 293.183 169.276 268.67 157.25C267.129 156.494 265.679 155.55 264.104 154.646C271.035 142.698 277.821 131 284.989 118.643C311.29 131.403 339.274 139.333 370.326 141.984C367.426 155.217 364.599 168.115 361.649 181.513ZM342.058 177.872C347.369 178.676 352.68 179.48 358.527 180.366C361.165 168.108 363.621 156.699 366.191 144.758C360.362 143.981 355.608 143.486 350.905 142.696C330.129 139.203 310.074 133.314 290.82 124.664C289.128 123.905 285.439 123.969 284.848 124.957C279.271 134.265 274.166 143.858 268.951 153.32C282.069 162.154 318.571 174.404 342.058 177.872Z" fill="#151305"/>
<path d="M493.218 103.194C488.875 103.659 486.578 102.768 485.946 98.2831C484.427 87.4831 482.379 76.7576 480.414 65.2406C509.217 66.4241 535.328 60.7539 559.019 45.7271C566.921 55.3422 574.673 64.7748 582.831 74.7006C556.114 93.2423 526.178 101.959 493.218 103.194ZM537.163 93.2867C551.608 89.0308 565.24 83.0857 577.855 74.4807C571.129 65.9914 564.917 58.1489 558.323 49.8249C535.798 63.3456 511.256 68.9045 484.52 68.3631C486.266 77.9328 487.933 86.5028 489.356 95.1133C490.035 99.2249 492.227 100.554 496.129 99.9277C509.464 97.7883 522.807 95.7032 537.163 93.2867Z" fill="#151305"/>
<path d="M474.415 699.72C477.824 692.406 481.171 685.545 484.049 679.645C497.11 682.267 509.684 684.792 522.814 687.242C535.686 686.558 548.002 685.948 561.365 685.286C563.586 695.874 566.062 707.674 568.817 720.807C556.833 722.113 545.884 723.306 533.734 724.47C512.413 724.855 493.015 721.213 474.346 713.776C472.383 712.995 470.869 711.082 469.146 709.694C470.882 706.52 472.617 703.346 474.415 699.72ZM507.557 688.151C500.451 686.26 493.345 684.37 486.084 682.438C482.024 691.704 478.023 700.837 473.816 710.437C503.693 722.08 533.358 724.908 564.299 717.534C562.258 706.906 560.388 697.173 558.627 687.999C549.475 688.81 541.456 690.038 533.431 690.088C525.171 690.14 516.905 689.043 507.557 688.151Z" fill="#151305"/>
<path d="M468.625 709.716C470.87 711.082 472.384 712.995 474.347 713.777C493.016 721.214 512.414 724.855 533.13 724.555C518.939 724.795 504.134 725.399 489.37 724.864C480.963 724.559 472.54 722.756 464.297 720.869C461.391 720.204 458.999 717.282 456.373 715.391C459.192 713.585 461.954 711.678 464.865 710.037C465.727 709.551 467.011 709.817 468.625 709.716Z" fill="#DB4E06"/>
<path d="M329.359 291.771C336.064 292.755 342.768 293.739 349.251 294.691C347.563 297.475 342.976 301.588 343.565 304.727C345.228 313.593 335.738 319.818 339.12 328.795C339.763 330.502 336.599 333.344 336.236 335.816C335.808 338.743 336.512 341.836 337.319 345.485C338.475 349.584 339.038 353.054 339.702 357.152C343.321 355.856 345.919 354.926 348.518 353.996C349.696 355.453 350.874 356.911 352.168 359.274C352.354 366.786 356.363 370.599 361.82 373.114C363.417 373.85 365.482 373.566 367.423 373.758C367.864 371.447 368.172 369.84 368.479 368.233C369.097 367.762 369.715 367.29 370.333 366.818C372.427 369.591 373.991 373.195 376.735 374.946C381.211 377.804 386.329 380.801 391.409 381.282C398.256 381.93 405.113 380.984 411.492 384.782C413.819 386.167 416.893 386.79 419.621 386.778C420.853 386.773 422.074 384.363 423.302 383.043C423.304 383.043 423.307 383.039 423.76 382.996C425.676 382.854 427.385 382.21 428.561 382.745C435.247 385.785 441.806 389.107 448.333 392.854C447.837 396.079 447.417 398.784 446.832 402.543C442.441 399.815 438.92 397.628 436.108 395.882C434.741 400.812 433.37 405.755 431.589 412.176C428.719 407.974 427.048 405.528 425.377 403.082C424.965 403.346 424.554 403.61 424.143 403.875C425.753 406.811 427.363 409.747 428.829 413.218C427.335 417.97 425.985 422.187 424.371 427.231C421.915 425.262 420.513 424.138 419.028 422.948C410.482 441.138 410.387 438.782 403.582 437.851C402.466 440.071 401.324 442.343 399.796 445.384C385.246 437.62 369.152 433.445 358.438 420.14C355.172 416.085 352.157 411.826 349.027 407.661C348.31 408.251 347.593 408.841 346.877 409.43C334.099 405.962 332.931 392.895 328.361 382.631C327.202 383.479 326.216 384.201 324.518 385.442C320.924 371.68 317.477 358.479 313.89 344.74C300.54 346.517 290.288 339.748 280.948 331.032C279.881 332.527 278.976 333.797 276.69 337.005C270.083 321.001 264.129 306.578 258.207 292.232C257.232 292.879 255.909 293.756 253.172 295.572C250.187 283.889 247.434 273.112 244.59 261.977C242.599 263.235 240.877 264.324 238.534 265.805C238.229 263.894 238.082 262.678 237.836 261.482C236.237 253.697 242.566 245.504 236.61 237.88C236.098 237.225 236.36 235.648 236.725 234.672C239.322 227.721 241.421 220.484 244.88 213.98C248.939 206.348 256.064 205.712 262.244 211.851C265.425 215.011 267.987 218.796 270.855 222.871C270.274 227.652 269.667 231.859 268.935 236.93C266.659 234.999 265.692 234.18 264.536 233.199C263.942 236.105 263.469 238.418 262.789 241.144C259.778 245.324 256.975 249.093 253.698 253.499C254.461 253.447 257.015 253.959 257.591 253.115C260.233 249.245 262.323 244.996 264.943 240.613C268.202 241.075 270.281 240.189 270.854 237.069C271.507 233.515 271.951 229.923 272.95 226.474C276.128 230.731 278.84 234.862 281.733 239.268C279.493 240.359 278.175 241.001 276.935 241.605C285.894 249.403 294.438 256.839 303.072 264.354C301.936 265.769 301.076 266.84 300.8 267.183C307.916 274.979 315.026 282.092 321.256 289.91C323.993 293.344 326.044 293.78 329.359 291.771ZM318.839 312.734C323.064 310.227 322.1 303.297 316.932 299.067C317.556 301.935 318.18 304.804 318.889 308.064C316.957 308.064 315.659 308.064 314.057 308.064C314.736 310.009 315.296 311.616 315.94 314.243C315.608 319.52 315.276 324.796 314.895 330.862C315.593 330.339 317.745 329.51 317.805 328.55C318.123 323.436 317.918 318.288 318.839 312.734ZM286.829 326.287C286.36 326.115 285.891 325.942 285.422 325.77C285.76 326.439 286.098 327.108 286.675 328.669C289.409 330.263 292.144 331.856 294.942 333.486C298.666 325.117 297.512 319.397 292.635 317.694C293.174 321.459 293.744 325.446 294.514 330.825C291.054 328.896 289.203 327.864 286.829 326.287ZM369.233 401.089C368.248 399.778 367.264 398.467 366.074 396.882C365.4 398.779 364.942 400.071 364.36 401.709C361.665 399.457 359.406 397.569 357.147 395.681C356.809 396.139 356.47 396.596 356.132 397.054C360.655 398.414 359.347 406.531 367.777 404.834C371.534 404.078 376.681 410.522 381.292 413.554C382.288 414.209 383.692 414.242 385.354 414.679C385.716 412.643 386.005 411.02 386.188 409.991C378.487 411.209 374.165 406.47 369.233 401.089ZM330.373 358.276C330.282 357.416 330.172 356.558 330.118 355.696C330.107 355.517 330.315 355.329 330.396 355.134C330.406 355.109 330.253 355.016 329.257 354.225C328.593 356.426 327.211 359.507 327.648 359.792C332.771 363.136 329.018 367.929 329.947 371.858C330.633 374.762 331.479 377.628 332.38 380.98C334.34 379.871 335.581 379.17 336.626 378.578C331.503 374.085 332.811 368.633 333.078 363.296C333.148 361.889 331.834 360.413 330.373 358.276ZM334.759 356.963C334.628 356.805 334.497 356.647 334.366 356.489C334.495 356.522 334.625 356.556 334.759 356.963ZM316.641 296.796C316.346 296.692 316.052 296.589 315.757 296.485C315.851 296.783 315.945 297.082 316.641 296.796Z" fill="#FDFDFD"/>
<path d="M486.482 479.11C493.44 490.644 493.297 503.138 489.652 515.283C481.531 542.338 465.072 563.071 439.534 575.598C426.309 582.084 412.83 581.896 400.496 572.573C389.522 564.277 387.055 552.508 394.079 540.644C399.656 531.227 405.694 522.084 411.511 512.81C412.465 511.288 413.338 509.715 414.248 508.166C413.739 507.761 413.229 507.356 412.72 506.952C411.558 508.178 410.186 509.266 409.268 510.655C404.441 517.964 399.464 525.195 395.089 532.772C392.938 536.498 390.82 537.889 386.341 537.51C354.461 534.809 332.376 513.18 329.776 481.264C329.177 473.911 329.687 466.467 329.687 458.082C337.082 464.309 347.468 462.231 353.424 469.982C354.096 470.857 356.824 470.244 358.589 470.148C360.15 470.063 361.699 469.737 363.622 470.971C359.63 473 355.596 474.952 351.662 477.089C349.608 478.204 348.081 479.611 353.043 480.426C365.185 481.442 376.226 482.498 387.284 483.328C402.57 484.474 416.27 489.269 429.436 497.555C436.369 501.917 445.815 503.572 454.239 503.957C467.963 504.584 486.118 491.033 486.482 479.11Z" fill="#DD4F06"/>
<path d="M329.049 291.411C326.044 293.78 323.993 293.344 321.256 289.909C315.026 282.092 307.916 274.979 300.8 267.183C301.076 266.84 301.936 265.768 303.072 264.354C294.438 256.839 285.894 249.403 276.935 241.605C278.175 241.001 279.493 240.359 281.733 239.268C278.84 234.862 276.128 230.731 272.794 226.128C271.724 224.537 271.277 223.418 270.829 222.298C267.987 218.796 265.425 215.011 262.244 211.851C256.064 205.712 248.939 206.348 244.88 213.98C241.421 220.484 239.322 227.721 236.725 234.672C236.36 235.648 236.098 237.225 236.61 237.88C242.566 245.504 236.237 253.697 237.836 261.482C238.082 262.677 238.229 263.893 238.534 265.805C240.877 264.324 242.599 263.235 244.59 261.977C247.434 273.112 250.187 283.889 253.172 295.572C255.909 293.756 257.232 292.878 258.207 292.232C264.129 306.578 270.083 321.001 276.69 337.004C278.976 333.797 279.881 332.527 280.948 331.031C290.288 339.748 300.54 346.517 313.89 344.74C317.477 358.479 320.924 371.679 324.518 385.442C326.216 384.2 327.202 383.479 328.361 382.631C332.931 392.895 334.099 405.962 346.877 409.43C347.593 408.84 348.31 408.251 349.027 407.661C352.157 411.826 355.172 416.084 358.438 420.14C369.152 433.445 385.246 437.62 399.796 445.384C401.324 442.343 402.466 440.071 403.582 437.851C410.387 438.782 410.482 441.138 419.028 422.947C420.513 424.138 421.915 425.262 424.371 427.23C425.985 422.187 427.335 417.97 429.12 413.358C430.056 413.37 430.558 413.776 431.122 414.698C431.926 417.18 432.667 419.147 433.563 421.528C444.804 417.513 450.242 408.159 456.631 399.842C456.839 400.46 457.048 401.077 457.256 401.694C459.984 401.163 462.712 400.631 465.44 400.1C465.247 401.047 465.054 401.994 464.951 403.472C465.042 404.002 465.17 403.98 464.71 404.052C463.689 405.83 463.129 407.538 462.638 409.261C462.708 409.277 462.576 409.266 462.094 409.329C461.467 410.218 461.321 411.043 461.098 411.803C461.022 411.737 460.836 411.814 460.836 411.814C459.74 414.475 458.215 417.049 457.657 419.819C456.932 423.416 456.977 427.168 456.619 431.775C454.755 430.566 453.679 429.869 451.662 428.562C450.279 433.347 448.724 437.789 447.75 442.356C446.728 447.145 438.087 455.429 433.11 456.39C412.319 460.408 391.601 464.826 370.748 468.477C367.409 469.061 363.518 466.482 359.883 465.365C359.726 464.666 359.569 463.967 359.413 463.268C358.267 464.771 357.121 466.272 355.451 468.46C351.727 465.111 347.922 461.69 344.589 458.693C342.21 459.052 339.657 460.281 338.012 459.525C333.164 457.296 329.349 454.128 329.013 447.808C327.938 427.599 324.128 407.865 318.733 390.588C314.005 388.494 310.261 387.843 307.987 385.657C297.862 375.92 285.422 368.437 278.757 355.267C273.434 344.748 267.609 334.484 261.87 323.855C261.459 324.168 260.532 324.873 258.32 326.555C254.509 315.8 250.86 305.504 247.082 294.845C246.158 296.11 245.144 297.5 243.761 299.393C235.2 279.703 230.669 259.733 232.043 237.904C231.118 238.7 230.423 239.237 229.802 239.849C229.229 240.414 228.736 241.059 226.907 243.169C226.907 233.496 227.057 225.575 226.832 217.664C226.743 214.546 225.815 211.452 224.533 208.479C224.432 206.766 224.637 204.963 224.165 203.36C223.301 200.431 221.751 197.694 220.994 194.747C218.938 186.731 220.094 185.42 228.634 185.816C228.634 184.307 228.579 182.812 228.651 181.323C228.712 180.044 228.918 178.772 229.189 176.343C232.827 177.207 236.074 177.977 240.067 179.046C240.948 179.14 241.084 178.937 241.22 178.734C240.918 178.867 240.617 179 240.316 179.133C240.409 177.589 240.501 176.046 240.631 173.867C249.677 177.614 256.385 182.306 260.883 191.909C269.138 209.532 277.052 227.822 293.179 240.377C295.057 241.839 296.664 243.652 298.775 245.662C297.578 246.965 296.531 248.106 296.395 248.253C301.693 264.179 316.164 270.663 327.472 280.56C325.05 282.64 323.242 284.193 321.04 286.084C324.036 288.017 326.388 289.534 329.049 291.411Z" fill="#D1ECFB"/>
<path d="M446.367 319.776C446.367 319.776 446.613 319.643 447.221 319.647C448.795 318.993 450.617 318.306 450.596 317.681C450.377 311.16 449.862 304.649 449.43 298.136C455.524 284.092 450.875 278.476 440.533 269.701C436.852 266.578 434.482 261.904 431.514 257.937C432.052 257.315 432.591 256.692 433.129 256.07C436.463 257.465 439.796 258.861 443.901 260.579C441.571 262.082 440.163 262.991 438.705 263.931C445.261 266.02 451.831 268.114 460.011 270.72C456.921 272.737 455.861 273.429 455.24 273.834C458.489 277.984 462.42 281.809 464.825 286.432C466.984 290.582 471.233 295.088 467.671 300.699C469.587 303.369 474.417 307.601 473.635 309.454C470.668 316.48 477.622 322.774 473.367 329.885C472.073 330.038 470.058 330.276 468.404 330.471C468.203 334.545 468.036 338.349 467.82 342.151C467.587 346.255 467.306 350.356 466.985 355.428C463.285 353.92 461.359 353.135 459.058 352.551C458.683 352.751 458.581 352.599 458.581 352.599L458.731 352.859C457.718 357.87 456.992 362.963 455.579 367.857C454.811 370.519 453.007 373.493 450.118 367.833C449.516 370.957 449.31 373.039 448.685 374.985C448.042 376.988 446.99 378.859 445.823 381.437C443.28 379.885 441.392 378.513 439.322 377.528C436.979 376.413 435.382 371.309 431.577 375.839C431.413 376.035 428.269 373.467 426.352 372.511C424.656 371.665 422.735 371.271 420.336 370.381C419.321 370.056 418.883 370.028 418.445 370C418.72 370.419 418.995 370.838 419.27 371.257C419.332 372.344 419.394 373.432 419.483 374.975C411.571 376.122 405.861 371.75 399.991 367.091C399.652 368.643 399.386 369.856 398.955 371.829C396.332 369.744 393.998 367.888 391.672 366.04C388.619 370.847 381.197 370.131 366.361 354.955C365.884 357.07 365.485 358.842 364.991 361.035C359.369 360.575 354.712 358.608 352.047 353.547C349.878 349.428 348.258 345.019 346.448 340.859C343.449 341.408 340.942 341.866 336.057 342.759C339.301 335.841 341.778 330.559 344.383 325.003C343.708 324.837 342.584 324.56 340.393 324.019C342.996 319.549 345.453 315.329 347.909 311.109C347.382 311.068 346.856 311.027 346.329 310.986C346.536 308.538 345.995 305.661 347.099 303.726C349.879 298.852 353.401 294.403 357.452 289.894C359.336 292.936 360.414 295.861 361.444 298.803C362.424 301.604 362.613 305.121 364.461 307.086C368.2 311.062 372.788 314.249 377.108 317.655C378.444 318.709 381.082 320.438 381.376 320.138C386.962 314.437 388.703 321.167 391.808 323.229C393.18 324.14 394.454 325.201 395.969 326.343C396.824 324.342 397.443 322.892 397.332 323.152C403.189 323.693 408.276 323.177 412.556 324.8C418.318 326.984 423.798 330.359 428.758 334.082C433.044 337.299 436.645 336.943 440.722 334.481C443.13 333.027 445.551 331.594 448.139 330.606C450.668 333.291 453.026 335.522 455.384 337.753C456.133 337.54 456.882 337.326 457.631 337.113C458.166 332.875 458.701 328.638 459.485 324.256C459.733 324.113 460.149 323.719 460.644 323.773C464.121 324.705 467.103 325.583 470.208 326.497C471.174 316.461 470.426 314.191 465.954 312.197C466.207 315.454 466.467 318.81 466.797 323.073C462.238 321.539 458.856 320.401 454.703 319.004C454.703 323.533 454.703 327.512 454.703 333.204C451.691 330.967 449.956 329.679 448.269 327.769C447.668 324.69 447.018 322.233 446.367 319.776ZM388.896 345.65C387.205 347.229 385.513 348.808 382.602 351.525C381.143 345.464 380.018 340.787 379.077 336.878C376.271 343.639 377.373 349.387 383.679 355.723C386.033 352.55 388.322 349.463 391.414 346.703C394.126 350.081 396.838 353.459 399.55 356.837C400.376 356.588 401.201 356.34 402.026 356.092C402.869 352.357 403.711 348.623 404.554 344.889C404.049 344.79 403.544 344.691 403.039 344.592C402.163 347.3 401.288 350.007 399.825 354.533C396.61 349.182 394.354 345.427 391.941 341.411C391.179 342.603 390.387 343.84 388.896 345.65ZM362.709 324.574C364.562 323.389 366.416 322.203 368.269 321.018C368.059 320.64 367.849 320.262 367.639 319.884C365.558 320.526 363.477 321.167 360.441 322.103C360.78 317.436 361.056 313.639 361.397 308.952C356.037 317.614 356.279 321.476 362.709 324.574Z" fill="#A4D8FB"/>
<path d="M486.388 478.67C486.118 491.033 467.963 504.584 454.239 503.957C445.814 503.572 436.369 501.917 429.436 497.555C416.27 489.269 402.57 484.474 387.284 483.327C376.226 482.498 365.185 481.442 353.486 480.482C363.252 476.2 373.328 470.396 384.157 467.983C403.499 463.672 423.201 460.223 442.93 458.644C460.147 457.267 476.724 460.892 486.388 478.67Z" fill="#FD7200"/>
<path d="M519.301 252.768C510.278 253.491 501.255 254.214 491.117 255.026C492.991 267 494.898 279.184 496.924 292.13C500.32 292.13 503.297 292.13 506.645 292.599C504.906 295.093 502.797 297.117 500.265 298.967C499.23 299.181 498.618 299.568 497.464 299.967C491.638 300.483 486.356 300.988 480.748 301.199C477.47 298.068 474.519 295.229 471.568 292.391C471.568 292.391 471.78 292.226 471.759 291.998C471.439 291.439 471.139 291.109 470.839 290.779C468.139 286.306 465.357 281.879 462.814 277.318C462.366 276.514 463.121 275.12 462.954 274.056C462.77 272.881 462.164 271.772 461.635 269.738C462.712 261.795 466.525 259.819 473.502 263.871C472.922 258.988 472.464 255.132 472.512 251.496C475.869 248.563 478.721 245.41 481.573 242.256C481.602 242.418 481.631 242.58 481.66 242.742C483.507 241.265 485.355 239.789 487.202 238.313C486.899 237.631 486.595 236.949 486.292 236.267C481.691 242.555 479.29 235.81 475.886 234.803C480.541 226.9 485.157 219.43 490.693 210.474C491.403 212.787 491.819 214.142 491.74 213.882C498.476 206.051 504.462 198.386 511.29 191.567C513.472 189.388 517.885 189.452 521.278 188.489C522.295 192.32 523.395 196.132 524.297 199.99C524.857 202.382 525.116 204.845 525.51 207.276C526.131 207.298 526.752 207.32 527.373 207.342C526.072 212.325 524.772 217.308 523.104 222.027C522 221.524 521.263 221.285 520.635 220.781C520.437 220.471 520.13 220.427 519.824 220.383C520.105 220.567 520.385 220.75 520.588 221.449C521.604 226.249 522.698 230.532 524.109 236.055C520.215 234.534 517.95 233.65 515.685 232.765C515.471 233.212 515.257 233.659 515.043 234.106C517.788 235.531 520.532 236.956 523.279 238.904C521.954 243.874 520.628 248.321 519.301 252.768Z" fill="#FCFDFD"/>
<path d="M421.513 255.012C417.893 261.322 414.322 267.131 410.009 274.149C408.36 270.252 407.556 268.354 406.581 266.049C405.156 268.313 403.914 270.284 402.241 272.943C400.033 271.203 398.076 269.662 396.48 268.404C396.109 263.992 405.579 262.176 397.445 255.986C390.919 264.25 384.458 272.433 377.419 281.347C375.752 278.423 374.925 276.972 373.889 275.155C373.271 275.968 372.701 276.723 372.127 277.474C368.123 282.713 365.885 282.732 362.562 277.076C360.599 273.735 359.25 270.031 357.464 266.14C356.18 266.867 354.979 267.547 352.73 268.82C352.139 264.413 351.642 260.705 351.085 256.553C348.647 256.553 345.493 256.553 341.898 256.553C343.684 241.587 354.687 235.387 365.98 229.404C362.42 226.921 359.103 224.607 355.654 222.201C363.341 215.351 371.238 215.135 381.883 221.063C382.513 219.614 383.141 218.169 384.34 215.413C387.97 223.247 392.799 220.049 397.718 218.663C406.781 216.108 415.717 215.857 424.726 222.373C421.983 223.704 420.009 224.662 418.047 225.614C422.06 229.296 426.184 233.08 431.699 238.14C426.663 238.14 423.925 238.14 420.706 238.14C421.341 241.05 421.915 243.675 422.29 245.395C420.439 247.25 417.972 248.652 418.032 249.935C418.106 251.513 420.29 252.99 421.513 255.012ZM370.694 236.942C370.221 239.103 369.747 241.265 369.024 244.564C373.846 243.109 377.325 242.059 380.622 241.064C381.246 244.878 381.89 248.811 382.913 255.057C389.699 249.304 394.972 244.834 400.587 240.074C400.232 239.184 399.525 237.413 398.997 236.089C394.319 240.681 389.876 245.043 385.432 249.405C384.855 249.001 384.278 248.597 383.701 248.193C383.701 244.242 383.701 240.291 383.701 236.089C380.582 237.588 378.077 238.832 375.538 240.002C372.099 241.587 371.947 239.495 372.784 236.666C373.04 236.017 373.296 235.368 373.553 234.719C373.257 234.566 372.961 234.414 372.666 234.261C372.217 234.885 371.769 235.51 370.694 236.942Z" fill="#A1D6F9"/>
<path d="M347.26 525.113C359.663 534.202 373.518 539.585 390.675 540.882C386.474 552.212 382.534 562.407 378.956 572.727C377.728 576.27 376.336 580.295 376.881 583.809C378.244 592.594 380.673 601.212 382.663 609.843C369.705 617.581 357.034 617.009 347.352 608.523C341.745 603.609 339.685 597.836 341.114 590.356C343.772 576.449 346.513 562.514 348.076 548.462C348.859 541.421 347.127 534.098 346.734 526.173C346.935 525.443 347.26 525.113 347.26 525.113Z" fill="#DB4E06"/>
<path d="M523.467 222.291C524.768 217.308 526.068 212.325 527.369 207.342C526.748 207.32 526.127 207.298 525.507 207.276C525.113 204.845 524.853 202.382 524.294 199.99C523.391 196.132 522.291 192.32 521.274 188.489C517.882 189.452 513.468 189.388 511.286 191.567C504.458 198.386 498.473 206.051 491.736 213.882C491.816 214.142 491.399 212.787 490.689 210.474C485.154 219.43 480.537 226.9 475.852 235.339C477.017 240.652 478.467 245.028 474.139 248.39C472.03 245.916 469.996 243.53 467.963 241.144C466.468 241.075 464.973 241.005 462.607 240.896C469.744 225.969 478.508 212.996 490.905 201.633C489.427 201.236 488.189 200.904 485.499 200.183C491.031 192.974 496.226 186.203 501.384 179.481C506.368 182.653 516.04 178.025 516.883 171.251C517.538 165.98 520.737 164.41 523.681 161.64C526.05 159.41 527.847 156.57 529.898 154.001C530.327 154.892 530.756 155.782 531.185 156.673C534.763 156.166 538.341 155.66 542.569 155.061C543.233 158.171 543.976 161.651 544.761 165.331C545.88 165.19 547.038 165.044 549.189 164.774C547.73 181.735 546.302 198.339 544.874 214.943C544.124 215.04 543.374 215.137 542.624 215.233C541.218 212.787 539.813 210.34 537.86 206.941C538.77 221.39 539.607 234.687 540.445 247.983C539.698 248.184 538.952 248.385 538.205 248.587C536.808 245.966 535.412 243.345 534.059 240.807C533.142 244.268 533.27 248.864 531.1 250.642C528.593 252.695 524.059 252.265 519.852 252.841C520.624 248.321 521.95 243.874 523.772 238.732C527.765 232.596 525.895 227.429 523.467 222.291ZM537.222 205.938L537.024 205.787C537.024 205.787 537.034 206.129 537.222 205.938Z" fill="#D0EBFA"/>
<path d="M174.145 355.861C163.301 350.664 152.867 345.722 140.945 340.075C148.764 332.732 156.773 325.536 164.386 317.944C169.398 312.947 173.87 313.142 179.867 316.551C200.144 328.076 217.822 342.411 231.368 361.579C232.737 363.516 233.993 365.532 235.268 367.46C225.189 372.517 215.472 377.391 206.77 381.758C195.974 373.165 185.264 364.641 174.145 355.861ZM181.266 353.497C187.707 355.909 193.991 359.575 200.63 360.414C208.799 361.446 212.713 353.938 208.821 346.621C203.945 337.452 190.479 331.645 180.572 334.439C173.978 336.298 171.837 341.82 175.667 347.629C176.964 349.598 178.875 351.161 181.266 353.497ZM161.042 326.029C157.704 327.978 153.868 330.305 158.07 334.308C161.825 337.885 166.693 336.893 170.662 334.1C172.099 333.088 173.656 330.183 173.176 328.874C171.471 324.232 167.178 324.791 163.232 325.203C162.81 325.248 162.404 325.447 161.042 326.029ZM215.609 362.073C211.775 361.555 208.063 362.172 207.773 366.633C207.652 368.502 210.083 371.89 211.793 372.206C214.308 372.672 218.214 371.858 219.741 370.063C222.592 366.712 219.704 364.167 215.609 362.073Z" fill="#74B05B"/>
<path d="M444.317 309.315C445.486 313.318 445.874 317.355 441.793 319.852C436.301 323.213 430.261 325.988 423.944 322.594C418.628 319.739 413.7 316.074 408.913 312.363C407.362 311.161 406.798 308.68 405.327 306.046C405.041 301.672 405.213 298.036 405.384 294.4C401.798 303.5 395.722 301.449 389.49 299.025C387.868 298.394 385.673 298.431 384.608 297.323C381.478 294.067 378.784 290.39 375.938 286.862C375.956 286.847 375.987 286.81 376.449 286.758C382.517 282.598 388.124 278.49 394.225 274.021C396.029 276.158 398.102 278.613 399.835 281.34C398.844 283.946 398.192 286.281 397.541 288.616C398.186 288.77 398.83 288.924 399.475 289.077C400.211 287.376 400.947 285.675 401.738 283.849C403.852 284.329 405.694 284.747 407.535 285.166C407.765 284.621 407.995 284.077 408.225 283.533C406.219 282.448 404.214 281.362 402.385 279.879C404.189 278.435 405.817 277.388 407.444 276.34C407.444 276.34 407.468 276.301 407.461 276.761C407.975 278.387 408.497 279.553 409.317 281.386C411.055 278.367 412.467 275.914 413.879 273.46C413.879 273.46 414.082 273.665 414.456 273.554C416.321 271.311 417.812 269.179 419.303 267.047C419.303 267.047 419.355 267.072 419.72 267.036C421.789 267.545 423.493 268.09 425.197 268.634C428.03 268.165 432.003 266.277 433.494 267.479C439.131 272.026 445.153 276.868 448.755 282.952C452.212 288.793 448.869 295.065 442.984 300.134C439.653 299.127 439.828 297.369 442.009 293.737C443.659 290.988 444.731 287.891 446.061 284.95C441.125 296.254 432.233 290.611 424.657 291.061C429.205 292.803 433.752 294.546 438.224 296.259C439.132 302.336 435.328 303.583 430.527 303.881C422.856 304.358 415.5 303.824 409.868 297.046C408.951 303.171 414.588 311.995 420.63 314.764C427.377 317.855 439.141 315.149 444.317 309.315Z" fill="#F2F6F8"/>
<path d="M500.685 299.142C502.794 297.117 504.904 295.093 507.214 292.681C514.739 291.503 522.063 290.712 530.918 289.755C528.376 298.592 526.035 306.73 523.695 314.869C523.051 314.782 522.408 314.694 521.765 314.607C521.221 311.884 520.678 309.16 519.946 305.492C515.156 320.97 512.386 336.803 496.915 347.477C497.242 344.232 497.437 342.293 497.635 340.1C497.689 339.357 497.741 338.869 497.793 338.381C497.515 338.774 497.237 339.167 496.958 339.56C493.44 343.807 489.533 347.798 486.52 352.379C483.936 356.309 481.172 357.455 476.713 355.187C476.683 350.765 476.948 346.74 477.227 342.487C477.834 342.077 480.806 340.979 480.795 339.912C480.752 335.721 483.407 330.718 478.256 327.553C478.278 322.275 478.299 316.997 478.865 311.146C485.918 308.64 479.921 304.41 481.072 301.492C486.354 300.988 491.636 300.483 497.808 300.395C499.238 302.997 499.778 305.182 500.398 307.689C498.344 307.689 497.148 307.689 495.573 307.689C496.308 309.784 496.942 311.594 497.641 313.962C498.026 319.638 499.382 325.017 494.566 329.561C496.527 329.559 499.314 328.834 499.393 327.884C499.796 323.035 499.499 318.128 499.718 312.81C501.061 311.05 503.117 309.639 503.014 308.409C502.752 305.277 501.526 302.225 500.685 299.142Z" fill="#D0EBFA"/>
<path d="M521.399 287.901C518.193 288.151 515.563 288.241 512.95 288.501C498.561 289.932 501.449 290.878 498.32 277.161C496.923 271.036 496.251 264.746 495.102 257.615C521.656 257.489 546.205 252.432 568.605 238.755C575.192 247.159 581.48 255.181 588.092 263.617C567.723 276.978 545.577 284.35 521.399 287.901ZM547.775 276.854C550.068 275.596 552.961 274.836 554.509 272.962C556.714 270.29 559.815 266.23 559.084 263.808C558.209 260.905 553.972 257.729 550.717 257.086C541.584 255.282 532.876 257.685 525.379 263.304C519.227 267.914 519.731 274.698 527.082 276.723C533.245 278.421 540.208 277.204 547.775 276.854ZM515.653 273.113C514.305 268.152 510.467 266.705 506.18 267.632C504.209 268.058 501.013 271.615 501.361 272.375C502.48 274.814 504.65 277.55 507.052 278.433C510.632 279.75 514.409 278.911 515.653 273.113ZM567.949 251.189C566.478 253.663 565.007 256.138 563.536 258.612C566.137 259.672 568.919 261.835 571.283 261.446C573.188 261.131 575.827 257.81 575.952 255.693C576.202 251.448 572.579 250.777 567.949 251.189Z" fill="#74B05B"/>
<path d="M405.132 648.671C386.449 649.133 367.573 649.171 348.115 649.185C347.533 641.091 347.533 633.021 347.533 625.762C360.568 621.337 372.17 617.398 383.611 613.514C389.131 623.491 394.575 633.331 400.483 642.906C400.946 642.64 400.9 642.694 400.9 642.694C402.246 644.545 403.591 646.396 405.132 648.671Z" fill="#FD9B00"/>
<path d="M477.957 327.936C483.405 330.718 480.75 335.721 480.794 339.912C480.805 340.979 477.832 342.077 477.226 342.487C476.946 346.74 476.682 350.765 476.221 355.221C475.716 359.668 475.407 363.684 474.334 368.142C470.817 367.459 468.062 366.334 464.317 364.804C463.34 369.078 462.748 373.399 461.278 377.396C460.492 379.536 458.194 381.118 456.578 382.952C456.296 382.639 456.014 382.325 455.732 382.012C453.938 385.662 452.144 389.313 450.032 392.825C449.279 392.569 448.844 392.451 448.409 392.333C441.807 389.107 435.248 385.785 428.562 382.745C427.386 382.21 425.676 382.854 423.705 382.804C423.078 382.589 422.958 382.524 422.839 382.458C422.993 382.654 423.147 382.849 423.301 383.044C422.075 384.363 420.854 386.772 419.622 386.778C416.893 386.79 413.82 386.167 411.493 384.782C405.113 380.984 398.256 381.93 391.409 381.282C386.33 380.801 381.212 377.804 376.735 374.946C373.992 373.195 372.427 369.591 370.333 366.818C369.715 367.29 369.098 367.761 368.48 368.233C368.172 369.84 367.865 371.447 367.423 373.758C365.483 373.565 363.417 373.85 361.82 373.114C356.364 370.599 352.355 366.786 352.316 359.655C356.36 360.709 360.306 362.511 364.424 363.727C365.634 364.085 367.333 362.783 369.637 361.937C375.338 367.641 382.792 371.795 392.834 371.688C398.483 371.627 404.115 374.976 409.852 376.393C413.405 377.27 417.133 377.609 420.799 377.751C421.942 377.795 423.139 376.404 424.669 375.447C430.623 378.002 437.266 381.192 444.193 383.542C445.604 384.021 448.618 381.76 449.975 380.037C454.934 373.74 460.63 367.779 461.779 359.254C461.86 358.649 462.851 357.662 463.361 357.697C469.374 358.105 470.618 353.543 471.428 349.365C472.353 344.602 472.319 339.652 473.652 335.296C474.987 332.971 476.323 330.645 477.957 327.936Z" fill="#AFDAF9"/>
<path d="M256.211 377.725C250.656 380.429 245.413 382.708 240.478 385.525C235.518 388.357 231.995 387.522 229.163 382.608C227.973 380.542 226.402 378.697 224.258 375.713C227.472 375.03 230.181 374.835 232.564 373.848C235.179 372.764 238.155 371.41 239.643 369.253C240.328 368.26 238.128 364.864 236.733 362.92C233.692 358.681 230.33 354.674 226.784 350.173C238.755 343.631 250.303 337.32 262.245 330.794C263.333 333.302 264.252 335.419 264.697 336.446C258.465 340.682 252.189 343.983 247.266 348.701C244.774 351.089 242.802 356.984 244.073 359.586C245.571 362.649 251.028 365.812 254.43 365.478C261.745 364.759 268.844 361.826 276.031 359.799C276.04 359.063 276.05 358.327 276.06 357.591C277.339 359.196 278.617 360.801 280.575 363.259C272.326 368.184 264.492 372.86 256.211 377.725Z" fill="#74B15B"/>
<path d="M479.982 397.274C478.372 395.253 476.656 393.305 475.191 391.183C474.339 389.95 473.89 388.439 473.259 387.053C474.516 386.63 476.063 385.506 476.986 385.89C489.174 390.947 501.274 396.216 513.951 401.672C506.553 411.181 500.404 419.084 494.33 426.89C483.904 422.769 473.433 418.658 463.007 414.438C462.403 414.193 462.154 413.067 461.288 412.082C460.837 411.814 461.023 411.737 461.617 411.886C462.333 411.112 462.455 410.189 462.577 409.266C462.577 409.266 462.709 409.277 463.22 409.487C466.551 409.776 469.47 410.353 472.165 409.811C475.655 409.11 479.393 408.102 482.177 406.064C483.594 405.026 483.381 401.447 483.382 399.016C483.382 398.493 481.127 397.97 479.941 397.409C479.971 397.371 479.982 397.274 479.982 397.274ZM489.214 406.258C486.699 409.627 487.401 412.976 490.869 414.444C493.242 415.449 496.683 414.93 499.243 413.989C500.283 413.607 501.139 408.939 500.56 408.561C497.932 406.848 494.781 405.916 491.766 404.852C491.319 404.694 490.592 405.335 489.214 406.258Z" fill="#74B05B"/>
<path d="M447.969 330.152C445.554 331.594 443.132 333.027 440.724 334.481C436.647 336.943 433.046 337.299 428.76 334.082C423.8 330.359 418.32 326.984 412.559 324.8C408.278 323.177 403.191 323.693 397.334 323.153C397.445 322.892 396.826 324.342 395.972 326.343C394.456 325.201 393.182 324.14 391.81 323.229C388.705 321.167 386.964 314.437 381.378 320.138C381.084 320.438 378.446 318.709 377.11 317.655C372.79 314.249 368.202 311.062 364.463 307.086C362.615 305.121 362.426 301.604 361.446 298.803C360.416 295.861 359.338 292.936 357.879 289.732C358.748 288.45 360.02 287.441 361.538 286.236C363.44 289.85 364.941 292.961 366.67 295.939C373.102 307.023 382.608 313.007 395.557 313.025C403.47 313.036 410.587 315.197 416.741 320.314C426.949 328.801 435.262 328.697 446.024 319.895C447.02 322.233 447.67 324.69 448.263 328.217C448.126 329.576 448.048 329.864 447.969 330.152Z" fill="#65C1F6"/>
<path d="M450.351 392.963C452.145 389.313 453.939 385.663 455.733 382.013C456.015 382.326 456.297 382.639 456.58 382.952C458.195 381.118 460.493 379.536 461.279 377.396C462.749 373.399 463.341 369.078 464.318 364.805C468.063 366.334 470.818 367.459 474.065 368.609C474.489 369.749 474.42 370.864 473.682 372.534C472.724 375.228 472.434 377.367 472.144 379.505C471.06 383.495 469.976 387.485 468.182 392.111C467.258 393.959 467.045 395.171 466.833 396.383C466.833 396.383 466.782 396.287 466.433 396.554C465.931 397.758 465.778 398.695 465.624 399.632C465.624 399.632 465.693 399.93 465.567 400.015C462.714 400.632 459.986 401.163 457.258 401.694C457.049 401.077 456.841 400.46 456.632 399.843C450.244 408.159 444.805 417.513 433.565 421.529C432.668 419.147 431.928 417.18 431.541 414.571C434.313 409.747 436.73 405.565 439.104 401.46C441.643 402.992 445.059 405.052 450.351 408.244C450.351 401.899 450.351 397.431 450.351 392.963Z" fill="#FBFCFC"/>
<path d="M406.251 605.862C410.281 615.986 414.311 626.111 418.123 635.687C415.133 636.817 411.171 638.314 406.541 639.51C393.374 619.015 382.501 598.232 382.164 573.625C383.187 574.635 384.21 575.645 385.342 577.464C385.824 578.639 386.198 579.006 386.571 579.373C386.571 579.373 386.485 579.377 386.469 579.889C388.076 585.497 389.444 590.692 391.384 595.664C393.974 602.298 398.737 606.209 406.251 605.862Z" fill="#63C2F8"/>
<path d="M328.738 604.72C330.91 603.492 330.91 603.492 331.367 609.231C331.29 614.502 330.896 618.702 331.33 622.815C332.544 634.311 336.658 641.502 344.182 641.451C344.667 650.052 345.151 658.652 345.613 666.845C341.94 668.954 338.448 670.958 334.463 672.634C332.407 665.515 330.44 658.788 329.383 651.92C327.965 642.709 326.685 633.404 326.429 624.11C326.252 617.673 327.903 611.185 328.738 604.72Z" fill="#63C2F8"/>
<path d="M407.412 275.864C405.818 277.388 404.191 278.435 402.065 280.06C401.104 280.781 400.64 280.925 400.177 281.069C398.104 278.613 396.031 276.158 394.226 274.021C388.125 278.49 382.519 282.598 376.369 286.575C375.703 286.385 375.58 286.325 375.457 286.266C375.612 286.47 375.766 286.673 375.921 286.878C378.786 290.39 381.48 294.067 384.61 297.323C385.674 298.431 387.87 298.394 389.492 299.025C395.724 301.449 401.8 303.5 405.385 294.4C405.214 298.036 405.043 301.672 404.897 305.855C404.761 307.657 404.601 308.913 404.439 310.183C382.687 311.684 372.07 304.947 364.602 284.707C374.215 283.132 384.373 282.692 389.651 272.258C390.195 271.183 393.393 270.129 393.615 270.417C397.205 275.069 402.397 274.883 407.412 275.864Z" fill="#CAE4F3"/>
<path d="M431.014 205.319C426.512 201.667 422.38 198.3 417.105 194.002C429.872 193.076 440.584 194.663 449.937 201.557C451.493 202.705 452.821 205.83 452.437 207.658C450.952 214.724 448.731 221.636 446.905 228.174C441.294 220.014 436.339 212.81 431.014 205.319Z" fill="#F46E00"/>
<path d="M324.138 230.373C324.814 231.558 325.488 233.072 325.177 234.345C322.082 247.006 321.344 259.497 328.049 272.724C318.893 270.78 311.854 267.404 307.259 260.373C306.1 258.6 306.421 255.253 307.131 252.961C310.019 243.636 316.122 236.535 324.138 230.373Z" fill="#F46E00"/>
<path d="M269.517 346.07C274.829 354.664 274.363 356.902 265.415 360.465C261.504 362.023 256.925 362.928 252.771 362.597C246.815 362.123 244.563 356.664 248.584 352.223C252.14 348.297 256.913 345.384 261.424 342.449C265.13 340.038 267.968 341.361 269.517 346.07Z" fill="#50774A"/>
<path d="M329.913 288.136C328.743 287.61 327.574 287.083 325.555 286.175C333.319 279.532 340.638 273.27 347.964 267.002C351.707 270.363 355.092 273.402 358.135 277.023C354.601 279.804 351.409 282.004 347.733 284.253C341.47 285.58 335.692 286.858 329.913 288.136Z" fill="#EFF4F7"/>
<path d="M444.358 308.788C439.142 315.149 427.379 317.855 420.632 314.764C414.589 311.995 408.953 303.171 409.87 297.046C415.501 303.824 422.857 304.358 430.528 303.881C435.33 303.583 439.134 302.336 438.225 296.259C433.754 294.546 429.206 292.803 424.659 291.061C432.235 290.611 441.126 296.254 446.062 284.95C444.733 287.891 443.661 290.988 442.01 293.737C439.829 297.369 439.655 299.127 442.627 300.429C443.537 302.933 443.967 305.597 444.358 308.788ZM421.244 312.567C428.053 314.375 434.482 313.547 440.688 309.939C440.406 307.961 440.15 306.159 440.057 305.507C432.03 305.507 424.594 305.507 415.49 305.507C417.463 308.173 418.876 310.082 421.244 312.567Z" fill="#2B2F31"/>
<path d="M381.792 573.92C382.5 598.232 393.373 619.015 406.078 639.617C404.775 640.794 403.267 641.562 401.327 642.512C400.896 642.694 400.942 642.64 400.915 642.663C397.06 634.539 392.531 626.636 389.573 618.182C385.5 606.548 382.378 594.555 379.416 582.575C378.805 580.106 380.687 577.018 381.792 573.92Z" fill="#32A6E1"/>
<path d="M328.304 604.909C327.902 611.185 326.251 617.673 326.428 624.11C326.684 633.404 327.963 642.709 329.381 651.92C330.439 658.788 332.406 665.516 334.054 672.858C333.289 674.553 332.438 675.695 330.166 678.745C327.924 666.891 325.341 656.999 324.346 646.95C323.294 636.33 323.408 625.549 323.762 614.863C323.871 611.566 326.434 608.35 328.304 604.909Z" fill="#33A9E6"/>
<path d="M406.346 605.311C398.74 606.209 393.977 602.298 391.388 595.663C389.448 590.692 388.079 585.496 386.494 579.852C391.755 582.593 396.978 585.883 403.471 589.973C404.207 593.64 405.322 599.2 406.346 605.311Z" fill="#32ADEB"/>
<path d="M344.295 640.856C336.658 641.502 332.544 634.311 331.33 622.815C330.895 618.703 331.29 614.502 331.365 609.678C335.351 613.391 339.385 617.68 343.14 622.2C344.297 623.593 345.308 625.615 345.318 627.356C345.344 631.656 344.752 635.959 344.295 640.856Z" fill="#32ADEB"/>
<path d="M337.761 594.782C338.639 609.081 348.819 613.968 359.621 618.255C353.066 622.93 344.889 621.816 338.944 615.411C333.346 609.38 332.159 599.171 336.434 593.685C336.543 593.546 336.92 593.432 337.024 593.509C337.302 593.711 337.498 594.025 337.761 594.782Z" fill="#CB4806"/>
<path d="M398.175 574.326C402.754 577.143 406.948 579.681 411.156 582.228C405.037 585.952 398.02 585.279 392.241 580.438C385.932 575.151 384.084 567.584 386.888 560.224C390.376 564.647 394.082 569.346 398.175 574.326Z" fill="#CB4806"/>
<path d="M472.007 251.276C472.465 255.132 472.922 258.988 473.502 263.871C466.525 259.819 462.713 261.795 461.46 269.341C459.064 268.269 456.736 266.697 453.932 264.802C458.552 257.741 463.063 250.845 468.248 243.595C469.95 245.919 470.978 248.598 472.007 251.276Z" fill="#CEE8F7"/>
<path d="M334.68 274.439C327.619 269.542 326.726 262.149 325.641 253.02C330.962 255.309 335.762 256.349 339.214 259.092C344.729 263.473 343.543 266.846 334.68 274.439Z" fill="#D44B06"/>
<path d="M411.356 181.789C420.503 184.414 429.092 187.043 437.68 189.671C437.541 190.325 437.402 190.98 437.263 191.634C429.313 191.634 421.214 192.533 413.477 191.246C409.74 190.625 406.683 185.895 401.871 181.792C406.309 181.792 408.553 181.792 411.356 181.789Z" fill="#EC6B00"/>
<path d="M309.908 237.834C313.501 227.338 318.662 217.868 327.608 211.051C330.235 218.604 328.919 222.72 323.045 227.541C319.006 230.856 315.444 234.755 311.076 238.382C310.291 238.192 310.1 238.013 309.908 237.834Z" fill="#EC6B00"/>
<path d="M427.47 229.154C426.526 228.038 425.248 226.869 425.442 226.519C427.966 221.97 430.699 217.536 434.339 211.477C437.363 218.118 439.779 223.423 442.195 228.728C441.811 229.423 441.428 230.117 441.044 230.811C436.636 230.368 432.229 229.925 427.47 229.154Z" fill="#D44B06"/>
<path d="M464.994 403.96C467.195 400.511 469.444 397.105 472.007 393.225C474.39 394.686 476.724 396.117 479.521 397.411C479.983 397.274 479.972 397.371 479.853 397.971C480.345 401.997 480.591 405.794 476.18 406.248C472.517 406.625 467.731 409.855 465.172 403.981C465.172 403.981 465.043 404.003 464.994 403.96Z" fill="#50774A"/>
<path d="M330.215 288.522C335.69 286.858 341.468 285.58 348.284 284.251C352.045 284.559 354.77 284.916 357.495 285.274C349.265 292.167 340.272 293.373 330.215 288.522Z" fill="#A8D3F1"/>
<path d="M472.51 251.496C470.976 248.597 469.948 245.919 468.43 243.178C467.915 242.676 467.89 242.237 467.914 241.47C469.998 243.529 472.032 245.915 474.141 248.39C478.468 245.028 477.019 240.652 475.815 235.773C479.288 235.81 481.689 242.555 486.29 236.267C486.593 236.949 486.897 237.631 487.2 238.313C485.353 239.789 483.506 241.265 481.658 242.742C481.629 242.58 481.6 242.418 481.571 242.256C478.719 245.409 475.867 248.563 472.51 251.496Z" fill="#272727"/>
<path d="M480.745 301.199C479.919 304.41 485.917 308.64 478.898 310.609C476.125 304.905 473.865 299.166 471.584 292.909C474.515 295.229 477.467 298.068 480.745 301.199Z" fill="#AED9F7"/>
<path d="M348.463 353.488C345.922 354.926 343.323 355.856 339.704 357.152C339.04 353.054 338.477 349.584 337.887 345.578C344.533 343.475 346.464 348.236 348.463 353.488Z" fill="#B1DDFC"/>
<path d="M425.41 268.137C423.495 268.09 421.791 267.545 419.703 267.014C421.391 263.072 423.462 259.117 426.377 253.553C428.364 256.223 430.179 258.662 431.291 260.156C428.839 263.393 427.23 265.516 425.41 268.137Z" fill="#BFCAD1"/>
<path d="M433.922 240.901C434.325 240.705 434.654 240.423 435.44 239.69C439.777 237.619 443.582 235.912 447.387 234.205C445.162 241.061 439.441 244.048 433.057 246.427C433.046 244.338 433.484 242.62 433.922 240.901Z" fill="#AED9F7"/>
<path d="M449.041 298.437C449.865 304.649 450.38 311.16 450.599 317.681C450.62 318.306 448.798 318.993 447.215 319.508C446.522 315.612 446.126 311.831 446.465 308.117C446.755 304.951 447.89 301.862 449.041 298.437Z" fill="#65C1F6"/>
<path d="M447.704 233.822C443.581 235.912 439.776 237.619 435.489 239.365C434.161 237.964 433.316 236.524 432.139 234.517C436.876 233.439 441.144 232.353 445.47 231.599C446.192 231.473 447.165 232.789 447.704 233.822Z" fill="#F0F0F0"/>
<path d="M357.905 285.126C354.772 284.916 352.047 284.559 348.77 284.203C351.409 282.004 354.602 279.804 358.217 277.438C361.206 279.955 362.779 282.595 357.905 285.126Z" fill="#65BFF2"/>
<path d="M400.915 171.339C401.9 170.531 403.597 169.863 403.672 170.012C404.985 172.627 406.1 175.342 407.456 178.496C402.351 178.547 400.242 176.527 400.915 171.339Z" fill="#B73900"/>
<path d="M433.38 240.908C433.484 242.619 433.046 244.338 432.624 246.504C430.815 247.538 428.989 248.126 426.548 248.911C426.136 246.423 425.811 244.456 425.453 242.293C428.205 241.78 430.522 241.347 433.38 240.908Z" fill="#65BFF2"/>
<path d="M320.896 199.68C325.825 201.968 328.088 205.024 323.374 210.886C322.231 207.246 321.301 204.283 320.479 200.661C320.586 200.001 320.896 199.68 320.896 199.68Z" fill="#B73900"/>
<path d="M413.445 273.579C412.469 275.914 411.058 278.367 409.32 281.386C408.5 279.553 407.978 278.387 407.48 276.777C409.339 275.454 411.174 274.576 413.445 273.579Z" fill="#BFCAD1"/>
<path d="M418.915 267.217C417.816 269.179 416.325 271.311 414.365 273.445C415.439 271.427 416.982 269.407 418.915 267.217Z" fill="#BFCAD1"/>
<path d="M472.505 379.145C472.432 377.367 472.722 375.228 473.524 372.926C473.646 374.77 473.257 376.777 472.505 379.145Z" fill="#AFDAF9"/>
<path d="M467.199 396.099C467.045 395.17 467.257 393.959 467.857 392.471C468.018 393.402 467.792 394.609 467.199 396.099Z" fill="#D1ECFB"/>
<path d="M440.126 193.02C439.811 192.749 439.813 192.467 439.815 192.184C440.023 192.21 440.366 192.174 440.411 192.274C440.505 192.481 440.441 192.759 440.126 193.02Z" fill="#EC6B00"/>
<path d="M310.748 238.665C310.491 239.577 309.973 240.195 308.678 241.741C309.009 239.865 309.139 239.13 309.591 238.115C310.104 238.013 310.295 238.192 310.748 238.665Z" fill="#EC6B00"/>
<path d="M465.989 399.328C465.778 398.695 465.932 397.758 466.487 396.542C466.71 397.184 466.531 398.104 465.989 399.328Z" fill="#D1ECFB"/>
<path d="M220.972 174.67C221.105 174.906 220.934 175.476 220.445 175.883C220.308 175.482 220.488 175.242 220.972 174.67Z" fill="#FF9C00"/>
<path d="M386.515 578.976C386.201 579.006 385.828 578.639 385.408 577.868C385.726 577.836 386.091 578.208 386.515 578.976Z" fill="#32ADEB"/>
<path d="M320.429 200.157C320.205 199.956 320.141 199.599 320.076 199.243C320.258 199.26 320.441 199.278 320.76 199.488C320.898 199.68 320.588 200.001 320.429 200.157Z" fill="#B73900"/>
<path d="M470.799 291.128C471.139 291.109 471.438 291.439 471.683 292.109C471.339 292.125 471.049 291.801 470.799 291.128Z" fill="#AED9F7"/>
<path d="M308.008 242.836C307.978 242.476 308.11 242.345 308.243 242.213C308.351 242.365 308.554 242.525 308.542 242.667C308.529 242.809 308.303 242.932 308.008 242.836Z" fill="#EC6B00"/>
<path d="M346.77 525.606C346.734 525.372 346.863 524.975 347.125 524.845C347.259 525.113 346.934 525.443 346.77 525.606Z" fill="#DB4E06"/>
<path d="M242.265 20.0562C259.77 41.7214 280.333 59.1893 304.746 74.2806C293.579 83.0725 283.191 91.3724 272.601 99.4043C271.509 100.233 268.667 100.181 267.552 99.3319C245.12 82.2576 225.659 62.3347 209.664 38.2244C220.645 31.9306 231.274 25.8389 242.265 20.0562ZM264.717 75.0186C271.786 71.2035 273.402 66.9823 269.705 60.0923C265.452 52.1684 258.836 46.6306 249.879 45.3646C246.229 44.8485 240.667 45.7611 238.763 48.2048C236.602 50.9791 236.239 56.6262 237.419 60.2682C240.764 70.5939 252.377 76.7477 264.717 75.0186ZM225.061 37.0282C225.913 38.5139 226.578 41.0944 227.652 41.2779C230.738 41.8056 234.216 41.9883 237.049 40.9544C238 40.6072 238.446 34.5669 237.43 33.9567C234.841 32.4008 231.299 32.0694 228.135 32.0589C227.147 32.0557 226.151 34.6422 225.061 37.0282ZM283.102 76.1294C281.41 75.8691 279.281 74.8383 278.113 75.503C275.378 77.0597 272.668 79.1291 270.927 81.6654C270.449 82.362 273.429 87.102 274.818 87.1C278.379 87.0951 282.17 85.8933 285.319 84.1637C286.024 83.7767 284.472 79.266 283.102 76.1294Z" fill="#75B25C"/>
<path d="M580.063 513.791C566.306 524 566.228 524.093 553.517 513.465C535.275 498.213 519.331 480.871 506.164 460.724C516.734 454.334 526.97 448.147 537.955 441.506C555.213 462.728 575.588 481.129 600.665 496.211C593.538 502.298 586.982 507.897 580.063 513.791ZM553.302 497.776C565.133 498.399 570.608 492.71 566.367 483.679C562.13 474.653 554.803 468.855 544.846 467.374C534.916 465.898 529.498 473.346 533.544 482.61C537.117 490.791 543.714 495.453 553.302 497.776ZM534.211 462.89C536.203 459.178 535.482 455.556 531.724 454.288C529.217 453.442 525.468 454.292 523.138 455.759C521.976 456.49 521.942 462.015 522.801 462.425C525.703 463.811 529.229 463.904 532.528 464.413C532.824 464.458 533.207 463.931 534.211 462.89ZM576.045 510.237C580.255 508.972 584.314 507.308 582.64 501.771C581.44 497.799 575.009 496.24 570.762 499.087C568.924 500.32 566.697 504.566 567.083 504.943C569.353 507.165 572.342 508.649 576.045 510.237Z" fill="#75B25C"/>
<path d="M198.381 621.507C196.388 620.627 194.091 619.993 193.629 618.701C190.028 608.631 186.781 598.434 183.08 587.236C211.319 582.334 237.511 573.734 262.319 559.916C268.925 569.9 275.298 579.53 282.27 590.067C256.303 605.625 228.353 615.437 198.381 621.507ZM214.258 600.872C223.838 609.082 241.074 606.901 249.375 596.429C254.76 589.635 252.141 582.237 243.53 580.873C233.75 579.325 224.814 581.826 217.351 588.43C214.004 591.391 211.451 595.057 214.258 600.872ZM198.152 608.316C202.878 608.632 207.608 608.013 207.378 602.072C207.193 597.289 202.931 595.648 198.73 596.467C196.615 596.88 193.285 599.345 193.338 600.775C193.431 603.248 195.731 605.639 198.152 608.316ZM267.379 575.408C264.221 575.635 260.838 575.282 258.018 576.38C256.912 576.81 256.051 581.102 256.908 582.542C257.975 584.334 260.894 585.873 263.084 585.975C268.68 586.235 270.556 582.224 267.379 575.408Z" fill="#74B15B"/>
<path d="M341.506 177.75C318.573 174.404 282.071 162.154 268.953 153.32C274.168 143.858 279.273 134.265 284.849 124.957C285.441 123.97 289.13 123.905 290.822 124.665C310.076 133.315 330.131 139.203 350.907 142.696C355.61 143.486 360.363 143.981 366.193 144.758C363.623 156.699 361.167 168.108 358.529 180.366C352.682 179.481 347.371 178.676 341.506 177.75ZM305.156 160.965C312.716 165.949 321.075 167.261 329.682 165.209C338.774 163.04 340.636 155.422 333.937 149.086C327.67 143.158 319.937 141.328 311.561 141.525C306.29 141.649 301.204 142.615 299.027 148.095C296.832 153.624 300.732 157.082 305.156 160.965ZM281.686 146.298C284.865 146.763 288.136 147.84 291.178 147.384C292.344 147.209 294.121 143.145 293.58 141.547C292.895 139.519 290.368 137.328 288.218 136.743C282.945 135.307 279.968 139.246 281.686 146.298ZM357.114 157.294C353.461 153.887 349.372 153.891 346.116 157.225C344.756 158.618 344.332 163.502 345.118 163.955C347.806 165.507 351.448 166.893 354.299 166.295C357.956 165.529 359.881 162.258 357.114 157.294Z" fill="#74B15B"/>
<path d="M536.656 93.4421C522.808 95.7032 509.465 97.7884 496.13 99.9278C492.228 100.554 490.036 99.2249 489.357 95.1133C487.934 86.5029 486.267 77.9328 484.521 68.3631C511.257 68.9045 535.799 63.3457 558.324 49.825C564.918 58.149 571.131 65.9915 577.856 74.4808C565.241 83.0857 551.61 89.0308 536.656 93.4421ZM516.063 73.3956C514.496 76.5074 511.011 80.3355 511.837 82.5533C512.916 85.4526 517.117 88.1199 520.48 89.0488C529.123 91.4354 537.545 89.4686 544.371 83.7677C546.953 81.611 549.322 77.0038 548.818 74.0169C548.407 71.5853 543.809 68.7952 540.646 68.1047C532.26 66.2744 524.294 68.5947 516.063 73.3956ZM492.668 79.7668C492.628 82.2025 491.803 86.3547 492.691 86.7625C495.744 88.1648 499.408 88.6695 502.815 88.5821C503.758 88.558 505.769 84.1648 505.318 83.7012C503.247 81.5713 500.604 79.8572 497.896 78.5595C496.789 78.0288 494.998 78.9279 492.668 79.7668ZM565.447 64.5269C564.242 63.655 562.829 61.8651 561.871 62.0831C558.976 62.7421 555.914 63.7571 553.68 65.5744C553.016 66.1142 554.519 71.4205 555.639 71.6586C558.434 72.2528 561.739 71.6105 564.5 70.5644C565.461 70.1999 565.427 67.1958 565.447 64.5269Z" fill="#74B05B"/>
<path d="M508.099 688.3C516.905 689.043 525.171 690.14 533.431 690.088C541.456 690.038 549.475 688.81 558.627 687.999C560.388 697.173 562.258 706.906 564.299 717.534C533.358 724.908 503.693 722.081 473.816 710.437C478.023 700.837 482.024 691.704 486.084 682.438C493.345 684.37 500.451 686.261 508.099 688.3ZM511.587 714.718C518.975 716.694 526.417 717.173 533.119 713.011C535.592 711.476 538.457 708.17 538.439 705.691C538.421 703.206 535.449 699.231 533.039 698.563C526.459 696.739 519.504 695.674 512.675 695.548C507.679 695.456 502.157 697.377 501.188 703.328C500.252 709.079 505.014 711.594 509.429 713.791C509.819 713.985 510.235 714.129 511.587 714.718ZM495.779 698.9C494.206 694.182 490.537 693.04 486.487 694.551C484.8 695.18 482.538 698.673 483.02 699.791C483.972 702.004 486.397 704.411 488.675 705.03C492.299 706.013 495.59 704.611 495.779 698.9ZM549.289 709.907C552.016 708.554 554.99 707.51 557.312 705.648C557.969 705.122 557.223 701.048 556.24 700.617C553.883 699.584 550.721 698.86 548.393 699.607C543.15 701.288 543.236 705.709 549.289 709.907Z" fill="#74B05B"/>
<path d="M450.036 392.825C450.353 397.431 450.353 401.898 450.353 408.244C445.061 405.052 441.646 402.992 439.106 401.46C436.733 405.565 434.315 409.746 431.48 414.055C430.561 413.776 430.06 413.37 429.268 412.824C427.367 409.747 425.757 406.811 424.146 403.874C424.558 403.61 424.969 403.346 425.381 403.082C427.052 405.528 428.722 407.974 431.593 412.176C433.374 405.755 434.745 400.812 436.112 395.882C438.924 397.628 442.445 399.815 446.836 402.543C447.421 398.783 447.841 396.079 448.337 392.854C448.847 392.451 449.283 392.569 450.036 392.825Z" fill="#212527"/>
<path d="M369.521 401.449C374.166 406.47 378.488 411.209 386.189 409.992C386.006 411.02 385.717 412.643 385.355 414.679C383.693 414.242 382.289 414.209 381.293 413.554C376.682 410.522 371.535 404.078 367.778 404.834C359.348 406.531 360.656 398.414 356.133 397.054C356.471 396.597 356.81 396.139 357.148 395.681C359.407 397.569 361.666 399.457 364.361 401.709C364.943 400.071 365.401 398.779 366.075 396.882C367.265 398.467 368.249 399.778 369.521 401.449Z" fill="#272727"/>
<path d="M330.766 358.622C331.836 360.413 333.151 361.889 333.08 363.296C332.813 368.633 331.506 374.085 336.628 378.578C335.583 379.17 334.342 379.871 332.382 380.98C331.482 377.628 330.636 374.762 329.949 371.858C329.02 367.929 332.773 363.136 327.65 359.792C327.214 359.507 328.595 356.426 329.259 354.225C330.255 355.016 330.408 355.109 330.398 355.135C330.318 355.329 330.109 355.517 330.12 355.696C330.174 356.558 330.285 357.416 330.766 358.622Z" fill="#30373B"/>
<path d="M270.859 222.871C271.281 223.418 271.729 224.537 272.333 226.002C271.955 229.923 271.511 233.516 270.858 237.069C270.285 240.189 268.206 241.075 264.543 240.571C263.539 240.777 263.269 240.755 263 240.732C263.473 238.418 263.946 236.105 264.54 233.199C265.696 234.18 266.663 234.999 268.939 236.93C269.671 231.86 270.278 227.652 270.859 222.871Z" fill="#2B2F31"/>
<path d="M287.354 326.832C289.205 327.864 291.056 328.896 294.517 330.825C293.747 325.446 293.177 321.459 292.638 317.694C297.515 319.397 298.669 325.117 294.944 333.486C292.146 331.856 289.412 330.263 286.795 327.994C286.912 327.32 287.354 326.832 287.354 326.832Z" fill="#191717"/>
<path d="M315.856 313.223C315.296 311.616 314.735 310.01 314.057 308.064C315.658 308.064 316.957 308.064 318.889 308.064C318.179 304.804 317.556 301.935 316.935 299.07C322.1 303.297 323.063 310.228 318.027 312.981C316.763 313.226 316.309 313.224 315.856 313.223Z" fill="#30373B"/>
<path d="M315.9 313.733C316.312 313.224 316.765 313.225 317.557 313.189C317.92 318.288 318.125 323.435 317.807 328.55C317.747 329.51 315.594 330.338 314.896 330.861C315.278 324.796 315.61 319.519 315.9 313.733Z" fill="#272727"/>
<path d="M262.79 241.144C263.267 240.754 263.536 240.777 264.209 240.841C262.324 244.996 260.235 249.245 257.592 253.115C257.016 253.959 254.463 253.447 253.699 253.499C256.976 249.093 259.78 245.324 262.79 241.144Z" fill="#272727"/>
<path d="M334.758 356.776C334.626 356.556 334.497 356.522 334.367 356.489C334.498 356.647 334.63 356.805 334.758 356.776Z" fill="#30373B"/>
<path d="M286.673 327.548C286.099 327.108 285.76 326.439 285.422 325.77C285.891 325.942 286.36 326.115 287.09 326.56C287.352 326.833 286.91 327.32 286.673 327.548Z" fill="#191717"/>
<path d="M316.343 297.088C315.948 297.082 315.854 296.783 315.76 296.485C316.054 296.588 316.349 296.692 316.343 297.088Z" fill="#30373B"/>
<path d="M464.713 404.052C467.733 409.855 472.519 406.625 476.182 406.247C480.592 405.793 480.346 401.996 479.825 398.009C481.13 397.97 483.384 398.493 483.384 399.016C483.384 401.447 483.597 405.026 482.18 406.063C479.396 408.101 475.658 409.11 472.168 409.811C469.473 410.353 466.553 409.776 463.153 409.471C463.132 407.538 463.693 405.831 464.713 404.052Z" fill="#15120C"/>
<path d="M462.096 409.329C462.455 410.189 462.333 411.112 461.694 411.952C461.322 411.043 461.469 410.218 462.096 409.329Z" fill="#15120C"/>
<path d="M240.338 179.086C240.621 179 240.922 178.867 241.223 178.734C241.087 178.937 240.952 179.14 240.609 179.146C240.401 178.948 240.356 179.039 240.338 179.086Z" fill="#15120C"/>
<path d="M448.14 330.606C448.047 329.864 448.125 329.576 448.212 328.839C449.957 329.679 451.692 330.968 454.704 333.204C454.704 327.512 454.704 323.533 454.704 319.004C458.857 320.401 462.239 321.539 466.798 323.073C466.468 318.81 466.208 315.454 465.955 312.197C470.426 314.191 471.175 316.462 470.208 326.497C467.104 325.583 464.122 324.705 460.535 323.491C459.7 323.569 459.468 323.984 459.237 324.4C458.702 328.638 458.167 332.876 457.632 337.114C456.883 337.327 456.134 337.54 455.385 337.753C453.027 335.522 450.669 333.291 448.14 330.606Z" fill="#181E22"/>
<path d="M390.614 346.376C388.324 349.463 386.035 352.55 383.681 355.723C377.375 349.387 376.273 343.638 379.079 336.878C380.019 340.787 381.145 345.464 382.604 351.525C385.515 348.808 387.207 347.229 389.491 345.697C390.26 345.954 390.437 346.165 390.614 346.376Z" fill="#212527"/>
<path d="M389.84 345.411C390.388 343.84 391.18 342.602 391.943 341.41C394.356 345.427 396.612 349.181 399.826 354.533C401.29 350.007 402.165 347.3 403.041 344.592C403.546 344.691 404.051 344.79 404.555 344.889C403.713 348.623 402.87 352.357 402.028 356.091C401.203 356.34 400.377 356.588 399.552 356.836C396.84 353.459 394.128 350.081 391.015 346.539C390.437 346.165 390.26 345.954 389.84 345.411Z" fill="#212527"/>
<path d="M362.247 324.768C356.28 321.476 356.037 317.614 361.397 308.952C361.056 313.639 360.78 317.436 360.441 322.103C363.477 321.167 365.558 320.526 367.639 319.884C367.849 320.262 368.059 320.64 368.269 321.018C366.416 322.203 364.562 323.389 362.247 324.768Z" fill="#181E22"/>
<path d="M419.482 371.082C418.995 370.838 418.72 370.419 418.445 370C418.883 370.028 419.321 370.055 419.927 370.307C420.094 370.53 419.694 370.907 419.482 371.082Z" fill="#15120C"/>
<path d="M458.707 352.881C458.73 352.859 458.58 352.599 458.58 352.599C458.58 352.599 458.682 352.751 458.663 352.853C458.645 352.955 458.683 352.903 458.707 352.881Z" fill="#15120C"/>
<path d="M523.102 222.027C525.897 227.429 527.767 232.596 523.772 238.208C520.53 236.956 517.786 235.531 515.041 234.106C515.255 233.659 515.469 233.212 515.683 232.765C517.948 233.65 520.213 234.534 524.107 236.055C522.696 230.532 521.602 226.249 520.551 221.478C520.595 220.991 520.524 221.046 520.524 221.046C521.261 221.285 521.998 221.524 523.102 222.027Z" fill="#191717"/>
<path d="M497.577 313.404C496.943 311.594 496.309 309.784 495.574 307.689C497.149 307.689 498.345 307.689 500.399 307.689C499.779 305.182 499.239 302.997 498.352 300.384C498.617 299.569 499.229 299.181 500.263 298.968C501.526 302.225 502.753 305.277 503.015 308.409C503.118 309.639 501.062 311.05 499.251 312.845C498.2 313.343 497.889 313.373 497.577 313.404Z" fill="#30373B"/>
<path d="M520.628 220.962C520.382 220.75 520.101 220.567 519.82 220.383C520.127 220.427 520.433 220.471 520.631 220.781C520.523 221.045 520.593 220.991 520.628 220.962Z" fill="#191717"/>
<path d="M372.229 236.965C371.946 239.495 372.098 241.586 375.538 240.001C378.076 238.832 380.581 237.588 383.7 236.089C383.7 240.291 383.7 244.242 383.7 248.193C384.277 248.597 384.854 249.001 385.431 249.405C389.875 245.043 394.319 240.681 398.996 236.089C399.524 237.413 400.231 239.184 400.586 240.074C394.971 244.834 389.698 249.304 382.912 255.056C381.89 248.811 381.246 244.877 380.621 241.064C377.324 242.059 373.845 243.109 369.023 244.564C369.746 241.265 370.22 239.103 371.231 236.748C371.769 236.554 372.229 236.965 372.229 236.965Z" fill="#1F2D36"/>
<path d="M371.549 236.344C371.772 235.51 372.221 234.885 372.669 234.261C372.965 234.413 373.261 234.566 373.556 234.719C373.3 235.368 373.043 236.017 372.51 236.816C372.233 236.965 371.774 236.555 371.549 236.344Z" fill="#1F2D36"/>
<path d="M537.129 206.033C537.035 206.129 537.025 205.786 537.025 205.786C537.025 205.786 537.223 205.938 537.129 206.033Z" fill="#15120C"/>
<path d="M180.888 353.203C178.878 351.161 176.967 349.598 175.669 347.63C171.839 341.82 173.981 336.298 180.574 334.439C190.481 331.645 203.948 337.452 208.824 346.622C212.715 353.939 208.802 361.446 200.633 360.414C193.993 359.575 187.71 355.909 180.888 353.203ZM205.266 348.253C200.582 340.404 193.619 336.558 184.556 336.931C178.36 337.186 175.654 342.569 180.183 346.727C185.145 351.283 191.298 355.071 197.586 357.487C203.348 359.702 206.437 355.876 205.266 348.253Z" fill="#0B1009"/>
<path d="M161.515 325.801C162.403 325.447 162.809 325.248 163.231 325.203C167.177 324.791 171.47 324.233 173.175 328.874C173.655 330.183 172.098 333.088 170.661 334.1C166.692 336.893 161.824 337.885 158.069 334.308C153.867 330.305 157.703 327.978 161.515 325.801Z" fill="#0C120A"/>
<path d="M216.112 362.233C219.705 364.167 222.593 366.712 219.742 370.063C218.215 371.858 214.309 372.672 211.794 372.206C210.084 371.89 207.653 368.502 207.774 366.633C208.064 362.172 211.776 361.555 216.112 362.233Z" fill="#060605"/>
<path d="M399.833 281.34C400.637 280.925 401.1 280.781 401.885 280.457C404.212 281.362 406.217 282.448 408.222 283.533C407.993 284.077 407.763 284.621 407.533 285.166C405.691 284.748 403.85 284.329 401.736 283.849C400.945 285.675 400.209 287.376 399.473 289.077C398.828 288.924 398.184 288.77 397.539 288.616C398.19 286.281 398.842 283.946 399.833 281.34Z" fill="#30373B"/>
<path d="M497.641 313.962C497.888 313.373 498.2 313.343 498.98 313.277C499.5 318.128 499.796 323.035 499.393 327.884C499.314 328.834 496.528 329.559 494.566 329.56C499.383 325.016 498.026 319.638 497.641 313.962Z" fill="#2B2F31"/>
<path d="M496.937 339.535C497.236 339.167 497.515 338.774 497.793 338.381C497.741 338.869 497.688 339.357 497.258 339.65C496.88 339.456 496.917 339.509 496.937 339.535Z" fill="#15120C"/>
<path d="M547.294 277.066C540.206 277.204 533.243 278.421 527.08 276.723C519.729 274.698 519.225 267.914 525.377 263.304C532.874 257.685 541.582 255.282 550.715 257.086C553.97 257.729 558.207 260.905 559.082 263.808C559.813 266.23 556.712 270.29 554.507 272.962C552.959 274.837 550.066 275.596 547.294 277.066ZM536.682 261.035C534.299 262.109 531.544 262.75 529.638 264.383C527.829 265.935 525.725 268.66 525.947 270.619C526.145 272.358 529.122 274.416 531.28 275.182C538.861 277.873 549.015 274.835 554.01 268.869C557.216 265.039 556.7 261.517 551.838 260.511C547.333 259.58 542.432 260.571 536.682 261.035Z" fill="#0C120A"/>
<path d="M515.638 273.645C514.41 278.912 510.633 279.75 507.052 278.433C504.651 277.55 502.481 274.814 501.362 272.375C501.013 271.615 504.209 268.058 506.181 267.632C510.468 266.705 514.306 268.153 515.638 273.645Z" fill="#0B1009"/>
<path d="M568.478 251.102C572.579 250.778 576.201 251.448 575.951 255.693C575.827 257.81 573.188 261.132 571.282 261.446C568.919 261.835 566.136 259.673 563.535 258.612C565.006 256.138 566.477 253.663 568.478 251.102Z" fill="#0C120A"/>
<path d="M423.305 383.043C423.15 382.849 422.996 382.654 422.842 382.458C422.961 382.524 423.08 382.589 423.255 382.847C423.31 383.039 423.305 383.043 423.305 383.043Z" fill="#FDFDFD"/>
<path d="M489.603 405.932C490.591 405.335 491.318 404.694 491.765 404.852C494.78 405.916 497.931 406.848 500.559 408.561C501.138 408.939 500.282 413.607 499.242 413.989C496.682 414.93 493.241 415.449 490.868 414.444C487.4 412.976 486.698 409.627 489.603 405.932Z" fill="#0D140B"/>
<path d="M375.939 286.862C375.766 286.674 375.612 286.47 375.457 286.266C375.58 286.325 375.703 286.385 375.907 286.628C375.988 286.81 375.958 286.847 375.939 286.862Z" fill="#F2F6F8"/>
<path d="M420.767 312.279C418.876 310.082 417.463 308.173 415.49 305.507C424.595 305.507 432.03 305.507 440.057 305.507C440.15 306.159 440.407 307.961 440.689 309.939C434.483 313.547 428.053 314.375 420.767 312.279Z" fill="#F0F0F0"/>
<path d="M264.222 75.1966C252.379 76.7476 240.767 70.5938 237.421 60.2682C236.241 56.6262 236.604 50.9791 238.765 48.2047C240.669 45.7611 246.231 44.8485 249.881 45.3645C258.838 46.6306 265.455 52.1684 269.707 60.0923C273.404 66.9822 271.788 71.2035 264.222 75.1966ZM252.878 49.1136C242.104 46.7251 238.686 49.0975 240.402 57.7728C241.936 65.5271 253.465 73.8598 261.255 72.8437C267.16 72.0733 270.31 67.4755 266.992 62.6184C263.568 57.6046 258.292 53.8598 252.878 49.1136Z" fill="#0D140B"/>
<path d="M225.111 36.5359C226.152 34.6424 227.149 32.0559 228.136 32.0591C231.3 32.0695 234.843 32.4009 237.432 33.9568C238.448 34.567 238.002 40.6073 237.051 40.9546C234.218 41.9885 230.74 41.8057 227.653 41.278C226.58 41.0945 225.915 38.5141 225.111 36.5359Z" fill="#0D140B"/>
<path d="M283.532 76.3916C284.473 79.266 286.025 83.7767 285.32 84.1637C282.171 85.8933 278.38 87.0951 274.819 87.1C273.43 87.102 270.45 82.362 270.928 81.6654C272.669 79.1291 275.379 77.0597 278.114 75.503C279.282 74.8383 281.411 75.8691 283.532 76.3916ZM279.994 84.6697C280.722 83.1926 281.45 81.7155 282.177 80.2385C280.674 79.7154 279.116 78.682 277.686 78.8358C276.607 78.9517 275.691 80.5878 274.703 81.5473C276.142 82.688 277.582 83.8287 279.994 84.6697Z" fill="#0B1009"/>
<path d="M552.75 497.707C543.713 495.453 537.117 490.791 533.544 482.61C529.497 473.346 534.916 465.898 544.846 467.374C554.803 468.855 562.129 474.653 566.367 483.679C570.607 492.71 565.133 498.399 552.75 497.707ZM554.731 474.496C552.619 473.386 550.564 471.499 548.384 471.341C544.802 471.082 539.5 470.667 537.945 472.672C536.186 474.938 536.56 480.442 538.133 483.405C541.615 489.96 547.466 494.524 555.257 494.881C557.928 495.003 561.881 493.889 563.083 491.975C564.351 489.955 563.865 485.88 562.64 483.473C561.022 480.292 557.939 477.86 554.731 474.496Z" fill="#0D140B"/>
<path d="M533.882 463.28C533.208 463.931 532.825 464.458 532.53 464.412C529.23 463.904 525.705 463.811 522.802 462.424C521.944 462.015 521.978 456.49 523.139 455.759C525.47 454.292 529.218 453.442 531.726 454.288C535.484 455.556 536.205 459.178 533.882 463.28Z" fill="#0D140B"/>
<path d="M575.568 510.309C572.343 508.649 569.354 507.165 567.083 504.943C566.697 504.566 568.924 500.319 570.763 499.086C575.009 496.24 581.44 497.799 582.641 501.771C584.315 507.308 580.255 508.972 575.568 510.309ZM572.19 506.468C574.584 505.575 576.978 504.681 579.372 503.787C577.923 502.731 576.475 501.675 575.026 500.618C573.826 502.353 572.626 504.087 572.19 506.468Z" fill="#0D140B"/>
<path d="M213.989 600.438C211.452 595.057 214.005 591.391 217.352 588.43C224.816 581.826 233.751 579.325 243.531 580.873C252.142 582.237 254.761 589.636 249.376 596.429C241.075 606.902 223.839 609.083 213.989 600.438ZM240.71 583.4C233.961 585.506 227.005 587.146 220.584 589.996C218.588 590.882 216.877 595.207 217.211 597.659C217.464 599.515 220.975 601.781 223.384 602.329C231.332 604.139 238.604 601.721 244.752 596.625C250.96 591.478 249.62 586.13 240.71 583.4Z" fill="#0B1009"/>
<path d="M197.629 608.19C195.731 605.639 193.431 603.248 193.339 600.775C193.285 599.345 196.615 596.88 198.73 596.467C202.931 595.648 207.193 597.289 207.378 602.072C207.608 608.013 202.878 608.632 197.629 608.19ZM196.204 601.482C195.879 605.759 198.594 606.159 201.6 605.275C202.501 605.01 202.89 602.997 203.513 601.784C201.245 601.395 198.976 601.006 196.204 601.482Z" fill="#0B1009"/>
<path d="M267.763 575.777C270.555 582.224 268.678 586.235 263.083 585.975C260.892 585.873 257.974 584.334 256.907 582.542C256.05 581.102 256.911 576.81 258.016 576.379C260.836 575.282 264.22 575.635 267.763 575.777ZM266.423 579.085C264.273 578.805 262.123 578.524 259.973 578.244C260.195 579.744 260.418 581.244 260.641 582.745C262.617 581.851 264.592 580.957 266.423 579.085Z" fill="#0B1009"/>
<path d="M304.753 160.679C300.731 157.082 296.831 153.624 299.026 148.095C301.202 142.615 306.289 141.649 311.56 141.525C319.936 141.328 327.669 143.158 333.936 149.086C340.635 155.422 338.773 163.04 329.681 165.209C321.074 167.261 312.715 165.949 304.753 160.679ZM308.337 159.111C315.047 163.251 322.236 164.5 329.688 161.815C335.593 159.687 336.491 155.477 331.955 151.376C324.981 145.073 316.487 143.266 307.467 144.927C301.812 145.969 300.53 150.771 304.226 155.329C305.184 156.512 306.417 157.471 308.337 159.111Z" fill="#0B1009"/>
<path d="M281.41 145.87C279.967 139.246 282.943 135.307 288.217 136.743C290.366 137.328 292.894 139.519 293.579 141.546C294.12 143.145 292.342 147.209 291.177 147.384C288.135 147.84 284.864 146.763 281.41 145.87Z" fill="#0D140B"/>
<path d="M357.399 157.716C359.88 162.259 357.955 165.529 354.298 166.295C351.447 166.893 347.805 165.507 345.117 163.955C344.332 163.502 344.755 158.618 346.115 157.226C349.371 153.891 353.46 153.888 357.399 157.716ZM354.771 162.062C355.202 158.269 353.099 157.152 350.042 158.303C348.88 158.741 348.366 160.906 347.556 162.285C349.798 162.507 352.04 162.73 354.771 162.062Z" fill="#0B1009"/>
<path d="M516.49 73.1373C524.295 68.5948 532.261 66.2745 540.646 68.1048C543.809 68.7953 548.408 71.5854 548.818 74.017C549.322 77.0039 546.954 81.6111 544.371 83.7678C537.545 89.4687 529.123 91.4355 520.481 89.0489C517.117 88.12 512.916 85.4527 511.837 82.5534C511.012 80.3356 514.496 76.5075 516.49 73.1373ZM536.384 85.0424C538.408 83.7838 540.873 82.8977 542.337 81.1639C543.861 79.3587 545.65 76.315 545.061 74.5861C544.455 72.8051 540.973 70.6995 539.007 70.9314C532.647 71.6822 526.234 72.9517 520.208 75.0702C518.021 75.8392 516.868 79.5637 515.244 81.9396C517.647 83.4843 519.942 86.0705 522.48 86.3387C526.691 86.7838 531.059 85.7384 536.384 85.0424Z" fill="#0D140B"/>
<path d="M493.095 79.4716C495 78.9279 496.791 78.0287 497.898 78.5595C500.606 79.8572 503.248 81.5713 505.32 83.7012C505.771 84.1648 503.759 88.558 502.817 88.5821C499.41 88.6695 495.746 88.1648 492.693 86.7625C491.805 86.3547 492.63 82.2025 493.095 79.4716Z" fill="#0B1009"/>
<path d="M565.65 64.9621C565.43 67.1958 565.464 70.1999 564.503 70.5644C561.742 71.6105 558.437 72.2528 555.642 71.6586C554.521 71.4205 553.019 66.1142 553.683 65.5744C555.917 63.7571 558.979 62.7421 561.874 62.0831C562.832 61.8651 564.245 63.655 565.65 64.9621Z" fill="#0D140B"/>
<path d="M511.114 714.507C510.235 714.129 509.82 713.985 509.43 713.791C505.015 711.594 500.253 709.079 501.189 703.328C502.158 697.377 507.68 695.455 512.676 695.548C519.505 695.674 526.46 696.739 533.04 698.563C535.45 699.231 538.422 703.206 538.44 705.691C538.458 708.17 535.592 711.476 533.12 713.011C526.418 717.173 518.976 716.694 511.114 714.507ZM516.598 712.562C521.295 712.011 526.104 711.889 530.633 710.697C532.403 710.231 534.407 707.479 534.673 705.544C534.856 704.206 532.52 701.672 530.826 701.091C526.57 699.632 522.052 698.271 517.616 698.194C512.865 698.11 506.089 697.58 505.169 703.761C504.231 710.071 510.777 710.947 516.598 712.562Z" fill="#0D140B"/>
<path d="M495.861 699.422C495.591 704.611 492.3 706.013 488.676 705.03C486.398 704.411 483.973 702.004 483.021 699.791C482.539 698.673 484.801 695.18 486.488 694.551C490.538 693.04 494.207 694.182 495.861 699.422Z" fill="#0D140B"/>
<path d="M548.763 709.821C543.238 705.709 543.152 701.289 548.395 699.607C550.723 698.86 553.885 699.584 556.242 700.617C557.225 701.048 557.971 705.122 557.314 705.648C554.992 707.51 552.018 708.554 548.763 709.821Z" fill="#0C120A"/>
<path d="M459.487 324.256C459.47 323.984 459.701 323.569 460.042 323.436C460.152 323.719 459.735 324.113 459.487 324.256Z" fill="#A4D8FB"/>
<path d="M205.5 348.697C206.436 355.876 203.347 359.702 197.585 357.487C191.297 355.07 185.144 351.283 180.181 346.726C175.653 342.568 178.359 337.186 184.555 336.93C193.618 336.558 200.58 340.403 205.5 348.697Z" fill="#50774A"/>
<path d="M537.196 260.875C542.434 260.571 547.335 259.58 551.84 260.511C556.702 261.517 557.218 265.039 554.012 268.869C549.017 274.835 538.863 277.873 531.282 275.182C529.125 274.416 526.147 272.358 525.95 270.619C525.728 268.66 527.831 265.935 529.641 264.383C531.547 262.75 534.301 262.109 537.196 260.875Z" fill="#50774A"/>
<path d="M253.353 49.3368C258.293 53.8599 263.568 57.6047 266.993 62.6185C270.31 67.4756 267.161 72.0735 261.256 72.8438C253.466 73.86 241.936 65.5272 240.403 57.773C238.687 49.0976 242.105 46.7252 253.353 49.3368Z" fill="#50774A"/>
<path d="M279.508 84.8196C277.582 83.8287 276.143 82.688 274.703 81.5473C275.691 80.5877 276.607 78.9516 277.686 78.8357C279.117 78.682 280.674 79.7153 282.178 80.2384C281.45 81.7155 280.722 83.1926 279.508 84.8196Z" fill="#4D7347"/>
<path d="M555.107 474.801C557.938 477.86 561.021 480.292 562.639 483.472C563.864 485.88 564.349 489.954 563.081 491.975C561.88 493.889 557.926 495.003 555.256 494.881C547.465 494.524 541.613 489.96 538.132 483.405C536.559 480.442 536.185 474.938 537.943 472.671C539.498 470.667 544.8 471.082 548.383 471.341C550.563 471.498 552.618 473.386 555.107 474.801Z" fill="#51784A"/>
<path d="M571.809 506.145C572.627 504.087 573.827 502.353 575.027 500.618C576.475 501.675 577.923 502.731 579.372 503.787C576.978 504.681 574.584 505.575 571.809 506.145Z" fill="#4D7347"/>
<path d="M241.261 583.463C249.619 586.13 250.959 591.478 244.751 596.624C238.603 601.721 231.331 604.138 223.383 602.329C220.974 601.78 217.463 599.515 217.21 597.659C216.876 595.206 218.587 590.881 220.583 589.995C227.004 587.145 233.96 585.506 241.261 583.463Z" fill="#50774A"/>
<path d="M196.455 601.049C198.975 601.006 201.244 601.395 203.512 601.784C202.889 602.997 202.5 605.01 201.599 605.275C198.594 606.159 195.878 605.759 196.455 601.049Z" fill="#4D7347"/>
<path d="M266.493 579.574C264.59 580.957 262.615 581.851 260.639 582.745C260.416 581.245 260.193 579.744 259.971 578.244C262.121 578.524 264.271 578.805 266.493 579.574Z" fill="#4D7347"/>
<path d="M307.93 158.822C306.416 157.471 305.183 156.511 304.225 155.329C300.529 150.771 301.811 145.969 307.466 144.927C316.486 143.266 324.98 145.073 331.954 151.376C336.49 155.477 335.592 159.687 329.687 161.815C322.235 164.5 315.046 163.251 307.93 158.822Z" fill="#50774A"/>
<path d="M354.525 162.507C352.039 162.729 349.797 162.507 347.555 162.284C348.364 160.906 348.878 158.741 350.041 158.303C353.097 157.151 355.2 158.269 354.525 162.507Z" fill="#4D7347"/>
<path d="M535.873 85.1816C531.06 85.7384 526.691 86.7838 522.48 86.3387C519.942 86.0705 517.648 83.4843 515.244 81.9395C516.869 79.5637 518.021 75.8392 520.209 75.0701C526.234 72.9516 532.648 71.6821 539.008 70.9314C540.974 70.6995 544.455 72.8051 545.062 74.586C545.65 76.315 543.862 79.3587 542.337 81.1639C540.873 82.8977 538.409 83.7838 535.873 85.1816Z" fill="#51784A"/>
<path d="M516.035 712.513C510.778 710.947 504.232 710.071 505.171 703.761C506.09 697.58 512.866 698.11 517.617 698.194C522.053 698.271 526.571 699.632 530.827 701.091C532.521 701.672 534.858 704.206 534.674 705.544C534.408 707.479 532.405 710.231 530.634 710.697C526.106 711.889 521.296 712.011 516.035 712.513Z" fill="#50774A"/>
</svg>
