<svg width="112" height="49" viewBox="0 0 112 49" fill="none" xmlns="http://www.w3.org/2000/svg">
<path d="M17.8913 34.2069L7.97461 24.2902L17.8913 14.3735" stroke="white" stroke-width="3" stroke-linecap="round" stroke-linejoin="round"/>
<path d="M27.8079 24.29H7.97461" stroke="white" stroke-width="3" stroke-linecap="round" stroke-linejoin="round"/>
<mask id="path-3-outside-1_23_18648" maskUnits="userSpaceOnUse" x="38.8906" y="12.29" width="73" height="25" fill="black">
<rect fill="white" x="38.8906" y="12.29" width="73" height="25"/>
<path d="M43.519 33.29L50.023 16.202H54.919L61.351 33.29H56.359L51.583 18.77H53.311L48.415 33.29H43.519ZM47.743 30.41V26.666H57.295V30.41H47.743ZM63.3599 33.29V16.634H68.0639V33.29H63.3599ZM60.8399 25.322V21.482H70.5839V25.322H60.8399ZM71.878 33.29V21.482H76.582V33.29H71.878ZM76.582 26.906L74.398 24.962C75.006 23.682 75.71 22.746 76.51 22.154C77.326 21.546 78.342 21.242 79.558 21.242C80.102 21.242 80.566 21.306 80.95 21.434C81.35 21.562 81.67 21.746 81.91 21.986L79.27 25.73C79.158 25.602 78.99 25.498 78.766 25.418C78.558 25.322 78.31 25.274 78.022 25.274C77.542 25.274 77.182 25.418 76.942 25.706C76.702 25.978 76.582 26.378 76.582 26.906ZM87.1574 33.53C86.0534 33.53 85.0774 33.266 84.2294 32.738C83.3814 32.21 82.7174 31.49 82.2374 30.578C81.7574 29.65 81.5174 28.586 81.5174 27.386C81.5174 26.186 81.7574 25.122 82.2374 24.194C82.7174 23.266 83.3814 22.546 84.2294 22.034C85.0774 21.506 86.0534 21.242 87.1574 21.242C87.8454 21.242 88.4774 21.362 89.0534 21.602C89.6454 21.826 90.1334 22.146 90.5174 22.562C90.9174 22.978 91.1734 23.458 91.2854 24.002V30.77C91.1734 31.314 90.9174 31.794 90.5174 32.21C90.1334 32.626 89.6454 32.954 89.0534 33.194C88.4774 33.418 87.8454 33.53 87.1574 33.53ZM88.2134 29.402C88.8054 29.402 89.2774 29.218 89.6294 28.85C89.9974 28.466 90.1814 27.978 90.1814 27.386C90.1814 26.986 90.1014 26.642 89.9414 26.354C89.7814 26.05 89.5494 25.81 89.2454 25.634C88.9574 25.458 88.6214 25.37 88.2374 25.37C87.8534 25.37 87.5094 25.458 87.2054 25.634C86.9174 25.81 86.6854 26.05 86.5094 26.354C86.3334 26.658 86.2454 27.002 86.2454 27.386C86.2454 27.77 86.3254 28.114 86.4854 28.418C86.6614 28.722 86.9014 28.962 87.2054 29.138C87.5094 29.314 87.8454 29.402 88.2134 29.402ZM90.0374 33.29V30.122L90.6854 27.242L90.0374 24.386V21.482H94.6214V33.29H90.0374ZM101.59 33.65C100.854 33.65 100.118 33.554 99.3818 33.362C98.6458 33.17 97.9578 32.906 97.3178 32.57C96.6938 32.234 96.1658 31.85 95.7338 31.418L98.2058 28.874C98.5898 29.258 99.0458 29.562 99.5738 29.786C100.118 30.01 100.686 30.122 101.278 30.122C101.55 30.122 101.758 30.09 101.902 30.026C102.062 29.946 102.142 29.842 102.142 29.714C102.142 29.49 102.006 29.322 101.734 29.21C101.478 29.098 101.142 28.994 100.726 28.898C100.326 28.802 99.8938 28.682 99.4298 28.538C98.9818 28.378 98.5498 28.17 98.1338 27.914C97.7178 27.642 97.3818 27.274 97.1258 26.81C96.8698 26.33 96.7418 25.722 96.7418 24.986C96.7418 24.234 96.9498 23.57 97.3658 22.994C97.7978 22.402 98.3978 21.938 99.1658 21.602C99.9498 21.25 100.854 21.074 101.878 21.074C102.918 21.074 103.926 21.25 104.902 21.602C105.878 21.954 106.654 22.482 107.23 23.186L104.734 25.73C104.334 25.282 103.894 24.986 103.414 24.842C102.934 24.682 102.534 24.602 102.214 24.602C101.91 24.602 101.694 24.65 101.566 24.746C101.454 24.826 101.398 24.93 101.398 25.058C101.398 25.234 101.526 25.378 101.782 25.49C102.038 25.602 102.366 25.706 102.766 25.802C103.182 25.898 103.614 26.026 104.062 26.186C104.51 26.346 104.934 26.57 105.334 26.858C105.75 27.146 106.086 27.53 106.342 28.01C106.598 28.474 106.726 29.082 106.726 29.834C106.726 31.002 106.262 31.93 105.334 32.618C104.406 33.306 103.158 33.65 101.59 33.65Z"/>
</mask>
<path d="M43.519 33.29L50.023 16.202H54.919L61.351 33.29H56.359L51.583 18.77H53.311L48.415 33.29H43.519ZM47.743 30.41V26.666H57.295V30.41H47.743ZM63.3599 33.29V16.634H68.0639V33.29H63.3599ZM60.8399 25.322V21.482H70.5839V25.322H60.8399ZM71.878 33.29V21.482H76.582V33.29H71.878ZM76.582 26.906L74.398 24.962C75.006 23.682 75.71 22.746 76.51 22.154C77.326 21.546 78.342 21.242 79.558 21.242C80.102 21.242 80.566 21.306 80.95 21.434C81.35 21.562 81.67 21.746 81.91 21.986L79.27 25.73C79.158 25.602 78.99 25.498 78.766 25.418C78.558 25.322 78.31 25.274 78.022 25.274C77.542 25.274 77.182 25.418 76.942 25.706C76.702 25.978 76.582 26.378 76.582 26.906ZM87.1574 33.53C86.0534 33.53 85.0774 33.266 84.2294 32.738C83.3814 32.21 82.7174 31.49 82.2374 30.578C81.7574 29.65 81.5174 28.586 81.5174 27.386C81.5174 26.186 81.7574 25.122 82.2374 24.194C82.7174 23.266 83.3814 22.546 84.2294 22.034C85.0774 21.506 86.0534 21.242 87.1574 21.242C87.8454 21.242 88.4774 21.362 89.0534 21.602C89.6454 21.826 90.1334 22.146 90.5174 22.562C90.9174 22.978 91.1734 23.458 91.2854 24.002V30.77C91.1734 31.314 90.9174 31.794 90.5174 32.21C90.1334 32.626 89.6454 32.954 89.0534 33.194C88.4774 33.418 87.8454 33.53 87.1574 33.53ZM88.2134 29.402C88.8054 29.402 89.2774 29.218 89.6294 28.85C89.9974 28.466 90.1814 27.978 90.1814 27.386C90.1814 26.986 90.1014 26.642 89.9414 26.354C89.7814 26.05 89.5494 25.81 89.2454 25.634C88.9574 25.458 88.6214 25.37 88.2374 25.37C87.8534 25.37 87.5094 25.458 87.2054 25.634C86.9174 25.81 86.6854 26.05 86.5094 26.354C86.3334 26.658 86.2454 27.002 86.2454 27.386C86.2454 27.77 86.3254 28.114 86.4854 28.418C86.6614 28.722 86.9014 28.962 87.2054 29.138C87.5094 29.314 87.8454 29.402 88.2134 29.402ZM90.0374 33.29V30.122L90.6854 27.242L90.0374 24.386V21.482H94.6214V33.29H90.0374ZM101.59 33.65C100.854 33.65 100.118 33.554 99.3818 33.362C98.6458 33.17 97.9578 32.906 97.3178 32.57C96.6938 32.234 96.1658 31.85 95.7338 31.418L98.2058 28.874C98.5898 29.258 99.0458 29.562 99.5738 29.786C100.118 30.01 100.686 30.122 101.278 30.122C101.55 30.122 101.758 30.09 101.902 30.026C102.062 29.946 102.142 29.842 102.142 29.714C102.142 29.49 102.006 29.322 101.734 29.21C101.478 29.098 101.142 28.994 100.726 28.898C100.326 28.802 99.8938 28.682 99.4298 28.538C98.9818 28.378 98.5498 28.17 98.1338 27.914C97.7178 27.642 97.3818 27.274 97.1258 26.81C96.8698 26.33 96.7418 25.722 96.7418 24.986C96.7418 24.234 96.9498 23.57 97.3658 22.994C97.7978 22.402 98.3978 21.938 99.1658 21.602C99.9498 21.25 100.854 21.074 101.878 21.074C102.918 21.074 103.926 21.25 104.902 21.602C105.878 21.954 106.654 22.482 107.23 23.186L104.734 25.73C104.334 25.282 103.894 24.986 103.414 24.842C102.934 24.682 102.534 24.602 102.214 24.602C101.91 24.602 101.694 24.65 101.566 24.746C101.454 24.826 101.398 24.93 101.398 25.058C101.398 25.234 101.526 25.378 101.782 25.49C102.038 25.602 102.366 25.706 102.766 25.802C103.182 25.898 103.614 26.026 104.062 26.186C104.51 26.346 104.934 26.57 105.334 26.858C105.75 27.146 106.086 27.53 106.342 28.01C106.598 28.474 106.726 29.082 106.726 29.834C106.726 31.002 106.262 31.93 105.334 32.618C104.406 33.306 103.158 33.65 101.59 33.65Z" fill="black"/>
<path d="M43.519 33.29L40.7152 32.2229L39.1672 36.29H43.519V33.29ZM50.023 16.202V13.202H47.9549L47.2192 15.1349L50.023 16.202ZM54.919 16.202L57.7267 15.1452L56.9953 13.202H54.919V16.202ZM61.351 33.29V36.29H65.6857L64.1587 32.2332L61.351 33.29ZM56.359 33.29L53.5092 34.2274L54.1877 36.29H56.359V33.29ZM51.583 18.77V15.77H47.4381L48.7332 19.7074L51.583 18.77ZM53.311 18.77L56.1537 19.7286L57.4885 15.77H53.311V18.77ZM48.415 33.29V36.29H50.5694L51.2577 34.2486L48.415 33.29ZM47.743 30.41H44.743V33.41H47.743V30.41ZM47.743 26.666V23.666H44.743V26.666H47.743ZM57.295 26.666H60.295V23.666H57.295V26.666ZM57.295 30.41V33.41H60.295V30.41H57.295ZM46.3228 34.3572L52.8268 17.2692L47.2192 15.1349L40.7152 32.2229L46.3228 34.3572ZM50.023 19.202H54.919V13.202H50.023V19.202ZM52.1113 17.2589L58.5433 34.3469L64.1587 32.2332L57.7267 15.1452L52.1113 17.2589ZM61.351 30.29H56.359V36.29H61.351V30.29ZM59.2088 32.3527L54.4328 17.8327L48.7332 19.7074L53.5092 34.2274L59.2088 32.3527ZM51.583 21.77H53.311V15.77H51.583V21.77ZM50.4683 17.8115L45.5723 32.3315L51.2577 34.2486L56.1537 19.7286L50.4683 17.8115ZM48.415 30.29H43.519V36.29H48.415V30.29ZM50.743 30.41V26.666H44.743V30.41H50.743ZM47.743 29.666H57.295V23.666H47.743V29.666ZM54.295 26.666V30.41H60.295V26.666H54.295ZM57.295 27.41H47.743V33.41H57.295V27.41ZM63.3599 33.29H60.3599V36.29H63.3599V33.29ZM63.3599 16.634V13.634H60.3599V16.634H63.3599ZM68.0639 16.634H71.0639V13.634H68.0639V16.634ZM68.0639 33.29V36.29H71.0639V33.29H68.0639ZM60.8399 25.322H57.8399V28.322H60.8399V25.322ZM60.8399 21.482V18.482H57.8399V21.482H60.8399ZM70.5839 21.482H73.5839V18.482H70.5839V21.482ZM70.5839 25.322V28.322H73.5839V25.322H70.5839ZM66.3599 33.29V16.634H60.3599V33.29H66.3599ZM63.3599 19.634H68.0639V13.634H63.3599V19.634ZM65.0639 16.634V33.29H71.0639V16.634H65.0639ZM68.0639 30.29H63.3599V36.29H68.0639V30.29ZM63.8399 25.322V21.482H57.8399V25.322H63.8399ZM60.8399 24.482H70.5839V18.482H60.8399V24.482ZM67.5839 21.482V25.322H73.5839V21.482H67.5839ZM70.5839 22.322H60.8399V28.322H70.5839V22.322ZM71.878 33.29H68.878V36.29H71.878V33.29ZM71.878 21.482V18.482H68.878V21.482H71.878ZM76.582 21.482H79.582V18.482H76.582V21.482ZM76.582 33.29V36.29H79.582V33.29H76.582ZM76.582 26.906L74.5874 29.1469L79.582 33.5927V26.906H76.582ZM74.398 24.962L71.6882 23.6749L70.7229 25.7071L72.4034 27.2029L74.398 24.962ZM76.51 22.154L78.2945 24.5656L78.3024 24.5597L76.51 22.154ZM80.95 21.434L80.0013 24.2801L80.0185 24.2858L80.0357 24.2913L80.95 21.434ZM81.91 21.986L84.3618 23.7149L85.8173 21.6507L84.0313 19.8647L81.91 21.986ZM79.27 25.73L77.0123 27.7056L79.5238 30.5759L81.7218 27.4589L79.27 25.73ZM78.766 25.418L77.5088 28.1419L77.6306 28.1981L77.757 28.2433L78.766 25.418ZM76.942 25.706L79.1915 27.6909L79.2195 27.6591L79.2467 27.6266L76.942 25.706ZM74.878 33.29V21.482H68.878V33.29H74.878ZM71.878 24.482H76.582V18.482H71.878V24.482ZM73.582 21.482V33.29H79.582V21.482H73.582ZM76.582 30.29H71.878V36.29H76.582V30.29ZM78.5766 24.6652L76.3926 22.7212L72.4034 27.2029L74.5874 29.1469L78.5766 24.6652ZM77.1078 26.2492C77.5885 25.2373 78.0228 24.7666 78.2945 24.5656L74.7255 19.7425C73.3972 20.7254 72.4235 22.1268 71.6882 23.6749L77.1078 26.2492ZM78.3024 24.5597C78.5055 24.4084 78.8583 24.242 79.558 24.242V18.242C77.8257 18.242 76.1465 18.6837 74.7176 19.7484L78.3024 24.5597ZM79.558 24.242C79.8831 24.242 80.008 24.2823 80.0013 24.2801L81.8987 18.588C81.124 18.3298 80.3209 18.242 79.558 18.242V24.242ZM80.0357 24.2913C80.0866 24.3076 79.9575 24.2762 79.7887 24.1074L84.0313 19.8647C83.3825 19.2159 82.6134 18.8165 81.8643 18.5768L80.0357 24.2913ZM79.4582 20.2572L76.8182 24.0012L81.7218 27.4589L84.3618 23.7149L79.4582 20.2572ZM81.5277 23.7545C80.971 23.1183 80.2989 22.7799 79.775 22.5928L77.757 28.2433C77.6811 28.2162 77.345 28.0858 77.0123 27.7056L81.5277 23.7545ZM80.0232 22.6942C79.3333 22.3758 78.6358 22.274 78.022 22.274V28.274C77.9842 28.274 77.7827 28.2683 77.5088 28.1419L80.0232 22.6942ZM78.022 22.274C76.9212 22.274 75.5999 22.6304 74.6373 23.7855L79.2467 27.6266C79.0366 27.8786 78.7722 28.0611 78.5062 28.1675C78.2585 28.2665 78.0758 28.274 78.022 28.274V22.274ZM74.6925 23.7212C73.7892 24.7449 73.582 25.974 73.582 26.906H79.582C79.582 26.782 79.6148 27.2112 79.1915 27.6909L74.6925 23.7212ZM84.2294 32.738L85.8151 30.1913L85.8151 30.1913L84.2294 32.738ZM82.2374 30.578L79.5727 31.9563L79.5776 31.9658L79.5826 31.9753L82.2374 30.578ZM82.2374 24.194L79.5727 22.8158L79.5727 22.8158L82.2374 24.194ZM84.2294 22.034L85.78 24.6022L85.7976 24.5916L85.8151 24.5807L84.2294 22.034ZM89.0534 21.602L87.8995 24.3713L87.9453 24.3903L87.9917 24.4079L89.0534 21.602ZM90.5174 22.562L88.313 24.5969L88.3337 24.6193L88.3549 24.6414L90.5174 22.562ZM91.2854 24.002H94.2854V23.6964L94.2237 23.3971L91.2854 24.002ZM91.2854 30.77L94.2237 31.375L94.2854 31.0757V30.77H91.2854ZM90.5174 32.21L88.3549 30.1307L88.3337 30.1527L88.313 30.1752L90.5174 32.21ZM89.0534 33.194L90.1407 35.9901L90.1607 35.9823L90.1805 35.9743L89.0534 33.194ZM89.6294 28.85L87.4634 26.7743L87.4615 26.7764L89.6294 28.85ZM89.9414 26.354L87.2866 27.7513L87.3024 27.7813L87.3189 27.811L89.9414 26.354ZM89.2454 25.634L87.681 28.1939L87.7114 28.2125L87.7423 28.2303L89.2454 25.634ZM87.2054 25.634L85.7023 23.0378L85.6714 23.0556L85.641 23.0742L87.2054 25.634ZM86.5094 26.354L89.1057 27.8571L89.1057 27.8571L86.5094 26.354ZM86.4854 28.418L83.8306 29.8153L83.8588 29.8688L83.8891 29.9211L86.4854 28.418ZM90.0374 33.29H87.0374V36.29H90.0374V33.29ZM90.0374 30.122L87.1105 29.4635L87.0374 29.7887V30.122H90.0374ZM90.6854 27.242L93.6122 27.9006L93.761 27.2393L93.611 26.5782L90.6854 27.242ZM90.0374 24.386H87.0374V24.7221L87.1117 25.0498L90.0374 24.386ZM90.0374 21.482V18.482H87.0374V21.482H90.0374ZM94.6214 21.482H97.6214V18.482H94.6214V21.482ZM94.6214 33.29V36.29H97.6214V33.29H94.6214ZM87.1574 30.53C86.553 30.53 86.138 30.3925 85.8151 30.1913L82.6437 35.2847C84.0167 36.1396 85.5537 36.53 87.1574 36.53V30.53ZM85.8151 30.1913C85.4339 29.954 85.1323 29.6372 84.8921 29.1808L79.5826 31.9753C80.3024 33.3429 81.3289 34.4661 82.6437 35.2847L85.8151 30.1913ZM84.902 29.1998C84.6731 28.7572 84.5174 28.1781 84.5174 27.386H78.5174C78.5174 28.994 78.8417 30.5429 79.5727 31.9563L84.902 29.1998ZM84.5174 27.386C84.5174 26.594 84.6731 26.0149 84.902 25.5723L79.5727 22.8158C78.8417 24.2292 78.5174 25.7781 78.5174 27.386H84.5174ZM84.902 25.5723C85.1422 25.108 85.4324 24.8121 85.78 24.6022L82.6788 19.4658C81.3303 20.28 80.2926 21.424 79.5727 22.8158L84.902 25.5723ZM85.8151 24.5807C86.138 24.3796 86.553 24.242 87.1574 24.242V18.242C85.5537 18.242 84.0167 18.6325 82.6437 19.4873L85.8151 24.5807ZM87.1574 24.242C87.4901 24.242 87.725 24.2985 87.8995 24.3713L90.2072 18.8328C89.2298 18.4255 88.2007 18.242 87.1574 18.242V24.242ZM87.9917 24.4079C88.2001 24.4867 88.2805 24.5617 88.313 24.5969L92.7218 20.5272C91.9862 19.7304 91.0907 19.1653 90.1151 18.7962L87.9917 24.4079ZM88.3549 24.6414C88.3604 24.6471 88.3641 24.6513 88.3664 24.6541C88.3688 24.6568 88.3698 24.6582 88.3698 24.6583C88.3698 24.6583 88.369 24.6571 88.3676 24.6549C88.3661 24.6526 88.3643 24.6496 88.3623 24.6458C88.3581 24.6378 88.3542 24.6291 88.3512 24.6206C88.3497 24.6166 88.3487 24.6133 88.348 24.6107C88.3473 24.6082 88.347 24.6069 88.347 24.607L94.2237 23.3971C93.9929 22.2759 93.4564 21.2903 92.6799 20.4827L88.3549 24.6414ZM88.2854 24.002V30.77H94.2854V24.002H88.2854ZM88.347 30.1651C88.347 30.1652 88.3473 30.1638 88.348 30.1613C88.3487 30.1588 88.3497 30.1555 88.3512 30.1514C88.3542 30.143 88.3581 30.1342 88.3623 30.1263C88.3643 30.1225 88.3661 30.1194 88.3676 30.1172C88.369 30.1149 88.3698 30.1138 88.3698 30.1138C88.3698 30.1138 88.3688 30.1152 88.3664 30.118C88.3641 30.1207 88.3604 30.125 88.3549 30.1307L92.6799 34.2894C93.4564 33.4818 93.9929 32.4962 94.2237 31.375L88.347 30.1651ZM88.313 30.1752C88.2651 30.227 88.1614 30.3185 87.9263 30.4138L90.1805 35.9743C91.1293 35.5896 92.0016 35.0251 92.7218 34.2449L88.313 30.1752ZM87.966 30.398C87.7738 30.4728 87.5154 30.53 87.1574 30.53V36.53C88.1753 36.53 89.1809 36.3633 90.1407 35.9901L87.966 30.398ZM88.2134 32.402C89.4793 32.402 90.7865 31.9805 91.7973 30.9237L87.4615 26.7764C87.5863 26.6458 87.7478 26.5367 87.9218 26.4689C88.0863 26.4048 88.1984 26.402 88.2134 26.402V32.402ZM91.7953 30.9258C92.761 29.9181 93.1814 28.6565 93.1814 27.386H87.1814C87.1814 27.3689 87.1847 27.2744 87.2363 27.1376C87.29 26.9951 87.3729 26.8687 87.4634 26.7743L91.7953 30.9258ZM93.1814 27.386C93.1814 26.5847 93.0193 25.7169 92.5638 24.8971L87.3189 27.811C87.254 27.6941 87.218 27.5879 87.1994 27.5076C87.1812 27.4297 87.1814 27.3852 87.1814 27.386H93.1814ZM92.5961 24.9568C92.1667 24.1408 91.53 23.4902 90.7485 23.0378L87.7423 28.2303C87.6663 28.1863 87.5775 28.1212 87.4904 28.0311C87.403 27.9407 87.3352 27.8436 87.2866 27.7513L92.5961 24.9568ZM90.8097 23.0742C89.9885 22.5723 89.0957 22.37 88.2374 22.37V28.37C88.1996 28.37 88.122 28.3656 88.0173 28.3382C87.9102 28.3101 87.7942 28.263 87.681 28.1939L90.8097 23.0742ZM88.2374 22.37C87.3762 22.37 86.505 22.573 85.7023 23.0378L88.7085 28.2303C88.6201 28.2815 88.5262 28.3191 88.4349 28.3424C88.3451 28.3654 88.2759 28.37 88.2374 28.37V22.37ZM85.641 23.0742C84.9087 23.5217 84.329 24.1325 83.9131 24.8509L89.1057 27.8571C89.0778 27.9052 89.0345 27.9668 88.9723 28.0311C88.9097 28.0959 88.8401 28.1509 88.7697 28.1939L85.641 23.0742ZM83.9131 24.8509C83.4484 25.6536 83.2454 26.5248 83.2454 27.386H89.2454C89.2454 27.4246 89.2408 27.4937 89.2178 27.5835C89.1944 27.6748 89.1568 27.7688 89.1057 27.8571L83.9131 24.8509ZM83.2454 27.386C83.2454 28.1987 83.4182 29.0317 83.8306 29.8153L89.1401 27.0208C89.1828 27.1019 89.211 27.1819 89.2274 27.2525C89.2435 27.3217 89.2454 27.369 89.2454 27.386H83.2454ZM83.8891 29.9211C84.3277 30.6788 84.9446 31.2957 85.7023 31.7343L88.7085 26.5418C88.7744 26.5799 88.8478 26.6338 88.9187 26.7047C88.9896 26.7756 89.0435 26.849 89.0817 26.9149L83.8891 29.9211ZM85.7023 31.7343C86.4852 32.1876 87.3437 32.402 88.2134 32.402V26.402C88.2707 26.402 88.351 26.4092 88.4455 26.4339C88.5407 26.4589 88.6303 26.4965 88.7085 26.5418L85.7023 31.7343ZM93.0374 33.29V30.122H87.0374V33.29H93.0374ZM92.9642 30.7806L93.6122 27.9006L87.7585 26.5835L87.1105 29.4635L92.9642 30.7806ZM93.611 26.5782L92.963 23.7222L87.1117 25.0498L87.7597 27.9058L93.611 26.5782ZM93.0374 24.386V21.482H87.0374V24.386H93.0374ZM90.0374 24.482H94.6214V18.482H90.0374V24.482ZM91.6214 21.482V33.29H97.6214V21.482H91.6214ZM94.6214 30.29H90.0374V36.29H94.6214V30.29ZM97.3178 32.57L95.8955 35.2115L95.9094 35.2189L95.9233 35.2262L97.3178 32.57ZM95.7338 31.418L93.5823 29.3274L91.5214 31.4483L93.6125 33.5394L95.7338 31.418ZM98.2058 28.874L100.327 26.7527L98.1751 24.6007L96.0543 26.7834L98.2058 28.874ZM99.5738 29.786L98.4022 32.5478L98.4168 32.554L98.4316 32.5601L99.5738 29.786ZM101.902 30.026L103.12 32.7675L103.183 32.7398L103.243 32.7093L101.902 30.026ZM101.734 29.21L100.531 31.9585L100.561 31.9716L100.592 31.9841L101.734 29.21ZM100.726 28.898L100.026 31.8152L100.038 31.8183L100.051 31.8212L100.726 28.898ZM99.4298 28.538L98.4208 31.3633L98.4803 31.3845L98.5406 31.4032L99.4298 28.538ZM98.1338 27.914L96.4921 30.4249L96.5265 30.4475L96.5615 30.469L98.1338 27.914ZM97.1258 26.81L94.4788 28.2218L94.4888 28.2406L94.4991 28.2593L97.1258 26.81ZM97.3658 22.994L94.9424 21.2256L94.9381 21.2316L94.9338 21.2376L97.3658 22.994ZM99.1658 21.602L100.368 24.3505L100.381 24.3447L100.395 24.3388L99.1658 21.602ZM104.902 21.602L103.884 24.4241L103.884 24.4241L104.902 21.602ZM107.23 23.186L109.371 25.2871L111.255 23.3676L109.552 21.2863L107.23 23.186ZM104.734 25.73L102.496 27.7281L104.631 30.1189L106.875 27.8311L104.734 25.73ZM103.414 24.842L102.465 27.6881L102.508 27.7025L102.552 27.7155L103.414 24.842ZM101.566 24.746L103.31 27.1872L103.338 27.167L103.366 27.146L101.566 24.746ZM102.766 25.802L102.066 28.7192L102.078 28.7223L102.091 28.7252L102.766 25.802ZM104.062 26.186L103.053 29.0113L103.053 29.0113L104.062 26.186ZM105.334 26.858L103.581 29.2926L103.603 29.3088L103.626 29.3246L105.334 26.858ZM106.342 28.01L103.695 29.4218L103.705 29.4406L103.715 29.4593L106.342 28.01ZM101.59 30.65C101.118 30.65 100.636 30.5889 100.139 30.4592L98.6245 36.2649C99.5995 36.5192 100.59 36.65 101.59 36.65V30.65ZM100.139 30.4592C99.6127 30.3219 99.1397 30.1382 98.7123 29.9138L95.9233 35.2262C96.7759 35.6738 97.679 36.0182 98.6245 36.2649L100.139 30.4592ZM98.7401 29.9286C98.333 29.7094 98.0507 29.4923 97.8551 29.2967L93.6125 33.5394C94.2809 34.2077 95.0546 34.7586 95.8955 35.2115L98.7401 29.9286ZM97.8854 33.5087L100.357 30.9647L96.0543 26.7834L93.5823 29.3274L97.8854 33.5087ZM96.0845 30.9954C96.7561 31.6669 97.5396 32.1819 98.4022 32.5478L100.745 27.0243C100.552 26.9422 100.424 26.8491 100.327 26.7527L96.0845 30.9954ZM98.4316 32.5601C99.3402 32.9342 100.296 33.122 101.278 33.122V27.122C101.075 27.122 100.895 27.0858 100.716 27.012L98.4316 32.5601ZM101.278 33.122C101.708 33.122 102.41 33.0832 103.12 32.7675L100.683 27.2846C100.92 27.1794 101.105 27.1447 101.182 27.1329C101.265 27.1201 101.303 27.122 101.278 27.122V33.122ZM103.243 32.7093C103.956 32.3533 105.142 31.4181 105.142 29.714H99.1418C99.1418 29.0987 99.3515 28.5171 99.7039 28.0589C100.022 27.6456 100.374 27.4358 100.56 27.3428L103.243 32.7093ZM105.142 29.714C105.142 28.9419 104.889 28.1712 104.372 27.5324C103.894 26.9425 103.316 26.6173 102.876 26.436L100.592 31.9841C100.423 31.9148 100.05 31.7295 99.7081 31.3076C99.327 30.8369 99.1418 30.2622 99.1418 29.714H105.142ZM102.936 26.4616C102.446 26.2471 101.913 26.0932 101.4 25.9749L100.051 31.8212C100.202 31.8561 100.318 31.8876 100.403 31.9139C100.445 31.9269 100.476 31.9377 100.499 31.9458C100.51 31.9498 100.518 31.953 100.523 31.9552C100.529 31.9575 100.532 31.9586 100.531 31.9585L102.936 26.4616ZM101.426 25.9809C101.1 25.9026 100.731 25.8008 100.319 25.6728L98.5406 31.4032C99.0563 31.5633 99.552 31.7015 100.026 31.8152L101.426 25.9809ZM100.439 25.7128C100.193 25.6249 99.949 25.5086 99.7061 25.3591L96.5615 30.469C97.1506 30.8315 97.7709 31.1312 98.4208 31.3633L100.439 25.7128ZM99.7756 25.4031C99.7764 25.4037 99.7785 25.4052 99.7812 25.4074C99.7824 25.4085 99.7834 25.4094 99.7842 25.4102C99.785 25.4109 99.7854 25.4113 99.7853 25.4112C99.7852 25.4112 99.7824 25.4081 99.7772 25.4008C99.7719 25.3933 99.7634 25.3805 99.7525 25.3608L94.4991 28.2593C94.9757 29.1231 95.6389 29.8671 96.4921 30.4249L99.7756 25.4031ZM99.7729 25.3983C99.8159 25.4789 99.7418 25.3957 99.7418 24.986H93.7418C93.7418 26.0484 93.9238 27.1812 94.4788 28.2218L99.7729 25.3983ZM99.7418 24.986C99.7418 24.8256 99.7733 24.7845 99.7979 24.7505L94.9338 21.2376C94.1263 22.3556 93.7418 23.6425 93.7418 24.986H99.7418ZM99.7892 24.7624C99.8653 24.6581 100.016 24.5048 100.368 24.3505L97.9634 18.8536C96.78 19.3713 95.7303 20.146 94.9424 21.2256L99.7892 24.7624ZM100.395 24.3388C100.725 24.1903 101.197 24.074 101.878 24.074V18.074C100.51 18.074 99.1743 18.3097 97.937 18.8652L100.395 24.3388ZM101.878 24.074C102.572 24.074 103.235 24.1901 103.884 24.4241L105.92 18.78C104.616 18.31 103.264 18.074 101.878 18.074V24.074ZM103.884 24.4241C104.423 24.6185 104.721 24.8578 104.908 25.0858L109.552 21.2863C108.586 20.1063 107.333 19.2895 105.92 18.78L103.884 24.4241ZM105.088 21.085L102.592 23.629L106.875 27.8311L109.371 25.2871L105.088 21.085ZM106.972 23.732C106.276 22.9533 105.383 22.3008 104.276 21.9686L102.552 27.7155C102.521 27.7063 102.494 27.6955 102.472 27.6849C102.45 27.6744 102.436 27.6655 102.429 27.6612C102.417 27.6526 102.441 27.6664 102.496 27.7281L106.972 23.732ZM104.362 21.996C103.733 21.7861 102.988 21.602 102.214 21.602V27.602C102.131 27.602 102.109 27.5925 102.165 27.6038C102.219 27.6144 102.316 27.6385 102.465 27.6881L104.362 21.996ZM102.214 21.602C101.762 21.602 100.706 21.6405 99.7658 22.346L103.366 27.146C102.984 27.4321 102.633 27.5313 102.475 27.5666C102.385 27.5864 102.317 27.5947 102.278 27.5983C102.238 27.602 102.215 27.602 102.214 27.602V21.602ZM99.8221 22.3048C98.9913 22.8983 98.3978 23.8787 98.3978 25.058H104.398C104.398 25.4479 104.308 25.8852 104.081 26.3063C103.859 26.7198 103.565 27.0046 103.31 27.1872L99.8221 22.3048ZM98.3978 25.058C98.3978 27.0488 99.9474 27.962 100.579 28.2385L102.984 22.7416C103.088 22.7871 103.413 22.9411 103.736 23.3049C104.11 23.7259 104.398 24.3394 104.398 25.058H98.3978ZM100.579 28.2385C101.054 28.4461 101.566 28.5993 102.066 28.7192L103.466 22.8849C103.166 22.8128 103.022 22.758 102.984 22.7416L100.579 28.2385ZM102.091 28.7252C102.382 28.7923 102.702 28.886 103.053 29.0113L105.071 23.3608C104.526 23.1661 103.982 23.0038 103.44 22.8789L102.091 28.7252ZM103.053 29.0113C103.226 29.0732 103.401 29.1631 103.581 29.2926L107.087 24.4234C106.467 23.9769 105.793 23.6189 105.071 23.3608L103.053 29.0113ZM103.626 29.3246C103.63 29.327 103.633 29.3297 103.64 29.3376C103.648 29.3461 103.667 29.3707 103.695 29.4218L108.989 26.5983C108.525 25.7294 107.879 24.9715 107.041 24.3915L103.626 29.3246ZM103.715 29.4593C103.677 29.3907 103.681 29.3701 103.694 29.4321C103.708 29.4957 103.726 29.624 103.726 29.834H109.726C109.726 28.7752 109.551 27.6158 108.969 26.5608L103.715 29.4593ZM103.726 29.834C103.726 29.9269 103.717 29.9853 103.71 30.0166C103.703 30.0467 103.697 30.06 103.695 30.0644C103.692 30.0687 103.687 30.0796 103.67 30.0991C103.652 30.1196 103.615 30.1574 103.547 30.2081L107.12 35.028C108.822 33.7668 109.726 31.9397 109.726 29.834H103.726ZM103.547 30.2081C103.292 30.397 102.741 30.65 101.59 30.65V36.65C103.575 36.65 105.519 36.2151 107.12 35.028L103.547 30.2081Z" fill="white" mask="url(#path-3-outside-1_23_18648)"/>
</svg>
