<svg width="85" height="49" viewBox="0 0 85 49" fill="none" xmlns="http://www.w3.org/2000/svg">
<line x1="2.30078" y1="12.29" x2="2.30078" y2="36.29" stroke="white" stroke-width="3"/>
<mask id="path-2-outside-1_46_19776" maskUnits="userSpaceOnUse" x="21.8008" y="12.29" width="62" height="25" fill="black">
<rect fill="white" x="21.8008" y="12.29" width="62" height="25"/>
<path d="M25.5156 33.29V16.202H30.3156V33.29H25.5156ZM29.4036 27.218V23.234H37.8036V27.218H29.4036ZM29.4036 20.186V16.202H38.1636V20.186H29.4036ZM39.9458 33.29V21.482H44.6498V33.29H39.9458ZM42.2978 20.378C41.6098 20.378 41.0338 20.146 40.5698 19.682C40.1218 19.202 39.8978 18.618 39.8978 17.93C39.8978 17.242 40.1218 16.666 40.5698 16.202C41.0338 15.722 41.6098 15.482 42.2978 15.482C43.0018 15.482 43.5778 15.722 44.0258 16.202C44.4738 16.666 44.6978 17.242 44.6978 17.93C44.6978 18.618 44.4738 19.202 44.0258 19.682C43.5778 20.146 43.0018 20.378 42.2978 20.378ZM54.3959 33.29V26.666C54.3959 26.202 54.2599 25.85 53.9879 25.61C53.7319 25.354 53.4039 25.226 53.0039 25.226C52.7319 25.226 52.4839 25.282 52.2599 25.394C52.0519 25.506 51.8839 25.674 51.7559 25.898C51.6439 26.106 51.5879 26.362 51.5879 26.666L49.7639 25.85C49.7639 24.89 49.9719 24.066 50.3879 23.378C50.8199 22.69 51.4039 22.162 52.1399 21.794C52.8919 21.426 53.7399 21.242 54.6839 21.242C55.5319 21.242 56.2839 21.434 56.9399 21.818C57.6119 22.186 58.1399 22.698 58.5239 23.354C58.9079 23.994 59.0999 24.738 59.0999 25.586V33.29H54.3959ZM46.8839 33.29V21.482H51.5879V33.29H46.8839ZM66.0304 33.53C64.9264 33.53 63.9504 33.266 63.1024 32.738C62.2544 32.21 61.5904 31.49 61.1104 30.578C60.6304 29.65 60.3904 28.586 60.3904 27.386C60.3904 26.186 60.6304 25.122 61.1104 24.194C61.5904 23.266 62.2544 22.546 63.1024 22.034C63.9504 21.506 64.9264 21.242 66.0304 21.242C66.7184 21.242 67.3504 21.362 67.9264 21.602C68.5184 21.826 69.0064 22.146 69.3904 22.562C69.7904 22.978 70.0464 23.458 70.1584 24.002V30.77C70.0464 31.314 69.7904 31.794 69.3904 32.21C69.0064 32.626 68.5184 32.954 67.9264 33.194C67.3504 33.418 66.7184 33.53 66.0304 33.53ZM67.0864 29.402C67.6784 29.402 68.1504 29.218 68.5024 28.85C68.8704 28.466 69.0544 27.978 69.0544 27.386C69.0544 26.986 68.9744 26.642 68.8144 26.354C68.6544 26.05 68.4224 25.81 68.1184 25.634C67.8304 25.458 67.4944 25.37 67.1104 25.37C66.7264 25.37 66.3824 25.458 66.0784 25.634C65.7904 25.81 65.5584 26.05 65.3824 26.354C65.2064 26.658 65.1184 27.002 65.1184 27.386C65.1184 27.77 65.1984 28.114 65.3584 28.418C65.5344 28.722 65.7744 28.962 66.0784 29.138C66.3824 29.314 66.7184 29.402 67.0864 29.402ZM68.9104 33.29V30.122L69.5584 27.242L68.9104 24.386V21.482H73.4944V33.29H68.9104ZM75.7589 33.29V15.722H80.4629V33.29H75.7589Z"/>
</mask>
<path d="M25.5156 33.29V16.202H30.3156V33.29H25.5156ZM29.4036 27.218V23.234H37.8036V27.218H29.4036ZM29.4036 20.186V16.202H38.1636V20.186H29.4036ZM39.9458 33.29V21.482H44.6498V33.29H39.9458ZM42.2978 20.378C41.6098 20.378 41.0338 20.146 40.5698 19.682C40.1218 19.202 39.8978 18.618 39.8978 17.93C39.8978 17.242 40.1218 16.666 40.5698 16.202C41.0338 15.722 41.6098 15.482 42.2978 15.482C43.0018 15.482 43.5778 15.722 44.0258 16.202C44.4738 16.666 44.6978 17.242 44.6978 17.93C44.6978 18.618 44.4738 19.202 44.0258 19.682C43.5778 20.146 43.0018 20.378 42.2978 20.378ZM54.3959 33.29V26.666C54.3959 26.202 54.2599 25.85 53.9879 25.61C53.7319 25.354 53.4039 25.226 53.0039 25.226C52.7319 25.226 52.4839 25.282 52.2599 25.394C52.0519 25.506 51.8839 25.674 51.7559 25.898C51.6439 26.106 51.5879 26.362 51.5879 26.666L49.7639 25.85C49.7639 24.89 49.9719 24.066 50.3879 23.378C50.8199 22.69 51.4039 22.162 52.1399 21.794C52.8919 21.426 53.7399 21.242 54.6839 21.242C55.5319 21.242 56.2839 21.434 56.9399 21.818C57.6119 22.186 58.1399 22.698 58.5239 23.354C58.9079 23.994 59.0999 24.738 59.0999 25.586V33.29H54.3959ZM46.8839 33.29V21.482H51.5879V33.29H46.8839ZM66.0304 33.53C64.9264 33.53 63.9504 33.266 63.1024 32.738C62.2544 32.21 61.5904 31.49 61.1104 30.578C60.6304 29.65 60.3904 28.586 60.3904 27.386C60.3904 26.186 60.6304 25.122 61.1104 24.194C61.5904 23.266 62.2544 22.546 63.1024 22.034C63.9504 21.506 64.9264 21.242 66.0304 21.242C66.7184 21.242 67.3504 21.362 67.9264 21.602C68.5184 21.826 69.0064 22.146 69.3904 22.562C69.7904 22.978 70.0464 23.458 70.1584 24.002V30.77C70.0464 31.314 69.7904 31.794 69.3904 32.21C69.0064 32.626 68.5184 32.954 67.9264 33.194C67.3504 33.418 66.7184 33.53 66.0304 33.53ZM67.0864 29.402C67.6784 29.402 68.1504 29.218 68.5024 28.85C68.8704 28.466 69.0544 27.978 69.0544 27.386C69.0544 26.986 68.9744 26.642 68.8144 26.354C68.6544 26.05 68.4224 25.81 68.1184 25.634C67.8304 25.458 67.4944 25.37 67.1104 25.37C66.7264 25.37 66.3824 25.458 66.0784 25.634C65.7904 25.81 65.5584 26.05 65.3824 26.354C65.2064 26.658 65.1184 27.002 65.1184 27.386C65.1184 27.77 65.1984 28.114 65.3584 28.418C65.5344 28.722 65.7744 28.962 66.0784 29.138C66.3824 29.314 66.7184 29.402 67.0864 29.402ZM68.9104 33.29V30.122L69.5584 27.242L68.9104 24.386V21.482H73.4944V33.29H68.9104ZM75.7589 33.29V15.722H80.4629V33.29H75.7589Z" fill="black"/>
<path d="M25.5156 33.29H22.5156V36.29H25.5156V33.29ZM25.5156 16.202V13.202H22.5156V16.202H25.5156ZM30.3156 16.202H33.3156V13.202H30.3156V16.202ZM30.3156 33.29V36.29H33.3156V33.29H30.3156ZM29.4036 27.218H26.4036V30.218H29.4036V27.218ZM29.4036 23.234V20.234H26.4036V23.234H29.4036ZM37.8036 23.234H40.8036V20.234H37.8036V23.234ZM37.8036 27.218V30.218H40.8036V27.218H37.8036ZM29.4036 20.186H26.4036V23.186H29.4036V20.186ZM29.4036 16.202V13.202H26.4036V16.202H29.4036ZM38.1636 16.202H41.1636V13.202H38.1636V16.202ZM38.1636 20.186V23.186H41.1636V20.186H38.1636ZM28.5156 33.29V16.202H22.5156V33.29H28.5156ZM25.5156 19.202H30.3156V13.202H25.5156V19.202ZM27.3156 16.202V33.29H33.3156V16.202H27.3156ZM30.3156 30.29H25.5156V36.29H30.3156V30.29ZM32.4036 27.218V23.234H26.4036V27.218H32.4036ZM29.4036 26.234H37.8036V20.234H29.4036V26.234ZM34.8036 23.234V27.218H40.8036V23.234H34.8036ZM37.8036 24.218H29.4036V30.218H37.8036V24.218ZM32.4036 20.186V16.202H26.4036V20.186H32.4036ZM29.4036 19.202H38.1636V13.202H29.4036V19.202ZM35.1636 16.202V20.186H41.1636V16.202H35.1636ZM38.1636 17.186H29.4036V23.186H38.1636V17.186ZM39.9458 33.29H36.9458V36.29H39.9458V33.29ZM39.9458 21.482V18.482H36.9458V21.482H39.9458ZM44.6498 21.482H47.6498V18.482H44.6498V21.482ZM44.6498 33.29V36.29H47.6498V33.29H44.6498ZM40.5698 19.682L38.3766 21.729L38.4119 21.7668L38.4485 21.8034L40.5698 19.682ZM40.5698 16.202L38.4128 14.117L38.4116 14.1183L40.5698 16.202ZM44.0258 16.202L41.8326 18.249L41.85 18.2676L41.8676 18.2858L44.0258 16.202ZM44.0258 19.682L46.184 21.7658L46.2016 21.7476L46.219 21.729L44.0258 19.682ZM42.9458 33.29V21.482H36.9458V33.29H42.9458ZM39.9458 24.482H44.6498V18.482H39.9458V24.482ZM41.6498 21.482V33.29H47.6498V21.482H41.6498ZM44.6498 30.29H39.9458V36.29H44.6498V30.29ZM42.2978 17.378C42.2964 17.378 42.3658 17.3791 42.4706 17.4213C42.5783 17.4646 42.654 17.5236 42.6911 17.5607L38.4485 21.8034C39.5047 22.8596 40.8571 23.378 42.2978 23.378V17.378ZM42.763 17.6351C42.7889 17.6629 42.8338 17.7236 42.8668 17.8097C42.8989 17.8933 42.8978 17.9435 42.8978 17.93H36.8978C36.8978 19.3379 37.3835 20.6649 38.3766 21.729L42.763 17.6351ZM42.8978 17.93C42.8978 17.916 42.8991 17.9736 42.8618 18.0694C42.8232 18.1687 42.7683 18.244 42.728 18.2858L38.4116 14.1183C37.3852 15.1813 36.8978 16.5218 36.8978 17.93H42.8978ZM42.7268 18.2871C42.6947 18.3203 42.619 18.3832 42.5036 18.4313C42.3902 18.4785 42.3091 18.482 42.2978 18.482V12.482C40.8245 12.482 39.4612 13.0324 38.4128 14.117L42.7268 18.2871ZM42.2978 18.482C42.3043 18.482 42.2256 18.4819 42.1039 18.4313C41.9776 18.3786 41.8842 18.3043 41.8326 18.249L46.219 14.1551C45.1593 13.0197 43.7662 12.482 42.2978 12.482V18.482ZM41.8676 18.2858C41.8273 18.244 41.7724 18.1687 41.7338 18.0694C41.6965 17.9736 41.6978 17.916 41.6978 17.93H47.6978C47.6978 16.5218 47.2104 15.1813 46.184 14.1183L41.8676 18.2858ZM41.6978 17.93C41.6978 17.9435 41.6967 17.8933 41.7288 17.8097C41.7618 17.7236 41.8066 17.6629 41.8326 17.6351L46.219 21.729C47.2121 20.6649 47.6978 19.3379 47.6978 17.93H41.6978ZM41.8676 17.5983C41.9248 17.539 42.0187 17.4689 42.137 17.4213C42.2497 17.3759 42.3168 17.378 42.2978 17.378V23.378C43.7332 23.378 45.1158 22.8721 46.184 21.7658L41.8676 17.5983ZM54.3959 33.29H51.3959V36.29H54.3959V33.29ZM53.9879 25.61L51.8665 27.7314L51.9328 27.7976L52.003 27.8596L53.9879 25.61ZM52.2599 25.394L50.9182 22.7108L50.8776 22.7311L50.8376 22.7526L52.2599 25.394ZM51.7559 25.898L49.1511 24.4096L49.1324 24.4424L49.1144 24.4757L51.7559 25.898ZM51.5879 26.666L50.3628 29.4045L54.5879 31.2947V26.666H51.5879ZM49.7639 25.85H46.7639V27.7945L48.5388 28.5885L49.7639 25.85ZM50.3879 23.378L47.8472 21.7827L47.8337 21.8041L47.8207 21.8258L50.3879 23.378ZM52.1399 21.794L50.8212 19.0994L50.8097 19.105L50.7982 19.1108L52.1399 21.794ZM56.9399 21.818L55.4243 24.4071L55.4613 24.4287L55.4989 24.4493L56.9399 21.818ZM58.5239 23.354L55.9348 24.8696L55.943 24.8836L55.9514 24.8975L58.5239 23.354ZM59.0999 33.29V36.29H62.0999V33.29H59.0999ZM46.8839 33.29H43.8839V36.29H46.8839V33.29ZM46.8839 21.482V18.482H43.8839V21.482H46.8839ZM51.5879 21.482H54.5879V18.482H51.5879V21.482ZM51.5879 33.29V36.29H54.5879V33.29H51.5879ZM57.3959 33.29V26.666H51.3959V33.29H57.3959ZM57.3959 26.666C57.3959 25.5983 57.0606 24.3204 55.9727 23.3605L52.003 27.8596C51.7633 27.648 51.5937 27.3896 51.4955 27.1352C51.4035 26.8972 51.3959 26.7216 51.3959 26.666H57.3959ZM56.1092 23.4887C55.229 22.6085 54.108 22.226 53.0039 22.226V28.226C52.8811 28.226 52.6869 28.2056 52.4592 28.1168C52.2258 28.0257 52.0234 27.8882 51.8665 27.7314L56.1092 23.4887ZM53.0039 22.226C52.307 22.226 51.5939 22.3729 50.9182 22.7108L53.6015 28.0773C53.3739 28.1911 53.1567 28.226 53.0039 28.226V22.226ZM50.8376 22.7526C50.0902 23.1551 49.5311 23.7448 49.1511 24.4096L54.3606 27.3865C54.2367 27.6033 54.0136 27.857 53.6822 28.0355L50.8376 22.7526ZM49.1144 24.4757C48.7091 25.2285 48.5879 26.0041 48.5879 26.666H54.5879C54.5879 26.7199 54.5786 26.9836 54.3973 27.3203L49.1144 24.4757ZM52.813 23.9276L50.989 23.1116L48.5388 28.5885L50.3628 29.4045L52.813 23.9276ZM52.7639 25.85C52.7639 25.3304 52.8728 25.0663 52.9551 24.9303L47.8207 21.8258C47.0709 23.0658 46.7639 24.4497 46.7639 25.85H52.7639ZM52.9285 24.9733C53.0642 24.7573 53.2306 24.6028 53.4815 24.4773L50.7982 19.1108C49.5771 19.7213 48.5756 20.6227 47.8472 21.7827L52.9285 24.9733ZM53.4585 24.4887C53.7503 24.3459 54.1382 24.242 54.6839 24.242V18.242C53.3415 18.242 52.0334 18.5062 50.8212 19.0994L53.4585 24.4887ZM54.6839 24.242C55.0622 24.242 55.2796 24.3224 55.4243 24.4071L58.4554 19.229C57.2881 18.5457 56.0015 18.242 54.6839 18.242V24.242ZM55.4989 24.4493C55.6982 24.5585 55.8277 24.6865 55.9348 24.8696L61.1129 21.8385C60.452 20.7095 59.5255 19.8136 58.3808 19.1868L55.4989 24.4493ZM55.9514 24.8975C56.0191 25.0104 56.0999 25.2062 56.0999 25.586H62.0999C62.0999 24.2699 61.7966 22.9776 61.0963 21.8105L55.9514 24.8975ZM56.0999 25.586V33.29H62.0999V25.586H56.0999ZM59.0999 30.29H54.3959V36.29H59.0999V30.29ZM49.8839 33.29V21.482H43.8839V33.29H49.8839ZM46.8839 24.482H51.5879V18.482H46.8839V24.482ZM48.5879 21.482V33.29H54.5879V21.482H48.5879ZM51.5879 30.29H46.8839V36.29H51.5879V30.29ZM63.1024 32.738L64.6881 30.1913L64.6881 30.1913L63.1024 32.738ZM61.1104 30.578L58.4458 31.9563L58.4507 31.9658L58.4557 31.9753L61.1104 30.578ZM61.1104 24.194L58.4458 22.8158L58.4458 22.8158L61.1104 24.194ZM63.1024 22.034L64.653 24.6022L64.6706 24.5916L64.6881 24.5807L63.1024 22.034ZM67.9264 21.602L66.7726 24.3713L66.8184 24.3903L66.8647 24.4079L67.9264 21.602ZM69.3904 22.562L67.186 24.5969L67.2067 24.6193L67.2279 24.6414L69.3904 22.562ZM70.1584 24.002H73.1584V23.6964L73.0968 23.3971L70.1584 24.002ZM70.1584 30.77L73.0968 31.375L73.1584 31.0757V30.77H70.1584ZM69.3904 32.21L67.2279 30.1307L67.2067 30.1527L67.186 30.1752L69.3904 32.21ZM67.9264 33.194L69.0138 35.9901L69.0337 35.9823L69.0535 35.9743L67.9264 33.194ZM68.5024 28.85L66.3365 26.7743L66.3345 26.7764L68.5024 28.85ZM68.8144 26.354L66.1597 27.7513L66.1755 27.7813L66.192 27.811L68.8144 26.354ZM68.1184 25.634L66.5541 28.1939L66.5845 28.2125L66.6153 28.2303L68.1184 25.634ZM66.0784 25.634L64.5753 23.0378L64.5445 23.0556L64.5141 23.0742L66.0784 25.634ZM65.3824 26.354L67.9787 27.8571L67.9787 27.8571L65.3824 26.354ZM65.3584 28.418L62.7037 29.8153L62.7318 29.8688L62.7621 29.9211L65.3584 28.418ZM68.9104 33.29H65.9104V36.29H68.9104V33.29ZM68.9104 30.122L65.9836 29.4635L65.9104 29.7887V30.122H68.9104ZM69.5584 27.242L72.4853 27.9006L72.634 27.2393L72.4841 26.5782L69.5584 27.242ZM68.9104 24.386H65.9104V24.7221L65.9848 25.0498L68.9104 24.386ZM68.9104 21.482V18.482H65.9104V21.482H68.9104ZM73.4944 21.482H76.4944V18.482H73.4944V21.482ZM73.4944 33.29V36.29H76.4944V33.29H73.4944ZM66.0304 30.53C65.4261 30.53 65.0111 30.3925 64.6881 30.1913L61.5167 35.2847C62.8897 36.1396 64.4268 36.53 66.0304 36.53V30.53ZM64.6881 30.1913C64.3069 29.954 64.0054 29.6372 63.7652 29.1808L58.4557 31.9753C59.1755 33.3429 60.2019 34.4661 61.5167 35.2847L64.6881 30.1913ZM63.7751 29.1998C63.5461 28.7572 63.3904 28.1781 63.3904 27.386H57.3904C57.3904 28.994 57.7147 30.5429 58.4458 31.9563L63.7751 29.1998ZM63.3904 27.386C63.3904 26.594 63.5461 26.0149 63.7751 25.5723L58.4458 22.8158C57.7147 24.2292 57.3904 25.7781 57.3904 27.386H63.3904ZM63.7751 25.5723C64.0152 25.108 64.3055 24.8121 64.653 24.6022L61.5518 19.4658C60.2034 20.28 59.1656 21.424 58.4458 22.8158L63.7751 25.5723ZM64.6881 24.5807C65.0111 24.3796 65.4261 24.242 66.0304 24.242V18.242C64.4268 18.242 62.8897 18.6325 61.5167 19.4873L64.6881 24.5807ZM66.0304 24.242C66.3631 24.242 66.598 24.2985 66.7726 24.3713L69.0803 18.8328C68.1028 18.4255 67.0737 18.242 66.0304 18.242V24.242ZM66.8647 24.4079C67.0731 24.4867 67.1536 24.5617 67.186 24.5969L71.5948 20.5272C70.8593 19.7304 69.9637 19.1653 68.9881 18.7962L66.8647 24.4079ZM67.2279 24.6414C67.2334 24.6471 67.2372 24.6513 67.2395 24.6541C67.2418 24.6568 67.2428 24.6582 67.2428 24.6583C67.2428 24.6583 67.242 24.6571 67.2406 24.6549C67.2392 24.6526 67.2374 24.6496 67.2354 24.6458C67.2311 24.6378 67.2272 24.6291 67.2242 24.6206C67.2228 24.6166 67.2217 24.6133 67.221 24.6107C67.2203 24.6082 67.22 24.6069 67.2201 24.607L73.0968 23.3971C72.866 22.2759 72.3294 21.2903 71.5529 20.4827L67.2279 24.6414ZM67.1584 24.002V30.77H73.1584V24.002H67.1584ZM67.2201 30.1651C67.22 30.1652 67.2203 30.1638 67.221 30.1613C67.2217 30.1588 67.2228 30.1555 67.2242 30.1514C67.2272 30.143 67.2311 30.1342 67.2354 30.1263C67.2374 30.1225 67.2392 30.1194 67.2406 30.1172C67.242 30.1149 67.2428 30.1138 67.2428 30.1138C67.2428 30.1138 67.2418 30.1152 67.2395 30.118C67.2372 30.1207 67.2334 30.125 67.2279 30.1307L71.5529 34.2894C72.3294 33.4818 72.866 32.4962 73.0968 31.375L67.2201 30.1651ZM67.186 30.1752C67.1382 30.227 67.0345 30.3185 66.7993 30.4138L69.0535 35.9743C70.0024 35.5896 70.8747 35.0251 71.5948 34.2449L67.186 30.1752ZM66.8391 30.398C66.6469 30.4728 66.3885 30.53 66.0304 30.53V36.53C67.0484 36.53 68.054 36.3633 69.0138 35.9901L66.8391 30.398ZM67.0864 32.402C68.3523 32.402 69.6595 31.9805 70.6703 30.9237L66.3345 26.7764C66.4594 26.6458 66.6208 26.5367 66.7948 26.4689C66.9594 26.4048 67.0714 26.402 67.0864 26.402V32.402ZM70.6684 30.9258C71.634 29.9181 72.0544 28.6565 72.0544 27.386H66.0544C66.0544 27.3689 66.0578 27.2744 66.1093 27.1376C66.1631 26.9951 66.246 26.8687 66.3365 26.7743L70.6684 30.9258ZM72.0544 27.386C72.0544 26.5847 71.8923 25.7169 71.4369 24.8971L66.192 27.811C66.127 27.6941 66.0911 27.5879 66.0724 27.5076C66.0543 27.4297 66.0544 27.3852 66.0544 27.386H72.0544ZM71.4692 24.9568C71.0397 24.1408 70.4031 23.4902 69.6215 23.0378L66.6153 28.2303C66.5393 28.1863 66.4505 28.1212 66.3635 28.0311C66.276 27.9407 66.2083 27.8436 66.1597 27.7513L71.4692 24.9568ZM69.6828 23.0742C68.8616 22.5723 67.9687 22.37 67.1104 22.37V28.37C67.0726 28.37 66.995 28.3656 66.8903 28.3382C66.7833 28.3101 66.6672 28.263 66.5541 28.1939L69.6828 23.0742ZM67.1104 22.37C66.2492 22.37 65.378 22.573 64.5753 23.0378L67.5815 28.2303C67.4931 28.2815 67.3992 28.3191 67.3079 28.3424C67.2181 28.3654 67.1489 28.37 67.1104 28.37V22.37ZM64.5141 23.0742C63.7817 23.5217 63.2021 24.1325 62.7861 24.8509L67.9787 27.8571C67.9509 27.9052 67.9076 27.9668 67.8454 28.0311C67.7828 28.0959 67.7132 28.1509 67.6428 28.1939L64.5141 23.0742ZM62.7861 24.8509C62.3214 25.6536 62.1184 26.5248 62.1184 27.386H68.1184C68.1184 27.4246 68.1138 27.4937 68.0908 27.5835C68.0675 27.6748 68.0299 27.7688 67.9787 27.8571L62.7861 24.8509ZM62.1184 27.386C62.1184 28.1987 62.2913 29.0317 62.7037 29.8153L68.0132 27.0208C68.0559 27.1019 68.084 27.1819 68.1004 27.2525C68.1165 27.3217 68.1184 27.369 68.1184 27.386H62.1184ZM62.7621 29.9211C63.2008 30.6788 63.8177 31.2957 64.5753 31.7343L67.5815 26.5418C67.6475 26.5799 67.7208 26.6338 67.7917 26.7047C67.8626 26.7756 67.9165 26.849 67.9547 26.9149L62.7621 29.9211ZM64.5753 31.7343C65.3582 32.1876 66.2168 32.402 67.0864 32.402V26.402C67.1437 26.402 67.2241 26.4092 67.3185 26.4339C67.4137 26.4589 67.5034 26.4965 67.5815 26.5418L64.5753 31.7343ZM71.9104 33.29V30.122H65.9104V33.29H71.9104ZM71.8373 30.7806L72.4853 27.9006L66.6316 26.5835L65.9836 29.4635L71.8373 30.7806ZM72.4841 26.5782L71.8361 23.7222L65.9848 25.0498L66.6328 27.9058L72.4841 26.5782ZM71.9104 24.386V21.482H65.9104V24.386H71.9104ZM68.9104 24.482H73.4944V18.482H68.9104V24.482ZM70.4944 21.482V33.29H76.4944V21.482H70.4944ZM73.4944 30.29H68.9104V36.29H73.4944V30.29ZM75.7589 33.29H72.7589V36.29H75.7589V33.29ZM75.7589 15.722V12.722H72.7589V15.722H75.7589ZM80.4629 15.722H83.4629V12.722H80.4629V15.722ZM80.4629 33.29V36.29H83.4629V33.29H80.4629ZM78.7589 33.29V15.722H72.7589V33.29H78.7589ZM75.7589 18.722H80.4629V12.722H75.7589V18.722ZM77.4629 15.722V33.29H83.4629V15.722H77.4629ZM80.4629 30.29H75.7589V36.29H80.4629V30.29Z" fill="white" mask="url(#path-2-outside-1_46_19776)"/>
</svg>
