<svg width="61" height="36" viewBox="0 0 61 36" fill="none" xmlns="http://www.w3.org/2000/svg">
<mask id="path-1-outside-1_7_2555" maskUnits="userSpaceOnUse" x="6" y="9" width="49" height="20" fill="black">
<rect fill="white" x="6" y="9" width="49" height="20"/>
<path d="M9.224 25V12.292H12.05V25H9.224ZM20.0234 25V20.014C20.0234 19.558 19.8794 19.192 19.5914 18.916C19.3154 18.628 18.9614 18.484 18.5294 18.484C18.2294 18.484 17.9654 18.55 17.7374 18.682C17.5094 18.802 17.3294 18.982 17.1974 19.222C17.0654 19.45 16.9994 19.714 16.9994 20.014L15.9374 19.492C15.9374 18.808 16.0874 18.208 16.3874 17.692C16.6874 17.176 17.1014 16.78 17.6294 16.504C18.1694 16.216 18.7754 16.072 19.4474 16.072C20.0954 16.072 20.6654 16.228 21.1574 16.54C21.6614 16.84 22.0574 17.242 22.3454 17.746C22.6334 18.25 22.7774 18.802 22.7774 19.402V25H20.0234ZM14.2454 25V16.252H16.9994V25H14.2454ZM24.5462 25V16.252H27.3002V25H24.5462ZM25.9322 15.046C25.5002 15.046 25.1402 14.902 24.8522 14.614C24.5762 14.314 24.4382 13.954 24.4382 13.534C24.4382 13.102 24.5762 12.742 24.8522 12.454C25.1402 12.166 25.5002 12.022 25.9322 12.022C26.3642 12.022 26.7182 12.166 26.9942 12.454C27.2702 12.742 27.4082 13.102 27.4082 13.534C27.4082 13.954 27.2702 14.314 26.9942 14.614C26.7182 14.902 26.3642 15.046 25.9322 15.046ZM33.4696 25.198C32.5696 25.198 31.7536 25 31.0216 24.604C30.2896 24.208 29.7136 23.662 29.2936 22.966C28.8736 22.27 28.6636 21.49 28.6636 20.626C28.6636 19.75 28.8736 18.97 29.2936 18.286C29.7256 17.59 30.3076 17.044 31.0396 16.648C31.7716 16.252 32.5936 16.054 33.5056 16.054C34.1896 16.054 34.8136 16.174 35.3776 16.414C35.9536 16.642 36.4636 16.99 36.9076 17.458L35.1436 19.222C34.9396 18.994 34.6996 18.826 34.4236 18.718C34.1596 18.61 33.8536 18.556 33.5056 18.556C33.1096 18.556 32.7556 18.646 32.4436 18.826C32.1436 18.994 31.9036 19.234 31.7236 19.546C31.5556 19.846 31.4716 20.2 31.4716 20.608C31.4716 21.016 31.5556 21.376 31.7236 21.688C31.9036 22 32.1496 22.246 32.4616 22.426C32.7736 22.606 33.1216 22.696 33.5056 22.696C33.8656 22.696 34.1836 22.636 34.4596 22.516C34.7476 22.384 34.9936 22.204 35.1976 21.976L36.9436 23.74C36.4876 24.22 35.9716 24.586 35.3956 24.838C34.8196 25.078 34.1776 25.198 33.4696 25.198ZM38.1693 25V16.252H40.9233V25H38.1693ZM39.5553 15.046C39.1233 15.046 38.7633 14.902 38.4753 14.614C38.1993 14.314 38.0613 13.954 38.0613 13.534C38.0613 13.102 38.1993 12.742 38.4753 12.454C38.7633 12.166 39.1233 12.022 39.5553 12.022C39.9873 12.022 40.3413 12.166 40.6173 12.454C40.8933 12.742 41.0313 13.102 41.0313 13.534C41.0313 13.954 40.8933 14.314 40.6173 14.614C40.3413 14.902 39.9873 15.046 39.5553 15.046ZM47.0746 25.198C46.1746 25.198 45.3586 25 44.6266 24.604C43.9066 24.196 43.3366 23.644 42.9166 22.948C42.4966 22.252 42.2866 21.472 42.2866 20.608C42.2866 19.744 42.4966 18.97 42.9166 18.286C43.3366 17.602 43.9066 17.062 44.6266 16.666C45.3466 16.258 46.1626 16.054 47.0746 16.054C47.9866 16.054 48.8026 16.252 49.5226 16.648C50.2426 17.044 50.8126 17.59 51.2326 18.286C51.6526 18.97 51.8626 19.744 51.8626 20.608C51.8626 21.472 51.6526 22.252 51.2326 22.948C50.8126 23.644 50.2426 24.196 49.5226 24.604C48.8026 25 47.9866 25.198 47.0746 25.198ZM47.0746 22.696C47.4706 22.696 47.8186 22.612 48.1186 22.444C48.4186 22.264 48.6466 22.018 48.8026 21.706C48.9706 21.382 49.0546 21.016 49.0546 20.608C49.0546 20.2 48.9706 19.846 48.8026 19.546C48.6346 19.234 48.4006 18.994 48.1006 18.826C47.8126 18.646 47.4706 18.556 47.0746 18.556C46.6906 18.556 46.3486 18.646 46.0486 18.826C45.7486 18.994 45.5146 19.234 45.3466 19.546C45.1786 19.858 45.0946 20.218 45.0946 20.626C45.0946 21.022 45.1786 21.382 45.3466 21.706C45.5146 22.018 45.7486 22.264 46.0486 22.444C46.3486 22.612 46.6906 22.696 47.0746 22.696Z"/>
</mask>
<path d="M9.224 25V12.292H12.05V25H9.224ZM20.0234 25V20.014C20.0234 19.558 19.8794 19.192 19.5914 18.916C19.3154 18.628 18.9614 18.484 18.5294 18.484C18.2294 18.484 17.9654 18.55 17.7374 18.682C17.5094 18.802 17.3294 18.982 17.1974 19.222C17.0654 19.45 16.9994 19.714 16.9994 20.014L15.9374 19.492C15.9374 18.808 16.0874 18.208 16.3874 17.692C16.6874 17.176 17.1014 16.78 17.6294 16.504C18.1694 16.216 18.7754 16.072 19.4474 16.072C20.0954 16.072 20.6654 16.228 21.1574 16.54C21.6614 16.84 22.0574 17.242 22.3454 17.746C22.6334 18.25 22.7774 18.802 22.7774 19.402V25H20.0234ZM14.2454 25V16.252H16.9994V25H14.2454ZM24.5462 25V16.252H27.3002V25H24.5462ZM25.9322 15.046C25.5002 15.046 25.1402 14.902 24.8522 14.614C24.5762 14.314 24.4382 13.954 24.4382 13.534C24.4382 13.102 24.5762 12.742 24.8522 12.454C25.1402 12.166 25.5002 12.022 25.9322 12.022C26.3642 12.022 26.7182 12.166 26.9942 12.454C27.2702 12.742 27.4082 13.102 27.4082 13.534C27.4082 13.954 27.2702 14.314 26.9942 14.614C26.7182 14.902 26.3642 15.046 25.9322 15.046ZM33.4696 25.198C32.5696 25.198 31.7536 25 31.0216 24.604C30.2896 24.208 29.7136 23.662 29.2936 22.966C28.8736 22.27 28.6636 21.49 28.6636 20.626C28.6636 19.75 28.8736 18.97 29.2936 18.286C29.7256 17.59 30.3076 17.044 31.0396 16.648C31.7716 16.252 32.5936 16.054 33.5056 16.054C34.1896 16.054 34.8136 16.174 35.3776 16.414C35.9536 16.642 36.4636 16.99 36.9076 17.458L35.1436 19.222C34.9396 18.994 34.6996 18.826 34.4236 18.718C34.1596 18.61 33.8536 18.556 33.5056 18.556C33.1096 18.556 32.7556 18.646 32.4436 18.826C32.1436 18.994 31.9036 19.234 31.7236 19.546C31.5556 19.846 31.4716 20.2 31.4716 20.608C31.4716 21.016 31.5556 21.376 31.7236 21.688C31.9036 22 32.1496 22.246 32.4616 22.426C32.7736 22.606 33.1216 22.696 33.5056 22.696C33.8656 22.696 34.1836 22.636 34.4596 22.516C34.7476 22.384 34.9936 22.204 35.1976 21.976L36.9436 23.74C36.4876 24.22 35.9716 24.586 35.3956 24.838C34.8196 25.078 34.1776 25.198 33.4696 25.198ZM38.1693 25V16.252H40.9233V25H38.1693ZM39.5553 15.046C39.1233 15.046 38.7633 14.902 38.4753 14.614C38.1993 14.314 38.0613 13.954 38.0613 13.534C38.0613 13.102 38.1993 12.742 38.4753 12.454C38.7633 12.166 39.1233 12.022 39.5553 12.022C39.9873 12.022 40.3413 12.166 40.6173 12.454C40.8933 12.742 41.0313 13.102 41.0313 13.534C41.0313 13.954 40.8933 14.314 40.6173 14.614C40.3413 14.902 39.9873 15.046 39.5553 15.046ZM47.0746 25.198C46.1746 25.198 45.3586 25 44.6266 24.604C43.9066 24.196 43.3366 23.644 42.9166 22.948C42.4966 22.252 42.2866 21.472 42.2866 20.608C42.2866 19.744 42.4966 18.97 42.9166 18.286C43.3366 17.602 43.9066 17.062 44.6266 16.666C45.3466 16.258 46.1626 16.054 47.0746 16.054C47.9866 16.054 48.8026 16.252 49.5226 16.648C50.2426 17.044 50.8126 17.59 51.2326 18.286C51.6526 18.97 51.8626 19.744 51.8626 20.608C51.8626 21.472 51.6526 22.252 51.2326 22.948C50.8126 23.644 50.2426 24.196 49.5226 24.604C48.8026 25 47.9866 25.198 47.0746 25.198ZM47.0746 22.696C47.4706 22.696 47.8186 22.612 48.1186 22.444C48.4186 22.264 48.6466 22.018 48.8026 21.706C48.9706 21.382 49.0546 21.016 49.0546 20.608C49.0546 20.2 48.9706 19.846 48.8026 19.546C48.6346 19.234 48.4006 18.994 48.1006 18.826C47.8126 18.646 47.4706 18.556 47.0746 18.556C46.6906 18.556 46.3486 18.646 46.0486 18.826C45.7486 18.994 45.5146 19.234 45.3466 19.546C45.1786 19.858 45.0946 20.218 45.0946 20.626C45.0946 21.022 45.1786 21.382 45.3466 21.706C45.5146 22.018 45.7486 22.264 46.0486 22.444C46.3486 22.612 46.6906 22.696 47.0746 22.696Z" fill="#FDFDFD"/>
<path d="M9.224 25H6.224V28H9.224V25ZM9.224 12.292V9.292H6.224V12.292H9.224ZM12.05 12.292H15.05V9.292H12.05V12.292ZM12.05 25V28H15.05V25H12.05ZM12.224 25V12.292H6.224V25H12.224ZM9.224 15.292H12.05V9.292H9.224V15.292ZM9.05 12.292V25H15.05V12.292H9.05ZM12.05 22H9.224V28H12.05V22ZM20.0234 25H17.0234V28H20.0234V25ZM19.5914 18.916L17.4255 20.9917L17.4696 21.0378L17.5157 21.082L19.5914 18.916ZM17.7374 18.682L19.1347 21.3368L19.1882 21.3086L19.2405 21.2783L17.7374 18.682ZM17.1974 19.222L19.7937 20.7251L19.8102 20.6966L19.8261 20.6678L17.1974 19.222ZM16.9994 20.014L15.6761 22.7063L19.9994 24.8314V20.014H16.9994ZM15.9374 19.492H12.9374V21.3602L14.6141 22.1843L15.9374 19.492ZM17.6294 16.504L19.0192 19.1627L19.0302 19.1569L19.0412 19.1511L17.6294 16.504ZM21.1574 16.54L19.5508 19.0735L19.5866 19.0962L19.623 19.1179L21.1574 16.54ZM22.7774 25V28H25.7774V25H22.7774ZM14.2454 25H11.2454V28H14.2454V25ZM14.2454 16.252V13.252H11.2454V16.252H14.2454ZM16.9994 16.252H19.9994V13.252H16.9994V16.252ZM16.9994 25V28H19.9994V25H16.9994ZM23.0234 25V20.014H17.0234V25H23.0234ZM23.0234 20.014C23.0234 18.8683 22.6321 17.6747 21.6672 16.75L17.5157 21.082C17.3513 20.9244 17.2128 20.7222 17.1237 20.4959C17.038 20.278 17.0234 20.1029 17.0234 20.014H23.0234ZM21.7574 16.8403C20.8654 15.9095 19.7038 15.484 18.5294 15.484V21.484C18.4082 21.484 18.2143 21.4627 17.9885 21.3709C17.7576 21.277 17.5663 21.1387 17.4255 20.9917L21.7574 16.8403ZM18.5294 15.484C17.7761 15.484 16.9795 15.6543 16.2343 16.0857L19.2405 21.2783C18.9513 21.4457 18.6828 21.484 18.5294 21.484V15.484ZM16.3402 16.0272C15.5588 16.4385 14.9652 17.0555 14.5688 17.7762L19.8261 20.6678C19.6937 20.9085 19.4601 21.1655 19.1347 21.3368L16.3402 16.0272ZM14.6012 17.7189C14.1697 18.4641 13.9994 19.2607 13.9994 20.014H19.9994C19.9994 20.1673 19.9612 20.4359 19.7937 20.7251L14.6012 17.7189ZM18.3228 17.3217L17.2608 16.7997L14.6141 22.1843L15.6761 22.7063L18.3228 17.3217ZM18.9374 19.492C18.9374 19.3697 18.9508 19.295 18.9604 19.2566C18.9694 19.2203 18.9778 19.2053 18.981 19.1999L13.7939 16.1841C13.1908 17.2215 12.9374 18.3568 12.9374 19.492H18.9374ZM18.981 19.1999C18.9889 19.1862 18.9942 19.1792 18.996 19.1768C18.9978 19.1746 18.9979 19.1747 18.9966 19.1759C18.9953 19.1772 18.995 19.1772 18.9971 19.1758C18.9991 19.1743 19.0059 19.1696 19.0192 19.1627L16.2397 13.8453C15.2089 14.3841 14.378 15.1796 13.7939 16.1841L18.981 19.1999ZM19.0412 19.1511C19.1052 19.1169 19.2186 19.072 19.4474 19.072V13.072C18.3323 13.072 17.2337 13.3151 16.2177 13.8569L19.0412 19.1511ZM19.4474 19.072C19.5294 19.072 19.5656 19.0817 19.569 19.0826C19.5714 19.0832 19.5692 19.0828 19.564 19.0805C19.5588 19.0782 19.5541 19.0756 19.5508 19.0735L22.7641 14.0065C21.7388 13.3563 20.5984 13.072 19.4474 13.072V19.072ZM19.623 19.1179C19.6871 19.156 19.7123 19.1847 19.7407 19.2344L24.9502 16.2576C24.4026 15.2993 23.6358 14.524 22.6919 13.9621L19.623 19.1179ZM19.7407 19.2344C19.7607 19.2695 19.7774 19.3058 19.7774 19.402H25.7774C25.7774 18.2982 25.5061 17.2305 24.9502 16.2576L19.7407 19.2344ZM19.7774 19.402V25H25.7774V19.402H19.7774ZM22.7774 22H20.0234V28H22.7774V22ZM17.2454 25V16.252H11.2454V25H17.2454ZM14.2454 19.252H16.9994V13.252H14.2454V19.252ZM13.9994 16.252V25H19.9994V16.252H13.9994ZM16.9994 22H14.2454V28H16.9994V22ZM24.5462 25H21.5462V28H24.5462V25ZM24.5462 16.252V13.252H21.5462V16.252H24.5462ZM27.3002 16.252H30.3002V13.252H27.3002V16.252ZM27.3002 25V28H30.3002V25H27.3002ZM24.8522 14.614L22.6444 16.6452L22.6867 16.6911L22.7309 16.7353L24.8522 14.614ZM24.8522 12.454L22.7309 10.3327L22.7083 10.3552L22.6863 10.3783L24.8522 12.454ZM26.9942 14.614L29.1602 16.6897L29.1813 16.6677L29.202 16.6452L26.9942 14.614ZM27.5462 25V16.252H21.5462V25H27.5462ZM24.5462 19.252H27.3002V13.252H24.5462V19.252ZM24.3002 16.252V25H30.3002V16.252H24.3002ZM27.3002 22H24.5462V28H27.3002V22ZM25.9322 12.046C26.0544 12.046 26.2398 12.0675 26.4524 12.1526C26.6685 12.239 26.845 12.3642 26.9735 12.4927L22.7309 16.7353C23.6183 17.6227 24.7581 18.046 25.9322 18.046V12.046ZM27.06 12.5828C27.1636 12.6954 27.2687 12.8515 27.343 13.0452C27.4166 13.2374 27.4382 13.4098 27.4382 13.534H21.4382C21.4382 14.6813 21.8422 15.7732 22.6444 16.6452L27.06 12.5828ZM27.4382 13.534C27.4382 13.6411 27.4202 13.8122 27.343 14.0138C27.264 14.2197 27.1467 14.3956 27.0182 14.5297L22.6863 10.3783C21.8282 11.2736 21.4382 12.3988 21.4382 13.534H27.4382ZM26.9735 14.5753C26.845 14.7038 26.6685 14.829 26.4524 14.9154C26.2398 15.0005 26.0544 15.022 25.9322 15.022V9.022C24.7581 9.022 23.6183 9.44529 22.7309 10.3327L26.9735 14.5753ZM25.9322 15.022C25.811 15.022 25.6171 15.0007 25.3913 14.9089C25.1604 14.815 24.9691 14.6767 24.8283 14.5297L29.1602 10.3783C28.2682 9.44754 27.1066 9.022 25.9322 9.022V15.022ZM24.8283 14.5297C24.6997 14.3956 24.5824 14.2197 24.5035 14.0138C24.4262 13.8122 24.4082 13.6411 24.4082 13.534H30.4082C30.4082 12.3988 30.0182 11.2736 29.1602 10.3783L24.8283 14.5297ZM24.4082 13.534C24.4082 13.4098 24.4298 13.2374 24.5035 13.0452C24.5777 12.8515 24.6828 12.6954 24.7864 12.5828L29.202 16.6452C30.0043 15.7732 30.4082 14.6813 30.4082 13.534H24.4082ZM24.8283 12.5383C24.9691 12.3913 25.1604 12.253 25.3913 12.1591C25.6171 12.0673 25.811 12.046 25.9322 12.046V18.046C27.1066 18.046 28.2682 17.6205 29.1602 16.6897L24.8283 12.5383ZM31.0216 24.604L32.449 21.9654L31.0216 24.604ZM29.2936 22.966L31.8621 21.416L29.2936 22.966ZM29.2936 18.286L26.7447 16.7039L26.7408 16.7101L26.7371 16.7162L29.2936 18.286ZM31.0396 16.648L32.467 19.2866L32.467 19.2866L31.0396 16.648ZM35.3776 16.414L34.2029 19.1745L34.238 19.1894L34.2734 19.2034L35.3776 16.414ZM36.9076 17.458L39.0289 19.5793L41.0951 17.5131L39.084 15.3932L36.9076 17.458ZM35.1436 19.222L32.9079 21.2224L35.0225 23.5858L37.2649 21.3433L35.1436 19.222ZM34.4236 18.718L33.2877 21.4946L33.309 21.5033L33.3304 21.5117L34.4236 18.718ZM32.4436 18.826L33.9094 21.4435L33.9261 21.4341L33.9427 21.4246L32.4436 18.826ZM31.7236 19.546L29.125 18.0468L29.1154 18.0635L29.1061 18.0802L31.7236 19.546ZM31.7236 21.688L29.0822 23.1103L29.103 23.149L29.125 23.1872L31.7236 21.688ZM34.4596 22.516L35.6558 25.2672L35.6828 25.2555L35.7095 25.2432L34.4596 22.516ZM35.1976 21.976L37.3297 19.8656L35.0873 17.6001L32.9619 19.9756L35.1976 21.976ZM36.9436 23.74L39.1186 25.8062L41.1222 23.6972L39.0757 21.6296L36.9436 23.74ZM35.3956 24.838L36.5494 27.6072L36.5738 27.5971L36.598 27.5865L35.3956 24.838ZM33.4696 22.198C33.0264 22.198 32.7074 22.1051 32.449 21.9654L29.5941 27.2426C30.7998 27.8949 32.1128 28.198 33.4696 28.198V22.198ZM32.449 21.9654C32.1759 21.8176 31.9988 21.6425 31.8621 21.416L26.725 24.516C27.4283 25.6815 28.4032 26.5984 29.5941 27.2426L32.449 21.9654ZM31.8621 21.416C31.7423 21.2174 31.6636 20.9794 31.6636 20.626H25.6636C25.6636 22.0006 26.0048 23.3226 26.725 24.516L31.8621 21.416ZM31.6636 20.626C31.6636 20.2518 31.7463 20.0248 31.8501 19.8558L26.7371 16.7162C26.0008 17.9152 25.6636 19.2482 25.6636 20.626H31.6636ZM31.8425 19.8681C31.9945 19.6233 32.1868 19.4382 32.467 19.2866L29.6121 14.0094C28.4284 14.6498 27.4567 15.5567 26.7447 16.7039L31.8425 19.8681ZM32.467 19.2866C32.7196 19.15 33.0432 19.054 33.5056 19.054V13.054C32.144 13.054 30.8236 13.354 29.6121 14.0094L32.467 19.2866ZM33.5056 19.054C33.8328 19.054 34.0512 19.1099 34.2029 19.1745L36.5522 13.6535C35.576 13.2381 34.5464 13.054 33.5056 13.054V19.054ZM34.2734 19.2034C34.4267 19.2641 34.5749 19.358 34.7312 19.5228L39.084 15.3932C38.3523 14.622 37.4805 14.0199 36.4817 13.6246L34.2734 19.2034ZM34.7863 15.3367L33.0223 17.1007L37.2649 21.3433L39.0289 19.5793L34.7863 15.3367ZM37.3793 17.2216C36.8723 16.655 36.2449 16.2092 35.5168 15.9243L33.3304 21.5117C33.1543 21.4428 33.0068 21.333 32.9079 21.2224L37.3793 17.2216ZM35.5595 15.9414C34.8651 15.6573 34.1597 15.556 33.5056 15.556V21.556C33.5474 21.556 33.4541 21.5627 33.2877 21.4946L35.5595 15.9414ZM33.5056 15.556C32.637 15.556 31.7567 15.7588 30.9444 16.2274L33.9427 21.4246C33.8574 21.4738 33.7678 21.5093 33.6823 21.531C33.5983 21.5523 33.5361 21.556 33.5056 21.556V15.556ZM30.9778 16.2085C30.1835 16.6533 29.5616 17.2901 29.125 18.0468L34.3221 21.0452C34.289 21.1026 34.2365 21.1767 34.1599 21.2533C34.0827 21.3306 33.9965 21.3948 33.9094 21.4435L30.9778 16.2085ZM29.1061 18.0802C28.6442 18.9049 28.4716 19.7827 28.4716 20.608H34.4716C34.4716 20.6173 34.4669 20.7871 34.3411 21.0118L29.1061 18.0802ZM28.4716 20.608C28.4716 21.4367 28.6453 22.299 29.0822 23.1103L34.365 20.2657C34.412 20.353 34.4405 20.4353 34.4561 20.5023C34.4713 20.5675 34.4716 20.6059 34.4716 20.608H28.4716ZM29.125 23.1872C29.5685 23.9559 30.1937 24.5811 30.9624 25.0246L33.9607 19.8274C34.024 19.864 34.0953 19.9161 34.1644 19.9852C34.2335 20.0543 34.2856 20.1255 34.3221 20.1888L29.125 23.1872ZM30.9624 25.0246C31.7605 25.485 32.6313 25.696 33.5056 25.696V19.696C33.5498 19.696 33.6203 19.7014 33.7077 19.7241C33.7963 19.747 33.8828 19.7825 33.9607 19.8274L30.9624 25.0246ZM33.5056 25.696C34.1979 25.696 34.9358 25.5802 35.6558 25.2672L33.2634 19.7648C33.4313 19.6918 33.5333 19.696 33.5056 19.696V25.696ZM35.7095 25.2432C36.359 24.9455 36.9444 24.5228 37.4333 23.9764L32.9619 19.9756C32.999 19.9341 33.0419 19.895 33.0885 19.8609C33.1349 19.827 33.1771 19.8037 33.2096 19.7888L35.7095 25.2432ZM33.0654 24.0864L34.8114 25.8504L39.0757 21.6296L37.3297 19.8656L33.0654 24.0864ZM34.7686 21.6738C34.5732 21.8794 34.3834 22.0063 34.1931 22.0895L36.598 27.5865C37.5597 27.1657 38.402 26.5606 39.1186 25.8062L34.7686 21.6738ZM34.2417 22.0688C34.0773 22.1373 33.8346 22.198 33.4696 22.198V28.198C34.5206 28.198 35.5618 28.0187 36.5494 27.6072L34.2417 22.0688ZM38.1693 25H35.1693V28H38.1693V25ZM38.1693 16.252V13.252H35.1693V16.252H38.1693ZM40.9233 16.252H43.9233V13.252H40.9233V16.252ZM40.9233 25V28H43.9233V25H40.9233ZM38.4753 14.614L36.2675 16.6452L36.3098 16.6911L36.3539 16.7353L38.4753 14.614ZM38.4753 12.454L36.3539 10.3327L36.3314 10.3552L36.3093 10.3783L38.4753 12.454ZM40.6173 14.614L42.7832 16.6897L42.8044 16.6677L42.8251 16.6452L40.6173 14.614ZM41.1693 25V16.252H35.1693V25H41.1693ZM38.1693 19.252H40.9233V13.252H38.1693V19.252ZM37.9233 16.252V25H43.9233V16.252H37.9233ZM40.9233 22H38.1693V28H40.9233V22ZM39.5553 12.046C39.6774 12.046 39.8628 12.0675 40.0754 12.1526C40.2916 12.239 40.4681 12.3642 40.5966 12.4927L36.3539 16.7353C37.2413 17.6227 38.3812 18.046 39.5553 18.046V12.046ZM40.6831 12.5828C40.7867 12.6954 40.8918 12.8515 40.966 13.0452C41.0397 13.2374 41.0613 13.4098 41.0613 13.534H35.0613C35.0613 14.6813 35.4652 15.7732 36.2675 16.6452L40.6831 12.5828ZM41.0613 13.534C41.0613 13.6411 41.0433 13.8122 40.966 14.0138C40.8871 14.2197 40.7698 14.3956 40.6412 14.5297L36.3093 10.3783C35.4513 11.2736 35.0613 12.3988 35.0613 13.534H41.0613ZM40.5966 14.5753C40.4681 14.7038 40.2916 14.829 40.0754 14.9154C39.8628 15.0005 39.6774 15.022 39.5553 15.022V9.022C38.3812 9.022 37.2413 9.44529 36.3539 10.3327L40.5966 14.5753ZM39.5553 15.022C39.434 15.022 39.2402 15.0007 39.0144 14.9089C38.7835 14.815 38.5921 14.6767 38.4513 14.5297L42.7832 10.3783C41.8913 9.44754 40.7297 9.022 39.5553 9.022V15.022ZM38.4513 14.5297C38.3227 14.3956 38.2055 14.2197 38.1265 14.0138C38.0493 13.8122 38.0313 13.6411 38.0313 13.534H44.0313C44.0313 12.3988 43.6412 11.2736 42.7832 10.3783L38.4513 14.5297ZM38.0313 13.534C38.0313 13.4098 38.0529 13.2374 38.1265 13.0452C38.2008 12.8515 38.3059 12.6954 38.4095 12.5828L42.8251 16.6452C43.6273 15.7732 44.0313 14.6813 44.0313 13.534H38.0313ZM38.4513 12.5383C38.5921 12.3913 38.7835 12.253 39.0144 12.1591C39.2402 12.0673 39.434 12.046 39.5553 12.046V18.046C40.7297 18.046 41.8913 17.6205 42.7832 16.6897L38.4513 12.5383ZM44.6266 24.604L43.1476 27.2141L43.1732 27.2286L43.1992 27.2426L44.6266 24.604ZM42.9166 22.948L45.4852 21.398L45.4852 21.398L42.9166 22.948ZM42.9166 18.286L40.3601 16.7162L40.3601 16.7162L42.9166 18.286ZM44.6266 16.666L46.0724 19.2946L46.0891 19.2855L46.1057 19.2761L44.6266 16.666ZM51.2326 18.286L48.6641 19.836L48.67 19.8459L48.6761 19.8558L51.2326 18.286ZM51.2326 22.948L53.8012 24.498L53.8012 24.498L51.2326 22.948ZM49.5226 24.604L50.9684 27.2326L50.9851 27.2235L51.0017 27.2141L49.5226 24.604ZM48.1186 22.444L49.5844 25.0615L49.6236 25.0396L49.6621 25.0165L48.1186 22.444ZM48.8026 21.706L46.1394 20.325L46.1292 20.3446L46.1193 20.3644L48.8026 21.706ZM48.8026 19.546L46.1612 20.9683L46.173 20.9902L46.1851 21.0118L48.8026 19.546ZM48.1006 18.826L46.5106 21.37L46.5718 21.4083L46.6348 21.4435L48.1006 18.826ZM46.0486 18.826L47.5144 21.4435L47.5536 21.4216L47.5921 21.3985L46.0486 18.826ZM45.3466 19.546L47.988 20.9683L47.988 20.9683L45.3466 19.546ZM45.3466 21.706L42.6834 23.087L42.6941 23.1077L42.7052 23.1283L45.3466 21.706ZM46.0486 22.444L44.5051 25.0165L44.5436 25.0396L44.5828 25.0615L46.0486 22.444ZM47.0746 22.198C46.6314 22.198 46.3124 22.1051 46.0541 21.9654L43.1992 27.2426C44.4048 27.8949 45.7178 28.198 47.0746 28.198V22.198ZM46.1057 21.9939C45.8254 21.8351 45.6341 21.6447 45.4852 21.398L40.3481 24.498C41.0392 25.6433 41.9879 26.5569 43.1476 27.2141L46.1057 21.9939ZM45.4852 21.398C45.3654 21.1994 45.2866 20.9614 45.2866 20.608H39.2866C39.2866 21.9826 39.6279 23.3046 40.3481 24.498L45.4852 21.398ZM45.2866 20.608C45.2866 20.2542 45.3653 20.0314 45.4731 19.8558L40.3601 16.7162C39.6279 17.9086 39.2866 19.2338 39.2866 20.608H45.2866ZM45.4731 19.8558C45.6143 19.626 45.7969 19.4462 46.0724 19.2946L43.1809 14.0374C42.0164 14.6778 41.059 15.578 40.3601 16.7162L45.4731 19.8558ZM46.1057 19.2761C46.3297 19.1491 46.6268 19.054 47.0746 19.054V13.054C45.6984 13.054 44.3636 13.3669 43.1476 14.0559L46.1057 19.2761ZM47.0746 19.054C47.5378 19.054 47.8469 19.1502 48.0769 19.2766L50.9684 14.0194C49.7583 13.3538 48.4355 13.054 47.0746 13.054V19.054ZM48.0769 19.2766C48.3395 19.4211 48.52 19.5972 48.6641 19.836L53.8012 16.736C53.1053 15.5828 52.1458 14.6669 50.9684 14.0194L48.0769 19.2766ZM48.6761 19.8558C48.7839 20.0314 48.8626 20.2542 48.8626 20.608H54.8626C54.8626 19.2338 54.5213 17.9086 53.7891 16.7162L48.6761 19.8558ZM48.8626 20.608C48.8626 20.9614 48.7839 21.1994 48.6641 21.398L53.8012 24.498C54.5214 23.3046 54.8626 21.9826 54.8626 20.608H48.8626ZM48.6641 21.398C48.5152 21.6447 48.3239 21.8351 48.0436 21.9939L51.0017 27.2141C52.1614 26.5569 53.1101 25.6433 53.8012 24.498L48.6641 21.398ZM48.0769 21.9754C47.8469 22.1018 47.5378 22.198 47.0746 22.198V28.198C48.4355 28.198 49.7583 27.8982 50.9684 27.2326L48.0769 21.9754ZM47.0746 25.696C47.9052 25.696 48.7726 25.5162 49.5844 25.0615L46.6528 19.8265C46.7516 19.7711 46.8473 19.7364 46.9287 19.7168C47.0081 19.6976 47.0603 19.696 47.0746 19.696V25.696ZM49.6621 25.0165C50.4498 24.5439 51.0739 23.8716 51.4859 23.0476L46.1193 20.3644C46.1634 20.2763 46.2275 20.1789 46.3143 20.0852C46.4011 19.9915 46.4926 19.921 46.5751 19.8715L49.6621 25.0165ZM51.4659 23.087C51.8801 22.288 52.0546 21.4392 52.0546 20.608H46.0546C46.0546 20.6055 46.055 20.5726 46.0676 20.5174C46.0806 20.4609 46.1035 20.3942 46.1394 20.325L51.4659 23.087ZM52.0546 20.608C52.0546 19.7827 51.882 18.9049 51.4201 18.0802L46.1851 21.0118C46.0593 20.7871 46.0546 20.6173 46.0546 20.608H52.0546ZM51.444 18.1237C51.0144 17.3259 50.3797 16.6639 49.5664 16.2085L46.6348 21.4435C46.54 21.3904 46.4424 21.3179 46.3531 21.2263C46.2643 21.1352 46.202 21.0441 46.1612 20.9683L51.444 18.1237ZM49.6906 16.282C48.8513 15.7574 47.9379 15.556 47.0746 15.556V21.556C47.0033 21.556 46.774 21.5346 46.5106 21.37L49.6906 16.282ZM47.0746 15.556C46.2016 15.556 45.3162 15.7669 44.5051 16.2535L47.5921 21.3985C47.4963 21.456 47.3938 21.4983 47.2936 21.5247C47.1951 21.5507 47.1184 21.556 47.0746 21.556V15.556ZM44.5828 16.2085C43.7695 16.6639 43.1348 17.3259 42.7052 18.1237L47.988 20.9683C47.9472 21.0441 47.8849 21.1352 47.7961 21.2263C47.7069 21.3179 47.6092 21.3904 47.5144 21.4435L44.5828 16.2085ZM42.7052 18.1237C42.2684 18.935 42.0946 19.7973 42.0946 20.626H48.0946C48.0946 20.6281 48.0944 20.6665 48.0791 20.7317C48.0635 20.7987 48.0351 20.881 47.988 20.9683L42.7052 18.1237ZM42.0946 20.626C42.0946 21.4609 42.2756 22.3007 42.6834 23.087L48.0099 20.325C48.0422 20.3874 48.0652 20.4516 48.0791 20.5113C48.0929 20.57 48.0946 20.6107 48.0946 20.626H42.0946ZM42.7052 23.1283C43.1256 23.909 43.7361 24.5551 44.5051 25.0165L47.5921 19.8715C47.6669 19.9164 47.7468 19.978 47.8218 20.0569C47.8966 20.1355 47.9511 20.215 47.988 20.2837L42.7052 23.1283ZM44.5828 25.0615C45.3811 25.5086 46.2385 25.696 47.0746 25.696V19.696C47.1022 19.696 47.1625 19.6992 47.2457 19.7196C47.3306 19.7404 47.4231 19.7754 47.5144 19.8265L44.5828 25.0615Z" fill="#0800E2" mask="url(#path-1-outside-1_7_2555)"/>
</svg>
