<svg width="128" height="37" viewBox="0 0 128 37" fill="none" xmlns="http://www.w3.org/2000/svg">
<mask id="path-1-outside-1_69_20366" maskUnits="userSpaceOnUse" x="2.89062" y="5.68433" width="123" height="27" fill="black">
<rect fill="white" x="2.89062" y="5.68433" width="123" height="27"/>
<path d="M5.99402 25.6843V12.9763H7.97402L8.82002 15.5143V25.6843H5.99402ZM14.76 25.6843L7.27202 16.0903L7.97402 12.9763L15.462 22.5703L14.76 25.6843ZM14.76 25.6843L14.004 23.1463V12.9763H16.83V25.6843H14.76ZM22.9191 25.8823C22.1151 25.8823 21.4011 25.7203 20.7771 25.3963C20.1651 25.0603 19.6851 24.6043 19.3371 24.0283C18.9891 23.4403 18.8151 22.7683 18.8151 22.0123V16.9363H21.5691V21.9763C21.5691 22.2763 21.6171 22.5343 21.7131 22.7503C21.8211 22.9663 21.9771 23.1343 22.1811 23.2543C22.3851 23.3743 22.6311 23.4343 22.9191 23.4343C23.3271 23.4343 23.6511 23.3083 23.8911 23.0563C24.1311 22.7923 24.2511 22.4323 24.2511 21.9763V16.9363H27.0051V21.9943C27.0051 22.7623 26.8311 23.4403 26.4831 24.0283C26.1351 24.6043 25.6551 25.0603 25.0431 25.3963C24.4311 25.7203 23.7231 25.8823 22.9191 25.8823ZM33.0542 25.8823C32.1062 25.8823 31.2602 25.6903 30.5162 25.3063C29.7842 24.9103 29.2082 24.3643 28.7882 23.6683C28.3682 22.9723 28.1582 22.1863 28.1582 21.3103C28.1582 20.4343 28.3622 19.6543 28.7702 18.9703C29.1902 18.2743 29.7542 17.7283 30.4622 17.3323C31.1702 16.9363 31.9682 16.7383 32.8562 16.7383C33.7202 16.7383 34.4822 16.9243 35.1422 17.2963C35.8022 17.6683 36.3182 18.1843 36.6902 18.8443C37.0742 19.5043 37.2662 20.2603 37.2662 21.1123C37.2662 21.2683 37.2542 21.4363 37.2302 21.6163C37.2182 21.7843 37.1882 21.9823 37.1402 22.2103L29.5982 22.2283V20.3383L35.9702 20.3203L34.7822 21.1123C34.7702 20.6083 34.6922 20.1943 34.5482 19.8703C34.4042 19.5343 34.1882 19.2823 33.9002 19.1143C33.6242 18.9343 33.2822 18.8443 32.8742 18.8443C32.4422 18.8443 32.0642 18.9463 31.7402 19.1503C31.4282 19.3423 31.1822 19.6183 31.0022 19.9783C30.8342 20.3383 30.7502 20.7763 30.7502 21.2923C30.7502 21.8083 30.8402 22.2523 31.0202 22.6243C31.2122 22.9843 31.4762 23.2663 31.8122 23.4703C32.1602 23.6623 32.5682 23.7583 33.0362 23.7583C33.4682 23.7583 33.8582 23.6863 34.2062 23.5423C34.5542 23.3863 34.8602 23.1583 35.1242 22.8583L36.6362 24.3703C36.2042 24.8743 35.6822 25.2523 35.0702 25.5043C34.4582 25.7563 33.7862 25.8823 33.0542 25.8823ZM41.2089 25.6843L37.5009 16.9363H40.4709L42.9909 24.2263H41.6949L44.2149 16.9363H47.1309L43.4229 25.6843H41.2089ZM51.5308 25.8643C50.7268 25.8643 50.0068 25.6663 49.3708 25.2703C48.7468 24.8743 48.2488 24.3343 47.8768 23.6503C47.5168 22.9663 47.3368 22.1863 47.3368 21.3103C47.3368 20.4343 47.5168 19.6543 47.8768 18.9703C48.2488 18.2863 48.7468 17.7463 49.3708 17.3503C50.0068 16.9543 50.7268 16.7563 51.5308 16.7563C52.1188 16.7563 52.6468 16.8703 53.1148 17.0983C53.5948 17.3263 53.9848 17.6443 54.2848 18.0523C54.5848 18.4483 54.7528 18.9043 54.7888 19.4203V23.2003C54.7528 23.7163 54.5848 24.1783 54.2848 24.5863C53.9968 24.9823 53.6128 25.2943 53.1328 25.5223C52.6528 25.7503 52.1188 25.8643 51.5308 25.8643ZM52.0888 23.3803C52.6768 23.3803 53.1508 23.1883 53.5108 22.8043C53.8708 22.4083 54.0508 21.9103 54.0508 21.3103C54.0508 20.9023 53.9668 20.5423 53.7988 20.2303C53.6428 19.9183 53.4148 19.6783 53.1148 19.5103C52.8268 19.3303 52.4908 19.2403 52.1068 19.2403C51.7228 19.2403 51.3808 19.3303 51.0808 19.5103C50.7928 19.6783 50.5588 19.9183 50.3788 20.2303C50.2108 20.5423 50.1268 20.9023 50.1268 21.3103C50.1268 21.7063 50.2108 22.0603 50.3788 22.3723C50.5468 22.6843 50.7808 22.9303 51.0808 23.1103C51.3808 23.2903 51.7168 23.3803 52.0888 23.3803ZM53.9428 25.6843V23.3263L54.3568 21.2023L53.9428 19.0783V16.9363H56.6428V25.6843H53.9428ZM64.4216 21.0583V18.8623H67.1576C67.5056 18.8623 67.8236 18.7903 68.1116 18.6463C68.3996 18.5023 68.6276 18.2923 68.7956 18.0163C68.9636 17.7403 69.0476 17.4043 69.0476 17.0083C69.0476 16.6243 68.9636 16.2943 68.7956 16.0183C68.6276 15.7423 68.3996 15.5323 68.1116 15.3883C67.8236 15.2443 67.5056 15.1723 67.1576 15.1723H64.4216V12.9763H67.5716C68.3756 12.9763 69.1016 13.1383 69.7496 13.4623C70.3976 13.7863 70.9076 14.2543 71.2796 14.8663C71.6636 15.4663 71.8556 16.1803 71.8556 17.0083C71.8556 17.8363 71.6636 18.5563 71.2796 19.1683C70.9076 19.7683 70.3976 20.2363 69.7496 20.5723C69.1016 20.8963 68.3756 21.0583 67.5716 21.0583H64.4216ZM62.2616 25.6843V12.9763H65.0876V25.6843H62.2616ZM76.5972 25.8643C75.7932 25.8643 75.0732 25.6663 74.4372 25.2703C73.8132 24.8743 73.3152 24.3343 72.9432 23.6503C72.5832 22.9663 72.4032 22.1863 72.4032 21.3103C72.4032 20.4343 72.5832 19.6543 72.9432 18.9703C73.3152 18.2863 73.8132 17.7463 74.4372 17.3503C75.0732 16.9543 75.7932 16.7563 76.5972 16.7563C77.1852 16.7563 77.7132 16.8703 78.1812 17.0983C78.6612 17.3263 79.0512 17.6443 79.3512 18.0523C79.6512 18.4483 79.8192 18.9043 79.8552 19.4203V23.2003C79.8192 23.7163 79.6512 24.1783 79.3512 24.5863C79.0632 24.9823 78.6792 25.2943 78.1992 25.5223C77.7192 25.7503 77.1852 25.8643 76.5972 25.8643ZM77.1552 23.3803C77.7432 23.3803 78.2172 23.1883 78.5772 22.8043C78.9372 22.4083 79.1172 21.9103 79.1172 21.3103C79.1172 20.9023 79.0332 20.5423 78.8652 20.2303C78.7092 19.9183 78.4812 19.6783 78.1812 19.5103C77.8932 19.3303 77.5572 19.2403 77.1732 19.2403C76.7892 19.2403 76.4472 19.3303 76.1472 19.5103C75.8592 19.6783 75.6252 19.9183 75.4452 20.2303C75.2772 20.5423 75.1932 20.9023 75.1932 21.3103C75.1932 21.7063 75.2772 22.0603 75.4452 22.3723C75.6132 22.6843 75.8472 22.9303 76.1472 23.1103C76.4472 23.2903 76.7832 23.3803 77.1552 23.3803ZM79.0092 25.6843V23.3263L79.4232 21.2023L79.0092 19.0783V16.9363H81.7092V25.6843H79.0092ZM83.6483 25.6843V16.9363H86.4023V25.6843H83.6483ZM86.4023 20.8783L85.2503 19.9783C85.4783 18.9583 85.8623 18.1663 86.4023 17.6023C86.9423 17.0383 87.6923 16.7563 88.6523 16.7563C89.0723 16.7563 89.4383 16.8223 89.7503 16.9543C90.0743 17.0743 90.3563 17.2663 90.5963 17.5303L88.9583 19.6003C88.8383 19.4683 88.6883 19.3663 88.5083 19.2943C88.3283 19.2223 88.1243 19.1863 87.8963 19.1863C87.4403 19.1863 87.0743 19.3303 86.7983 19.6183C86.5343 19.8943 86.4023 20.3143 86.4023 20.8783ZM92.6598 25.6843V13.3183H95.4138V25.6843H92.6598ZM90.6798 19.2763V16.9363H97.3938V19.2763H90.6798ZM98.6073 25.6843V16.9363H101.361V25.6843H98.6073ZM99.9933 15.7303C99.5613 15.7303 99.2013 15.5863 98.9133 15.2983C98.6373 14.9983 98.4993 14.6383 98.4993 14.2183C98.4993 13.7863 98.6373 13.4263 98.9133 13.1383C99.2013 12.8503 99.5613 12.7063 99.9933 12.7063C100.425 12.7063 100.779 12.8503 101.055 13.1383C101.331 13.4263 101.469 13.7863 101.469 14.2183C101.469 14.6383 101.331 14.9983 101.055 15.2983C100.779 15.5863 100.425 15.7303 99.9933 15.7303ZM107.027 25.8643C106.199 25.8643 105.461 25.6663 104.813 25.2703C104.177 24.8743 103.673 24.3343 103.301 23.6503C102.941 22.9663 102.761 22.1863 102.761 21.3103C102.761 20.4343 102.941 19.6543 103.301 18.9703C103.673 18.2863 104.177 17.7463 104.813 17.3503C105.461 16.9543 106.199 16.7563 107.027 16.7563C107.627 16.7563 108.167 16.8703 108.647 17.0983C109.139 17.3263 109.541 17.6443 109.853 18.0523C110.177 18.4483 110.357 18.9043 110.393 19.4203V23.1103C110.357 23.6263 110.183 24.0943 109.871 24.5143C109.559 24.9223 109.157 25.2523 108.665 25.5043C108.173 25.7443 107.627 25.8643 107.027 25.8643ZM107.513 23.3803C107.909 23.3803 108.251 23.2963 108.539 23.1283C108.827 22.9483 109.055 22.7023 109.223 22.3903C109.391 22.0783 109.475 21.7183 109.475 21.3103C109.475 20.9023 109.391 20.5483 109.223 20.2483C109.067 19.9363 108.839 19.6903 108.539 19.5103C108.251 19.3303 107.915 19.2403 107.531 19.2403C107.147 19.2403 106.805 19.3303 106.505 19.5103C106.217 19.6903 105.983 19.9363 105.803 20.2483C105.635 20.5603 105.551 20.9143 105.551 21.3103C105.551 21.7063 105.635 22.0603 105.803 22.3723C105.971 22.6843 106.205 22.9303 106.505 23.1103C106.805 23.2903 107.141 23.3803 107.513 23.3803ZM112.067 25.6843H109.367V23.3263L109.781 21.2023L109.313 19.0783V12.6163H112.067V25.6843ZM117.66 25.8643C116.856 25.8643 116.136 25.6663 115.5 25.2703C114.876 24.8743 114.378 24.3343 114.006 23.6503C113.646 22.9663 113.466 22.1863 113.466 21.3103C113.466 20.4343 113.646 19.6543 114.006 18.9703C114.378 18.2863 114.876 17.7463 115.5 17.3503C116.136 16.9543 116.856 16.7563 117.66 16.7563C118.248 16.7563 118.776 16.8703 119.244 17.0983C119.724 17.3263 120.114 17.6443 120.414 18.0523C120.714 18.4483 120.882 18.9043 120.918 19.4203V23.2003C120.882 23.7163 120.714 24.1783 120.414 24.5863C120.126 24.9823 119.742 25.2943 119.262 25.5223C118.782 25.7503 118.248 25.8643 117.66 25.8643ZM118.218 23.3803C118.806 23.3803 119.28 23.1883 119.64 22.8043C120 22.4083 120.18 21.9103 120.18 21.3103C120.18 20.9023 120.096 20.5423 119.928 20.2303C119.772 19.9183 119.544 19.6783 119.244 19.5103C118.956 19.3303 118.62 19.2403 118.236 19.2403C117.852 19.2403 117.51 19.3303 117.21 19.5103C116.922 19.6783 116.688 19.9183 116.508 20.2303C116.34 20.5423 116.256 20.9023 116.256 21.3103C116.256 21.7063 116.34 22.0603 116.508 22.3723C116.676 22.6843 116.91 22.9303 117.21 23.1103C117.51 23.2903 117.846 23.3803 118.218 23.3803ZM120.072 25.6843V23.3263L120.486 21.2023L120.072 19.0783V16.9363H122.772V25.6843H120.072Z"/>
</mask>
<path d="M5.99402 25.6843V12.9763H7.97402L8.82002 15.5143V25.6843H5.99402ZM14.76 25.6843L7.27202 16.0903L7.97402 12.9763L15.462 22.5703L14.76 25.6843ZM14.76 25.6843L14.004 23.1463V12.9763H16.83V25.6843H14.76ZM22.9191 25.8823C22.1151 25.8823 21.4011 25.7203 20.7771 25.3963C20.1651 25.0603 19.6851 24.6043 19.3371 24.0283C18.9891 23.4403 18.8151 22.7683 18.8151 22.0123V16.9363H21.5691V21.9763C21.5691 22.2763 21.6171 22.5343 21.7131 22.7503C21.8211 22.9663 21.9771 23.1343 22.1811 23.2543C22.3851 23.3743 22.6311 23.4343 22.9191 23.4343C23.3271 23.4343 23.6511 23.3083 23.8911 23.0563C24.1311 22.7923 24.2511 22.4323 24.2511 21.9763V16.9363H27.0051V21.9943C27.0051 22.7623 26.8311 23.4403 26.4831 24.0283C26.1351 24.6043 25.6551 25.0603 25.0431 25.3963C24.4311 25.7203 23.7231 25.8823 22.9191 25.8823ZM33.0542 25.8823C32.1062 25.8823 31.2602 25.6903 30.5162 25.3063C29.7842 24.9103 29.2082 24.3643 28.7882 23.6683C28.3682 22.9723 28.1582 22.1863 28.1582 21.3103C28.1582 20.4343 28.3622 19.6543 28.7702 18.9703C29.1902 18.2743 29.7542 17.7283 30.4622 17.3323C31.1702 16.9363 31.9682 16.7383 32.8562 16.7383C33.7202 16.7383 34.4822 16.9243 35.1422 17.2963C35.8022 17.6683 36.3182 18.1843 36.6902 18.8443C37.0742 19.5043 37.2662 20.2603 37.2662 21.1123C37.2662 21.2683 37.2542 21.4363 37.2302 21.6163C37.2182 21.7843 37.1882 21.9823 37.1402 22.2103L29.5982 22.2283V20.3383L35.9702 20.3203L34.7822 21.1123C34.7702 20.6083 34.6922 20.1943 34.5482 19.8703C34.4042 19.5343 34.1882 19.2823 33.9002 19.1143C33.6242 18.9343 33.2822 18.8443 32.8742 18.8443C32.4422 18.8443 32.0642 18.9463 31.7402 19.1503C31.4282 19.3423 31.1822 19.6183 31.0022 19.9783C30.8342 20.3383 30.7502 20.7763 30.7502 21.2923C30.7502 21.8083 30.8402 22.2523 31.0202 22.6243C31.2122 22.9843 31.4762 23.2663 31.8122 23.4703C32.1602 23.6623 32.5682 23.7583 33.0362 23.7583C33.4682 23.7583 33.8582 23.6863 34.2062 23.5423C34.5542 23.3863 34.8602 23.1583 35.1242 22.8583L36.6362 24.3703C36.2042 24.8743 35.6822 25.2523 35.0702 25.5043C34.4582 25.7563 33.7862 25.8823 33.0542 25.8823ZM41.2089 25.6843L37.5009 16.9363H40.4709L42.9909 24.2263H41.6949L44.2149 16.9363H47.1309L43.4229 25.6843H41.2089ZM51.5308 25.8643C50.7268 25.8643 50.0068 25.6663 49.3708 25.2703C48.7468 24.8743 48.2488 24.3343 47.8768 23.6503C47.5168 22.9663 47.3368 22.1863 47.3368 21.3103C47.3368 20.4343 47.5168 19.6543 47.8768 18.9703C48.2488 18.2863 48.7468 17.7463 49.3708 17.3503C50.0068 16.9543 50.7268 16.7563 51.5308 16.7563C52.1188 16.7563 52.6468 16.8703 53.1148 17.0983C53.5948 17.3263 53.9848 17.6443 54.2848 18.0523C54.5848 18.4483 54.7528 18.9043 54.7888 19.4203V23.2003C54.7528 23.7163 54.5848 24.1783 54.2848 24.5863C53.9968 24.9823 53.6128 25.2943 53.1328 25.5223C52.6528 25.7503 52.1188 25.8643 51.5308 25.8643ZM52.0888 23.3803C52.6768 23.3803 53.1508 23.1883 53.5108 22.8043C53.8708 22.4083 54.0508 21.9103 54.0508 21.3103C54.0508 20.9023 53.9668 20.5423 53.7988 20.2303C53.6428 19.9183 53.4148 19.6783 53.1148 19.5103C52.8268 19.3303 52.4908 19.2403 52.1068 19.2403C51.7228 19.2403 51.3808 19.3303 51.0808 19.5103C50.7928 19.6783 50.5588 19.9183 50.3788 20.2303C50.2108 20.5423 50.1268 20.9023 50.1268 21.3103C50.1268 21.7063 50.2108 22.0603 50.3788 22.3723C50.5468 22.6843 50.7808 22.9303 51.0808 23.1103C51.3808 23.2903 51.7168 23.3803 52.0888 23.3803ZM53.9428 25.6843V23.3263L54.3568 21.2023L53.9428 19.0783V16.9363H56.6428V25.6843H53.9428ZM64.4216 21.0583V18.8623H67.1576C67.5056 18.8623 67.8236 18.7903 68.1116 18.6463C68.3996 18.5023 68.6276 18.2923 68.7956 18.0163C68.9636 17.7403 69.0476 17.4043 69.0476 17.0083C69.0476 16.6243 68.9636 16.2943 68.7956 16.0183C68.6276 15.7423 68.3996 15.5323 68.1116 15.3883C67.8236 15.2443 67.5056 15.1723 67.1576 15.1723H64.4216V12.9763H67.5716C68.3756 12.9763 69.1016 13.1383 69.7496 13.4623C70.3976 13.7863 70.9076 14.2543 71.2796 14.8663C71.6636 15.4663 71.8556 16.1803 71.8556 17.0083C71.8556 17.8363 71.6636 18.5563 71.2796 19.1683C70.9076 19.7683 70.3976 20.2363 69.7496 20.5723C69.1016 20.8963 68.3756 21.0583 67.5716 21.0583H64.4216ZM62.2616 25.6843V12.9763H65.0876V25.6843H62.2616ZM76.5972 25.8643C75.7932 25.8643 75.0732 25.6663 74.4372 25.2703C73.8132 24.8743 73.3152 24.3343 72.9432 23.6503C72.5832 22.9663 72.4032 22.1863 72.4032 21.3103C72.4032 20.4343 72.5832 19.6543 72.9432 18.9703C73.3152 18.2863 73.8132 17.7463 74.4372 17.3503C75.0732 16.9543 75.7932 16.7563 76.5972 16.7563C77.1852 16.7563 77.7132 16.8703 78.1812 17.0983C78.6612 17.3263 79.0512 17.6443 79.3512 18.0523C79.6512 18.4483 79.8192 18.9043 79.8552 19.4203V23.2003C79.8192 23.7163 79.6512 24.1783 79.3512 24.5863C79.0632 24.9823 78.6792 25.2943 78.1992 25.5223C77.7192 25.7503 77.1852 25.8643 76.5972 25.8643ZM77.1552 23.3803C77.7432 23.3803 78.2172 23.1883 78.5772 22.8043C78.9372 22.4083 79.1172 21.9103 79.1172 21.3103C79.1172 20.9023 79.0332 20.5423 78.8652 20.2303C78.7092 19.9183 78.4812 19.6783 78.1812 19.5103C77.8932 19.3303 77.5572 19.2403 77.1732 19.2403C76.7892 19.2403 76.4472 19.3303 76.1472 19.5103C75.8592 19.6783 75.6252 19.9183 75.4452 20.2303C75.2772 20.5423 75.1932 20.9023 75.1932 21.3103C75.1932 21.7063 75.2772 22.0603 75.4452 22.3723C75.6132 22.6843 75.8472 22.9303 76.1472 23.1103C76.4472 23.2903 76.7832 23.3803 77.1552 23.3803ZM79.0092 25.6843V23.3263L79.4232 21.2023L79.0092 19.0783V16.9363H81.7092V25.6843H79.0092ZM83.6483 25.6843V16.9363H86.4023V25.6843H83.6483ZM86.4023 20.8783L85.2503 19.9783C85.4783 18.9583 85.8623 18.1663 86.4023 17.6023C86.9423 17.0383 87.6923 16.7563 88.6523 16.7563C89.0723 16.7563 89.4383 16.8223 89.7503 16.9543C90.0743 17.0743 90.3563 17.2663 90.5963 17.5303L88.9583 19.6003C88.8383 19.4683 88.6883 19.3663 88.5083 19.2943C88.3283 19.2223 88.1243 19.1863 87.8963 19.1863C87.4403 19.1863 87.0743 19.3303 86.7983 19.6183C86.5343 19.8943 86.4023 20.3143 86.4023 20.8783ZM92.6598 25.6843V13.3183H95.4138V25.6843H92.6598ZM90.6798 19.2763V16.9363H97.3938V19.2763H90.6798ZM98.6073 25.6843V16.9363H101.361V25.6843H98.6073ZM99.9933 15.7303C99.5613 15.7303 99.2013 15.5863 98.9133 15.2983C98.6373 14.9983 98.4993 14.6383 98.4993 14.2183C98.4993 13.7863 98.6373 13.4263 98.9133 13.1383C99.2013 12.8503 99.5613 12.7063 99.9933 12.7063C100.425 12.7063 100.779 12.8503 101.055 13.1383C101.331 13.4263 101.469 13.7863 101.469 14.2183C101.469 14.6383 101.331 14.9983 101.055 15.2983C100.779 15.5863 100.425 15.7303 99.9933 15.7303ZM107.027 25.8643C106.199 25.8643 105.461 25.6663 104.813 25.2703C104.177 24.8743 103.673 24.3343 103.301 23.6503C102.941 22.9663 102.761 22.1863 102.761 21.3103C102.761 20.4343 102.941 19.6543 103.301 18.9703C103.673 18.2863 104.177 17.7463 104.813 17.3503C105.461 16.9543 106.199 16.7563 107.027 16.7563C107.627 16.7563 108.167 16.8703 108.647 17.0983C109.139 17.3263 109.541 17.6443 109.853 18.0523C110.177 18.4483 110.357 18.9043 110.393 19.4203V23.1103C110.357 23.6263 110.183 24.0943 109.871 24.5143C109.559 24.9223 109.157 25.2523 108.665 25.5043C108.173 25.7443 107.627 25.8643 107.027 25.8643ZM107.513 23.3803C107.909 23.3803 108.251 23.2963 108.539 23.1283C108.827 22.9483 109.055 22.7023 109.223 22.3903C109.391 22.0783 109.475 21.7183 109.475 21.3103C109.475 20.9023 109.391 20.5483 109.223 20.2483C109.067 19.9363 108.839 19.6903 108.539 19.5103C108.251 19.3303 107.915 19.2403 107.531 19.2403C107.147 19.2403 106.805 19.3303 106.505 19.5103C106.217 19.6903 105.983 19.9363 105.803 20.2483C105.635 20.5603 105.551 20.9143 105.551 21.3103C105.551 21.7063 105.635 22.0603 105.803 22.3723C105.971 22.6843 106.205 22.9303 106.505 23.1103C106.805 23.2903 107.141 23.3803 107.513 23.3803ZM112.067 25.6843H109.367V23.3263L109.781 21.2023L109.313 19.0783V12.6163H112.067V25.6843ZM117.66 25.8643C116.856 25.8643 116.136 25.6663 115.5 25.2703C114.876 24.8743 114.378 24.3343 114.006 23.6503C113.646 22.9663 113.466 22.1863 113.466 21.3103C113.466 20.4343 113.646 19.6543 114.006 18.9703C114.378 18.2863 114.876 17.7463 115.5 17.3503C116.136 16.9543 116.856 16.7563 117.66 16.7563C118.248 16.7563 118.776 16.8703 119.244 17.0983C119.724 17.3263 120.114 17.6443 120.414 18.0523C120.714 18.4483 120.882 18.9043 120.918 19.4203V23.2003C120.882 23.7163 120.714 24.1783 120.414 24.5863C120.126 24.9823 119.742 25.2943 119.262 25.5223C118.782 25.7503 118.248 25.8643 117.66 25.8643ZM118.218 23.3803C118.806 23.3803 119.28 23.1883 119.64 22.8043C120 22.4083 120.18 21.9103 120.18 21.3103C120.18 20.9023 120.096 20.5423 119.928 20.2303C119.772 19.9183 119.544 19.6783 119.244 19.5103C118.956 19.3303 118.62 19.2403 118.236 19.2403C117.852 19.2403 117.51 19.3303 117.21 19.5103C116.922 19.6783 116.688 19.9183 116.508 20.2303C116.34 20.5423 116.256 20.9023 116.256 21.3103C116.256 21.7063 116.34 22.0603 116.508 22.3723C116.676 22.6843 116.91 22.9303 117.21 23.1103C117.51 23.2903 117.846 23.3803 118.218 23.3803ZM120.072 25.6843V23.3263L120.486 21.2023L120.072 19.0783V16.9363H122.772V25.6843H120.072Z" fill="#FDFDFD"/>
<path d="M5.99402 25.6843H2.99402V28.6843H5.99402V25.6843ZM5.99402 12.9763V9.97633H2.99402V12.9763H5.99402ZM7.97402 12.9763L10.8201 12.0276L10.1363 9.97633H7.97402V12.9763ZM8.82002 15.5143H11.82V15.0275L11.6661 14.5656L8.82002 15.5143ZM8.82002 25.6843V28.6843H11.82V25.6843H8.82002ZM14.76 25.6843L12.3951 27.5301L16.2933 32.5247L17.6866 26.3441L14.76 25.6843ZM7.27202 16.0903L4.34546 15.4306L4.03307 16.8163L4.90707 17.9361L7.27202 16.0903ZM7.97402 12.9763L10.339 11.1305L6.44078 6.13596L5.04746 12.3166L7.97402 12.9763ZM15.462 22.5703L18.3886 23.2301L18.701 21.8443L17.827 20.7245L15.462 22.5703ZM14.76 25.6843L11.8849 26.5408L12.5234 28.6843H14.76V25.6843ZM14.004 23.1463H11.004V23.5836L11.1289 24.0028L14.004 23.1463ZM14.004 12.9763V9.97633H11.004V12.9763H14.004ZM16.83 12.9763H19.83V9.97633H16.83V12.9763ZM16.83 25.6843V28.6843H19.83V25.6843H16.83ZM8.99402 25.6843V12.9763H2.99402V25.6843H8.99402ZM5.99402 15.9763H7.97402V9.97633H5.99402V15.9763ZM5.12797 13.925L5.97397 16.463L11.6661 14.5656L10.8201 12.0276L5.12797 13.925ZM5.82002 15.5143V25.6843H11.82V15.5143H5.82002ZM8.82002 22.6843H5.99402V28.6843H8.82002V22.6843ZM17.125 23.8385L9.63697 14.2445L4.90707 17.9361L12.3951 27.5301L17.125 23.8385ZM10.1986 16.7501L10.9006 13.6361L5.04746 12.3166L4.34546 15.4306L10.1986 16.7501ZM5.60907 14.8221L13.0971 24.4161L17.827 20.7245L10.339 11.1305L5.60907 14.8221ZM12.5355 21.9106L11.8335 25.0246L17.6866 26.3441L18.3886 23.2301L12.5355 21.9106ZM17.6352 24.8279L16.8792 22.2899L11.1289 24.0028L11.8849 26.5408L17.6352 24.8279ZM17.004 23.1463V12.9763H11.004V23.1463H17.004ZM14.004 15.9763H16.83V9.97633H14.004V15.9763ZM13.83 12.9763V25.6843H19.83V12.9763H13.83ZM16.83 22.6843H14.76V28.6843H16.83V22.6843ZM20.7771 25.3963L19.3333 28.0261L19.3638 28.0428L19.3946 28.0588L20.7771 25.3963ZM19.3371 24.0283L16.7554 25.5563L16.7623 25.568L16.7693 25.5797L19.3371 24.0283ZM18.8151 16.9363V13.9363H15.8151V16.9363H18.8151ZM21.5691 16.9363H24.5691V13.9363H21.5691V16.9363ZM21.7131 22.7503L18.9716 23.9687L18.9993 24.031L19.0298 24.092L21.7131 22.7503ZM22.1811 23.2543L23.7021 20.6685L23.7021 20.6685L22.1811 23.2543ZM23.8911 23.0563L26.0635 25.1253L26.0875 25.1001L26.1109 25.0743L23.8911 23.0563ZM24.2511 16.9363V13.9363H21.2511V16.9363H24.2511ZM27.0051 16.9363H30.0051V13.9363H27.0051V16.9363ZM26.4831 24.0283L29.0508 25.5797L29.0579 25.568L29.0648 25.5563L26.4831 24.0283ZM25.0431 25.3963L26.4467 28.0477L26.4669 28.037L26.4869 28.0261L25.0431 25.3963ZM22.9191 22.8823C22.5268 22.8823 22.2987 22.8061 22.1595 22.7338L19.3946 28.0588C20.5034 28.6345 21.7034 28.8823 22.9191 28.8823V22.8823ZM22.2209 22.7666C22.0538 22.6749 21.9692 22.5835 21.9048 22.477L16.7693 25.5797C17.401 26.6252 18.2763 27.4458 19.3333 28.0261L22.2209 22.7666ZM21.9188 22.5004C21.8731 22.4231 21.8151 22.2895 21.8151 22.0123H15.8151C15.8151 23.2471 16.1051 24.4575 16.7554 25.5563L21.9188 22.5004ZM21.8151 22.0123V16.9363H15.8151V22.0123H21.8151ZM18.8151 19.9363H21.5691V13.9363H18.8151V19.9363ZM18.5691 16.9363V21.9763H24.5691V16.9363H18.5691ZM18.5691 21.9763C18.5691 22.5871 18.6659 23.2807 18.9716 23.9687L24.4545 21.5319C24.5683 21.7879 24.5691 21.9656 24.5691 21.9763H18.5691ZM19.0298 24.092C19.3913 24.815 19.9459 25.4201 20.66 25.8401L23.7021 20.6685C24.0082 20.8486 24.2508 21.1176 24.3964 21.4087L19.0298 24.092ZM20.66 25.8401C21.4155 26.2846 22.212 26.4343 22.9191 26.4343V20.4343C23.0502 20.4343 23.3546 20.4641 23.7021 20.6685L20.66 25.8401ZM22.9191 26.4343C23.9943 26.4343 25.1593 26.0747 26.0635 25.1253L21.7187 20.9874C21.9022 20.7946 22.1316 20.6407 22.3807 20.5438C22.62 20.4508 22.8145 20.4343 22.9191 20.4343V26.4343ZM26.1109 25.0743C26.9806 24.1177 27.2511 22.9641 27.2511 21.9763H21.2511C21.2511 21.9449 21.2549 21.8201 21.315 21.6396C21.3785 21.4491 21.4928 21.2347 21.6713 21.0383L26.1109 25.0743ZM27.2511 21.9763V16.9363H21.2511V21.9763H27.2511ZM24.2511 19.9363H27.0051V13.9363H24.2511V19.9363ZM24.0051 16.9363V21.9943H30.0051V16.9363H24.0051ZM24.0051 21.9943C24.0051 22.2929 23.9428 22.4304 23.9014 22.5004L29.0648 25.5563C29.7194 24.4503 30.0051 23.2317 30.0051 21.9943H24.0051ZM23.9153 22.477C23.851 22.5835 23.7663 22.6749 23.5993 22.7666L26.4869 28.0261C27.5438 27.4458 28.4192 26.6252 29.0508 25.5797L23.9153 22.477ZM23.6394 22.745C23.5248 22.8057 23.3129 22.8823 22.9191 22.8823V28.8823C24.1333 28.8823 25.3374 28.635 26.4467 28.0477L23.6394 22.745ZM30.5162 25.3063L29.0888 27.945L29.1144 27.9588L29.1403 27.9722L30.5162 25.3063ZM28.7882 23.6683L31.3568 22.1183L28.7882 23.6683ZM28.7702 18.9703L26.2016 17.4203L26.1977 17.4269L26.1937 17.4335L28.7702 18.9703ZM36.6902 18.8443L34.0768 20.3174L34.0868 20.3353L34.0972 20.353L36.6902 18.8443ZM37.2302 21.6163L34.2565 21.2198L34.2444 21.3109L34.2378 21.4026L37.2302 21.6163ZM37.1402 22.2103L37.1474 25.2103L39.5756 25.2045L40.0759 22.8284L37.1402 22.2103ZM29.5982 22.2283H26.5982V25.2355L29.6054 25.2283L29.5982 22.2283ZM29.5982 20.3383L29.5897 17.3383L26.5982 17.3468V20.3383H29.5982ZM35.9702 20.3203L37.6343 22.8165L45.9207 17.2922L35.9617 17.3203L35.9702 20.3203ZM34.7822 21.1123L31.7831 21.1837L31.9127 26.6308L36.4463 23.6085L34.7822 21.1123ZM34.5482 19.8703L31.7908 21.0521L31.7987 21.0705L31.8068 21.0887L34.5482 19.8703ZM33.9002 19.1143L32.2614 21.6272L32.324 21.668L32.3886 21.7057L33.9002 19.1143ZM31.7402 19.1503L33.3125 21.7053L33.3256 21.6972L33.3386 21.689L31.7402 19.1503ZM31.0022 19.9783L28.3189 18.6367L28.3008 18.6729L28.2837 18.7097L31.0022 19.9783ZM31.0202 22.6243L28.3197 23.931L28.3454 23.9841L28.3731 24.0361L31.0202 22.6243ZM31.8122 23.4703L30.2553 26.0347L30.3085 26.067L30.363 26.0971L31.8122 23.4703ZM34.2062 23.5423L35.3533 26.3144L35.3936 26.2977L35.4334 26.2799L34.2062 23.5423ZM35.1242 22.8583L37.2455 20.737L34.9845 18.476L32.8721 20.8764L35.1242 22.8583ZM36.6362 24.3703L38.914 26.3227L40.7219 24.2134L38.7575 22.249L36.6362 24.3703ZM35.0702 25.5043L33.928 22.7303L35.0702 25.5043ZM33.0542 22.8823C32.521 22.8823 32.1573 22.7773 31.8921 22.6405L29.1403 27.9722C30.3631 28.6033 31.6914 28.8823 33.0542 28.8823V22.8823ZM31.9437 22.6677C31.6706 22.52 31.4935 22.3449 31.3568 22.1183L26.2196 25.2183C26.9229 26.3838 27.8978 27.3007 29.0888 27.945L31.9437 22.6677ZM31.3568 22.1183C31.2409 21.9263 31.1582 21.684 31.1582 21.3103H25.1582C25.1582 22.6887 25.4955 24.0183 26.2196 25.2183L31.3568 22.1183ZM31.1582 21.3103C31.1582 20.9197 31.2431 20.6809 31.3467 20.5072L26.1937 17.4335C25.4814 18.6278 25.1582 19.9489 25.1582 21.3103H31.1582ZM31.3388 20.5203C31.4903 20.2692 31.6742 20.0918 31.9267 19.9506L28.9977 14.7141C27.8342 15.3648 26.8901 16.2794 26.2016 17.4203L31.3388 20.5203ZM31.9267 19.9506C32.1456 19.8281 32.4312 19.7383 32.8562 19.7383V13.7383C31.5052 13.7383 30.1948 14.0445 28.9977 14.7141L31.9267 19.9506ZM32.8562 19.7383C33.2776 19.7383 33.5187 19.825 33.6692 19.9098L36.6152 14.6829C35.4457 14.0237 34.1628 13.7383 32.8562 13.7383V19.7383ZM33.6692 19.9098C33.8521 20.0129 33.9737 20.1345 34.0768 20.3174L39.3037 17.3713C38.6627 16.2342 37.7524 15.3238 36.6152 14.6829L33.6692 19.9098ZM34.0972 20.353C34.1847 20.5035 34.2662 20.7275 34.2662 21.1123H40.2662C40.2662 19.7931 39.9637 18.5052 39.2833 17.3356L34.0972 20.353ZM34.2662 21.1123C34.2662 21.1163 34.2658 21.1505 34.2565 21.2198L40.2039 22.0128C40.2426 21.7221 40.2662 21.4203 40.2662 21.1123H34.2662ZM34.2378 21.4026C34.2384 21.3947 34.2379 21.4065 34.2326 21.4414C34.2274 21.4757 34.2186 21.5254 34.2046 21.5923L40.0759 22.8284C40.1421 22.5135 40.198 22.1743 40.2226 21.8301L34.2378 21.4026ZM37.133 19.2103L29.591 19.2283L29.6054 25.2283L37.1474 25.2103L37.133 19.2103ZM32.5982 22.2283V20.3383H26.5982V22.2283H32.5982ZM29.6067 23.3383L35.9787 23.3203L35.9617 17.3203L29.5897 17.3383L29.6067 23.3383ZM34.3061 17.8242L33.1181 18.6162L36.4463 23.6085L37.6343 22.8165L34.3061 17.8242ZM37.7814 21.0409C37.7636 20.2955 37.647 19.4559 37.2896 18.6519L31.8068 21.0887C31.7688 21.0032 31.7628 20.9592 31.7666 20.9793C31.7703 20.9991 31.7802 21.0637 31.7831 21.1837L37.7814 21.0409ZM37.3056 18.6886C36.934 17.8214 36.3094 17.0466 35.4118 16.523L32.3886 21.7057C32.2447 21.6217 32.1114 21.5111 32.0004 21.3817C31.8914 21.2545 31.8266 21.1357 31.7908 21.0521L37.3056 18.6886ZM35.539 16.6015C34.6709 16.0353 33.7252 15.8443 32.8742 15.8443V21.8443C32.8392 21.8443 32.5775 21.8333 32.2614 21.6272L35.539 16.6015ZM32.8742 15.8443C31.9512 15.8443 31.0039 16.0688 30.1418 16.6116L33.3386 21.689C33.242 21.7499 33.1413 21.7921 33.0483 21.8172C32.9577 21.8417 32.8952 21.8443 32.8742 21.8443V15.8443ZM30.1679 16.5954C29.3334 17.1089 28.7234 17.8277 28.3189 18.6367L33.6855 21.32C33.6675 21.356 33.6292 21.4212 33.5612 21.4974C33.492 21.5751 33.4072 21.647 33.3125 21.7053L30.1679 16.5954ZM28.2837 18.7097C27.8836 19.567 27.7502 20.4638 27.7502 21.2923H33.7502C33.7502 21.1951 33.7583 21.1483 33.7595 21.1419C33.7605 21.1367 33.7533 21.1773 33.7208 21.247L28.2837 18.7097ZM27.7502 21.2923C27.7502 22.1512 27.8998 23.0632 28.3197 23.931L33.7207 21.3176C33.735 21.3473 33.7444 21.3718 33.7502 21.3894C33.756 21.4069 33.7579 21.4164 33.7579 21.4163C33.7577 21.4154 33.7502 21.3772 33.7502 21.2923H27.7502ZM28.3731 24.0361C28.8085 24.8523 29.4411 25.5404 30.2553 26.0347L33.3691 20.906C33.4305 20.9432 33.4943 20.9937 33.5523 21.0556C33.6097 21.1169 33.6465 21.1736 33.6673 21.2126L28.3731 24.0361ZM30.363 26.0971C31.2276 26.5741 32.1516 26.7583 33.0362 26.7583V20.7583C33.0071 20.7583 33.0208 20.7554 33.0663 20.7661C33.114 20.7773 33.1832 20.8004 33.2614 20.8436L30.363 26.0971ZM33.0362 26.7583C33.8044 26.7583 34.592 26.6294 35.3533 26.3144L33.0592 20.7703C33.0737 20.7643 33.0857 20.7602 33.0946 20.7576C33.1035 20.755 33.1082 20.7542 33.1081 20.7542C33.1078 20.7542 33.0856 20.7583 33.0362 20.7583V26.7583ZM35.4334 26.2799C36.1919 25.9398 36.8426 25.4468 37.3763 24.8402L32.8721 20.8764C32.8716 20.8769 32.882 20.8653 32.9043 20.8487C32.9269 20.8318 32.9529 20.8165 32.979 20.8048L35.4334 26.2799ZM33.0029 24.9796L34.5149 26.4916L38.7575 22.249L37.2455 20.737L33.0029 24.9796ZM34.3584 22.418C34.2338 22.5634 34.1005 22.6592 33.928 22.7303L36.2125 28.2784C37.2639 27.8454 38.1746 27.1853 38.914 26.3227L34.3584 22.418ZM33.928 22.7303C33.7149 22.818 33.436 22.8823 33.0542 22.8823V28.8823C34.1364 28.8823 35.2015 28.6946 36.2125 28.2784L33.928 22.7303ZM41.2089 25.6843L38.4468 26.8551L39.2221 28.6843H41.2089V25.6843ZM37.5009 16.9363V13.9363H32.9709L34.7388 18.1071L37.5009 16.9363ZM40.4709 16.9363L43.3063 15.9562L42.6081 13.9363H40.4709V16.9363ZM42.9909 24.2263V27.2263H47.2021L45.8263 23.2462L42.9909 24.2263ZM41.6949 24.2263L38.8595 23.2462L37.4837 27.2263H41.6949V24.2263ZM44.2149 16.9363V13.9363H42.0778L41.3795 15.9562L44.2149 16.9363ZM47.1309 16.9363L49.893 18.1071L51.6609 13.9363H47.1309V16.9363ZM43.4229 25.6843V28.6843H45.4097L46.185 26.8551L43.4229 25.6843ZM43.971 24.5136L40.263 15.7656L34.7388 18.1071L38.4468 26.8551L43.971 24.5136ZM37.5009 19.9363H40.4709V13.9363H37.5009V19.9363ZM37.6355 17.9165L40.1555 25.2065L45.8263 23.2462L43.3063 15.9562L37.6355 17.9165ZM42.9909 21.2263H41.6949V27.2263H42.9909V21.2263ZM44.5303 25.2065L47.0503 17.9165L41.3795 15.9562L38.8595 23.2462L44.5303 25.2065ZM44.2149 19.9363H47.1309V13.9363H44.2149V19.9363ZM44.3688 15.7656L40.6608 24.5136L46.185 26.8551L49.893 18.1071L44.3688 15.7656ZM43.4229 22.6843H41.2089V28.6843H43.4229V22.6843ZM49.3708 25.2703L47.7633 27.8033L47.7742 27.8102L47.7851 27.817L49.3708 25.2703ZM47.8768 23.6503L45.222 25.0476L45.2316 25.0657L45.2413 25.0836L47.8768 23.6503ZM47.8768 18.9703L45.2413 17.537L45.2316 17.555L45.222 17.5731L47.8768 18.9703ZM49.3708 17.3503L47.7851 14.8036L47.7742 14.8104L47.7633 14.8173L49.3708 17.3503ZM53.1148 17.0983L51.8009 19.7953L51.8142 19.8018L51.8276 19.8082L53.1148 17.0983ZM54.2848 18.0523L51.8678 19.8295L51.8805 19.8468L51.8935 19.8639L54.2848 18.0523ZM54.7888 19.4203H57.7888V19.3158L57.7815 19.2115L54.7888 19.4203ZM54.7888 23.2003L57.7815 23.4091L57.7888 23.3048V23.2003H54.7888ZM54.2848 24.5863L51.8678 22.8092L51.8632 22.8155L51.8586 22.8218L54.2848 24.5863ZM53.1328 25.5223L51.8456 22.8125L51.8456 22.8125L53.1328 25.5223ZM53.5108 22.8043L55.6994 24.8561L55.7151 24.8394L55.7306 24.8223L53.5108 22.8043ZM53.7988 20.2303L51.1155 21.572L51.1358 21.6126L51.1574 21.6526L53.7988 20.2303ZM53.1148 19.5103L51.5248 22.0543L51.586 22.0926L51.649 22.1278L53.1148 19.5103ZM51.0808 19.5103L52.5924 22.1017L52.6084 22.0923L52.6243 22.0828L51.0808 19.5103ZM50.3788 20.2303L47.7802 18.7312L47.7582 18.7693L47.7374 18.808L50.3788 20.2303ZM50.3788 22.3723L47.7374 23.7946L47.7374 23.7946L50.3788 22.3723ZM53.9428 25.6843H50.9428V28.6843H53.9428V25.6843ZM53.9428 23.3263L50.9982 22.7524L50.9428 23.0367V23.3263H53.9428ZM54.3568 21.2023L57.3014 21.7763L57.4132 21.2023L57.3014 20.6284L54.3568 21.2023ZM53.9428 19.0783H50.9428V19.368L50.9982 19.6523L53.9428 19.0783ZM53.9428 16.9363V13.9363H50.9428V16.9363H53.9428ZM56.6428 16.9363H59.6428V13.9363H56.6428V16.9363ZM56.6428 25.6843V28.6843H59.6428V25.6843H56.6428ZM51.5308 22.8643C51.2446 22.8643 51.0816 22.8016 50.9565 22.7236L47.7851 27.817C48.9319 28.5311 50.209 28.8643 51.5308 28.8643V22.8643ZM50.9783 22.7373C50.8081 22.6293 50.6541 22.4779 50.5122 22.217L45.2413 25.0836C45.8435 26.1908 46.6855 27.1193 47.7633 27.8033L50.9783 22.7373ZM50.5315 22.2531C50.427 22.0545 50.3368 21.7651 50.3368 21.3103H44.3368C44.3368 22.6076 44.6066 23.8782 45.222 25.0476L50.5315 22.2531ZM50.3368 21.3103C50.3368 20.8556 50.427 20.5662 50.5315 20.3676L45.222 17.5731C44.6066 18.7425 44.3368 20.0131 44.3368 21.3103H50.3368ZM50.5122 20.4036C50.6541 20.1428 50.8081 19.9913 50.9783 19.8833L47.7633 14.8173C46.6855 15.5013 45.8435 16.4299 45.2413 17.537L50.5122 20.4036ZM50.9565 19.897C51.0816 19.8191 51.2446 19.7563 51.5308 19.7563V13.7563C50.209 13.7563 48.9319 14.0896 47.7851 14.8036L50.9565 19.897ZM51.5308 19.7563C51.7228 19.7563 51.7924 19.7911 51.8009 19.7953L54.4287 14.4014C53.5012 13.9495 52.5148 13.7563 51.5308 13.7563V19.7563ZM51.8276 19.8082C51.8455 19.8167 51.8569 19.8233 51.8632 19.8272C51.8694 19.8311 51.8717 19.8331 51.8715 19.8329C51.8712 19.8326 51.8699 19.8315 51.8684 19.8299C51.8668 19.8283 51.8666 19.8279 51.8678 19.8295L56.7017 16.2752C56.0934 15.4478 55.307 14.8184 54.402 14.3885L51.8276 19.8082ZM51.8935 19.8639C51.8689 19.8314 51.8413 19.7843 51.8208 19.7284C51.8005 19.6735 51.7965 19.636 51.7961 19.6291L57.7815 19.2115C57.7067 18.1394 57.3429 17.121 56.6761 16.2408L51.8935 19.8639ZM51.7888 19.4203V23.2003H57.7888V19.4203H51.7888ZM51.7961 22.9915C51.7965 22.9852 51.8 22.9537 51.8164 22.9086C51.833 22.863 51.8537 22.8284 51.8678 22.8092L56.7017 26.3635C57.3458 25.4875 57.7069 24.4791 57.7815 23.4091L51.7961 22.9915ZM51.8586 22.8218C51.8631 22.8156 51.8687 22.8088 51.8749 22.8023C51.881 22.7958 51.8861 22.7913 51.889 22.789C51.8918 22.7867 51.8909 22.7877 51.8848 22.7916C51.8786 22.7955 51.866 22.8028 51.8456 22.8125L54.42 28.2322C55.313 27.8079 56.1035 27.1862 56.711 26.3508L51.8586 22.8218ZM51.8456 22.8125C51.809 22.8299 51.7214 22.8643 51.5308 22.8643V28.8643C52.5161 28.8643 53.4966 28.6708 54.42 28.2322L51.8456 22.8125ZM52.0888 26.3803C53.3987 26.3803 54.7028 25.9192 55.6994 24.8561L51.3222 20.7525C51.4304 20.6371 51.5814 20.5277 51.759 20.4558C51.9293 20.3868 52.054 20.3803 52.0888 20.3803V26.3803ZM55.7306 24.8223C56.6545 23.8061 57.0508 22.5593 57.0508 21.3103H51.0508C51.0508 21.3103 51.0508 21.3055 51.0515 21.2963C51.0522 21.287 51.0537 21.2734 51.0566 21.2559C51.0624 21.2202 51.0736 21.1716 51.0944 21.1141C51.1392 20.9902 51.21 20.8754 51.291 20.7863L55.7306 24.8223ZM57.0508 21.3103C57.0508 20.4816 56.877 19.6193 56.4402 18.808L51.1574 21.6526C51.1104 21.5653 51.0819 21.483 51.0663 21.416C51.0511 21.3508 51.0508 21.3124 51.0508 21.3103H57.0508ZM56.4821 18.8887C56.0614 18.0473 55.4131 17.359 54.5806 16.8928L51.649 22.1278C51.5465 22.0705 51.4371 21.9892 51.3358 21.8826C51.2347 21.7762 51.163 21.667 51.1155 21.572L56.4821 18.8887ZM54.7048 16.9663C53.8798 16.4507 52.9776 16.2403 52.1068 16.2403V22.2403C52.0636 22.2403 51.9805 22.2351 51.8706 22.2057C51.7583 22.1756 51.6391 22.1258 51.5248 22.0543L54.7048 16.9663ZM52.1068 16.2403C51.2338 16.2403 50.3483 16.4512 49.5373 16.9378L52.6243 22.0828C52.5285 22.1403 52.426 22.1827 52.3258 22.209C52.2272 22.235 52.1505 22.2403 52.1068 22.2403V16.2403ZM49.5692 16.919C48.794 17.3712 48.1996 18.0042 47.7802 18.7312L52.9773 21.7295C52.9518 21.7738 52.9071 21.839 52.8373 21.9106C52.7665 21.9832 52.6832 22.0487 52.5924 22.1017L49.5692 16.919ZM47.7374 18.808C47.3005 19.6193 47.1268 20.4816 47.1268 21.3103H53.1268C53.1268 21.3124 53.1265 21.3508 53.1113 21.416C53.0957 21.483 53.0672 21.5653 53.0202 21.6526L47.7374 18.808ZM47.1268 21.3103C47.1268 22.1435 47.3074 22.9961 47.7374 23.7946L53.0202 20.95C53.0634 21.0302 53.092 21.1098 53.1087 21.1802C53.1251 21.2491 53.1268 21.2955 53.1268 21.3103H47.1268ZM47.7374 23.7946C48.1578 24.5754 48.7683 25.2214 49.5373 25.6828L52.6243 20.5378C52.699 20.5827 52.779 20.6444 52.854 20.7232C52.9288 20.8018 52.9832 20.8814 53.0202 20.95L47.7374 23.7946ZM49.5373 25.6828C50.3333 26.1604 51.2089 26.3803 52.0888 26.3803V20.3803C52.1468 20.3803 52.2319 20.3876 52.334 20.415C52.4372 20.4426 52.5363 20.4851 52.6243 20.5378L49.5373 25.6828ZM56.9428 25.6843V23.3263H50.9428V25.6843H56.9428ZM56.8874 23.9003L57.3014 21.7763L51.4122 20.6284L50.9982 22.7524L56.8874 23.9003ZM57.3014 20.6284L56.8874 18.5044L50.9982 19.6523L51.4122 21.7763L57.3014 20.6284ZM56.9428 19.0783V16.9363H50.9428V19.0783H56.9428ZM53.9428 19.9363H56.6428V13.9363H53.9428V19.9363ZM53.6428 16.9363V25.6843H59.6428V16.9363H53.6428ZM56.6428 22.6843H53.9428V28.6843H56.6428V22.6843ZM64.4216 21.0583H61.4216V24.0583H64.4216V21.0583ZM64.4216 18.8623V15.8623H61.4216V18.8623H64.4216ZM68.1116 18.6463L66.77 15.963L66.77 15.963L68.1116 18.6463ZM68.1116 15.3883L66.77 18.0716L66.77 18.0716L68.1116 15.3883ZM64.4216 15.1723H61.4216V18.1723H64.4216V15.1723ZM64.4216 12.9763V9.97633H61.4216V12.9763H64.4216ZM71.2796 14.8663L68.716 16.4246L68.7341 16.4542L68.7528 16.4835L71.2796 14.8663ZM71.2796 19.1683L68.7384 17.5739L68.7341 17.5807L68.7299 17.5875L71.2796 19.1683ZM69.7496 20.5723L71.0912 23.2556L71.111 23.2457L71.1305 23.2356L69.7496 20.5723ZM62.2616 25.6843H59.2616V28.6843H62.2616V25.6843ZM62.2616 12.9763V9.97633H59.2616V12.9763H62.2616ZM65.0876 12.9763H68.0876V9.97633H65.0876V12.9763ZM65.0876 25.6843V28.6843H68.0876V25.6843H65.0876ZM67.4216 21.0583V18.8623H61.4216V21.0583H67.4216ZM64.4216 21.8623H67.1576V15.8623H64.4216V21.8623ZM67.1576 21.8623C67.9329 21.8623 68.7156 21.6984 69.4532 21.3296L66.77 15.963C66.8445 15.9258 66.9213 15.899 66.9946 15.8824C67.0671 15.866 67.1236 15.8623 67.1576 15.8623V21.8623ZM69.4532 21.3296C70.2476 20.9324 70.898 20.3322 71.3582 19.5762L66.233 16.4565C66.2885 16.3654 66.3655 16.2669 66.4662 16.1742C66.5669 16.0814 66.6723 16.0119 66.77 15.963L69.4532 21.3296ZM71.3582 19.5762C71.8705 18.7345 72.0476 17.8305 72.0476 17.0083H66.0476C66.0476 16.9781 66.0567 16.7462 66.233 16.4565L71.3582 19.5762ZM72.0476 17.0083C72.0476 16.1787 71.8622 15.2865 71.3582 14.4585L66.233 17.5782C66.065 17.3022 66.0476 17.0699 66.0476 17.0083H72.0476ZM71.3582 14.4585C70.898 13.7024 70.2476 13.1022 69.4532 12.705L66.77 18.0716C66.6723 18.0228 66.5669 17.9532 66.4662 17.8605C66.3655 17.7678 66.2885 17.6693 66.233 17.5782L71.3582 14.4585ZM69.4532 12.705C68.7156 12.3362 67.9329 12.1723 67.1576 12.1723V18.1723C67.1236 18.1723 67.0671 18.1687 66.9946 18.1523C66.9213 18.1357 66.8445 18.1089 66.77 18.0716L69.4532 12.705ZM67.1576 12.1723H64.4216V18.1723H67.1576V12.1723ZM67.4216 15.1723V12.9763H61.4216V15.1723H67.4216ZM64.4216 15.9763H67.5716V9.97633H64.4216V15.9763ZM67.5716 15.9763C67.9616 15.9763 68.2205 16.0519 68.408 16.1456L71.0912 10.779C69.9827 10.2248 68.7896 9.97633 67.5716 9.97633V15.9763ZM68.408 16.1456C68.5571 16.2202 68.6409 16.301 68.716 16.4246L73.8432 13.3081C73.1743 12.2077 72.2381 11.3525 71.0912 10.779L68.408 16.1456ZM68.7528 16.4835C68.7803 16.5265 68.8556 16.6586 68.8556 17.0083H74.8556C74.8556 15.7021 74.5469 14.4061 73.8064 13.2492L68.7528 16.4835ZM68.8556 17.0083C68.8556 17.3565 68.7808 17.5063 68.7384 17.5739L73.8208 20.7628C74.5464 19.6063 74.8556 18.3161 74.8556 17.0083H68.8556ZM68.7299 17.5875C68.6528 17.7119 68.5537 17.8131 68.3686 17.9091L71.1305 23.2356C72.2415 22.6595 73.1624 21.8248 73.8293 20.7491L68.7299 17.5875ZM68.408 17.889C68.2205 17.9828 67.9616 18.0583 67.5716 18.0583V24.0583C68.7896 24.0583 69.9827 23.8099 71.0912 23.2556L68.408 17.889ZM67.5716 18.0583H64.4216V24.0583H67.5716V18.0583ZM65.2616 25.6843V12.9763H59.2616V25.6843H65.2616ZM62.2616 15.9763H65.0876V9.97633H62.2616V15.9763ZM62.0876 12.9763V25.6843H68.0876V12.9763H62.0876ZM65.0876 22.6843H62.2616V28.6843H65.0876V22.6843ZM74.4372 25.2703L72.8297 27.8033L72.8406 27.8102L72.8515 27.817L74.4372 25.2703ZM72.9432 23.6503L70.2884 25.0476L70.298 25.0657L70.3077 25.0836L72.9432 23.6503ZM72.9432 18.9703L70.3077 17.537L70.298 17.555L70.2884 17.5731L72.9432 18.9703ZM74.4372 17.3503L72.8515 14.8036L72.8406 14.8104L72.8297 14.8173L74.4372 17.3503ZM78.1812 17.0983L76.8673 19.7953L76.8806 19.8018L76.894 19.8082L78.1812 17.0983ZM79.3512 18.0523L76.9342 19.8295L76.947 19.8468L76.9599 19.8639L79.3512 18.0523ZM79.8552 19.4203H82.8552V19.3158L82.8479 19.2115L79.8552 19.4203ZM79.8552 23.2003L82.8479 23.4091L82.8552 23.3048V23.2003H79.8552ZM79.3512 24.5863L76.9342 22.8092L76.9296 22.8155L76.925 22.8218L79.3512 24.5863ZM78.1992 25.5223L76.912 22.8125L76.912 22.8125L78.1992 25.5223ZM78.5772 22.8043L80.7658 24.8561L80.7815 24.8394L80.797 24.8223L78.5772 22.8043ZM78.8652 20.2303L76.1819 21.572L76.2022 21.6126L76.2238 21.6526L78.8652 20.2303ZM78.1812 19.5103L76.5912 22.0543L76.6524 22.0926L76.7154 22.1278L78.1812 19.5103ZM76.1472 19.5103L77.6588 22.1017L77.6748 22.0923L77.6907 22.0828L76.1472 19.5103ZM75.4452 20.2303L72.8466 18.7312L72.8246 18.7693L72.8038 18.808L75.4452 20.2303ZM75.4452 22.3723L72.8038 23.7946L72.8038 23.7946L75.4452 22.3723ZM79.0092 25.6843H76.0092V28.6843H79.0092V25.6843ZM79.0092 23.3263L76.0646 22.7524L76.0092 23.0367V23.3263H79.0092ZM79.4232 21.2023L82.3678 21.7763L82.4796 21.2023L82.3678 20.6284L79.4232 21.2023ZM79.0092 19.0783H76.0092V19.368L76.0646 19.6523L79.0092 19.0783ZM79.0092 16.9363V13.9363H76.0092V16.9363H79.0092ZM81.7092 16.9363H84.7092V13.9363H81.7092V16.9363ZM81.7092 25.6843V28.6843H84.7092V25.6843H81.7092ZM76.5972 22.8643C76.311 22.8643 76.1481 22.8016 76.0229 22.7236L72.8515 27.817C73.9983 28.5311 75.2754 28.8643 76.5972 28.8643V22.8643ZM76.0447 22.7373C75.8745 22.6293 75.7205 22.4779 75.5786 22.217L70.3077 25.0836C70.9099 26.1908 71.7519 27.1193 72.8297 27.8033L76.0447 22.7373ZM75.5979 22.2531C75.4934 22.0545 75.4032 21.7651 75.4032 21.3103H69.4032C69.4032 22.6076 69.673 23.8782 70.2884 25.0476L75.5979 22.2531ZM75.4032 21.3103C75.4032 20.8556 75.4934 20.5662 75.5979 20.3676L70.2884 17.5731C69.673 18.7425 69.4032 20.0131 69.4032 21.3103H75.4032ZM75.5786 20.4036C75.7205 20.1428 75.8745 19.9913 76.0447 19.8833L72.8297 14.8173C71.7519 15.5013 70.9099 16.4299 70.3077 17.537L75.5786 20.4036ZM76.0229 19.897C76.1481 19.8191 76.311 19.7563 76.5972 19.7563V13.7563C75.2754 13.7563 73.9983 14.0896 72.8515 14.8036L76.0229 19.897ZM76.5972 19.7563C76.7892 19.7563 76.8588 19.7911 76.8673 19.7953L79.4951 14.4014C78.5676 13.9495 77.5812 13.7563 76.5972 13.7563V19.7563ZM76.894 19.8082C76.9119 19.8167 76.9233 19.8233 76.9296 19.8272C76.9358 19.8311 76.9381 19.8331 76.9379 19.8329C76.9376 19.8326 76.9363 19.8315 76.9348 19.8299C76.9332 19.8283 76.933 19.8279 76.9342 19.8295L81.7681 16.2752C81.1598 15.4478 80.3734 14.8184 79.4684 14.3885L76.894 19.8082ZM76.9599 19.8639C76.9353 19.8314 76.9077 19.7843 76.8872 19.7284C76.8669 19.6735 76.8629 19.636 76.8625 19.6291L82.8479 19.2115C82.7731 18.1394 82.4093 17.121 81.7425 16.2408L76.9599 19.8639ZM76.8552 19.4203V23.2003H82.8552V19.4203H76.8552ZM76.8625 22.9915C76.8629 22.9852 76.8664 22.9537 76.8828 22.9086C76.8994 22.863 76.9201 22.8284 76.9342 22.8092L81.7681 26.3635C82.4122 25.4875 82.7733 24.4791 82.8479 23.4091L76.8625 22.9915ZM76.925 22.8218C76.9295 22.8156 76.9351 22.8088 76.9413 22.8023C76.9474 22.7958 76.9525 22.7913 76.9554 22.789C76.9583 22.7867 76.9573 22.7877 76.9512 22.7916C76.945 22.7955 76.9324 22.8028 76.912 22.8125L79.4864 28.2322C80.3794 27.8079 81.1699 27.1862 81.7774 26.3508L76.925 22.8218ZM76.912 22.8125C76.8754 22.8299 76.7878 22.8643 76.5972 22.8643V28.8643C77.5825 28.8643 78.563 28.6708 79.4864 28.2322L76.912 22.8125ZM77.1552 26.3803C78.4651 26.3803 79.7692 25.9192 80.7658 24.8561L76.3886 20.7525C76.4968 20.6371 76.6478 20.5277 76.8254 20.4558C76.9957 20.3868 77.1204 20.3803 77.1552 20.3803V26.3803ZM80.797 24.8223C81.7209 23.8061 82.1172 22.5593 82.1172 21.3103H76.1172C76.1172 21.3103 76.1172 21.3055 76.1179 21.2963C76.1186 21.287 76.1201 21.2734 76.123 21.2559C76.1288 21.2202 76.14 21.1716 76.1608 21.1141C76.2056 20.9902 76.2764 20.8754 76.3574 20.7863L80.797 24.8223ZM82.1172 21.3103C82.1172 20.4816 81.9435 19.6193 81.5066 18.808L76.2238 21.6526C76.1768 21.5653 76.1483 21.483 76.1327 21.416C76.1175 21.3508 76.1172 21.3124 76.1172 21.3103H82.1172ZM81.5485 18.8887C81.1278 18.0473 80.4795 17.359 79.647 16.8928L76.7154 22.1278C76.6129 22.0705 76.5035 21.9892 76.4022 21.8826C76.3011 21.7762 76.2294 21.667 76.1819 21.572L81.5485 18.8887ZM79.7712 16.9663C78.9462 16.4507 78.044 16.2403 77.1732 16.2403V22.2403C77.13 22.2403 77.0469 22.2351 76.937 22.2057C76.8247 22.1756 76.7055 22.1258 76.5912 22.0543L79.7712 16.9663ZM77.1732 16.2403C76.3002 16.2403 75.4147 16.4512 74.6037 16.9378L77.6907 22.0828C77.5949 22.1403 77.4924 22.1827 77.3922 22.209C77.2936 22.235 77.217 22.2403 77.1732 22.2403V16.2403ZM74.6356 16.919C73.8604 17.3712 73.2661 18.0042 72.8466 18.7312L78.0437 21.7295C78.0182 21.7738 77.9735 21.839 77.9037 21.9106C77.8329 21.9832 77.7496 22.0487 77.6588 22.1017L74.6356 16.919ZM72.8038 18.808C72.3669 19.6193 72.1932 20.4816 72.1932 21.3103H78.1932C78.1932 21.3124 78.1929 21.3508 78.1777 21.416C78.1621 21.483 78.1336 21.5653 78.0866 21.6526L72.8038 18.808ZM72.1932 21.3103C72.1932 22.1435 72.3738 22.9961 72.8038 23.7946L78.0866 20.95C78.1298 21.0302 78.1584 21.1098 78.1751 21.1802C78.1915 21.2491 78.1932 21.2955 78.1932 21.3103H72.1932ZM72.8038 23.7946C73.2242 24.5754 73.8347 25.2214 74.6037 25.6828L77.6907 20.5378C77.7654 20.5827 77.8454 20.6444 77.9204 20.7232C77.9952 20.8018 78.0496 20.8814 78.0866 20.95L72.8038 23.7946ZM74.6037 25.6828C75.3997 26.1604 76.2753 26.3803 77.1552 26.3803V20.3803C77.2132 20.3803 77.2983 20.3876 77.4004 20.415C77.5036 20.4426 77.6027 20.4851 77.6907 20.5378L74.6037 25.6828ZM82.0092 25.6843V23.3263H76.0092V25.6843H82.0092ZM81.9538 23.9003L82.3678 21.7763L76.4786 20.6284L76.0646 22.7524L81.9538 23.9003ZM82.3678 20.6284L81.9538 18.5044L76.0646 19.6523L76.4786 21.7763L82.3678 20.6284ZM82.0092 19.0783V16.9363H76.0092V19.0783H82.0092ZM79.0092 19.9363H81.7092V13.9363H79.0092V19.9363ZM78.7092 16.9363V25.6843H84.7092V16.9363H78.7092ZM81.7092 22.6843H79.0092V28.6843H81.7092V22.6843ZM83.6483 25.6843H80.6483V28.6843H83.6483V25.6843ZM83.6483 16.9363V13.9363H80.6483V16.9363H83.6483ZM86.4023 16.9363H89.4023V13.9363H86.4023V16.9363ZM86.4023 25.6843V28.6843H89.4023V25.6843H86.4023ZM86.4023 20.8783L84.5553 23.2424L89.4023 27.0291V20.8783H86.4023ZM85.2503 19.9783L82.3225 19.3239L81.9088 21.1748L83.4033 22.3424L85.2503 19.9783ZM86.4023 17.6023L88.5692 19.677L86.4023 17.6023ZM89.7503 16.9543L88.5813 19.7172L88.6443 19.7438L88.7083 19.7676L89.7503 16.9543ZM90.5963 17.5303L92.9488 19.3919L94.5284 17.3958L92.8161 15.5123L90.5963 17.5303ZM88.9583 19.6003L86.7385 21.6183L89.1168 24.2345L91.3108 21.4619L88.9583 19.6003ZM88.5083 19.2943L87.3941 22.0798L87.3941 22.0798L88.5083 19.2943ZM86.7983 19.6183L84.6323 17.5426L84.6303 17.5447L86.7983 19.6183ZM86.6483 25.6843V16.9363H80.6483V25.6843H86.6483ZM83.6483 19.9363H86.4023V13.9363H83.6483V19.9363ZM83.4023 16.9363V25.6843H89.4023V16.9363H83.4023ZM86.4023 22.6843H83.6483V28.6843H86.4023V22.6843ZM88.2492 18.5143L87.0972 17.6143L83.4033 22.3424L84.5553 23.2424L88.2492 18.5143ZM88.178 20.6328C88.3258 19.9715 88.515 19.7337 88.5692 19.677L84.2353 15.5276C83.2095 16.599 82.6307 17.9452 82.3225 19.3239L88.178 20.6328ZM88.5692 19.677C88.5492 19.6979 88.5227 19.7206 88.4918 19.7408C88.4612 19.7609 88.437 19.7716 88.4256 19.7759C88.4035 19.7842 88.4633 19.7563 88.6523 19.7563V13.7563C87.0748 13.7563 85.4665 14.2417 84.2353 15.5276L88.5692 19.677ZM88.6523 19.7563C88.764 19.7563 88.7164 19.7744 88.5813 19.7172L90.9192 14.1914C90.1601 13.8703 89.3805 13.7563 88.6523 13.7563V19.7563ZM88.7083 19.7676C88.6451 19.7441 88.5791 19.7108 88.5164 19.6681C88.454 19.6257 88.4076 19.5826 88.3764 19.5483L92.8161 15.5123C92.2638 14.9047 91.5819 14.4335 90.7922 14.1411L88.7083 19.7676ZM88.2437 15.6687L86.6057 17.7387L91.3108 21.4619L92.9488 19.3919L88.2437 15.6687ZM91.1781 17.5823C90.7266 17.0856 90.1871 16.7348 89.6224 16.5089L87.3941 22.0798C87.1894 21.9979 86.95 21.851 86.7385 21.6183L91.1781 17.5823ZM89.6224 16.5089C89.0315 16.2725 88.4399 16.1863 87.8963 16.1863V22.1863C87.8086 22.1863 87.625 22.1721 87.3941 22.0798L89.6224 16.5089ZM87.8963 16.1863C86.7505 16.1863 85.557 16.5777 84.6323 17.5426L88.9642 21.694C88.8067 21.8584 88.6044 21.997 88.3781 22.086C88.1602 22.1718 87.9851 22.1863 87.8963 22.1863V16.1863ZM84.6303 17.5447C83.625 18.5957 83.4023 19.9055 83.4023 20.8783H89.4023C89.4023 20.7231 89.4436 21.1929 88.9662 21.692L84.6303 17.5447ZM92.6598 25.6843H89.6598V28.6843H92.6598V25.6843ZM92.6598 13.3183V10.3183H89.6598V13.3183H92.6598ZM95.4138 13.3183H98.4138V10.3183H95.4138V13.3183ZM95.4138 25.6843V28.6843H98.4138V25.6843H95.4138ZM90.6798 19.2763H87.6798V22.2763H90.6798V19.2763ZM90.6798 16.9363V13.9363H87.6798V16.9363H90.6798ZM97.3938 16.9363H100.394V13.9363H97.3938V16.9363ZM97.3938 19.2763V22.2763H100.394V19.2763H97.3938ZM95.6598 25.6843V13.3183H89.6598V25.6843H95.6598ZM92.6598 16.3183H95.4138V10.3183H92.6598V16.3183ZM92.4138 13.3183V25.6843H98.4138V13.3183H92.4138ZM95.4138 22.6843H92.6598V28.6843H95.4138V22.6843ZM93.6798 19.2763V16.9363H87.6798V19.2763H93.6798ZM90.6798 19.9363H97.3938V13.9363H90.6798V19.9363ZM94.3938 16.9363V19.2763H100.394V16.9363H94.3938ZM97.3938 16.2763H90.6798V22.2763H97.3938V16.2763ZM98.6073 25.6843H95.6073V28.6843H98.6073V25.6843ZM98.6073 16.9363V13.9363H95.6073V16.9363H98.6073ZM101.361 16.9363H104.361V13.9363H101.361V16.9363ZM101.361 25.6843V28.6843H104.361V25.6843H101.361ZM98.9133 15.2983L96.7055 17.3295L96.7478 17.3755L96.7919 17.4196L98.9133 15.2983ZM98.9133 13.1383L96.7919 11.017L96.7694 11.0396L96.7473 11.0626L98.9133 13.1383ZM101.055 15.2983L103.221 17.374L103.242 17.352L103.263 17.3295L101.055 15.2983ZM101.607 25.6843V16.9363H95.6073V25.6843H101.607ZM98.6073 19.9363H101.361V13.9363H98.6073V19.9363ZM98.3613 16.9363V25.6843H104.361V16.9363H98.3613ZM101.361 22.6843H98.6073V28.6843H101.361V22.6843ZM99.9933 12.7303C100.115 12.7303 100.301 12.7518 100.513 12.8369C100.73 12.9233 100.906 13.0485 101.035 13.177L96.7919 17.4196C97.6793 18.307 98.8192 18.7303 99.9933 18.7303V12.7303ZM101.121 13.2672C101.225 13.3798 101.33 13.5358 101.404 13.7295C101.478 13.9217 101.499 14.0941 101.499 14.2183H95.4993C95.4993 15.3656 95.9032 16.4575 96.7055 17.3295L101.121 13.2672ZM101.499 14.2183C101.499 14.3254 101.481 14.4966 101.404 14.6981C101.325 14.904 101.208 15.0799 101.079 15.214L96.7473 11.0626C95.8893 11.9579 95.4993 13.0831 95.4993 14.2183H101.499ZM101.035 15.2596C100.906 15.3882 100.73 15.5133 100.513 15.5998C100.301 15.6848 100.115 15.7063 99.9933 15.7063V9.70633C98.8192 9.70633 97.6793 10.1296 96.7919 11.017L101.035 15.2596ZM99.9933 15.7063C99.872 15.7063 99.6782 15.6851 99.4524 15.5932C99.2214 15.4993 99.0301 15.361 98.8893 15.214L103.221 11.0626C102.329 10.1319 101.168 9.70633 99.9933 9.70633V15.7063ZM98.8893 15.214C98.7607 15.0799 98.6434 14.904 98.5645 14.6981C98.4872 14.4966 98.4693 14.3254 98.4693 14.2183H104.469C104.469 13.0831 104.079 11.9579 103.221 11.0626L98.8893 15.214ZM98.4693 14.2183C98.4693 14.0941 98.4908 13.9217 98.5645 13.7295C98.6388 13.5358 98.7439 13.3798 98.8475 13.2672L103.263 17.3295C104.065 16.4575 104.469 15.3656 104.469 14.2183H98.4693ZM98.8893 13.2226C99.0301 13.0756 99.2214 12.9374 99.4524 12.8434C99.6782 12.7516 99.872 12.7303 99.9933 12.7303V18.7303C101.168 18.7303 102.329 18.3048 103.221 17.374L98.8893 13.2226ZM104.813 25.2703L103.227 27.817L103.238 27.8236L103.248 27.8302L104.813 25.2703ZM103.301 23.6503L100.646 25.0476L100.655 25.0657L100.665 25.0836L103.301 23.6503ZM103.301 18.9703L100.665 17.537L100.655 17.555L100.646 17.5731L103.301 18.9703ZM104.813 17.3503L103.248 14.7905L103.238 14.797L103.227 14.8036L104.813 17.3503ZM108.647 17.0983L107.359 19.8082L107.372 19.8143L107.385 19.8203L108.647 17.0983ZM109.853 18.0523L107.47 19.8747L107.5 19.9139L107.531 19.952L109.853 18.0523ZM110.393 19.4203H113.393V19.3158L113.385 19.2115L110.393 19.4203ZM110.393 23.1103L113.385 23.3191L113.393 23.2148V23.1103H110.393ZM109.871 24.5143L112.254 26.3367L112.266 26.3201L112.279 26.3033L109.871 24.5143ZM108.665 25.5043L109.98 28.2006L110.006 28.1878L110.032 28.1745L108.665 25.5043ZM108.539 23.1283L110.05 25.7197L110.09 25.6966L110.129 25.6723L108.539 23.1283ZM109.223 22.3903L106.581 20.968L106.581 20.968L109.223 22.3903ZM109.223 20.2483L106.539 21.59L106.571 21.6528L106.605 21.7141L109.223 20.2483ZM108.539 19.5103L106.949 22.0543L106.972 22.0688L106.995 22.0828L108.539 19.5103ZM106.505 19.5103L104.961 16.9378L104.938 16.9519L104.915 16.9663L106.505 19.5103ZM105.803 20.2483L103.204 18.7492L103.182 18.7873L103.161 18.826L105.803 20.2483ZM105.803 22.3723L103.161 23.7946L103.161 23.7946L105.803 22.3723ZM112.067 25.6843V28.6843H115.067V25.6843H112.067ZM109.367 25.6843H106.367V28.6843H109.367V25.6843ZM109.367 23.3263L106.422 22.7524L106.367 23.0367V23.3263H109.367ZM109.781 21.2023L112.725 21.7763L112.844 21.165L112.71 20.5568L109.781 21.2023ZM109.313 19.0783H106.313V19.4049L106.383 19.7239L109.313 19.0783ZM109.313 12.6163V9.61633H106.313V12.6163H109.313ZM112.067 12.6163H115.067V9.61633H112.067V12.6163ZM107.027 22.8643C106.699 22.8643 106.512 22.7929 106.377 22.7105L103.248 27.8302C104.409 28.5398 105.698 28.8643 107.027 28.8643V22.8643ZM106.398 22.7236C106.22 22.6128 106.07 22.464 105.936 22.217L100.665 25.0836C101.275 26.2046 102.133 27.1359 103.227 27.817L106.398 22.7236ZM105.955 22.2531C105.851 22.0545 105.761 21.7651 105.761 21.3103H99.7606C99.7606 22.6076 100.03 23.8782 100.646 25.0476L105.955 22.2531ZM105.761 21.3103C105.761 20.8556 105.851 20.5662 105.955 20.3676L100.646 17.5731C100.03 18.7425 99.7606 20.0131 99.7606 21.3103H105.761ZM105.936 20.4036C106.07 20.1566 106.22 20.0079 106.398 19.897L103.227 14.8036C102.133 15.4848 101.275 16.416 100.665 17.537L105.936 20.4036ZM106.377 19.9102C106.512 19.8278 106.699 19.7563 107.027 19.7563V13.7563C105.698 13.7563 104.409 14.0809 103.248 14.7905L106.377 19.9102ZM107.027 19.7563C107.239 19.7563 107.331 19.7945 107.359 19.8082L109.934 14.3885C109.002 13.9461 108.014 13.7563 107.027 13.7563V19.7563ZM107.385 19.8203C107.43 19.8409 107.45 19.856 107.456 19.8607C107.461 19.8649 107.464 19.8681 107.47 19.8747L112.236 16.23C111.612 15.414 110.816 14.7971 109.908 14.3764L107.385 19.8203ZM107.531 19.952C107.505 19.9204 107.469 19.866 107.44 19.7928C107.411 19.72 107.402 19.6603 107.4 19.6291L113.385 19.2115C113.307 18.0833 112.896 17.0348 112.174 16.1526L107.531 19.952ZM107.393 19.4203V23.1103H113.393V19.4203H107.393ZM107.4 22.9015C107.401 22.8838 107.407 22.8472 107.423 22.8029C107.44 22.7587 107.457 22.7319 107.462 22.7254L112.279 26.3033C112.928 25.4288 113.309 24.4138 113.385 23.3191L107.4 22.9015ZM107.488 22.692C107.467 22.7188 107.422 22.7699 107.297 22.8342L110.032 28.1745C110.891 27.7347 111.65 27.1258 112.254 26.3367L107.488 22.692ZM107.349 22.808C107.305 22.8296 107.215 22.8643 107.027 22.8643V28.8643C108.038 28.8643 109.04 28.6591 109.98 28.2006L107.349 22.808ZM107.513 26.3803C108.34 26.3803 109.224 26.2016 110.05 25.7197L107.027 20.537C107.277 20.391 107.478 20.3803 107.513 20.3803V26.3803ZM110.129 25.6723C110.878 25.2039 111.46 24.5628 111.864 23.8126L106.581 20.968C106.611 20.9131 106.657 20.8429 106.725 20.7695C106.794 20.6956 106.871 20.6331 106.949 20.5843L110.129 25.6723ZM111.864 23.8126C112.301 23.0013 112.475 22.139 112.475 21.3103H106.475C106.475 21.3083 106.475 21.2698 106.49 21.2046C106.506 21.1377 106.534 21.0553 106.581 20.968L111.864 23.8126ZM112.475 21.3103C112.475 20.485 112.302 19.6072 111.84 18.7825L106.605 21.7141C106.479 21.4894 106.475 21.3196 106.475 21.3103H112.475ZM111.906 18.9067C111.494 18.0828 110.87 17.4105 110.082 16.9378L106.995 22.0828C106.913 22.0333 106.821 21.9628 106.734 21.8691C106.647 21.7754 106.583 21.678 106.539 21.59L111.906 18.9067ZM110.129 16.9663C109.304 16.4507 108.401 16.2403 107.531 16.2403V22.2403C107.487 22.2403 107.404 22.2351 107.294 22.2057C107.182 22.1756 107.063 22.1258 106.949 22.0543L110.129 16.9663ZM107.531 16.2403C106.658 16.2403 105.772 16.4512 104.961 16.9378L108.048 22.0828C107.952 22.1403 107.85 22.1827 107.75 22.209C107.651 22.235 107.574 22.2403 107.531 22.2403V16.2403ZM104.915 16.9663C104.185 17.4225 103.614 18.0381 103.204 18.7492L108.401 21.7475C108.38 21.7847 108.343 21.8383 108.287 21.8975C108.23 21.9572 108.164 22.0107 108.095 22.0543L104.915 16.9663ZM103.161 18.826C102.731 19.6246 102.551 20.4772 102.551 21.3103H108.551C108.551 21.3252 108.549 21.3715 108.533 21.4405C108.516 21.5109 108.487 21.5904 108.444 21.6706L103.161 18.826ZM102.551 21.3103C102.551 22.1435 102.731 22.9961 103.161 23.7946L108.444 20.95C108.487 21.0302 108.516 21.1098 108.533 21.1802C108.549 21.2491 108.551 21.2955 108.551 21.3103H102.551ZM103.161 23.7946C103.582 24.5754 104.192 25.2214 104.961 25.6828L108.048 20.5378C108.123 20.5827 108.203 20.6444 108.278 20.7232C108.353 20.8018 108.407 20.8814 108.444 20.95L103.161 23.7946ZM104.961 25.6828C105.757 26.1604 106.633 26.3803 107.513 26.3803V20.3803C107.571 20.3803 107.656 20.3876 107.758 20.415C107.861 20.4426 107.96 20.4851 108.048 20.5378L104.961 25.6828ZM112.067 22.6843H109.367V28.6843H112.067V22.6843ZM112.367 25.6843V23.3263H106.367V25.6843H112.367ZM112.311 23.9003L112.725 21.7763L106.836 20.6284L106.422 22.7524L112.311 23.9003ZM112.71 20.5568L112.242 18.4328L106.383 19.7239L106.851 21.8479L112.71 20.5568ZM112.313 19.0783V12.6163H106.313V19.0783H112.313ZM109.313 15.6163H112.067V9.61633H109.313V15.6163ZM109.067 12.6163V25.6843H115.067V12.6163H109.067ZM115.5 25.2703L113.892 27.8033L113.903 27.8102L113.914 27.817L115.5 25.2703ZM114.006 23.6503L111.351 25.0476L111.36 25.0657L111.37 25.0836L114.006 23.6503ZM114.006 18.9703L111.37 17.537L111.36 17.555L111.351 17.5731L114.006 18.9703ZM115.5 17.3503L113.914 14.8036L113.903 14.8104L113.892 14.8173L115.5 17.3503ZM119.244 17.0983L117.93 19.7953L117.943 19.8018L117.957 19.8082L119.244 17.0983ZM120.414 18.0523L117.997 19.8295L118.009 19.8468L118.022 19.8639L120.414 18.0523ZM120.918 19.4203H123.918V19.3158L123.91 19.2115L120.918 19.4203ZM120.918 23.2003L123.91 23.4091L123.918 23.3048V23.2003H120.918ZM120.414 24.5863L117.997 22.8092L117.992 22.8155L117.987 22.8218L120.414 24.5863ZM119.262 25.5223L117.975 22.8125L117.975 22.8125L119.262 25.5223ZM119.64 22.8043L121.828 24.8561L121.844 24.8394L121.86 24.8223L119.64 22.8043ZM119.928 20.2303L117.244 21.572L117.265 21.6126L117.286 21.6526L119.928 20.2303ZM119.244 19.5103L117.654 22.0543L117.715 22.0926L117.778 22.1278L119.244 19.5103ZM117.21 19.5103L118.721 22.1017L118.737 22.0923L118.753 22.0828L117.21 19.5103ZM116.508 20.2303L113.909 18.7312L113.887 18.7693L113.866 18.808L116.508 20.2303ZM116.508 22.3723L113.866 23.7946L113.866 23.7946L116.508 22.3723ZM120.072 25.6843H117.072V28.6843H120.072V25.6843ZM120.072 23.3263L117.127 22.7524L117.072 23.0367V23.3263H120.072ZM120.486 21.2023L123.43 21.7763L123.542 21.2023L123.43 20.6284L120.486 21.2023ZM120.072 19.0783H117.072V19.368L117.127 19.6523L120.072 19.0783ZM120.072 16.9363V13.9363H117.072V16.9363H120.072ZM122.772 16.9363H125.772V13.9363H122.772V16.9363ZM122.772 25.6843V28.6843H125.772V25.6843H122.772ZM117.66 22.8643C117.374 22.8643 117.211 22.8016 117.085 22.7236L113.914 27.817C115.061 28.5311 116.338 28.8643 117.66 28.8643V22.8643ZM117.107 22.7373C116.937 22.6293 116.783 22.4779 116.641 22.217L111.37 25.0836C111.972 26.1908 112.814 27.1193 113.892 27.8033L117.107 22.7373ZM116.66 22.2531C116.556 22.0545 116.466 21.7651 116.466 21.3103H110.466C110.466 22.6076 110.735 23.8782 111.351 25.0476L116.66 22.2531ZM116.466 21.3103C116.466 20.8556 116.556 20.5662 116.66 20.3676L111.351 17.5731C110.735 18.7425 110.466 20.0131 110.466 21.3103H116.466ZM116.641 20.4036C116.783 20.1428 116.937 19.9913 117.107 19.8833L113.892 14.8173C112.814 15.5013 111.972 16.4299 111.37 17.537L116.641 20.4036ZM117.085 19.897C117.211 19.8191 117.374 19.7563 117.66 19.7563V13.7563C116.338 13.7563 115.061 14.0896 113.914 14.8036L117.085 19.897ZM117.66 19.7563C117.852 19.7563 117.921 19.7911 117.93 19.7953L120.558 14.4014C119.63 13.9495 118.644 13.7563 117.66 13.7563V19.7563ZM117.957 19.8082C117.974 19.8167 117.986 19.8233 117.992 19.8272C117.998 19.8311 118.001 19.8331 118 19.8329C118 19.8326 117.999 19.8315 117.997 19.8299C117.996 19.8283 117.996 19.8279 117.997 19.8295L122.831 16.2752C122.222 15.4478 121.436 14.8184 120.531 14.3885L117.957 19.8082ZM118.022 19.8639C117.998 19.8314 117.97 19.7843 117.95 19.7284C117.929 19.6735 117.925 19.636 117.925 19.6291L123.91 19.2115C123.836 18.1394 123.472 17.121 122.805 16.2408L118.022 19.8639ZM117.918 19.4203V23.2003H123.918V19.4203H117.918ZM117.925 22.9915C117.925 22.9852 117.929 22.9537 117.945 22.9086C117.962 22.863 117.983 22.8284 117.997 22.8092L122.831 26.3635C123.475 25.4875 123.836 24.4791 123.91 23.4091L117.925 22.9915ZM117.987 22.8218C117.992 22.8156 117.998 22.8088 118.004 22.8023C118.01 22.7958 118.015 22.7913 118.018 22.789C118.021 22.7867 118.02 22.7877 118.014 22.7916C118.007 22.7955 117.995 22.8028 117.975 22.8125L120.549 28.2322C121.442 27.8079 122.232 27.1862 122.84 26.3508L117.987 22.8218ZM117.975 22.8125C117.938 22.8299 117.85 22.8643 117.66 22.8643V28.8643C118.645 28.8643 119.626 28.6708 120.549 28.2322L117.975 22.8125ZM118.218 26.3803C119.528 26.3803 120.832 25.9192 121.828 24.8561L117.451 20.7525C117.559 20.6371 117.71 20.5277 117.888 20.4558C118.058 20.3868 118.183 20.3803 118.218 20.3803V26.3803ZM121.86 24.8223C122.783 23.8061 123.18 22.5593 123.18 21.3103H117.18C117.18 21.3103 117.18 21.3055 117.18 21.2963C117.181 21.287 117.183 21.2734 117.185 21.2559C117.191 21.2202 117.203 21.1716 117.223 21.1141C117.268 20.9902 117.339 20.8754 117.42 20.7863L121.86 24.8223ZM123.18 21.3103C123.18 20.4816 123.006 19.6193 122.569 18.808L117.286 21.6526C117.239 21.5653 117.211 21.483 117.195 21.416C117.18 21.3508 117.18 21.3124 117.18 21.3103H123.18ZM122.611 18.8887C122.19 18.0473 121.542 17.359 120.71 16.8928L117.778 22.1278C117.675 22.0705 117.566 21.9892 117.465 21.8826C117.364 21.7762 117.292 21.667 117.244 21.572L122.611 18.8887ZM120.834 16.9663C120.009 16.4507 119.107 16.2403 118.236 16.2403V22.2403C118.192 22.2403 118.109 22.2351 117.999 22.2057C117.887 22.1756 117.768 22.1258 117.654 22.0543L120.834 16.9663ZM118.236 16.2403C117.363 16.2403 116.477 16.4512 115.666 16.9378L118.753 22.0828C118.657 22.1403 118.555 22.1827 118.455 22.209C118.356 22.235 118.279 22.2403 118.236 22.2403V16.2403ZM115.698 16.919C114.923 17.3712 114.329 18.0042 113.909 18.7312L119.106 21.7295C119.081 21.7738 119.036 21.839 118.966 21.9106C118.895 21.9832 118.812 22.0487 118.721 22.1017L115.698 16.919ZM113.866 18.808C113.429 19.6193 113.256 20.4816 113.256 21.3103H119.256C119.256 21.3124 119.255 21.3508 119.24 21.416C119.225 21.483 119.196 21.5653 119.149 21.6526L113.866 18.808ZM113.256 21.3103C113.256 22.1435 113.436 22.9961 113.866 23.7946L119.149 20.95C119.192 21.0302 119.221 21.1098 119.238 21.1802C119.254 21.2491 119.256 21.2955 119.256 21.3103H113.256ZM113.866 23.7946C114.287 24.5754 114.897 25.2214 115.666 25.6828L118.753 20.5378C118.828 20.5827 118.908 20.6444 118.983 20.7232C119.058 20.8018 119.112 20.8814 119.149 20.95L113.866 23.7946ZM115.666 25.6828C116.462 26.1604 117.338 26.3803 118.218 26.3803V20.3803C118.276 20.3803 118.361 20.3876 118.463 20.415C118.566 20.4426 118.665 20.4851 118.753 20.5378L115.666 25.6828ZM123.072 25.6843V23.3263H117.072V25.6843H123.072ZM123.016 23.9003L123.43 21.7763L117.541 20.6284L117.127 22.7524L123.016 23.9003ZM123.43 20.6284L123.016 18.5044L117.127 19.6523L117.541 21.7763L123.43 20.6284ZM123.072 19.0783V16.9363H117.072V19.0783H123.072ZM120.072 19.9363H122.772V13.9363H120.072V19.9363ZM119.772 16.9363V25.6843H125.772V16.9363H119.772ZM122.772 22.6843H120.072V28.6843H122.772V22.6843Z" fill="#0800E2" mask="url(#path-1-outside-1_69_20366)"/>
</svg>
