<svg width="69" height="66" viewBox="0 0 69 66" fill="none" xmlns="http://www.w3.org/2000/svg">
<path d="M12.533 52.9174C12.4342 50.2807 12.3439 47.6435 12.2234 45.0077C12.2117 44.7532 12.0489 44.4817 11.8944 44.2614C10.2712 41.9458 10.3039 38.7496 12.0104 36.5322C12.9372 35.3279 14.1476 34.6622 15.6889 34.4819C16.4268 34.3956 17.1267 33.9843 17.8161 33.7303C16.8486 33.4092 15.8848 33.197 15.0192 32.7808C12.8729 31.7489 12.1448 29.9352 12.8566 27.6666C13.3949 25.9506 14.3845 24.4909 15.4536 23.0737C15.5944 22.887 15.8533 22.7694 15.7205 22.3832C15.663 22.2158 16.0856 21.861 16.32 21.6205C16.7129 21.2175 17.1131 20.8181 17.5415 20.454C17.9367 20.118 18.3428 19.774 18.7966 19.532C20.2119 18.7774 21.652 18.0694 23.0825 17.3434C23.2236 17.2718 23.3649 17.2007 23.5521 17.1062C23.4592 16.952 23.3608 16.8292 23.3073 16.6893C23.2411 16.5161 23.1207 16.2246 23.1851 16.168C23.3445 16.028 23.5996 15.9195 23.8094 15.9304C24.2886 15.9553 24.7637 16.0593 25.2994 16.14C26.1157 14.6981 27.5774 14.0944 29.2326 13.4619C28.0838 13.2979 27.1967 13.0045 26.7166 11.9841C27.5845 11.7393 28.4295 11.523 29.2597 11.2601C29.9578 11.039 29.963 10.8867 29.5045 10.336C28.7975 9.487 28.045 8.65826 27.4631 7.7264C26.3905 6.00869 26.6368 4.92338 28.3069 3.78991C29.1829 3.19541 30.1156 2.66086 31.0809 2.22958C31.7732 1.92031 32.0942 1.46672 32.2367 0.771218C32.2805 0.557644 32.4946 0.378977 32.6307 0.184326C32.8098 0.371937 33.064 0.529065 33.1548 0.752561C33.5031 1.61055 33.2209 2.3939 32.6654 3.04551C32.1062 3.70152 31.4483 4.27303 30.8395 4.88739C30.4733 5.25696 30.1182 5.63764 29.6642 6.11144C30.303 6.80771 30.9057 7.47213 31.5214 8.1243C31.5858 8.19254 31.7295 8.22059 31.8321 8.21239C32.3919 8.16763 32.9515 8.11479 33.5082 8.04181C33.6169 8.02755 33.7307 7.92873 33.8103 7.84023C34.0061 7.62251 34.1834 7.38809 34.3965 7.12541C34.5948 7.2684 34.7339 7.3687 34.9018 7.48972C35.8964 6.52515 37.0597 6.38409 38.4104 6.86381C38.1822 7.3171 37.9709 7.73675 37.7585 8.15857C38.2473 8.32095 38.8215 8.41317 39.2847 8.6907C39.857 9.03364 40.3731 9.49548 40.8406 9.97677C41.0515 10.1938 41.1714 10.2579 41.4317 10.1381C41.8678 9.93755 42.3117 9.75306 42.7579 9.57589C43.1312 9.42767 43.2122 9.17842 43.087 8.81391C42.7097 7.71524 42.2876 6.6279 41.9871 5.50816C41.7377 4.57839 41.8258 3.64928 42.6402 2.96844C42.7909 2.84242 43.0526 2.84911 43.2631 2.79455C43.3035 3.0067 43.4267 3.24481 43.3698 3.42644C43.1401 4.15906 43.2769 4.73193 43.7627 5.36292C44.4938 6.3123 45.1524 7.3375 45.6992 8.40364C46.376 9.72355 46.144 10.547 44.9877 11.4709C44.5103 11.8524 43.9634 12.1469 43.4948 12.4507C45.0685 12.7078 46.7093 12.9277 48.329 13.2529C50.306 13.6498 52.2175 14.2799 53.8965 15.4308C54.5851 15.9028 55.2159 16.488 55.7778 17.1079C56.4312 17.8288 56.7654 18.7278 56.6616 19.7206C56.4191 22.041 56.2095 24.3673 55.8726 26.6746C55.44 29.6369 54.8927 32.5823 54.408 35.5372C54.3821 35.6957 54.4425 35.8944 54.5239 36.0404C55.4365 37.6781 55.4036 39.3024 54.6562 41.0126C54.4345 41.52 54.6075 42.2163 54.6541 42.8219C54.9042 46.0717 55.1716 49.3202 55.4327 52.6779C55.4002 53.4104 55.3757 54.0348 55.3344 54.658C55.246 55.9913 54.6754 57.0379 53.5132 57.7469C52.7236 58.2285 51.9625 58.757 51.1718 59.2366C48.786 60.6838 46.4368 62.2098 43.6959 62.938C43.4109 63.0138 43.0918 63.0899 42.8122 63.038C39.1792 62.363 35.5524 61.6542 31.918 60.9866C31.4849 60.907 30.9677 60.9011 30.5729 61.0637C28.7593 61.8105 26.8909 61.9234 24.9979 61.5994C23.9168 61.4143 22.7083 61.4476 21.959 60.379C21.9108 60.3103 21.7381 60.3255 21.6224 60.3084C20.7878 60.1848 19.9461 60.0969 19.1196 59.9332C17.5259 59.6174 17.1532 59.1656 17.0531 57.543C16.0844 57.2973 15.1108 57.0509 14.1375 56.8035C13.1185 56.5445 12.703 56.0215 12.6544 54.9647C12.623 54.2819 12.574 53.5998 12.533 52.9174ZM22.5657 57.3921C22.5657 57.3921 22.5675 57.3974 22.6297 57.3804C22.6469 57.3425 22.6641 57.3046 22.687 57.2716C22.687 57.2716 22.6809 57.2671 22.758 57.2406C23.2073 56.8885 23.6679 56.5495 24.0992 56.1766C24.2368 56.0577 24.3454 55.8587 24.3824 55.6789C24.4782 55.2135 24.0498 55.1727 23.7043 54.9652C23.4208 54.7478 23.3597 54.9721 23.2398 55.1707C22.7922 55.9117 22.0588 56.3014 21.2487 56.0456C20.6996 55.8722 20.2344 55.4333 19.6072 55.0339C18.7072 55.4581 17.9164 56.2745 17.4975 57.4179C17.1728 58.304 17.6458 59.1872 18.5588 59.4485C19.0203 59.5806 19.4968 59.66 20.0553 59.802C20.6103 59.8619 21.1652 59.9218 21.5643 59.9649C21.7985 59.21 22.005 58.545 22.2038 57.8769C22.2038 57.8769 22.2074 57.8842 22.2704 57.8667C22.2837 57.8271 22.297 57.7874 22.3237 57.7522C22.3237 57.7522 22.3124 57.7437 22.3758 57.71C22.4054 57.6469 22.435 57.5838 22.4528 57.5203C22.4528 57.5203 22.4555 57.5319 22.5211 57.514C22.5378 57.4736 22.5545 57.4331 22.5657 57.3921ZM32.3742 1.9089C33.0811 1.58809 33.1502 1.23493 32.6048 0.538194C32.4754 0.998402 32.3536 1.43189 32.1939 1.88867C32.2246 1.89879 32.2552 1.90892 32.3742 1.9089ZM39.6733 13.3964C39.6562 13.4345 39.6615 13.4692 39.6663 13.5529C39.6599 13.5908 39.6595 13.6289 39.6268 13.7622C39.5229 14.0928 39.3391 14.457 40.0065 14.5523C41.2648 14.9722 42.4216 14.9144 43.4348 13.8002C43.5373 13.682 43.6397 13.5637 43.7859 13.3949C42.7695 13.0033 41.8073 12.6325 40.794 12.1953C40.667 12.152 40.5401 12.1087 40.3675 12.0498C40.3515 12.5183 40.3569 12.9858 39.7107 12.8972C39.7107 13.08 39.7107 13.2181 39.6733 13.3964ZM20.9724 52.8942C20.9724 52.8942 20.9701 52.8912 20.8857 52.9C20.7305 53.023 20.5509 53.1251 20.4244 53.2727C19.9787 53.7924 19.953 54.5621 20.3413 55.1121C20.7465 55.686 21.451 55.9272 22.0851 55.7091C22.7689 55.4739 23.2046 54.8401 23.1606 54.1447C23.1163 53.446 22.6594 52.9364 21.8535 52.7907C21.6876 52.7992 21.5218 52.8077 21.273 52.795C21.1738 52.8287 21.0747 52.8625 20.9724 52.8942ZM30.1977 15.8284C29.5506 15.8284 28.9035 15.8284 28.2149 15.8284C28.8274 16.4447 29.0351 16.5229 30.0324 16.5286C30.3436 16.3454 30.6547 16.1622 30.9659 15.9789C30.9368 15.9231 30.9077 15.8673 30.8786 15.8115C30.6895 15.8198 30.5005 15.8281 30.1977 15.8284ZM45.9156 28.0998C46.1302 28.2502 46.3447 28.4005 46.5855 28.5692C46.4038 28.6281 46.2753 28.6698 46.0577 28.7236C45.2367 28.851 44.4158 28.9784 43.5949 29.1058C43.5983 29.1612 43.6016 29.2167 43.605 29.2721C43.7937 29.3571 43.9824 29.4421 44.2398 29.558C43.237 30.796 42.2882 32.0156 41.2841 33.1878C40.7335 33.8305 40.0895 34.3933 39.5292 34.9508C39.4806 35.1167 39.4776 35.2505 39.411 35.3328C39.1331 35.6768 38.8294 35.9998 38.5513 36.3435C38.4881 36.4217 38.461 36.5538 38.4675 36.6579C38.4779 36.8251 38.569 36.993 38.5552 37.1545C38.5358 37.3815 38.4516 37.603 38.4189 37.7325C38.7913 37.9634 39.0654 38.2401 39.3823 38.3041C39.8259 38.3936 40.3038 38.3536 40.7631 38.3183C42.5152 38.1837 44.2656 38.0288 46.0167 37.8815C46.0263 37.9297 46.036 37.9778 46.0456 38.026C45.9062 38.1332 45.7667 38.2405 45.6272 38.3478C45.6432 38.3825 45.6591 38.4172 45.675 38.452C46.403 38.2061 47.1309 37.9603 47.8846 37.7058C47.8366 37.8186 47.7966 37.9126 47.7682 37.9795C48.6391 37.7264 49.51 37.4721 50.3816 37.2204C50.8248 37.0924 51.2767 36.9901 51.712 36.8395C53.1747 36.3332 53.7274 35.5499 53.7805 34.0148C53.7876 33.8094 53.9478 33.6093 54.037 33.4067C54.095 33.398 54.1529 33.3893 54.2109 33.3806C53.9179 32.9152 53.625 32.4497 53.3343 31.9879C53.4876 32.0219 53.6784 32.0643 53.98 32.1312C53.589 31.374 53.2506 30.7187 52.9114 29.976C51.9878 28.2299 51.0641 26.4838 50.1762 24.7041C50.1762 24.7041 50.2079 24.6667 50.2841 24.7061C50.3522 24.7185 50.4202 24.7309 50.606 24.7649C49.1981 23.2517 47.8768 21.8315 46.529 20.3829C46.7536 20.2296 46.9481 20.0968 47.3034 19.8543C46.1567 19.3941 45.1248 18.9801 44.093 18.566C44.0688 18.6135 44.0445 18.661 44.0203 18.7084C44.5022 19.2505 45.1261 19.7154 45.0774 20.5861C44.7767 20.6538 44.4937 20.7175 44.1742 20.7895C44.8218 22.0496 45.0518 23.3798 44.9366 24.7243C44.8251 26.026 44.5225 27.3114 44.2994 28.6297C44.5747 28.574 44.8837 28.5115 45.2796 28.4598C45.4369 28.3597 45.5942 28.2596 45.7974 28.1128C45.8124 28.0968 45.8274 28.0809 45.9156 28.0998ZM29.4598 12.1753C29.4878 11.9679 29.5158 11.7605 29.546 11.5362C28.8243 11.7251 28.1473 11.8979 27.4742 12.0848C27.4027 12.1046 27.3543 12.2074 27.3264 12.3476C28.0435 13.0165 28.8845 13.2195 29.9309 13.0231C30.5405 13.006 30.5104 12.5083 30.6989 12.1519C30.2303 12.1968 29.8413 12.2341 29.4598 12.1753ZM35.109 13.6006C35.1139 13.5581 35.1188 13.5156 35.1036 13.386C35.0085 13.3533 34.9151 13.3 34.8179 13.2918C34.4919 13.2642 34.2924 13.0915 34.4376 12.7889C34.5045 12.6494 34.8105 12.535 34.9881 12.5588C35.2763 12.5973 35.5579 12.7398 35.8224 12.8769C35.9495 12.9427 36.1246 13.1078 36.1125 13.2078C36.0914 13.3813 35.9416 13.5392 35.7919 13.7963C36.3836 14.1214 36.997 14.4583 37.6968 14.8428C37.7547 14.4405 37.7854 14.2279 37.8211 13.9795C37.8949 14.044 37.9511 14.0944 38.0087 14.1432C38.71 14.7364 39.0927 14.6049 39.2391 13.6874C39.3125 13.2272 39.3101 12.7548 39.3424 12.2817C39.533 12.354 39.7133 12.4223 40.0675 12.5565C39.9268 11.9371 39.8159 11.4485 39.7091 10.9783C40.0141 10.8945 40.3841 10.7928 40.8021 10.6779C39.9614 8.95543 38.4405 8.63548 36.8858 8.44602C37.2342 8.01508 37.5737 7.59504 37.9784 7.09443C36.5724 6.74886 35.5447 7.05814 34.788 8.15216C34.6583 7.95059 34.5496 7.7817 34.3684 7.50008C34.1909 7.87798 34.0701 8.13498 33.9504 8.3898C31.4887 8.48488 30.4242 8.89083 29.9783 9.93654C30.3195 9.95241 30.6467 9.96763 30.8608 9.97759C30.499 10.5699 30.1221 11.187 29.7452 11.8041C29.8022 11.8517 29.8593 11.8994 29.9163 11.9471C30.2757 11.8089 30.6351 11.6708 31.0399 11.5152C31.0399 11.7965 31.0399 12.0131 31.0399 12.2226C31.4335 12.3133 31.9409 11.8717 32.1521 12.4634C32.2931 12.8582 31.9784 12.9788 31.5491 12.9903C31.3042 12.9763 31.2062 13.0315 31.366 13.2878C31.9029 14.1489 32.6874 14.6797 33.6428 15.1225C33.6665 14.7614 33.6836 14.5012 33.7022 14.2167C33.9766 14.4465 34.2094 14.6415 34.5563 14.932C34.7528 14.4214 34.9063 14.0227 35.0461 13.6233C35.0461 13.6233 35.0535 13.6349 35.109 13.6006ZM28.4635 4.19365C29.2974 4.00304 30.1288 3.67168 30.9657 3.65677C32.058 3.63732 32.3805 2.92258 32.8036 2.18428C31.081 2.37404 29.6748 3.16072 28.2954 4.17077C28.2604 4.18339 28.2253 4.19602 28.1903 4.20864C28.2017 4.23319 28.213 4.25774 28.2244 4.28229C28.273 4.24517 28.3217 4.20806 28.4635 4.19365ZM25.9414 50.8585C25.4141 51.0672 24.8868 51.2759 24.2684 51.5207C24.0363 52.2125 23.7589 53.0393 23.4293 53.9314C23.3847 54.6786 24.0363 54.727 24.3294 54.9274C24.8862 54.5091 25.4117 54.1922 25.8393 53.7749C26.4793 53.1503 26.6551 51.4893 26.2269 50.6203C26.1533 50.6982 26.088 50.7673 25.9414 50.8585ZM29.3165 13.8039C27.8948 14.2626 26.5455 14.829 25.5842 16.2851C26.5302 16.237 27.2542 16.8982 28.0487 16.5C27.8795 16.1631 27.7218 15.849 27.5461 15.4992C28.2834 15.0481 29.2583 14.8957 29.5475 13.8452C29.5004 13.8261 29.4532 13.8069 29.3165 13.8039ZM32.8323 52.3602C32.7159 52.4178 32.5995 52.4755 32.3928 52.5535C31.8478 52.7017 31.3027 52.8499 30.673 53.0211C30.4518 53.7113 30.1925 54.5204 29.8719 55.3885C29.6974 55.7906 29.523 56.1926 29.3535 56.5831C29.7086 56.9554 30.0536 57.317 30.4202 57.7595C30.4876 57.8463 30.555 57.9332 30.6279 58.0271C31.6163 56.8046 32.7614 54.5065 32.9952 53.197C33.0377 52.9585 32.9001 52.6878 32.8323 52.3602ZM25.8453 54.2194C25.7547 54.2633 25.664 54.3071 25.4905 54.3658C24.7057 54.9556 24.5095 55.7143 24.9487 56.4608C25.3471 57.1377 26.1662 57.4078 26.8839 57.0989C27.6175 56.7831 27.99 55.9545 27.7423 55.1894C27.4997 54.4403 26.7577 54.0411 25.8453 54.2194ZM35.2723 20.1649C36.1609 19.9278 37.0494 19.6908 38.0469 19.4531C38.9952 19.556 39.9435 19.6588 40.8709 19.7594C41.0954 20.8725 41.3004 21.8884 41.5394 23.0725C41.6529 22.8279 41.6968 22.7332 41.7861 22.5406C41.9303 22.8974 42.0312 23.1469 42.1476 23.4347C43.3037 22.9222 43.7014 22.086 43.3847 20.8874C43.5174 20.8722 43.6261 20.8599 43.7692 20.8435C43.7118 20.6839 43.6625 20.5468 43.6077 20.3942C43.9871 20.3773 44.3365 20.3618 44.727 20.3445C44.5091 19.4374 43.7764 19.0334 43.2185 18.4783C43.4229 18.4128 43.5831 18.3615 43.8712 18.2692C43.3207 17.77 42.8504 17.3435 42.4976 17.0236C42.5757 16.794 42.7427 16.5292 42.6798 16.4525C42.1329 15.7841 41.5656 15.1174 40.5083 15.0433C40.2264 14.9629 39.9445 14.8825 39.6393 14.7955C39.6176 15.0024 39.6031 15.1612 39.5842 15.3193C39.3481 17.287 38.4416 18.7045 36.4458 19.3163C35.9711 19.4618 35.5717 19.8527 35.0749 20.1324C35.0509 20.1629 35.0268 20.1934 35.0027 20.2239C35.0613 20.2067 35.1199 20.1894 35.2723 20.1649ZM28.2683 19.6094C27.7949 20.0466 27.5833 20.5745 27.682 21.2322C27.8138 21.1886 27.9104 21.1566 27.8891 21.1637C28.0444 21.854 28.1928 22.5137 28.3829 23.3588C28.8831 22.6719 29.8247 22.8014 29.9705 21.8905C29.4998 22.1927 29.0928 22.4538 28.6733 22.723C28.2713 21.7453 28.295 21.1236 28.6863 20.6009C28.7181 21.0706 28.7524 21.5782 28.797 22.238C29.3511 21.8958 29.7647 21.6404 30.1786 21.3845C30.1899 21.6235 30.2013 21.8624 30.216 22.1721C30.7717 21.9084 31.2842 21.6652 31.8456 21.3988C31.0971 21.2227 30.6597 20.8101 30.5048 20.1032C30.4774 19.9783 30.3846 19.8435 30.2827 19.7629C29.3231 19.0042 28.75 18.1182 29.3353 16.8468C29.1015 16.7812 28.9285 16.7326 28.6811 16.6368C28.5503 16.7184 28.3576 16.769 28.2987 16.8867C27.8859 17.7105 27.7883 18.5952 27.8165 19.5397C28.014 19.5397 28.1683 19.5397 28.2683 19.6094ZM43.2875 23.0636C42.5211 23.7959 42.0737 23.9375 41.5941 23.4224C41.7502 24.1287 41.8723 24.6812 41.9978 25.3364C42.3298 27.0458 42.6618 28.7552 43.0247 30.6239C43.2518 30.2183 43.4019 29.9503 43.5653 29.6583C43.3282 29.5356 43.1591 29.4481 42.8981 29.3131C44.4254 28.4841 44.1949 27.0655 44.2218 25.719C44.3355 25.7971 44.4266 25.8597 44.5616 25.9525C44.684 24.4616 44.6424 23.0352 44.2328 21.6368C44.1949 21.5076 44.083 21.4001 44.0268 21.3148C43.7831 21.9426 43.5723 22.4857 43.2875 23.0636ZM24.7694 61.2476C24.9484 61.2733 25.1267 61.3045 25.3064 61.3237C27.0022 61.5052 28.6731 61.4806 30.2845 60.8057C30.8043 60.5879 30.9897 60.2433 30.8758 59.7149C30.5574 58.2379 29.7876 57.101 28.3177 56.3924C28.1808 56.4616 27.9877 56.4944 27.9155 56.6056C27.0992 57.8647 25.4961 57.892 24.6606 56.6493C24.5983 56.5565 24.5286 56.4686 24.4611 56.3767C23.4067 56.8808 22.6684 57.6442 22.2162 58.6782C21.7877 59.6576 22.2385 60.6181 23.2672 60.9016C23.7304 61.0293 24.2077 61.1061 24.7694 61.2476ZM43.368 17.1662C43.3403 17.1726 43.3125 17.179 43.2847 17.1854C43.3078 17.2071 43.3309 17.2288 43.3894 17.3236C43.8911 17.8212 44.2865 18.4101 45.0765 18.5841C45.7322 18.7285 46.354 19.0581 46.9655 19.3576C47.2291 19.4866 47.4286 19.7466 47.6948 19.98C47.4425 20.1742 47.2878 20.2932 47.085 20.4493C48.2746 21.7227 49.4453 22.976 50.6757 24.2931C51.0346 22.7681 51.3713 21.3373 51.6898 19.9842C49.0051 18.6736 46.3554 17.4703 43.368 17.1662ZM25.8016 33.1226C25.7197 32.8971 25.6378 32.6716 25.5527 32.4371C25.4097 32.4839 25.273 32.5286 25.078 32.5924C24.8974 32.1046 24.7323 31.6584 24.5679 31.2142C23.0971 31.841 22.1559 33.1395 20.9568 34.2054C20.8894 33.9919 20.8455 33.8527 20.8015 33.713C19.1796 34.2595 18.3969 34.2945 18.1605 33.8321C17.7105 34.0362 17.2606 34.2402 16.6285 34.5268C18.139 34.8028 19.1094 35.6247 20.0092 36.6766C20.8853 38.024 21.2941 39.4944 21.1372 41.2448C22.7343 38.8069 24.6068 36.7867 26.6715 34.9811C26.3736 34.3584 26.0979 33.7821 25.8016 33.1226ZM35.7454 61.3375C35.7722 61.3306 35.799 61.3238 35.8259 61.3169C35.8069 61.2934 35.7879 61.2698 35.7497 61.1486C35.6789 60.4122 35.5753 59.6772 35.5441 58.9392C35.4754 57.3128 35.4537 55.6845 35.3811 54.0584C35.3733 53.8825 35.1856 53.6043 35.0324 53.5652C34.5156 53.4333 33.9768 53.3878 33.5985 53.3318C32.679 55.1551 31.7984 56.9013 30.9022 58.6785C32.1628 58.82 33.5052 58.5071 34.5466 59.7583C33.7757 60.0656 33.116 60.3285 32.3438 60.6363C33.5484 60.8756 34.6292 61.0903 35.7454 61.3375ZM35.2266 17.8458C35.3731 18.3338 35.5196 18.8218 35.6382 19.2168C38.0964 18.7314 39.2579 17.1889 39.2757 14.6872C38.6266 14.8861 38.0248 15.0705 37.3355 15.2779C36.7371 15.5006 36.1815 15.7452 35.7033 16.2292C34.8363 17.1068 33.7507 17.0456 32.7461 16.2845C32.4177 16.0358 31.9454 15.9281 31.5241 15.8762C31.3662 15.8568 31.1846 16.2078 30.9812 16.3397C30.6697 16.5415 30.3219 16.6865 30.0055 16.8817C29.8287 16.9907 29.604 17.122 29.5391 17.2952C29.2493 18.0676 29.5357 18.7103 30.368 19.4331C30.5738 19.6119 30.7394 19.8772 30.8345 20.1354C31.0925 20.8358 31.5972 21.2488 32.3205 21.0175C33.2217 20.7292 34.0729 20.2696 34.9165 19.8283C35.1058 19.7292 35.2703 19.4027 35.2783 19.175C35.2941 18.7218 35.1932 18.2644 35.2266 17.8458ZM25.93 36.1881C25.93 36.1881 25.9162 36.1922 25.8418 36.2206C24.0459 37.9131 22.4124 39.7419 21.1814 41.8951C20.4227 43.222 19.8798 44.6141 20.0053 46.1945C20.2421 49.1792 23.4432 50.783 25.9393 49.144C26.068 49.0595 26.1856 48.7714 26.1394 48.6353C25.5246 46.8222 25.8429 45.0929 26.5966 43.4126C26.9395 42.6481 27.3696 41.9227 27.7994 41.1084C28.0763 40.767 28.3868 40.4464 28.6167 40.0759C28.7398 39.8775 28.8031 39.577 28.7567 39.3505C28.6041 38.6065 28.3352 37.8842 28.2122 37.1369C28.072 36.285 27.6346 35.6882 26.851 35.2113C26.597 35.4775 26.3235 35.7641 25.9881 36.0815C25.965 36.12 25.9418 36.1584 25.93 36.1881ZM36.8525 38.2713C35.3098 38.8774 33.7566 39.4584 32.2284 40.099C31.3268 40.477 30.4652 40.8325 29.547 40.0152C29.3702 40.0522 29.1172 40.0269 29.0281 40.1357C28.0037 41.3874 27.1274 42.7373 26.5952 44.2743C25.8837 46.3291 25.9179 48.3045 27.3588 50.0864C28.6577 51.6928 30.904 52.0164 32.6176 50.8656C33.3746 50.3572 33.7326 49.7754 33.4998 48.7959C33.1527 47.3356 33.6513 46.4127 34.988 45.6558C35.0181 45.6387 35.0311 45.5913 35.0521 45.5581C35.0025 45.5592 34.953 45.5602 34.9035 45.5613C34.8666 44.4645 34.8297 43.3678 34.8338 42.1912C34.8854 41.9984 34.9424 41.8069 34.9878 41.6127C35.2963 40.2904 36.1548 39.312 37.0679 38.2917C37.0647 38.2631 37.0614 38.2344 37.0581 38.2058C37.0193 38.2247 36.9805 38.2435 36.8525 38.2713ZM44.9125 41.406C45.2384 42.6298 45.308 43.8559 44.986 45.0955C44.8445 45.6404 44.7477 46.1969 44.6306 46.7481C45.2268 46.5887 45.6663 46.3572 46.1041 46.1225C48.2817 44.955 50.4845 43.8314 52.6296 42.6068C55.0829 41.2064 55.6372 37.7581 53.8094 35.677C53.7764 35.6979 53.7305 35.711 53.7125 35.741C53.5993 35.9295 53.4924 36.1217 53.3175 36.3622C52.5606 36.7163 51.8303 37.1548 51.0403 37.4041C49.9178 37.7584 48.7265 37.8951 47.6925 38.5229C47.5877 38.5866 47.434 38.5888 47.3034 38.5867C47.076 38.5831 46.8424 38.5102 46.6232 38.5436C45.8623 38.6592 45.1065 38.8079 44.3488 38.9441C44.3368 38.8821 44.3248 38.8201 44.3129 38.7582C44.4539 38.6648 44.5949 38.5713 44.7827 38.4469C44.1322 38.4469 43.5584 38.4469 42.8925 38.4469C43.8894 39.2586 44.4745 40.2269 44.9125 41.406ZM44.2288 40.7084C43.9365 40.2539 43.6905 39.7598 43.3426 39.3529C42.5176 38.388 41.5178 38.2484 40.4039 38.8799C39.4177 39.4391 38.3826 39.5333 37.3188 39.167C36.9793 39.0502 36.7648 39.1021 36.5407 39.3784C35.2071 41.0225 34.7637 42.8596 35.2842 45.0109C35.3614 45.2596 35.4252 45.5133 35.5178 45.7562C36.6855 48.8217 40.0916 49.9879 42.5789 48.1769C44.75 46.596 45.5218 43.1822 44.2288 40.7084ZM11.2948 42.1375C11.464 42.5864 11.5844 43.0616 11.8102 43.4799C13.2452 46.1382 16.3671 46.9042 18.6243 45.19C20.7011 43.6129 21.4923 40.1276 20.164 37.6805C18.9429 35.0399 15.9456 34.0495 13.6 35.5117C11.5497 36.7897 10.5143 39.7301 11.2948 42.1375ZM24.5681 26.1105C24.6977 24.9381 25.0261 23.769 24.5541 22.583C24.5029 23.7849 24.4517 24.9867 24.3802 26.2812C24.1569 27.0074 23.9275 26.0254 23.7492 26.2755C23.2439 27.6004 22.7473 28.9026 22.2507 30.2048C22.1809 30.1783 22.1112 30.1518 22.0415 30.1253C22.5374 28.6561 23.0333 27.1868 23.5357 25.6981C23.7342 25.8199 23.8945 25.9183 24.1842 26.0962C24.1842 25.2825 24.1942 24.5867 24.1818 23.8913C24.1638 22.8757 24.1569 22.8758 23.1125 22.6235C22.887 22.3831 22.5139 22.1634 22.4765 21.8967C22.4374 21.6172 22.7205 21.2926 22.8628 20.9878C22.8108 21.0577 22.7588 21.1276 22.7068 21.1975C22.4774 20.9252 22.248 20.653 21.9595 20.3106C21.2198 20.7194 20.3279 21.2122 19.436 21.7051C19.4546 21.7494 19.4731 21.7937 19.4916 21.8379C19.798 21.8379 20.1044 21.8379 20.4031 21.8379C19.4363 22.4341 18.4801 23.0237 17.524 23.6133C17.5464 23.6654 17.5689 23.7176 17.5913 23.7698C17.8181 23.8357 18.0448 23.9016 18.3168 23.9806C17.7307 24.2621 17.2172 24.5188 16.6944 24.7548C16.4868 24.8485 16.2586 24.8963 16.0604 24.8867C16.4334 24.6176 16.8063 24.3485 17.1789 24.0798C16.8978 23.7159 17.7864 22.866 19.1072 22.1792C19.0974 22.1646 19.0877 22.15 19.0779 22.1354C19.068 22.1437 19.0582 22.152 19.0483 22.1603C19.0842 22.1823 19.1202 22.2043 19.0793 22.153C18.9507 22.135 18.8222 22.1169 18.5407 22.0774C18.8971 21.782 19.13 21.5333 19.4114 21.3666C20.1364 20.9371 20.8962 20.5658 21.6143 20.1259C21.9186 19.9395 22.2478 19.6873 22.4028 19.3823C22.9819 18.242 25.4395 17.7952 26.2242 18.5632C26.1771 18.3772 26.0748 18.2321 25.973 18.0868C25.8434 17.9018 25.7141 17.7167 25.5552 17.4894C26.0653 17.2822 26.496 17.1073 26.9266 16.9324C26.9271 16.8916 26.9275 16.8508 26.928 16.81C25.8061 16.603 24.6842 16.396 23.4036 16.1596C23.6636 16.6446 23.8263 16.9483 23.9875 17.249C21.9088 18.2935 19.7958 19.1648 17.7842 20.5576C18.0977 20.5852 18.2435 20.5981 18.435 20.6149C17.6616 21.1151 16.9297 21.5885 16.1359 22.1018C16.3436 22.1759 16.4429 22.2113 16.5495 22.2493C15.161 23.9149 13.8757 25.6146 13.187 27.6753C12.4536 29.87 13.2187 31.6062 15.3221 32.5914C16.4904 33.1386 17.7367 33.3057 19.0526 33.3241C18.9673 33.4761 18.8958 33.6033 18.7198 33.9169C19.6346 33.6376 20.3815 33.4097 21.1356 33.1795C21.1413 33.1987 21.1744 33.3108 21.1752 33.3133C22.1954 32.5262 23.2194 31.7583 24.2132 30.9532C24.452 30.7597 24.5906 30.4425 24.7753 30.1821C24.7227 30.1406 24.6702 30.099 24.6176 30.0574C24.5105 30.1196 24.4035 30.1818 24.1878 30.3072C24.3001 28.872 24.4051 27.5299 24.5681 26.1105ZM44.3574 61.5126C44.3574 56.6234 44.3574 51.7342 44.3574 46.6626C44.1832 46.9534 44.1049 47.0841 43.9667 47.2624C41.4455 50.2904 37.8396 50.0887 35.6482 46.7991C35.6261 46.7659 35.5714 46.7546 35.5075 46.7198C35.6024 49.7392 35.6936 52.7199 35.7906 55.7005C35.8417 57.2714 35.8981 58.8421 35.962 60.4125C35.9928 61.171 36.3448 61.6287 37.0273 61.7453C38.9717 62.0775 40.9179 62.3999 42.8673 62.7009C43.6477 62.8214 44.1592 62.4169 44.3574 61.5126ZM44.7092 62.2633C44.9358 62.1811 45.1678 62.111 45.3883 62.0148C48.3179 60.736 50.9745 58.9828 53.6341 57.2389C54.3545 56.7665 54.8008 56.0534 54.8788 55.1866C54.9815 54.0463 55.1062 52.8962 55.0601 51.7568C54.9755 49.668 54.7939 47.5822 54.6114 45.4987C54.5049 44.283 54.3182 43.0744 54.1718 41.8966C53.5666 42.3222 53.0279 42.7809 52.4204 43.1141C50.0555 44.4109 47.674 45.6778 45.2854 46.9305C44.8564 47.1555 44.6945 47.4097 44.6969 47.9062C44.7187 52.3194 44.713 56.7326 44.7031 61.1458C44.7023 61.5015 44.6097 61.857 44.519 62.2411C44.5525 62.2513 44.586 62.2616 44.7092 62.2633ZM35.1542 22.3832C32.6719 23.3691 30.1954 24.37 27.7024 25.3281C27.2032 25.5199 27.0879 25.7113 27.2315 26.2414C28.1188 29.5162 28.9636 32.8026 29.8245 36.0845C30.1851 37.4592 30.5506 38.8327 30.9251 40.249C33.2538 39.3308 35.5221 38.4364 37.8417 37.5218C37.1981 37.3075 36.6382 37.1209 36.0057 36.9103C36.0233 36.8934 36.0408 36.8766 36.0583 36.8598C36.9514 36.0025 37.7663 35.2202 39.1047 35.3824C39.1094 35.2888 39.1141 35.1951 39.1188 35.1014C38.6952 34.817 38.2717 34.5326 37.8345 34.239C38.4396 33.5389 39.1709 33.095 40.2151 33.3548C40.4201 33.4059 40.7619 33.2826 40.9101 33.1205C41.4659 32.5123 41.9881 31.8697 42.4767 31.206C42.617 31.0154 42.6882 30.6942 42.6446 30.4602C42.2063 28.1108 41.7402 25.7666 41.276 23.4221C41.0676 22.3693 40.8458 21.3191 40.6208 20.2225C40.6194 20.2231 40.6181 20.2236 40.6167 20.2242C38.7789 20.9478 37.0084 21.645 35.1542 22.3832ZM19.0124 45.2879C16.8731 46.9125 14.7532 46.7728 12.6297 45.159C12.6137 45.2884 12.594 45.3626 12.5971 45.4359C12.7342 48.6925 12.8691 51.9493 13.0158 55.2056C13.0443 55.8396 13.3973 56.2578 14.0066 56.4225C14.9183 56.669 15.8397 56.879 16.7509 57.1272C17.0777 57.2162 17.2114 57.1126 17.417 56.8401C17.9068 56.1909 18.5007 55.6211 19.0254 54.9965C19.1969 54.7924 19.3927 54.519 19.3948 54.2758C19.42 51.3172 19.4115 48.3583 19.4099 45.3995C19.4098 45.2913 19.3912 45.1831 19.3755 45.0119C19.2345 45.1128 19.1568 45.1686 19.0124 45.2879ZM43.7121 14.007C43.1153 14.4127 42.5186 14.8185 41.9788 15.1854C42.2946 15.5452 42.6778 16.0019 43.085 16.436C43.2419 16.6032 43.4386 16.8115 43.6423 16.8442C46.0219 17.2262 48.3068 17.885 50.4363 19.0392C50.7341 19.2006 51.0594 19.3184 51.3825 19.4246C53.125 19.9971 54.6436 19.2622 56.2192 18.6002C55.8107 17.3928 54.9743 16.5744 53.9937 15.8826C52.5613 14.8721 50.9623 14.2057 49.2653 13.8266C47.3956 13.4089 45.5014 13.1015 43.6179 12.746C43.6024 12.8125 43.5869 12.879 43.5714 12.9454C43.794 13.0563 44.0166 13.1672 44.2876 13.3021C44.0932 13.5405 43.9302 13.7402 43.7121 14.007ZM55.5874 26.3544C55.8995 23.9362 56.3329 21.5287 56.311 18.9889C54.8794 19.4591 53.5972 20.1686 52.0725 19.9257C51.8225 20.9951 51.5837 22.0284 51.3387 23.0602C51.1371 23.9092 50.6254 24.7945 51.6367 25.5247C51.4049 25.4599 51.1731 25.3951 50.9979 25.3461C52.1629 27.7458 53.3234 30.1363 54.4839 32.5267C54.5231 32.5165 54.5622 32.5062 54.6013 32.496C54.9267 30.4844 55.2522 28.4728 55.5874 26.3544ZM27.6189 33.6638C28.0532 35.3148 28.5492 36.9529 28.8979 38.6218C29.0962 39.5707 29.7916 39.7665 30.5533 40.1603C30.2084 38.8469 29.8926 37.6469 29.5782 36.4467C28.6826 33.027 27.7908 29.6062 26.883 26.1897C26.8355 26.011 26.6824 25.7746 26.5288 25.7277C26.2141 25.6316 25.8656 25.646 25.4707 25.6094C26.1868 28.3012 26.8876 30.9355 27.6189 33.6638ZM40.0485 20.0618C39.3849 19.9687 38.6848 19.6913 38.0638 19.814C35.0775 20.4039 32.2129 21.3904 29.5702 22.9224C28.421 23.5886 27.3533 24.3954 26.2486 25.1384C26.2765 25.1988 26.3043 25.2593 26.3321 25.3197C26.4433 25.3335 26.5715 25.3907 26.6633 25.3548C31.1062 23.6163 35.546 21.8698 40.0485 20.0618ZM35.1936 48.0883C35.1936 47.4154 35.1936 46.7425 35.1936 46.0315C34.2028 46.3563 33.517 47.3897 33.7633 48.2929C34.1026 49.5377 33.6795 50.629 33.2903 51.743C33.1482 52.1496 33.3839 52.9203 33.7544 52.9969C34.2741 53.1044 34.8042 53.1618 35.217 53.2237C35.217 51.5228 35.217 49.8608 35.1936 48.0883ZM26.2186 29.721C25.8391 28.2698 25.4596 26.8185 25.0801 25.3673C25.0346 25.3676 24.9891 25.3679 24.9437 25.3683C24.8124 26.7169 24.6811 28.0655 24.5352 29.5654C24.8525 29.2857 25.0142 29.1431 25.2436 28.9409C24.9788 30.0634 24.7823 31.0829 25.2449 32.1255C25.4196 32.0084 25.5585 31.9153 25.7373 31.7954C26.115 33.1549 26.528 34.4389 27.7105 35.322C27.2262 33.4856 26.7418 31.6491 26.2186 29.721ZM29.9223 54.1487C30.0463 53.7135 30.1704 53.2783 30.312 52.7816C29.127 52.5934 28.0089 52.4158 26.8899 52.238C26.6849 52.7915 26.5137 53.2536 26.3282 53.7545C27.2856 53.9262 28.0039 54.4095 28.0967 55.355C28.1621 56.0202 28.5046 56.1718 29.0607 56.3266C29.3425 55.6147 29.615 54.926 29.9223 54.1487ZM30.3388 4.02705C29.2588 4.16509 28.2711 4.53119 27.4677 5.28262C27.3028 5.43687 27.1675 5.72858 27.1795 5.94811C27.2354 6.96777 27.7453 7.78245 28.4824 8.62934C28.5932 6.50368 29.9088 5.2355 31.347 3.94994C31.0921 3.94994 30.9733 3.9421 30.8559 3.95197C30.7162 3.96371 30.5778 3.99065 30.3388 4.02705ZM42.9803 7.42515C43.5599 8.95938 43.8898 10.5073 43.1623 12.1351C44.1697 11.7924 45.0592 11.1609 45.4663 10.4706C45.578 10.2811 45.6663 10.0084 45.6204 9.80697C45.3668 8.69417 43.9326 7.2166 42.7569 6.82263C42.8224 7.00855 42.8814 7.17595 42.9803 7.42515ZM20.7625 48.7296C20.4374 48.2306 20.1124 47.7317 19.7882 47.2341C19.7882 48.3801 19.7882 49.52 19.7882 50.7008C21.0987 50.919 22.3815 51.1327 23.7749 51.3647C23.4701 51.1302 23.1492 51.0117 23.0851 50.8112C22.8415 50.0482 22.154 49.8415 21.59 49.4648C21.3093 49.2773 21.0759 49.0189 20.7625 48.7296ZM26.3218 24.1702C26.4985 22.3687 26.1407 20.6393 25.6292 18.8132C25.3868 19.1481 25.2036 19.4016 25.02 19.6548C24.5441 20.3111 24.5856 20.4848 25.3073 20.8549C26.1576 21.2909 26.1697 21.5647 25.3948 22.1461C25.244 22.2593 25.0492 22.4717 25.0631 22.6208C25.1426 23.477 25.2788 24.3279 25.3975 25.1937C26.1218 25.2712 26.2594 24.8144 26.3218 24.1702ZM23.5721 51.6869C22.3224 51.4758 21.0726 51.2648 19.8058 51.0508C19.8058 51.9329 19.8058 52.6907 19.8058 53.5115C20.9492 52.052 21.9397 51.9829 23.3407 53.2907C23.4565 52.7257 23.5604 52.2189 23.5721 51.6869ZM29.0261 9.32549C29.182 9.50257 29.3379 9.67964 29.476 9.83653C29.7402 9.54278 30.0455 9.30944 30.2038 9.00069C30.4073 8.60338 30.7005 8.0727 30.5805 7.73101C30.4026 7.22464 29.8958 6.8338 29.4866 6.34277C29.3163 6.7458 29.0901 7.08378 29.0391 7.44641C28.9557 8.03829 28.9866 8.64625 29.0261 9.32549ZM41.3198 12.0168C41.592 12.1422 41.8689 12.2584 42.135 12.3954C42.464 12.5648 42.6706 12.4458 42.8023 12.1366C43.1252 11.3784 43.3338 10.6007 43.2115 9.72342C42.6069 9.99036 42.0432 10.2392 41.4832 10.4865C41.416 10.9699 41.3499 11.4457 41.3198 12.0168ZM26.4872 21.0149C26.5808 22.126 26.6745 23.2371 26.7701 24.3718C27.0977 24.1368 27.4376 23.8622 27.8077 23.6371C28.1017 23.4582 28.1088 23.2507 27.9766 22.9872C27.4808 21.9993 26.9854 21.0113 26.4819 20.0274C26.4499 19.9649 26.3495 19.9374 26.2468 19.8719C26.3273 20.2611 26.3949 20.5879 26.4872 21.0149ZM25.6577 49.6727C24.8172 49.8819 23.9767 50.0911 23.141 50.2991C23.2859 50.7505 23.5657 51.0133 24.1657 51.0673C25.0304 51.1451 25.7498 50.8158 26.2718 50.1302C26.4297 49.9228 26.4611 49.6189 26.5505 49.3593C26.4929 49.3385 26.4353 49.3178 26.3777 49.297C26.1664 49.4119 25.9551 49.5267 25.6577 49.6727ZM45.0843 7.84315C44.3479 6.54496 43.5514 5.29903 42.1691 4.48219C42.2195 4.87082 42.2162 5.22385 42.3207 5.54147C42.4196 5.84245 42.5687 6.18638 42.8052 6.37184C43.5863 6.98435 44.4169 7.5337 45.1642 8.06187C45.1723 8.103 45.1536 8.00877 45.0843 7.84315ZM27.2719 19.661C27.2937 19.82 27.3155 19.979 27.3373 20.138C27.3712 20.1367 27.405 20.1355 27.4389 20.1342C27.558 19.0729 27.677 18.0115 27.7963 16.9484C27.2385 17.1742 26.6447 17.4146 25.9007 17.7159C26.2642 17.8741 26.4694 17.9635 26.679 18.0547C26.5724 18.42 26.468 18.7776 26.3655 19.1289C26.672 19.2864 26.9484 19.4285 27.2719 19.661ZM29.5779 51.9016C28.9168 51.5409 28.2357 51.2115 27.6031 50.8063C27.2833 50.6015 27.0514 50.2596 26.7797 49.9797C26.7188 50.0039 26.6579 50.0281 26.5969 50.0523C26.761 50.6517 26.9251 51.251 27.1014 51.8952C27.8299 52.0233 28.5968 52.1605 29.3647 52.2917C29.6101 52.3336 29.7864 52.3004 29.5779 51.9016ZM31.2877 52.6007C32.488 52.4096 33.1976 51.78 33.2397 50.8023C32.2658 51.6048 31.1737 51.961 29.8897 51.8517C30.1588 52.5336 30.6668 52.5905 31.2877 52.6007ZM36.0479 14.3441C35.8477 14.1836 35.6474 14.0232 35.4475 13.863C35.3045 14.183 35.1695 14.4853 35.0878 14.668C35.2327 14.9834 35.3369 15.2101 35.4932 15.5504C35.9934 15.3968 36.5424 15.2282 37.181 15.0321C36.7589 14.7807 36.4375 14.5893 36.0479 14.3441ZM33.1916 16.2491C33.9744 16.7702 35.0064 16.5862 35.589 15.8181C34.6899 15.8181 33.7943 15.8181 32.8213 15.8181C32.9529 15.9774 33.0381 16.0805 33.1916 16.2491ZM31.1949 13.6408C31.1628 13.5899 31.1397 13.5289 31.0967 13.4901C30.9824 13.3869 30.8595 13.2933 30.74 13.1958C30.7024 13.3459 30.6357 13.4954 30.6325 13.6463C30.6199 14.2397 30.6273 14.8335 30.6273 15.4491C30.7335 15.4491 30.8643 15.4491 30.8628 15.4491C30.9411 15.0899 31.008 14.7827 31.0749 14.4756C31.2216 14.5174 31.3682 14.5592 31.6296 14.6336C31.4846 14.2816 31.3675 13.9973 31.1949 13.6408ZM30.2876 15.2279C30.3049 15.0045 30.3222 14.7812 30.3492 14.4317C29.7212 14.7722 29.219 15.0445 28.7168 15.3167C28.7382 15.3838 28.7597 15.4509 28.7812 15.518C29.2696 15.4542 29.7581 15.3905 30.2876 15.2279ZM32.7929 15.4659C32.9624 15.4577 33.1319 15.4495 33.3664 15.4381C32.7963 15.0681 32.2896 14.7392 31.7886 14.414C31.7549 14.6664 31.7222 14.912 31.6904 15.1509C32.0077 15.2527 32.3482 15.362 32.7929 15.4659ZM42.6168 4.34067C42.6914 4.40939 42.7661 4.47811 42.8468 4.55233C42.9416 4.04473 43.0281 3.58175 43.1179 3.101C42.4318 3.44298 42.2984 3.73529 42.6168 4.34067ZM40.3334 11.6103C40.5146 11.7066 40.6959 11.8029 40.9362 11.9306C40.9933 11.5695 41.0371 11.2928 41.0809 11.0161C40.8419 11.2753 40.2 10.8989 40.3334 11.6103Z" fill="#0D0D0B"/>
<path d="M35.1542 22.3832C32.6719 23.3691 30.1954 24.37 27.7024 25.3281C27.2032 25.5199 27.0879 25.7113 27.2315 26.2414C28.1188 29.5162 28.9636 32.8026 29.8245 36.0845C30.1851 37.4592 30.5506 38.8327 30.9251 40.249L37.8417 37.5218L36.0057 36.9103L36.0583 36.8598C36.9514 36.0025 37.7663 35.2202 39.1047 35.3824L39.1188 35.1014L37.8345 34.239C38.4396 33.5389 39.1709 33.095 40.2151 33.3548C40.4201 33.4059 40.7619 33.2826 40.9101 33.1205C41.4659 32.5123 41.9881 31.8697 42.4767 31.206C42.617 31.0154 42.6882 30.6942 42.6446 30.4602C42.2063 28.1108 41.7402 25.7666 41.276 23.4221C41.0676 22.3693 40.8458 21.3191 40.6208 20.2225L40.6167 20.2242C38.7789 20.9478 37.0084 21.645 35.1542 22.3832Z" fill="#D10000"/>
<path d="M12.4794 52.9177C12.5736 53.5998 12.6226 54.2819 12.654 54.9647C12.7026 56.0215 13.1181 56.5445 14.1371 56.8035C15.1104 57.0509 16.084 57.2973 17.0527 57.543C17.1528 59.1656 17.5255 59.6174 19.1191 59.9331C19.9457 60.0969 20.7874 60.1847 21.622 60.3084C21.7377 60.3255 21.9104 60.3103 21.9586 60.3789C22.7079 61.4476 23.9164 61.4143 24.9975 61.5994C26.8905 61.9234 28.7589 61.8105 30.5725 61.0637C30.9673 60.9011 31.4845 60.907 31.9176 60.9865C35.552 61.6542 39.1788 62.363 42.8118 63.038C43.0914 63.0899 43.4105 63.0137 43.6955 62.938C46.4364 62.2098 48.7856 60.6838 51.1714 59.2366C51.9621 58.757 52.7232 58.2285 53.5128 57.7469C54.675 57.0379 55.2456 55.9912 55.334 54.658C55.3753 54.0348 55.3998 53.4104 55.4453 52.7335C58.6787 53.1036 61.8989 53.5371 65.0131 54.5009C66.0811 54.8314 67.1838 55.1329 68.0203 55.9621C68.7106 56.6463 68.6997 57.3481 67.829 57.8354C66.8551 58.3804 65.8259 58.9131 64.7533 59.1785C61.9983 59.86 59.206 60.3907 56.4538 60.9763C56.5263 61.0291 56.7125 61.1501 56.8824 61.2908C57.4311 61.7451 57.5067 62.2593 56.9141 62.6268C56.1426 63.1052 55.2898 63.5503 54.4135 63.742C52.4411 64.1734 50.4423 64.5278 48.4362 64.7495C46.3444 64.9807 44.2328 65.0738 42.1273 65.1273C39.7988 65.1864 37.4624 65.2272 35.1384 65.1049C31.6565 64.9216 28.1725 64.6528 24.7949 63.6809C24.2188 63.5152 23.6539 63.2911 23.11 63.0378C22.564 62.7834 22.1112 62.4152 22.1764 61.6907C21.5573 61.6311 20.9626 61.5742 20.368 61.5164C17.855 61.2721 15.3384 61.0593 12.8299 60.7748C9.77834 60.4288 6.74998 59.9199 3.83338 58.9307C2.97381 58.6392 2.13332 58.1913 1.39966 57.6565C0.647489 57.1082 0.762606 56.379 1.52319 55.8165C2.6998 54.9464 4.06875 54.5169 5.46203 54.2218C7.77188 53.7327 10.1036 53.3471 12.4794 52.9177Z" fill="#B2DFFE"/>
<path d="M16.6177 64.4074C15.115 64.4146 13.6573 64.5198 12.2659 64.0133C11.9722 63.9064 11.7369 63.6391 11.4746 63.4458C11.7474 63.2359 11.991 62.9137 12.2976 62.8341C14.4524 62.2747 16.6208 62.2902 18.7847 62.8121C18.901 62.8401 19.0318 62.8671 19.1204 62.9385C19.3015 63.0844 19.4584 63.2602 19.6253 63.4236C19.4451 63.5935 19.2901 63.8621 19.0803 63.9156C18.2884 64.1172 17.4787 64.2489 16.6177 64.4074Z" fill="#B2DFFF"/>
<path d="M44.5596 62.2126C44.6095 61.857 44.7022 61.5015 44.703 61.1458C44.7129 56.7326 44.7185 52.3193 44.6968 47.9062C44.6944 47.4097 44.8563 47.1554 45.2853 46.9305C47.6739 45.6778 50.0554 44.4109 52.4202 43.114C53.0278 42.7809 53.5665 42.3222 54.1717 41.8966C54.3181 43.0744 54.5048 44.283 54.6113 45.4987C54.7938 47.5822 54.9754 49.668 55.06 51.7568C55.1061 52.8962 54.9813 54.0463 54.8787 55.1866C54.8007 56.0534 54.3544 56.7665 53.6339 57.2389C50.9744 58.9828 48.3177 60.736 45.3882 62.0148C45.1677 62.111 44.9357 62.1811 44.6494 62.2526C44.5898 62.2419 44.5596 62.2126 44.5596 62.2126Z" fill="#527A4C"/>
<path d="M44.3324 61.6235C44.1585 62.4169 43.647 62.8215 42.8666 62.701C40.9172 62.4 38.971 62.0776 37.0266 61.7454C36.3441 61.6287 35.9921 61.171 35.9613 60.4125C35.8974 58.8421 35.841 57.2714 35.7899 55.7006C35.6929 52.72 35.6017 49.7392 35.5068 46.7198C35.5707 46.7546 35.6254 46.766 35.6475 46.7991C37.8389 50.0888 41.4448 50.2904 44.0446 47.2646C44.1545 47.5002 44.2127 47.7335 44.213 47.9668C44.2185 52.2898 44.2153 56.6128 44.2219 60.9358C44.2223 61.1651 44.2939 61.3943 44.3324 61.6235Z" fill="#78B65E"/>
<path d="M19.1509 22.2296C17.786 22.866 16.8975 23.7158 17.1785 24.0798C16.806 24.3485 16.433 24.6176 16.0341 24.9509C15.9358 25.0826 15.8633 25.15 15.7546 25.2186C15.6625 25.2599 15.6066 25.3 15.5167 25.3639C15.2125 25.9784 14.9423 26.5692 14.6288 27.2547C14.9425 27.2374 15.1057 27.2285 15.2688 27.2195C15.3133 27.266 15.3577 27.3124 15.4021 27.3589C15.266 27.5474 15.1275 27.7343 14.9944 27.9249C14.8941 28.0686 14.8008 28.2171 14.6843 28.4007C14.5597 28.6312 14.3828 28.8185 14.3665 29.0189C14.3364 29.3868 14.4009 29.7625 14.426 30.1349C14.7503 30.0862 15.0746 30.0374 15.4073 30.0358C15.4629 30.194 15.51 30.3052 15.5906 30.4281C15.6555 30.5024 15.687 30.5649 15.7313 30.6544C15.771 30.7345 15.7978 30.7875 15.8473 30.8799C16.062 30.8706 16.3676 30.8774 16.4236 30.7625C16.5649 30.4726 16.5938 30.1279 16.7092 29.7995C17.8553 29.098 18.9598 28.402 20.0834 27.6941C20.0983 27.7156 20.1909 27.8487 20.3524 28.0809C20.8813 27.1486 21.3628 26.2997 21.8803 25.4732C22.0253 25.7177 22.1344 25.9398 22.2437 26.1624C22.9221 25.8124 23.06 25.4811 22.8202 24.838C22.9359 24.0861 23.0543 23.3834 23.1727 22.6807C24.1566 22.8758 24.1634 22.8756 24.1814 23.8913C24.1938 24.5867 24.1838 25.2825 24.1838 26.0962C23.8941 25.9183 23.7339 25.8199 23.5354 25.6981C23.0329 27.1868 22.537 28.6561 22.0411 30.1253C22.1108 30.1518 22.1806 30.1783 22.2503 30.2048C22.7469 28.9026 23.2436 27.6004 23.7489 26.2755C23.9271 26.0254 24.1566 27.0074 24.4174 26.2356C24.455 26.1899 24.5098 26.1878 24.5098 26.1878C24.4047 27.5299 24.2997 28.872 24.1874 30.3072C24.4031 30.1818 24.5102 30.1196 24.6172 30.0574C24.6698 30.099 24.7224 30.1406 24.775 30.1821C24.5903 30.4425 24.4517 30.7597 24.2129 30.9532C23.2191 31.7583 22.1951 32.5262 21.1748 33.3133C21.1741 33.3108 21.1409 33.1987 21.1352 33.1795C20.3811 33.4096 19.6343 33.6376 18.7195 33.9168C18.8955 33.6033 18.9669 33.4761 19.0522 33.3241C17.7364 33.3057 16.49 33.1386 15.3217 32.5914C13.2184 31.6062 12.4532 29.87 13.1867 27.6753C13.8753 25.6146 15.1607 23.9149 16.5491 22.2493C16.4425 22.2113 16.3432 22.1759 16.1355 22.1018C16.9293 21.5885 17.6613 21.1151 18.4346 20.6149C18.2431 20.5981 18.0974 20.5852 17.7838 20.5576C19.7954 19.1648 21.9084 18.2935 23.9872 17.249C23.826 16.9483 23.6632 16.6446 23.4032 16.1596C24.6839 16.3959 25.8057 16.603 26.9276 16.81C26.9271 16.8508 26.9267 16.8916 26.9263 16.9324C26.4956 17.1073 26.0649 17.2822 25.5548 17.4894C25.7138 17.7167 25.8431 17.9018 25.9727 18.0868C26.0745 18.2321 26.1767 18.3772 26.2238 18.5632C25.4391 17.7952 22.9815 18.242 22.4024 19.3823C22.2475 19.6873 21.9183 19.9395 21.614 20.1259C20.8959 20.5658 20.136 20.9371 19.4111 21.3666C19.1296 21.5333 18.8967 21.782 18.5403 22.0774C18.8219 22.1169 18.9504 22.135 19.1119 22.1877C19.1448 22.2224 19.1509 22.2296 19.1509 22.2296Z" fill="#D2EDFB"/>
<path d="M19.0456 45.2561C19.1567 45.1686 19.2345 45.1129 19.3754 45.0119C19.3912 45.1832 19.4097 45.2913 19.4098 45.3995C19.4114 48.3583 19.42 51.3172 19.3947 54.2758C19.3926 54.5191 19.1969 54.7924 19.0253 54.9966C18.5006 55.6212 17.9068 56.1909 17.4169 56.8401C17.2113 57.1127 17.0776 57.2162 16.7508 57.1272C15.8397 56.879 14.9182 56.669 14.0066 56.4226C13.3972 56.2578 13.0442 55.8396 13.0157 55.2056C12.8691 51.9494 12.7341 48.6926 12.597 45.4359C12.5939 45.3626 12.6137 45.2884 12.6296 45.1591C14.7532 46.7729 16.873 46.9125 19.0456 45.2561Z" fill="#78B65E"/>
<path d="M11.3003 42.0423C10.5142 39.7302 11.5496 36.7898 13.5999 35.5117C15.9455 34.0496 18.9429 35.0399 20.165 37.7801C20.2092 39.2421 20.0603 40.5497 19.3251 41.7574C17.6323 44.5378 14.1731 45.0293 12.0352 42.7033C11.8132 42.4619 11.5463 42.2616 11.3003 42.0423ZM13.9113 40.2228C13.9529 40.5169 13.9363 40.8353 14.0469 41.1006C14.4051 41.9596 15.4054 42.1488 16.0175 41.5018C16.4254 41.0706 16.5347 40.3651 16.2709 39.8128C16.0326 39.3142 15.6344 39.0006 15.0802 39.0485C14.4478 39.1033 14.0866 39.5246 13.9113 40.2228Z" fill="#78B65E"/>
<path d="M35.299 44.9192C34.763 42.8596 35.2064 41.0226 36.54 39.3784C36.7641 39.1021 36.9787 39.0502 37.3181 39.1671C38.3819 39.5333 39.417 39.4391 40.4032 38.8799C41.5171 38.2484 42.5169 38.388 43.3419 39.3529C43.6898 39.7598 43.9358 40.2539 44.2283 40.808C44.2803 42.1706 44.0988 43.3812 43.4693 44.5033C41.804 47.472 38.2275 48.0251 36.0073 45.6208C35.7821 45.3769 35.5356 45.1526 35.299 44.9192ZM39.9085 42.2598C39.2844 41.9035 38.801 41.9285 38.3714 42.3394C37.885 42.8047 37.7269 43.6092 38.1463 44.153C38.386 44.4638 38.8432 44.7828 39.1989 44.7789C39.5528 44.7749 40.0098 44.446 40.2309 44.1273C40.661 43.5071 40.4804 42.8654 39.9085 42.2598Z" fill="#78B65E"/>
<path d="M43.7393 13.9735C43.9299 13.7402 44.0928 13.5405 44.2873 13.3021C44.0163 13.1672 43.7937 13.0563 43.5711 12.9454C43.5866 12.8789 43.6021 12.8125 43.6176 12.746C45.5011 13.1015 47.3953 13.4089 49.2649 13.8266C50.9619 14.2057 52.561 14.8721 53.9934 15.8826C54.974 16.5744 55.8104 17.3928 56.2189 18.6002C54.6433 19.2621 53.1247 19.9971 51.3821 19.4246C51.0591 19.3184 50.7337 19.2005 50.436 19.0392C48.3064 17.885 46.0216 17.2262 43.642 16.8442C43.4383 16.8115 43.2415 16.6031 43.0847 16.4359C42.6774 16.0018 42.2942 15.5452 41.9785 15.1854C42.5182 14.8185 43.115 14.4127 43.7393 13.9735Z" fill="#78B65E"/>
<path d="M52.9122 30.0634C53.2506 30.7187 53.589 31.3741 53.98 32.1312C53.6784 32.0643 53.4876 32.0219 53.3343 31.9879C53.625 32.4498 53.918 32.9152 54.2109 33.3806C54.153 33.3893 54.095 33.398 54.0371 33.4067C53.9478 33.6093 53.7876 33.8094 53.7805 34.0148C53.7274 35.5499 53.1747 36.3332 51.712 36.8395C51.2767 36.9901 50.8248 37.0924 50.3816 37.2204C49.51 37.4721 48.6391 37.7264 47.7682 37.9795C47.7967 37.9126 47.8366 37.8186 47.8847 37.7058C47.1309 37.9603 46.403 38.2062 45.6751 38.452C45.6591 38.4173 45.6432 38.3825 45.6273 38.3478C45.7667 38.2405 45.9062 38.1333 46.0457 38.026C46.036 37.9778 46.0264 37.9297 46.0167 37.8815C44.2657 38.0288 42.5152 38.1837 40.7631 38.3183C40.3038 38.3536 39.826 38.3937 39.3824 38.3041C39.0654 38.2402 38.7914 37.9634 38.4189 37.7325C38.4516 37.603 38.5359 37.3815 38.5553 37.1545C38.5691 36.993 38.4779 36.8251 38.4675 36.6579C38.4611 36.5538 38.4881 36.4217 38.5513 36.3436C38.8294 35.9998 39.1332 35.6768 39.4111 35.3329C39.4776 35.2505 39.4806 35.1167 39.5292 34.9508C40.0895 34.3933 40.7335 33.8305 41.2841 33.1878C42.2882 32.0156 43.237 30.796 44.2398 29.5581C43.9824 29.4421 43.7937 29.3571 43.6051 29.2721C43.6017 29.2167 43.5983 29.1613 43.5949 29.1058C44.4158 28.9784 45.2368 28.851 46.115 28.7502C46.2062 28.8384 46.2401 28.8998 46.2359 28.9797C45.2677 29.4997 44.3917 30.0621 43.842 31.0417C44.0298 31.1302 44.1712 31.1967 44.3153 31.297C44.2894 31.3894 44.2608 31.448 44.1935 31.5221C43.675 31.8995 43.183 32.2468 42.7184 32.6275C42.173 33.0742 41.7436 33.6098 41.5418 34.3186C41.7813 34.3948 41.9565 34.4506 42.0831 34.4909C41.8752 35.0197 41.685 35.5033 41.4255 36.1632C42.1702 36.0498 42.6942 35.9579 43.2218 35.8966C43.3872 35.8773 43.5662 35.9248 43.7316 35.9694C43.9039 36.0157 44.0827 36.1766 44.2323 36.1482C46.2965 35.7565 48.372 35.3895 50.16 34.1902C50.6513 34.7749 50.9229 34.814 51.3992 34.2868C51.6447 34.0151 51.8471 33.6608 51.9448 33.3093C52.1092 32.7178 52.1746 32.0988 52.2884 31.4531C52.4622 31.4531 52.6667 31.4531 53.0127 31.4531C52.7081 30.9152 52.4625 30.4812 52.2567 30.0495C52.5018 30.0556 52.707 30.0595 52.9122 30.0634Z" fill="#D2EDFC"/>
<path d="M31.6417 13.0062C31.9783 12.9788 32.293 12.8582 32.152 12.4634C31.9408 11.8717 31.4333 12.3133 31.0398 12.2226C31.0398 12.0131 31.0398 11.7965 31.0398 11.5152C30.635 11.6708 30.2756 11.8089 29.9161 11.9471C29.8591 11.8994 29.8021 11.8517 29.7451 11.8041C30.122 11.187 30.4989 10.5699 30.8607 9.97759C30.6466 9.96764 30.3193 9.95241 29.9781 9.93654C30.4241 8.89083 31.4886 8.48489 33.9503 8.38981C34.07 8.13498 34.1907 7.87799 34.3683 7.50009C34.5495 7.7817 34.6582 7.9506 34.7879 8.15217C35.5446 7.05814 36.5723 6.74887 37.9783 7.09443C37.5736 7.59504 37.234 8.01509 36.8857 8.44603C38.4403 8.63549 39.9613 8.95543 40.802 10.6779C40.3839 10.7928 40.014 10.8945 39.709 10.9783C39.8158 11.4485 39.9267 11.9371 40.0673 12.5565C39.7132 12.4223 39.5329 12.354 39.3422 12.2817C39.3099 12.7548 39.3124 13.2272 39.2389 13.6874C39.0925 14.6049 38.7099 14.7364 38.0085 14.1432C37.9509 14.0944 37.8948 14.044 37.821 13.9795C37.7852 14.2279 37.7546 14.4405 37.6967 14.8428C36.9969 14.4583 36.3835 14.1214 35.7917 13.7963C35.9415 13.5392 36.0913 13.3813 36.1123 13.2078C36.1245 13.1078 35.9493 12.9427 35.8223 12.8769C35.5578 12.7398 35.2761 12.5973 34.9879 12.5588C34.8104 12.535 34.5044 12.6494 34.4375 12.7889C34.2923 13.0915 34.4918 13.2642 34.8178 13.2918C34.915 13.3 35.0084 13.3533 35.0879 13.4495C35.066 13.5536 35.0597 13.5943 35.0534 13.6349C35.0534 13.6349 35.0459 13.6233 35.0138 13.6366C34.785 13.87 34.5882 14.09 34.3331 14.3751C33.9952 13.9965 33.6951 13.6603 33.4029 13.333C33.3203 13.6955 33.2458 14.0227 33.1713 14.3499C33.0887 14.378 33.0062 14.4061 32.9237 14.4342C32.4964 13.9582 32.069 13.4822 31.6417 13.0062ZM33.7206 10.8893C34.2825 11.5632 34.9949 11.8629 36.0602 11.7852C35.8625 11.2369 35.6946 10.7713 35.5784 10.2331C36.0763 10.2712 36.5741 10.3093 37.072 10.3474C37.1067 10.2677 37.1415 10.188 37.1762 10.1084C36.901 9.79986 36.6258 9.49136 36.3506 9.18287C36.31 9.21921 36.2693 9.25556 36.2287 9.2919C36.4067 9.50083 36.5848 9.70975 36.7629 9.91867C36.7375 9.97137 36.712 10.0241 36.6866 10.0768C36.1843 10.0185 35.682 9.96022 35.1422 9.89761C35.2608 10.0984 35.3783 10.2973 35.4959 10.5921C35.5456 10.871 35.5953 11.1498 35.645 11.4287C35.5974 11.4693 35.5499 11.5099 35.5023 11.5504C34.9389 11.2688 34.3756 10.9871 33.7708 10.6324C33.6598 10.5417 33.5487 10.451 33.4302 10.3542C33.3829 10.6734 33.3438 10.9375 33.2871 11.3201C32.908 11.0224 32.6153 10.7925 32.3226 10.5626C32.2871 10.6023 32.2516 10.6419 32.216 10.6816C32.5555 11.0527 32.8949 11.4239 33.3092 11.8768C33.4805 11.4076 33.5899 11.1081 33.7206 10.8893Z" fill="#A6DBFB"/>
<path d="M34.7929 42.2712C34.8297 43.3679 34.8666 44.4646 34.9035 45.5613C34.953 45.5602 35.0025 45.5592 35.0521 45.5581C35.0311 45.5914 35.0181 45.6387 34.988 45.6558C33.6513 46.4128 33.1527 47.3356 33.4998 48.796C33.7326 49.7755 33.3746 50.3572 32.6176 50.8656C30.904 52.0165 28.6577 51.6928 27.3588 50.0864C25.9179 48.3046 25.8837 46.3291 26.5952 44.2744C27.1274 42.7374 28.0037 41.3874 29.0281 40.1357C29.1172 40.0269 29.3702 40.0522 29.5653 40.0942C29.5571 40.2684 29.5467 40.3722 29.5015 40.4574C28.9937 41.415 28.4179 42.3424 27.9873 43.3332C27.5996 44.2253 27.3336 45.1764 27.0825 46.1198C26.921 46.7266 27.3882 47.2973 28.0034 47.2119C28.621 47.1261 29.2708 46.9637 29.807 46.6596C31.2277 45.8539 32.4034 44.7347 33.4923 43.5203C33.8925 43.0741 34.3575 42.6859 34.7929 42.2712Z" fill="#DE4F06"/>
<path d="M53.3827 36.3127C53.4917 36.1217 53.5986 35.9295 53.7118 35.741C53.7298 35.711 53.7757 35.6979 53.8092 35.6777C55.6366 37.7581 55.0822 41.2064 52.6289 42.6068C50.4838 43.8314 48.281 44.955 46.1034 46.1225C45.6656 46.3572 45.2261 46.5887 44.6299 46.7481C44.747 46.1969 44.8438 45.6404 44.9853 45.0955C45.3073 43.8559 45.2378 42.6298 44.9579 41.3548C45.9184 41.102 46.8455 40.9449 47.7443 40.6886C49.2415 40.2616 50.7515 39.8404 52.0383 38.9044C52.9127 38.2682 53.6391 37.5418 53.3827 36.3127Z" fill="#527A4C"/>
<path d="M55.5816 26.4078C55.2513 28.4728 54.9259 30.4844 54.6005 32.496C54.5614 32.5063 54.5222 32.5165 54.4831 32.5267C53.3226 30.1363 52.1621 27.7459 50.9971 25.3461C51.1723 25.3951 51.4041 25.4599 51.6359 25.5248C50.6246 24.7945 51.1363 23.9092 51.3379 23.0603C51.5829 22.0285 51.8216 20.9951 52.0716 19.9258C53.5963 20.1686 54.8786 19.4591 56.3101 18.9889C56.3321 21.5287 55.8987 23.9362 55.5816 26.4078Z" fill="#52794C"/>
<path d="M15.7905 25.2174C15.8629 25.15 15.9354 25.0826 16.0234 24.9901C16.2578 24.8963 16.4861 24.8485 16.6936 24.7548C17.2165 24.5188 17.73 24.2621 18.3161 23.9807C18.0441 23.9016 17.8173 23.8357 17.5906 23.7698C17.5681 23.7177 17.5457 23.6655 17.5232 23.6133C18.4794 23.0237 19.4355 22.4342 20.4024 21.838C20.1037 21.838 19.7973 21.838 19.4909 21.838C19.4723 21.7937 19.4538 21.7494 19.4353 21.7051C20.3272 21.2123 21.219 20.7194 21.9587 20.3106C22.2473 20.6531 22.4766 20.9253 22.706 21.1975C22.758 21.1276 22.8101 21.0577 22.8621 20.9878C22.7198 21.2926 22.4366 21.6172 22.4758 21.8967C22.5131 22.1634 22.8862 22.3832 23.142 22.6522C23.0539 23.3834 22.9355 24.0861 22.8179 24.883C22.6979 25.2816 22.5772 25.586 22.392 26.0526C22.2232 25.7038 22.1572 25.5448 22.0657 25.4021C22.0516 25.38 21.9208 25.4327 21.844 25.4508C21.3624 26.2997 20.8809 27.1486 20.352 28.081C20.1905 27.8487 20.0979 27.7156 20.083 27.6942C18.9594 28.4021 17.8549 29.098 16.6792 29.8169C16.5762 29.8718 16.5443 29.9038 16.4612 29.9373C16.1562 30.0348 15.7096 29.6905 15.6346 30.2813C15.5881 30.3372 15.5724 30.3768 15.5567 30.4164C15.5096 30.3052 15.4626 30.194 15.4337 30.0101C15.5902 29.7955 15.7285 29.6537 15.8936 29.4809C15.9049 29.4069 15.8896 29.3638 15.8743 29.3206C15.8402 29.3577 15.8061 29.3948 15.7303 29.4452C15.3889 29.6051 15.0892 29.7515 14.6133 29.984C14.6831 29.4087 14.7347 29.0478 14.7661 28.6851C14.7752 28.5805 14.7263 28.4708 14.704 28.3635C14.8004 28.2171 14.8937 28.0686 14.994 27.9249C15.1271 27.7343 15.2656 27.5474 15.4017 27.3589C15.3573 27.3125 15.3129 27.266 15.2684 27.2195C15.1053 27.2285 14.9421 27.2375 14.6284 27.2547C14.9419 26.5692 15.2121 25.9784 15.5162 25.3637C15.5501 25.3397 15.5495 25.3394 15.5716 25.3709C15.6836 25.4034 15.7735 25.4043 15.8634 25.4052C15.8399 25.3439 15.8164 25.2825 15.7925 25.2202C15.7921 25.2192 15.7905 25.2174 15.7905 25.2174Z" fill="#FCFDFD"/>
<path d="M52.9111 30.0197C52.7063 30.0595 52.5011 30.0556 52.2508 30.0012C52.0832 29.4957 51.9606 29.0407 51.8045 28.4611C51.5356 28.766 51.4115 28.9066 51.3279 29.0014C50.3833 28.4296 49.487 27.8869 48.5906 27.3443C48.5562 27.3862 48.5218 27.4281 48.4873 27.47C48.5437 27.6658 48.6001 27.8616 48.6715 28.1096C48.1594 28.1096 47.7003 28.1096 47.2116 28.0759C46.6268 27.9128 46.0716 27.7834 45.576 27.668C45.4258 27.9735 45.3088 28.2113 45.1918 28.4491C44.8829 28.5115 44.574 28.574 44.2987 28.6297C44.5217 27.3114 44.8243 26.026 44.9358 24.7243C45.051 23.3799 44.8211 22.0497 44.1734 20.7895C44.493 20.7175 44.776 20.6538 45.0766 20.5861C45.1253 19.7154 44.5014 19.2505 44.0195 18.7084C44.0438 18.661 44.068 18.6135 44.0923 18.566C45.1241 18.9801 46.1559 19.3941 47.3026 19.8543C46.9474 20.0968 46.7528 20.2296 46.5283 20.3829C47.876 21.8315 49.1974 23.2517 50.6052 24.7649C50.4195 24.7309 50.3514 24.7185 50.2208 24.674C50.1251 24.6523 50.092 24.6628 50.0588 24.6733C50.0858 24.6948 50.1128 24.7163 50.1398 24.7378C51.0634 26.4838 51.987 28.2299 52.9111 30.0197ZM47.7187 24.5037C47.675 24.5183 47.6313 24.5329 47.5876 24.5475C47.6264 24.5762 47.6652 24.6048 47.7415 24.7107C47.8655 24.8977 47.9895 25.0846 48.1774 25.3679C47.8065 25.3679 47.5706 25.3679 47.3347 25.3679C47.3398 25.4431 47.345 25.5183 47.3501 25.5935C47.6993 25.5653 48.2577 25.6569 48.3561 25.4851C48.5961 25.066 48.2037 24.7759 47.8363 24.5715C47.8187 24.5617 47.8003 24.5537 47.7187 24.5037Z" fill="#B2DEFC"/>
<path d="M26.05 36.0508C26.3235 35.7641 26.597 35.4775 26.8511 35.2113C27.6347 35.6882 28.072 36.285 28.2122 37.1369C28.3352 37.8842 28.6042 38.6066 28.7567 39.3506C28.8031 39.577 28.7398 39.8775 28.6167 40.0759C28.3868 40.4465 28.0764 40.7671 27.7388 41.1511C27.611 41.2349 27.527 41.262 27.4788 41.3193C26.334 42.6792 25.049 43.8947 23.5375 44.827C22.9612 45.1825 22.2567 45.3704 21.585 45.5169C21.1369 45.6146 20.7814 45.3308 20.8798 44.8044C20.978 44.2784 21.0393 43.6963 21.3116 43.2606C22.5108 41.3412 23.7812 39.4664 25.0239 37.5742C25.3249 37.1159 25.619 36.653 25.9162 36.1922C25.9162 36.1922 25.93 36.1881 25.961 36.1847C26.0113 36.1377 26.0306 36.0942 26.05 36.0508Z" fill="#FE7300"/>
<path d="M34.8128 42.2312C34.357 42.6859 33.892 43.0741 33.4918 43.5204C32.403 44.7347 31.2272 45.8539 29.8065 46.6596C29.2703 46.9637 28.6205 47.1261 28.0029 47.2119C27.3878 47.2973 26.9205 46.7266 27.082 46.1198C27.3331 45.1764 27.5991 44.2253 27.9869 43.3332C28.4175 42.3425 28.9932 41.415 29.501 40.4574C29.5462 40.3722 29.5566 40.2684 29.5858 40.1274C30.4647 40.8325 31.3263 40.477 32.2279 40.099C33.7561 39.4584 35.3093 38.8774 36.9173 38.2877C36.9827 38.3041 37.0273 38.3423 37.0273 38.3423C36.1543 39.3121 35.2959 40.2905 34.9873 41.6127C34.9419 41.8069 34.8849 41.9985 34.8128 42.2312Z" fill="#FE7300"/>
<path d="M25.8781 36.2064C25.6181 36.653 25.324 37.1159 25.023 37.5742C23.7803 39.4664 22.5099 41.3412 21.3107 43.2606C21.0384 43.6964 20.9771 44.2784 20.8788 44.8044C20.7805 45.3309 21.1359 45.6146 21.5841 45.5169C22.2558 45.3704 22.9603 45.1825 23.5366 44.827C25.0481 43.8947 26.3331 42.6792 27.4779 41.3193C27.5261 41.2621 27.61 41.2349 27.7183 41.1867C27.3687 41.9228 26.9386 42.6482 26.5957 43.4127C25.842 45.0929 25.5237 46.8223 26.1386 48.6353C26.1847 48.7714 26.0671 49.0595 25.9384 49.144C23.4423 50.7831 20.2413 49.1792 20.0044 46.1945C19.879 44.6142 20.4219 43.2221 21.1805 41.8951C22.4115 39.7419 24.045 37.9131 25.8781 36.2064Z" fill="#DD4F06"/>
<path d="M35.14 17.8088C35.1926 18.2645 35.2935 18.7218 35.2777 19.175C35.2697 19.4027 35.1052 19.7292 34.9159 19.8283C34.0723 20.2696 33.2211 20.7292 32.32 21.0175C31.5966 21.2489 31.092 20.8358 30.8339 20.1354C30.7388 19.8772 30.5732 19.6119 30.3674 19.4332C29.5351 18.7103 29.2487 18.0677 29.5385 17.2952C29.6034 17.1221 29.8281 16.9907 30.0049 16.8817C30.3213 16.6866 30.6691 16.5415 30.9806 16.3397C31.184 16.2078 31.3656 15.8568 31.5235 15.8762C31.9448 15.9281 32.4171 16.0358 32.7455 16.2845C33.7501 17.0456 34.8357 17.1068 35.7027 16.2293C36.1809 15.7452 36.7365 15.5006 37.4029 15.3051C37.6764 15.3527 37.8819 15.373 38.1141 15.3959C38.0556 16.9443 36.8154 17.4253 35.7769 18.0619C35.5303 17.8298 35.3387 17.6495 35.1472 17.4692C35.1133 17.4972 35.0795 17.5252 35.0457 17.5533C35.0771 17.6384 35.1085 17.7236 35.14 17.8088ZM32.3687 17.8785C31.6216 18.0735 30.9658 18.8347 30.0737 18.1634C30.4312 18.7966 31.4183 18.9278 31.1292 19.8747C32.4394 20.1235 33.515 19.7819 34.3961 18.6761C34.4456 18.5754 34.4951 18.4746 34.5446 18.3739C34.5131 18.3552 34.4817 18.3365 34.4502 18.3179C34.3784 18.4036 34.3067 18.4893 34.1662 18.6251C33.5743 19.2202 32.886 19.6057 32.0297 19.6807C31.6523 19.7137 31.4149 19.6146 31.4211 19.1947C31.9112 18.9211 32.4538 18.6882 32.3687 17.8785Z" fill="#F4F9FA"/>
<path d="M35.7092 61.3051C34.6284 61.0903 33.5476 60.8756 32.343 60.6363C33.1152 60.3285 33.7749 60.0656 34.5458 59.7583C33.5044 58.5071 32.162 58.82 30.9014 58.6785C31.7976 56.9013 32.6782 55.1551 33.5976 53.3318C33.976 53.3879 34.5148 53.4333 35.0316 53.5652C35.1848 53.6043 35.3725 53.8825 35.3803 54.0584C35.4529 55.6845 35.4746 57.3128 35.5433 58.9392C35.5745 59.6772 35.6781 60.4122 35.7435 61.212C35.7382 61.2753 35.7092 61.3051 35.7092 61.3051Z" fill="#52794C"/>
<path d="M40.5979 15.076C41.5656 15.1174 42.1329 15.7841 42.6798 16.4525C42.7427 16.5293 42.5757 16.7941 42.4976 17.0237C42.8504 17.3436 43.3207 17.77 43.8712 18.2692C43.5831 18.3615 43.4229 18.4128 43.2185 18.4783C43.7764 19.0334 44.5091 19.4374 44.727 20.3445C44.3365 20.3619 43.9871 20.3774 43.6077 20.3942C43.6625 20.5468 43.7118 20.6839 43.7692 20.8436C43.6261 20.8599 43.5174 20.8723 43.3847 20.8874C43.7014 22.086 43.3037 22.9222 42.1476 23.4347C42.0312 23.147 41.9304 22.8974 41.7861 22.5407C41.6968 22.7332 41.6529 22.8279 41.5394 23.0726C41.3004 21.8885 41.0955 20.8725 40.8709 19.7594C39.9436 19.6589 38.9952 19.556 37.999 19.4172C38.1503 19.203 38.3494 19.0247 38.5496 18.8453C38.646 18.9936 38.7287 19.1207 38.9144 19.4062C39.1871 18.8894 39.4053 18.4797 39.6191 18.0678C39.6698 17.9702 39.7139 17.7742 39.7474 17.7772C40.2168 17.8187 40.0554 17.4685 40.0987 17.2405C40.1032 17.2364 40.1114 17.2275 40.1567 17.2289C40.3401 17.1809 40.4783 17.1315 40.6405 17.0885C40.6645 17.095 40.7002 17.1298 40.7092 17.1579C40.751 17.207 40.7838 17.228 40.8284 17.2904C41.0379 17.7838 41.2355 18.2357 41.4331 18.6876C41.378 18.7239 41.3228 18.7603 41.2676 18.7966C40.8387 18.6804 40.4097 18.5641 39.9869 18.4136C39.9614 18.375 39.9299 18.3708 39.8984 18.3666C39.9271 18.3926 39.9557 18.4186 39.9901 18.4875C40.3335 18.6946 40.6578 18.9011 41.012 19.0132C41.511 19.1711 41.7931 18.9606 41.6488 18.4603C41.5142 17.9938 41.1534 17.5924 40.8596 17.1349C40.7814 17.1204 40.7357 17.1335 40.7033 17.1144C40.6776 17.0638 40.6387 17.0453 40.599 16.969C40.5981 16.2995 40.598 15.6878 40.5979 15.076Z" fill="#A2D9FA"/>
<path d="M53.3505 36.3375C53.6399 37.5419 52.9134 38.2683 52.039 38.9044C50.7523 39.8405 49.2422 40.2616 47.7451 40.6886C46.8463 40.945 45.9192 41.102 44.9513 41.3048C44.4746 40.2269 43.8894 39.2586 42.8926 38.447C43.5584 38.447 44.1322 38.447 44.7827 38.447C44.5949 38.5714 44.4539 38.6648 44.3129 38.7582C44.3249 38.8202 44.3369 38.8822 44.3489 38.9441C45.1066 38.808 45.8624 38.6592 46.6232 38.5436C46.8425 38.5103 47.0761 38.5832 47.3035 38.5867C47.434 38.5888 47.5878 38.5866 47.6926 38.523C48.7265 37.8951 49.9178 37.7584 51.0404 37.4042C51.8304 37.1548 52.5606 36.7163 53.3505 36.3375Z" fill="#3E6637"/>
<path d="M25.8221 33.2059C26.0978 33.7821 26.3735 34.3584 26.6714 34.9811C24.6067 36.7867 22.7342 38.8069 21.1371 41.2448C21.294 39.4944 20.8852 38.024 20.043 36.6311C21.0915 35.9791 22.1032 35.3674 23.1219 34.7676C24.0179 34.2401 24.9217 33.7259 25.8221 33.2059Z" fill="#52794C"/>
<path d="M11.2969 42.0898C11.5457 42.2616 11.8126 42.4618 12.0345 42.7033C14.1725 45.0293 17.6317 44.5378 19.3245 41.7573C20.0597 40.5497 20.2086 39.2421 20.1759 37.8209C21.4916 40.1276 20.7005 43.6129 18.6236 45.19C16.3664 46.9041 13.2446 46.1382 11.8096 43.4799C11.5837 43.0615 11.4633 42.5864 11.2969 42.0898Z" fill="#52794C"/>
<path d="M35.292 44.965C35.5363 45.1526 35.7828 45.3769 36.008 45.6208C38.2283 48.0251 41.8048 47.472 43.47 44.5033C44.0995 43.3812 44.2811 42.1706 44.2389 40.8495C45.5218 43.1822 44.7501 46.596 42.5789 48.1769C40.0916 49.9879 36.6856 48.8217 35.5178 45.7562C35.4253 45.5133 35.3614 45.2596 35.292 44.965Z" fill="#527A4C"/>
<path d="M43.3996 17.204C46.3548 17.4703 49.0045 18.6737 51.6891 19.9843C51.3707 21.3374 51.034 22.7681 50.6751 24.2931C49.4447 22.976 48.2739 21.7227 47.0844 20.4493C47.2872 20.2932 47.4419 20.1742 47.6942 19.98C47.428 19.7466 47.2285 19.4867 46.9649 19.3576C46.3534 19.0581 45.7316 18.7285 45.0758 18.5841C44.2859 18.4101 43.8905 17.8212 43.3828 17.2756C43.3768 17.2276 43.3996 17.204 43.3996 17.204Z" fill="#52794C"/>
<path d="M24.6784 61.2059C24.2075 61.1061 23.7302 61.0293 23.2669 60.9017C22.2383 60.6182 21.7875 59.6577 22.2159 58.6782C22.6682 57.6443 23.4065 56.8809 24.4609 56.3768C24.5284 56.4686 24.598 56.5565 24.6604 56.6493C25.4959 57.892 27.0989 57.8647 27.9153 56.6056C27.9874 56.4944 28.1805 56.4616 28.3513 56.4638C28.2429 57.0325 28.1007 57.5299 27.9797 57.9531C27.7114 57.9801 27.5258 57.9987 27.3403 58.0174C27.4264 58.2038 27.5125 58.3903 27.6191 58.621C27.2873 58.9661 27.2715 59.7072 26.4657 59.6229C26.6363 60.1293 26.3417 60.3015 25.9677 60.4214C25.8232 60.4677 25.6636 60.4945 25.5408 60.5756C25.2439 60.7715 24.9647 60.9941 24.6784 61.2059Z" fill="#FDB1C3"/>
<path d="M27.6037 33.6168C26.8876 30.9355 26.1868 28.3012 25.4707 25.6094C25.8656 25.646 26.2141 25.6316 26.5288 25.7277C26.6824 25.7746 26.8355 26.011 26.883 26.1897C27.7908 29.6062 28.6826 33.0269 29.5783 36.4467C29.8926 37.6469 30.2084 38.8469 30.5533 40.1603C29.7916 39.7665 29.0962 39.5707 28.898 38.6217C28.5493 36.9529 28.0532 35.3148 27.6037 33.6168Z" fill="#D10000"/>
<path d="M19.966 59.7632C19.4963 59.66 19.0197 59.5806 18.5582 59.4485C17.6452 59.1872 17.1722 58.304 17.4969 57.4179C17.9158 56.2745 18.7066 55.4581 19.6066 55.0338C20.2338 55.4333 20.699 55.8722 21.2481 56.0456C22.0582 56.3014 22.7916 55.9117 23.2392 55.1707C23.3592 54.9721 23.4202 54.7478 23.7336 55.0286C23.6185 55.3972 23.4787 55.7049 23.3276 56.007C23.1162 56.4292 22.8965 56.8472 22.6803 57.267C22.6803 57.267 22.6864 57.2716 22.652 57.2775C22.6007 57.3214 22.5838 57.3594 22.5669 57.3973C22.5669 57.3973 22.5651 57.3921 22.5363 57.4033C22.4899 57.4536 22.4724 57.4927 22.4549 57.5319C22.4549 57.5319 22.4522 57.5203 22.4226 57.5328C22.366 57.6115 22.3389 57.6776 22.3118 57.7437C22.3118 57.7437 22.3231 57.7522 22.2862 57.7609C22.2352 57.8079 22.221 57.846 22.2068 57.8842C22.2068 57.8842 22.2032 57.8769 22.1646 57.8788C22.0258 57.9687 21.926 58.057 21.8255 58.1445C21.2058 58.6842 20.5858 59.2236 19.966 59.7632Z" fill="#FCB0C2"/>
<path d="M25.8113 33.1643C24.9212 33.726 24.0174 34.2401 23.1214 34.7676C22.1027 35.3674 21.091 35.9791 20.0287 36.5895C19.1088 35.6247 18.1384 34.8028 16.6279 34.5268C17.26 34.2402 17.7099 34.0362 18.1599 33.8322C18.3963 34.2945 19.179 34.2596 20.8009 33.713C20.8449 33.8527 20.8888 33.9919 20.9562 34.2055C22.1553 33.1396 23.0965 31.8411 24.5673 31.2142C24.7317 31.6584 24.8968 32.1046 25.0774 32.5925C25.2724 32.5286 25.4091 32.4839 25.5521 32.4371C25.6372 32.6716 25.7191 32.8971 25.8113 33.1643Z" fill="#3D6536"/>
<path d="M40.0168 20.0929C35.5454 21.8697 31.1056 23.6163 26.6627 25.3548C26.5709 25.3907 26.4427 25.3335 26.3316 25.3197C26.3037 25.2593 26.2759 25.1988 26.248 25.1384C27.3527 24.3954 28.4204 23.5886 29.5696 22.9224C32.2124 21.3903 35.077 20.4039 38.0632 19.8139C38.6842 19.6913 39.3843 19.9687 40.0168 20.0929Z" fill="#F9C47A"/>
<path d="M24.7236 61.2268C24.9645 60.994 25.2438 60.7714 25.5406 60.5755C25.6634 60.4945 25.823 60.4677 25.9675 60.4213C26.3416 60.3015 26.6361 60.1292 26.4655 59.6228C27.2714 59.7071 27.2872 58.966 27.6189 58.621C27.5123 58.3902 27.4262 58.2038 27.3401 58.0173C27.5257 57.9987 27.7112 57.98 27.9796 57.953C28.1006 57.5298 28.2428 57.0325 28.3881 56.4877C29.7872 57.101 30.5571 58.2378 30.8755 59.7149C30.9893 60.2433 30.8039 60.5879 30.2841 60.8057C28.6727 61.4806 27.0018 61.5052 25.306 61.3237C25.1264 61.3045 24.948 61.2733 24.7236 61.2268Z" fill="#FC6C95"/>
<path d="M43.3611 23.0288C43.5719 22.4857 43.7827 21.9426 44.0264 21.3148C44.0826 21.4001 44.1945 21.5076 44.2323 21.6368C44.642 23.0352 44.6836 24.4616 44.5612 25.9525C44.4262 25.8597 44.335 25.7971 44.2214 25.719C44.1945 27.0655 44.425 28.4841 42.8977 29.3131C43.1586 29.4481 43.3278 29.5356 43.5649 29.6583C43.4014 29.9503 43.2514 30.2183 43.0243 30.6239C42.6613 28.7552 42.3293 27.0458 42.043 25.2802C43.0849 24.9145 43.3895 24.3891 43.3611 23.0288Z" fill="#F9FAFB"/>
<path d="M35.205 48.1436C35.2166 49.8608 35.2166 51.5228 35.2166 53.2237C34.8039 53.1618 34.2738 53.1044 33.754 52.9969C33.3835 52.9203 33.1478 52.1496 33.2899 51.743C33.6791 50.6291 34.1022 49.5377 33.7629 48.293C33.5167 47.3897 34.2025 46.3563 35.1933 46.0316C35.1933 46.7425 35.1933 47.4154 35.205 48.1436Z" fill="#51794B"/>
<path d="M28.7551 16.6841C28.9281 16.7326 29.1012 16.7812 29.335 16.8468C28.7497 18.1182 29.3228 19.0042 30.2824 19.7629C30.3843 19.8435 30.4771 19.9783 30.5044 20.1032C30.6593 20.8101 31.0968 21.2227 31.8453 21.3989C31.2839 21.6652 30.7713 21.9085 30.2157 22.1721C30.201 21.8625 30.1896 21.6235 30.1781 21.3848C29.7644 21.6405 29.3508 21.8959 28.7966 22.2381C28.752 21.5782 28.7178 21.0706 28.686 20.6009C28.2947 21.1237 28.271 21.7454 28.673 22.7231C29.0925 22.4538 29.4995 22.1927 29.9702 21.8906C29.8244 22.8014 28.8828 22.6719 28.3826 23.3588C28.1925 22.5137 28.0441 21.854 27.8888 21.1637C27.9101 21.1567 27.8135 21.1886 27.6817 21.2322C27.583 20.5746 27.7946 20.0466 28.3331 19.5705C28.6074 19.3504 28.8165 19.1693 29.1227 18.9041C28.7309 18.9041 28.4541 18.9041 27.9639 18.9041C28.2573 18.0808 28.5062 17.3824 28.7551 16.6841Z" fill="#A5DAF8"/>
<path d="M26.238 29.7669C26.7418 31.6491 27.2261 33.4856 27.7105 35.322C26.5279 34.4389 26.1149 33.1549 25.7373 31.7954C25.5585 31.9153 25.4196 32.0084 25.2449 32.1255C24.7822 31.0829 24.9788 30.0634 25.2436 28.9409C25.0142 29.1432 24.8525 29.2857 24.5352 29.5654C24.6811 28.0655 24.8124 26.7169 24.9436 25.3683C24.9891 25.368 25.0346 25.3676 25.0801 25.3673C25.4596 26.8186 25.8391 28.2698 26.238 29.7669Z" fill="#F7F7F7"/>
<path d="M29.9048 54.1931C29.6149 54.9261 29.3424 55.6147 29.0606 56.3266C28.5045 56.1718 28.162 56.0203 28.0966 55.355C28.0037 54.4095 27.2855 53.9262 26.3281 53.7545C26.5136 53.2536 26.6848 52.7915 26.8898 52.238C28.0088 52.4158 29.1269 52.5934 30.3119 52.7816C30.1703 53.2784 30.0462 53.7136 29.9048 54.1931Z" fill="#52794C"/>
<path d="M30.3887 4.01906C30.5777 3.99068 30.7161 3.96374 30.8558 3.952C30.9732 3.94214 31.092 3.94997 31.3469 3.94997C29.9087 5.23553 28.5931 6.50372 28.4823 8.62938C27.7452 7.78249 27.2353 6.9678 27.1795 5.94814C27.1674 5.72862 27.3027 5.43691 27.4676 5.28266C28.271 4.53123 29.2587 4.16512 30.3887 4.01906Z" fill="#F97301"/>
<path d="M42.9602 7.38426C42.8813 7.17596 42.8223 7.00856 42.7568 6.82263C43.9325 7.2166 45.3667 8.69417 45.6203 9.80697C45.6662 10.0084 45.5779 10.2811 45.4662 10.4706C45.0591 11.1609 44.1696 11.7924 43.1622 12.1351C43.8896 10.5073 43.5598 8.95938 42.9602 7.38426Z" fill="#F97301"/>
<path d="M35.1832 17.8273C35.1088 17.7236 35.0773 17.6384 35.0459 17.5533C35.0797 17.5252 35.1136 17.4972 35.1474 17.4692C35.3389 17.6495 35.5305 17.8298 35.7771 18.0619C36.8156 17.4253 38.0558 16.9443 38.1143 15.3959C37.8821 15.373 37.6766 15.3527 37.4468 15.2937C38.0244 15.0705 38.6262 14.8861 39.2753 14.6872C39.2575 17.1889 38.096 18.7315 35.6379 19.2168C35.5193 18.8218 35.3728 18.3338 35.1832 17.8273Z" fill="#D2EDFB"/>
<path d="M40.5531 15.0596C40.598 15.6877 40.5981 16.2995 40.6083 16.9812C40.6184 17.0512 40.6164 17.082 40.6164 17.082C40.4782 17.1314 40.34 17.1809 40.1472 17.2123C40.08 17.1895 40.0674 17.1847 40.0548 17.1799C40.0679 17.2014 40.081 17.223 40.0941 17.2445C40.0554 17.4684 40.2167 17.8187 39.7473 17.7771C39.7138 17.7742 39.6697 17.9702 39.6191 18.0678C39.4052 18.4797 39.1871 18.8893 38.9144 19.4061C38.7287 19.1206 38.646 18.9935 38.5495 18.8453C38.3493 19.0246 38.1502 19.203 37.9445 19.4175C37.0494 19.6908 36.1608 19.9278 35.2151 20.1582C35.1579 20.1515 35.1377 20.1307 35.1377 20.1307C35.5717 19.8526 35.9711 19.4618 36.4457 19.3163C38.4415 18.7045 39.3481 17.2869 39.5841 15.3193C39.6031 15.1611 39.6176 15.0024 39.6393 14.7955C39.9445 14.8825 40.2264 14.9629 40.5531 15.0596Z" fill="#64C3F4"/>
<path d="M25.9227 54.2108C26.757 54.0411 27.499 54.4404 27.7416 55.1894C27.9893 55.9545 27.6168 56.7832 26.8832 57.0989C26.1655 57.4078 25.3464 57.1377 24.948 56.4608C24.5088 55.7143 24.705 54.9556 25.5461 54.3736C25.6024 54.3814 25.6322 54.4116 25.6198 54.456C25.5096 55.0224 25.8343 55.2253 26.2516 55.1843C26.4855 55.1613 26.8804 54.8982 26.8818 54.7403C26.8862 54.2629 26.4569 54.2628 26.0894 54.2634C26.0498 54.2635 26.0102 54.2706 25.9587 54.2585C25.9469 54.2424 25.9227 54.2108 25.9227 54.2108Z" fill="#FA6B94"/>
<path d="M21.9521 52.7972C22.659 52.9364 23.1159 53.446 23.1602 54.1447C23.2042 54.8401 22.7686 55.4739 22.0848 55.7091C21.4507 55.9272 20.7461 55.686 20.3409 55.1121C19.9526 54.5621 19.9783 53.7924 20.424 53.2727C20.5505 53.1251 20.7301 53.023 20.9375 52.9463C20.9287 53.399 21.088 53.698 21.5042 53.6962C21.7681 53.695 22.0311 53.5193 22.2946 53.4218C22.1804 53.2136 22.0662 53.0054 21.9521 52.7972Z" fill="#FA6B94"/>
<path d="M20.7917 48.761C21.0758 49.0189 21.3092 49.2773 21.5899 49.4648C22.1539 49.8415 22.8414 50.0481 23.085 50.8112C23.149 51.0117 23.47 51.1302 23.7748 51.3647C22.3813 51.1326 21.0986 50.919 19.7881 50.7008C19.7881 49.52 19.7881 48.3801 19.7881 47.2341C20.1123 47.7317 20.4373 48.2306 20.7917 48.761Z" fill="#4F764A"/>
<path d="M26.317 24.222C26.2595 24.8144 26.1218 25.2712 25.3976 25.1937C25.2788 24.3279 25.1426 23.477 25.0631 22.6208C25.0493 22.4717 25.244 22.2593 25.3949 22.1461C26.1698 21.5647 26.1577 21.2909 25.3073 20.8549C24.5856 20.4848 24.5441 20.3111 25.0201 19.6547C25.2037 19.4015 25.3868 19.1481 25.6292 18.8132C26.1408 20.6392 26.4985 22.3687 26.317 24.222Z" fill="#F4C279"/>
<path d="M23.618 51.6995C23.5602 52.2189 23.4564 52.7257 23.3406 53.2908C21.9395 51.9829 20.949 52.052 19.8057 53.5115C19.8057 52.6907 19.8057 51.9329 19.8057 51.0508C21.0725 51.2648 22.3222 51.4758 23.618 51.6995Z" fill="#4F764A"/>
<path d="M32.483 52.5331C32.5994 52.4755 32.7158 52.4178 32.8205 52.4391C32.6529 53.0721 32.578 53.6667 32.3248 54.1721C31.7279 55.3636 31.0461 56.5125 30.3986 57.6787C30.0536 57.317 29.7086 56.9554 29.3535 56.5831C29.523 56.1926 29.6974 55.7906 29.9548 55.3604C30.5574 55.4175 31.0538 55.2689 31.311 54.8472C31.7598 54.1113 32.0983 53.3081 32.483 52.5331Z" fill="#64C4F8"/>
<path d="M29.4959 13.8836C29.2581 14.8957 28.2831 15.0482 27.5458 15.4992C27.7215 15.8491 27.8792 16.1631 28.0484 16.5C27.2539 16.8982 26.53 16.237 25.584 16.2851C26.5453 14.829 27.8946 14.2626 29.383 13.8204C29.4651 13.8524 29.4805 13.868 29.4959 13.8836Z" fill="#77B45D"/>
<path d="M23.4814 53.8662C23.7588 53.0393 24.0362 52.2125 24.2683 51.5207C24.8867 51.2759 25.414 51.0672 26.019 50.8698C25.9601 51.326 25.8946 51.8109 25.6721 52.2076C25.1926 53.0623 24.802 54.0985 23.4814 53.8662Z" fill="#33B0EF"/>
<path d="M23.4545 53.8988C24.8013 54.0985 25.1918 53.0624 25.6713 52.2077C25.8939 51.8109 25.9593 51.326 26.0589 50.8588C26.0871 50.7673 26.1524 50.6982 26.226 50.6203C26.6542 51.4893 26.4784 53.1504 25.8384 53.7749C25.4108 54.1922 24.8853 54.5091 24.3285 54.9274C24.0354 54.727 23.3839 54.6787 23.4545 53.8988Z" fill="#57BFF4"/>
<path d="M28.9972 9.28646C28.9861 8.64625 28.9553 8.03829 29.0387 7.44641C29.0897 7.08378 29.3158 6.74581 29.4862 6.34277C29.8954 6.8338 30.4022 7.22464 30.58 7.73101C30.7 8.07271 30.4069 8.60338 30.2033 9.00069C30.0451 9.30945 29.7397 9.54278 29.4756 9.83653C29.3375 9.67965 29.1816 9.50257 28.9972 9.28646Z" fill="#DD4F06"/>
<path d="M40.8448 12.2618C41.807 12.6325 42.7692 13.0033 43.7856 13.3949C43.6394 13.5637 43.537 13.682 43.35 13.823C42.5698 13.8923 41.8741 13.939 41.1305 13.9795C40.6099 13.8713 40.1373 13.7691 39.6647 13.667C39.6592 13.6289 39.6596 13.5908 39.6954 13.5308C39.7247 13.5087 39.7544 13.4871 39.7914 13.4654C40.1367 13.3867 40.445 13.3299 40.8448 13.2562C40.8448 12.9538 40.8448 12.6078 40.8448 12.2618Z" fill="#FBFBFB"/>
<path d="M32.4378 52.5433C32.0982 53.3081 31.7597 54.1113 31.3109 54.8473C31.0537 55.269 30.5573 55.4176 29.9854 55.331C30.1924 54.5205 30.4517 53.7113 30.6729 53.0212C31.3026 52.8499 31.8476 52.7017 32.4378 52.5433Z" fill="#33B1F0"/>
<path d="M41.3018 11.9691C41.3499 11.4457 41.4159 10.97 41.4831 10.4865C42.0431 10.2393 42.6068 9.99039 43.2114 9.72345C43.3337 10.6008 43.1251 11.3784 42.8022 12.1366C42.6705 12.4458 42.4639 12.5649 42.1349 12.3955C41.8688 12.2584 41.5919 12.1422 41.3018 11.9691Z" fill="#DD4F06"/>
<path d="M26.4742 20.9649C26.3942 20.588 26.3266 20.2611 26.2461 19.8719C26.3488 19.9375 26.4492 19.9649 26.4812 20.0274C26.9848 21.0113 27.4802 21.9994 27.9759 22.9872C28.1081 23.2507 28.1011 23.4583 27.807 23.6371C27.437 23.8622 27.097 24.1368 26.7695 24.3718C26.6738 23.2371 26.5802 22.126 26.4742 20.9649Z" fill="#DB984A"/>
<path d="M28.3721 4.17323C29.6744 3.16071 31.0806 2.37403 32.8032 2.18427C32.3801 2.92257 32.0576 3.63731 30.9653 3.65676C30.1284 3.67167 29.297 4.00303 28.4172 4.18306C28.3713 4.17248 28.3721 4.17323 28.3721 4.17323Z" fill="#F17001"/>
<path d="M25.7004 49.6571C25.9547 49.5267 26.166 49.4119 26.3772 49.2971C26.4349 49.3178 26.4925 49.3385 26.5501 49.3593C26.4607 49.619 26.4293 49.9228 26.2714 50.1303C25.7494 50.8158 25.03 51.1451 24.1653 51.0673C23.5653 51.0133 23.2855 50.7505 23.1406 50.2991C23.9763 50.0911 24.8168 49.8819 25.7004 49.6571Z" fill="#DD4F06"/>
<path d="M45.1095 7.87883C45.1535 8.00875 45.1722 8.10299 45.164 8.06185C44.4167 7.53369 43.5861 6.98434 42.8051 6.37183C42.5686 6.18637 42.4195 5.84244 42.3205 5.54145C42.2161 5.22383 42.2194 4.87081 42.1689 4.48218C43.5513 5.29901 44.3478 6.54495 45.1095 7.87883Z" fill="#F57302"/>
<path d="M27.2481 19.6158C26.9481 19.4285 26.6717 19.2864 26.3652 19.1288C26.4677 18.7776 26.5721 18.4199 26.6787 18.0547C26.4691 17.9634 26.2639 17.8741 25.9004 17.7159C26.6444 17.4146 27.2382 17.1742 27.796 16.9484C27.6767 18.0115 27.5577 19.0728 27.4386 20.1342C27.4047 20.1355 27.3709 20.1367 27.337 20.138C27.3152 19.979 27.2934 19.82 27.2481 19.6158Z" fill="#F3F5F6"/>
<path d="M29.5951 51.9455C29.7861 52.3004 29.6098 52.3336 29.3644 52.2917C28.5965 52.1605 27.8296 52.0233 27.1011 51.8952C26.9248 51.251 26.7607 50.6517 26.5967 50.0523C26.6576 50.0281 26.7185 50.0039 26.7794 49.9797C27.0511 50.2596 27.2831 50.6015 27.6028 50.8063C28.2354 51.2115 28.9166 51.5409 29.5951 51.9455Z" fill="#51794B"/>
<path d="M31.2404 52.6075C30.6668 52.5905 30.1587 52.5336 29.8896 51.8517C31.1736 51.961 32.2657 51.6048 33.2396 50.8023C33.1975 51.78 32.4879 52.4096 31.2404 52.6075Z" fill="#D84D06"/>
<path d="M30.4092 57.7191C31.0459 56.5126 31.7277 55.3636 32.3246 54.1721C32.5778 53.6668 32.6527 53.0721 32.827 52.475C32.8999 52.6878 33.0375 52.9585 32.9949 53.197C32.7611 54.5065 31.6161 56.8046 30.6277 58.0272C30.5548 57.9332 30.4874 57.8464 30.4092 57.7191Z" fill="#32AEE9"/>
<path d="M31.5948 12.9983C32.0685 13.4822 32.4958 13.9582 32.9232 14.4342C33.0057 14.4061 33.0882 14.378 33.1708 14.3499C33.2453 14.0227 33.3198 13.6955 33.4024 13.333C33.6945 13.6603 33.9947 13.9965 34.3326 14.3751C34.5876 14.09 34.7844 13.87 35.0202 13.637C34.9057 14.0227 34.7522 14.4214 34.5556 14.932C34.2088 14.6415 33.976 14.4465 33.7016 14.2167C33.6829 14.5012 33.6659 14.7614 33.6422 15.1225C32.6868 14.6797 31.9023 14.1489 31.3654 13.2878C31.2056 13.0315 31.3036 12.9763 31.5948 12.9983Z" fill="#64C2F3"/>
<path d="M43.3242 23.0462C43.3896 24.3891 43.085 24.9146 42.0414 25.2289C41.872 24.6812 41.7499 24.1287 41.5938 23.4224C42.0734 23.9375 42.5208 23.7959 43.3242 23.0462Z" fill="#D2EDFB"/>
<path d="M44.3451 61.5681C44.2945 61.3943 44.2229 61.1651 44.2225 60.9358C44.2159 56.6128 44.2191 52.2898 44.2136 47.9668C44.2133 47.7335 44.1551 47.5002 44.0752 47.2408C44.1048 47.0842 44.1831 46.9535 44.3573 46.6626C44.3573 51.7343 44.3573 56.6235 44.3451 61.5681Z" fill="#8CD66E"/>
<path d="M41.1788 13.9856C41.8744 13.939 42.57 13.8924 43.3142 13.8429C42.4216 14.9144 41.2647 14.9723 40.0176 14.5095C40.4121 14.3063 40.7954 14.1459 41.1788 13.9856Z" fill="#ACD9F3"/>
<path d="M36.0821 14.371C36.4375 14.5893 36.759 14.7807 37.1811 15.0321C36.5425 15.2282 35.9935 15.3968 35.4933 15.5504C35.337 15.2101 35.2328 14.9834 35.0879 14.668C35.1696 14.4853 35.3046 14.183 35.4476 13.863C35.6475 14.0232 35.8478 14.1836 36.0821 14.371Z" fill="#E3F1F6"/>
<path d="M20.0107 59.7826C20.5862 59.2237 21.2061 58.6842 21.8259 58.1445C21.9264 58.057 22.0262 57.9687 22.1687 57.8804C22.0047 58.545 21.7983 59.21 21.564 59.9649C21.165 59.9218 20.6101 59.8619 20.0107 59.7826Z" fill="#FA6B94"/>
<path d="M33.1574 16.2164C33.038 16.0805 32.9528 15.9774 32.8213 15.8181C33.7942 15.8181 34.6899 15.8181 35.5889 15.8181C35.0063 16.5862 33.9743 16.7702 33.1574 16.2164Z" fill="#E6E6E6"/>
<path d="M28.7177 16.6604C28.506 17.3824 28.2571 18.0807 27.9637 18.9041C28.4539 18.9041 28.7307 18.9041 29.1225 18.9041C28.8163 19.1692 28.6072 19.3504 28.3601 19.5356C28.1678 19.5397 28.0135 19.5397 27.816 19.5397C27.7878 18.5952 27.8854 17.7105 28.2982 16.8867C28.3571 16.769 28.5498 16.7184 28.7177 16.6604Z" fill="#63C0ED"/>
<path d="M22.7188 57.2538C22.8963 56.8472 23.1161 56.4292 23.3274 56.007C23.4786 55.7049 23.6184 55.3972 23.7711 55.0504C24.0491 55.1727 24.4775 55.2135 24.3817 55.6789C24.3447 55.8587 24.2361 56.0576 24.0985 56.1766C23.6672 56.5495 23.2066 56.8885 22.7188 57.2538Z" fill="#FA6B94"/>
<path d="M29.8334 13.0147C28.8839 13.2195 28.0429 13.0165 27.3604 12.3127C28.0472 12.2827 28.6994 12.2877 29.3495 12.3329C29.5093 12.587 29.6714 12.8008 29.8334 13.0147Z" fill="#ACD9F3"/>
<path d="M31.2225 13.6769C31.3674 13.9973 31.4845 14.2816 31.6294 14.6336C31.368 14.5592 31.2214 14.5174 31.0748 14.4756C31.0078 14.7828 30.9409 15.0899 30.8626 15.4491C30.8641 15.4491 30.7333 15.4491 30.6272 15.4491C30.6272 14.8335 30.6198 14.2397 30.6323 13.6463C30.6355 13.4955 30.7023 13.346 30.7398 13.1959C30.8593 13.2933 30.9823 13.3869 31.0966 13.4901C31.1396 13.5289 31.1626 13.5899 31.2225 13.6769Z" fill="#E1EAED"/>
<path d="M29.3517 12.2927C28.6994 12.2877 28.0472 12.2827 27.3447 12.2747C27.3537 12.2074 27.4021 12.1047 27.4736 12.0848C28.1467 11.8979 28.8237 11.7251 29.5454 11.5363C29.5151 11.7605 29.4872 11.9679 29.4304 12.2286C29.4016 12.2819 29.3517 12.2927 29.3517 12.2927Z" fill="#F3F5F6"/>
<path d="M45.2354 28.4544C45.3088 28.2112 45.4258 27.9734 45.576 27.668C46.0716 27.7834 46.6268 27.9128 47.1922 28.1066C47.0151 28.5784 46.6554 28.7831 46.2731 28.9612C46.2393 28.8998 46.2055 28.8383 46.1589 28.7442C46.2746 28.6698 46.403 28.6281 46.5847 28.5692C46.344 28.4005 46.1295 28.2501 45.8505 28.0554C45.7425 28.0233 45.699 28.0354 45.6554 28.0476C45.6872 28.0849 45.719 28.1222 45.7507 28.1595C45.5934 28.2596 45.4362 28.3597 45.2354 28.4544Z" fill="#D0E9F5"/>
<path d="M29.9432 16.5063C29.035 16.5229 28.8273 16.4447 28.2148 15.8284C28.9034 15.8284 29.5505 15.8284 30.2517 15.8708C30.185 16.1109 30.0641 16.3086 29.9432 16.5063Z" fill="#B9CCD5"/>
<path d="M21.9028 52.7939C22.0665 53.0054 22.1806 53.2136 22.2948 53.4218C22.0314 53.5193 21.7683 53.695 21.5045 53.6961C21.0882 53.698 20.9289 53.399 20.9799 52.9419C20.9699 52.8912 20.9722 52.8942 21.0139 52.9067C21.1556 52.8848 21.2557 52.8505 21.3558 52.8162C21.5217 52.8077 21.6875 52.7992 21.9028 52.7939Z" fill="#FCB0C2"/>
<path d="M24.5389 26.1491C24.5099 26.1878 24.4551 26.1899 24.4277 26.1892C24.4515 24.9867 24.5027 23.7848 24.5539 22.5829C25.0259 23.7689 24.6975 24.9381 24.5389 26.1491Z" fill="#C2D3DB"/>
<path d="M30.2671 15.2773C29.7581 15.3905 29.2696 15.4542 28.7812 15.518C28.7597 15.4509 28.7383 15.3838 28.7168 15.3168C29.219 15.0445 29.7212 14.7722 30.3492 14.4318C30.3222 14.7812 30.3049 15.0046 30.2671 15.2773Z" fill="#98D6F7"/>
<path d="M40.8188 12.2285C40.8444 12.6078 40.8444 12.9538 40.8444 13.2562C40.4446 13.3299 40.1363 13.3867 39.7826 13.4317C39.7282 13.3987 39.7191 13.3774 39.71 13.3562C39.71 13.2181 39.71 13.08 39.71 12.8972C40.3561 12.9858 40.3507 12.5182 40.3667 12.0498C40.5393 12.1087 40.6663 12.152 40.8188 12.2285Z" fill="#B1DDFA"/>
<path d="M41.1305 13.9795C40.7952 14.1459 40.4118 14.3062 39.9814 14.4798C39.3388 14.457 39.5226 14.0928 39.6456 13.7146C40.1373 13.7691 40.6099 13.8713 41.1305 13.9795Z" fill="#65C3F3"/>
<path d="M29.3496 12.3329C29.3518 12.2927 29.4017 12.2819 29.4267 12.2767C29.8408 12.2341 30.2298 12.1968 30.6984 12.1519C30.5099 12.5084 30.54 13.006 29.882 13.0189C29.6715 12.8008 29.5095 12.587 29.3496 12.3329Z" fill="#63C0ED"/>
<path d="M32.7409 15.4686C32.3483 15.362 32.0078 15.2528 31.6904 15.151C31.7223 14.912 31.755 14.6665 31.7886 14.4141C32.2897 14.7392 32.7964 15.0681 33.3664 15.4381C33.132 15.4495 32.9625 15.4577 32.7409 15.4686Z" fill="#E1EAED"/>
<path d="M42.5887 4.30795C42.2984 3.7353 42.4317 3.443 43.1179 3.10101C43.028 3.58177 42.9416 4.04475 42.8467 4.55234C42.7661 4.47812 42.6914 4.40941 42.5887 4.30795Z" fill="#CB4003"/>
<path d="M32.2314 1.86539C32.3533 1.4319 32.4751 0.998416 32.6045 0.538208C33.1499 1.23495 33.0808 1.5881 32.3164 1.90038C32.2589 1.89185 32.2314 1.86539 32.2314 1.86539Z" fill="#CB4003"/>
<path d="M40.3156 11.5692C40.1999 10.8989 40.8419 11.2753 41.0808 11.0161C41.037 11.2928 40.9932 11.5695 40.9361 11.9307C40.6958 11.8029 40.5146 11.7066 40.3156 11.5692Z" fill="#D84D06"/>
<path d="M29.9873 16.5174C30.0636 16.3086 30.1845 16.1109 30.3081 15.8748C30.4999 15.8282 30.689 15.8198 30.878 15.8115C30.9071 15.8673 30.9362 15.9231 30.9653 15.979C30.6542 16.1622 30.343 16.3454 29.9873 16.5174Z" fill="#E6E6E6"/>
<path d="M21.3145 52.8056C21.2559 52.8505 21.1558 52.8848 21.0156 52.9077C21.0747 52.8625 21.1739 52.8287 21.3145 52.8056Z" fill="#FA6B94"/>
<path d="M25.5879 54.3662C25.6637 54.3071 25.7544 54.2633 25.884 54.2151C25.923 54.2107 25.9473 54.2424 25.9297 54.2811C25.8189 54.3505 25.7258 54.381 25.6326 54.4116C25.6326 54.4116 25.6027 54.3814 25.5879 54.3662Z" fill="#FA6B94"/>
<path d="M22.3433 57.7268C22.3387 57.6776 22.3658 57.6115 22.4283 57.5331C22.4342 57.5838 22.4046 57.6469 22.3433 57.7268Z" fill="#FA6B94"/>
<path d="M28.3702 4.17169C28.3208 4.20803 28.2722 4.24515 28.2235 4.28226C28.2122 4.25771 28.2008 4.23316 28.1895 4.20862C28.2245 4.19599 28.2595 4.18337 28.3331 4.17198C28.3716 4.17322 28.3709 4.17247 28.3702 4.17169Z" fill="#F17001"/>
<path d="M35.1674 20.1618C35.1191 20.1894 35.0605 20.2067 35.002 20.2239C35.026 20.1934 35.0501 20.1629 35.1055 20.1315C35.1369 20.1306 35.1571 20.1515 35.1674 20.1618Z" fill="#64C3F4"/>
<path d="M39.6914 13.3763C39.7192 13.3775 39.7283 13.3987 39.7458 13.4535C39.7541 13.4871 39.7244 13.5087 39.7065 13.5046C39.6609 13.4692 39.6556 13.4345 39.6914 13.3763Z" fill="#65C3F3"/>
<path d="M36.9619 38.2833C36.98 38.2436 37.0188 38.2247 37.0577 38.2058C37.0609 38.2345 37.0642 38.2631 37.0474 38.3171C37.0273 38.3424 36.9827 38.3041 36.9619 38.2833Z" fill="#FE7300"/>
<path d="M32.2726 1.90545C32.2553 1.90893 32.2246 1.8988 32.2129 1.87703C32.2318 1.86539 32.2593 1.89184 32.2726 1.90545Z" fill="#CB4003"/>
<path d="M26.0187 36.0661C26.0303 36.0942 26.0109 36.1377 25.9549 36.1891C25.9415 36.1584 25.9646 36.12 26.0187 36.0661Z" fill="#DD4F06"/>
<path d="M19.7335 53.6962C19.7371 53.7042 19.7298 53.6881 19.7335 53.6962Z" fill="#4F764A"/>
<path d="M43.3652 17.2391C43.3304 17.2288 43.3073 17.2071 43.2842 17.1854C43.312 17.179 43.3397 17.1726 43.3836 17.1851C43.3998 17.204 43.377 17.2276 43.3652 17.2391Z" fill="#52794C"/>
<path d="M19.7187 46.94C19.7221 46.9476 19.7154 46.9323 19.7187 46.94Z" fill="#4F764A"/>
<path d="M19.1502 22.2243C19.1197 22.2043 19.0838 22.1823 19.0479 22.1603C19.0577 22.152 19.0676 22.1437 19.0775 22.1354C19.0872 22.15 19.097 22.1646 19.1288 22.2044C19.1509 22.2296 19.1448 22.2224 19.1502 22.2243Z" fill="#D2EDFB"/>
<path d="M29.4277 13.8123C29.4529 13.8069 29.5001 13.8261 29.5216 13.8644C29.4805 13.868 29.4651 13.8524 29.4277 13.8123Z" fill="#77B45D"/>
<path d="M22.5986 57.3889C22.5844 57.3594 22.6013 57.3214 22.6498 57.2751C22.6641 57.3046 22.6469 57.3425 22.5986 57.3889Z" fill="#FA6B94"/>
<path d="M22.4878 57.523C22.4725 57.4928 22.49 57.4537 22.5391 57.4036C22.554 57.4332 22.5373 57.4736 22.4878 57.523Z" fill="#FA6B94"/>
<path d="M35.0809 13.6178C35.0595 13.5943 35.0658 13.5537 35.0977 13.493C35.1184 13.5156 35.1135 13.5581 35.0809 13.6178Z" fill="#64C2F3"/>
<path d="M22.2386 57.8755C22.2213 57.8461 22.2355 57.8079 22.2799 57.7587C22.2967 57.7874 22.2834 57.8271 22.2386 57.8755Z" fill="#FA6B94"/>
<path d="M35.7535 61.2607C35.7874 61.2698 35.8064 61.2934 35.8255 61.3169C35.7986 61.3238 35.7718 61.3306 35.7272 61.3213C35.7095 61.3051 35.7386 61.2753 35.7535 61.2607Z" fill="#52794C"/>
<path d="M44.6044 62.2569C44.5857 62.2616 44.5522 62.2513 44.5391 62.2268C44.5594 62.2126 44.5896 62.2419 44.6044 62.2569Z" fill="#527A4C"/>
<path d="M38.0034 22.8082C38.1827 22.8735 38.3107 22.9285 38.4322 22.9806C38.6186 22.7345 38.7663 22.4618 38.9843 22.2682C39.4014 21.898 39.8519 22.0403 39.9901 22.5769C40.2 23.3926 39.99 24.1389 39.484 24.7846C39.3694 24.9309 39.018 25.0604 38.8807 24.9907C38.3215 24.7064 37.7605 24.3909 37.2896 23.9835C37.0895 23.8104 36.959 23.2999 37.0722 23.0945C37.1824 22.8947 37.6446 22.8889 38.0034 22.8082Z" fill="#FFFAFA"/>
<path d="M14.684 28.4008C14.7264 28.4708 14.7753 28.5805 14.7662 28.6851C14.7348 29.0478 14.6833 29.4087 14.6134 29.984C15.0893 29.7515 15.3891 29.6051 15.7536 29.4659C15.8347 29.486 15.8509 29.4989 15.867 29.5118C15.7287 29.6537 15.5903 29.7955 15.4253 29.9631C15.0743 30.0375 14.75 30.0862 14.4258 30.1349C14.4007 29.7625 14.3362 29.3869 14.3662 29.019C14.3826 28.8185 14.5595 28.6313 14.684 28.4008Z" fill="#181B1D"/>
<path d="M21.8799 25.4732C21.9208 25.4326 22.0515 25.38 22.0657 25.4021C22.1571 25.5447 22.2232 25.7037 22.392 26.0526C22.5771 25.5859 22.6979 25.2815 22.8205 24.9323C23.0596 25.4811 22.9217 25.8124 22.2433 26.1624C22.134 25.9398 22.0249 25.7177 21.8799 25.4732Z" fill="#232323"/>
<path d="M16.513 29.9357C16.545 29.9037 16.5769 29.8718 16.6385 29.8225C16.5942 30.1279 16.5653 30.4726 16.424 30.7625C16.368 30.8774 16.0623 30.8706 15.8799 30.8584C15.9092 30.781 15.9289 30.7644 15.9896 30.7585C16.1914 30.4914 16.3522 30.2135 16.513 29.9357Z" fill="#181B1D"/>
<path d="M15.5905 30.428C15.5727 30.3767 15.5884 30.3371 15.6738 30.2931C15.7699 30.3639 15.7965 30.4391 15.7957 30.5415C15.7516 30.5882 15.735 30.6079 15.7184 30.6275C15.6869 30.5649 15.6554 30.5024 15.5905 30.428Z" fill="#181B1D"/>
<path d="M15.857 30.8191C15.798 30.7876 15.7711 30.7345 15.7314 30.6544C15.7352 30.6079 15.7518 30.5883 15.8253 30.56C15.9042 30.6168 15.9263 30.6823 15.9485 30.7478C15.9287 30.7644 15.909 30.781 15.857 30.8191Z" fill="#181B1D"/>
<path d="M15.5505 25.3399C15.6066 25.3 15.6625 25.2599 15.7546 25.2186C15.7908 25.2174 15.7924 25.2191 15.7717 25.249C15.6839 25.299 15.6168 25.3191 15.5498 25.3393C15.5498 25.3393 15.5504 25.3397 15.5505 25.3399Z" fill="#FCFDFD"/>
<path d="M13.9248 40.1773C14.0862 39.5246 14.4474 39.1033 15.0798 39.0485C15.634 39.0006 16.0323 39.3142 16.2705 39.8128C16.5343 40.3651 16.425 41.0706 16.0171 41.5018C15.405 42.1488 14.4048 41.9596 14.0466 41.1006C13.9359 40.8353 13.9525 40.5169 13.9248 40.1773ZM14.2316 40.3169C14.2658 41.1036 14.678 41.606 15.2392 41.5448C15.7967 41.484 16.2222 40.8617 16.0155 40.2179C15.9112 39.8934 15.569 39.4966 15.2617 39.4186C14.7109 39.2786 14.4089 39.7258 14.2316 40.3169Z" fill="#090D07"/>
<path d="M39.9454 42.2886C40.4805 42.8653 40.661 43.5071 40.2309 44.1273C40.0099 44.446 39.5529 44.7749 39.1989 44.7788C38.8432 44.7828 38.386 44.4638 38.1463 44.1529C37.727 43.6092 37.8851 42.8046 38.3714 42.3394C38.801 41.9284 39.2844 41.9034 39.9454 42.2886ZM39.9335 42.7818C39.6366 42.396 39.2836 42.1684 38.7974 42.4377C38.3346 42.6941 38.132 43.3508 38.3519 43.8669C38.548 44.3272 38.8905 44.5634 39.4041 44.455C39.8795 44.3546 40.1749 43.8114 40.0911 43.2056C40.075 43.089 40.0176 42.9782 39.9335 42.7818Z" fill="#090D07"/>
<path d="M46.2352 28.9796C46.6555 28.7831 47.0152 28.5784 47.2219 28.1403C47.7004 28.1095 48.1594 28.1095 48.6715 28.1095C48.6001 27.8616 48.5438 27.6658 48.4874 27.47C48.5218 27.428 48.5562 27.3861 48.5906 27.3442C49.487 27.8869 50.3834 28.4296 51.328 29.0014C51.4116 28.9066 51.5356 28.766 51.8046 28.4611C51.9607 29.0407 52.0833 29.4957 52.211 29.999C52.4618 30.4812 52.7074 30.9151 53.012 31.4531C52.666 31.4531 52.4615 31.4531 52.2877 31.4531C52.1739 32.0987 52.1085 32.7177 51.9441 33.3092C51.8464 33.6607 51.644 34.0151 51.3985 34.2868C50.9222 34.814 50.6506 34.7749 50.1593 34.1902C48.3713 35.3895 46.2958 35.7565 44.2316 36.1482C44.082 36.1765 43.9032 36.0157 43.7309 35.9693C43.5655 35.9248 43.3865 35.8773 43.2211 35.8965C42.6935 35.9579 42.1695 36.0497 41.4248 36.1632C41.6843 35.5033 41.8744 35.0197 42.0824 34.4909C41.9558 34.4506 41.7806 34.3948 41.5411 34.3185C41.7429 33.6097 42.1723 33.0742 42.7177 32.6274C43.1823 32.2468 43.6742 31.8995 44.1952 31.5736C44.275 31.9581 44.3138 32.3063 44.3653 32.7693C44.8269 32.5426 45.1868 32.3658 45.5463 32.1892C45.5599 32.2269 45.5861 32.2992 45.6116 32.4207C45.6815 33.1685 46.0551 33.6405 46.6764 33.9321C47.3046 33.2757 47.425 32.6837 47.1244 32.1507C47.0206 32.5417 46.8963 33.0092 46.7721 33.4767C46.6795 33.4919 46.587 33.507 46.4945 33.5221C46.2531 33.1336 46.0118 32.745 45.774 32.3101C45.7356 32.0738 45.6935 31.8838 45.66 31.7322C45.3254 31.9458 44.9932 32.158 44.661 32.3701C44.6103 32.3351 44.5595 32.3001 44.5088 32.2651C44.6355 31.6909 44.7623 31.1166 44.8891 30.5423C44.8632 30.5264 44.8372 30.5104 44.8113 30.4945C44.6448 30.7508 44.4783 31.007 44.3118 31.2633C44.1704 31.1967 44.0291 31.1301 43.8413 31.0416C44.391 30.062 45.267 29.4996 46.2352 28.9796Z" fill="#FEFEFE"/>
<path d="M44.3151 31.297C44.4788 31.007 44.6453 30.7508 44.8119 30.4945C44.8378 30.5104 44.8637 30.5264 44.8896 30.5423C44.7629 31.1166 44.6361 31.6909 44.5093 32.2651C44.5601 32.3001 44.6108 32.3351 44.6616 32.3701C44.9937 32.158 45.3259 31.9458 45.6605 31.7322C45.6941 31.8838 45.7361 32.0738 45.735 32.3142C45.6656 32.367 45.6392 32.3693 45.6128 32.3716C45.5866 32.2992 45.5605 32.2269 45.5469 32.1892C45.1873 32.3658 44.8275 32.5426 44.3659 32.7693C44.3143 32.3063 44.2755 31.9581 44.2344 31.5583C44.2606 31.448 44.2893 31.3893 44.3151 31.297Z" fill="#232323"/>
<path d="M35.5263 10.3058C35.6942 10.7714 35.8621 11.237 36.0598 11.7852C34.9945 11.863 34.2821 11.5632 33.7227 10.8262C33.7484 10.7354 33.7773 10.7162 33.8118 10.7054C34.3752 10.9871 34.9385 11.2688 35.5019 11.5505C35.5494 11.5099 35.597 11.4693 35.6445 11.4287C35.5948 11.1499 35.5452 10.871 35.5032 10.4966C35.516 10.3692 35.5211 10.3375 35.5263 10.3058Z" fill="#161616"/>
<path d="M35.552 10.2694C35.521 10.3375 35.5159 10.3692 35.503 10.4486C35.3777 10.2973 35.2602 10.0984 35.1416 9.8976C35.6814 9.96022 36.1837 10.0185 36.686 10.0768C36.7114 10.0241 36.7369 9.97136 36.7623 9.91867C36.5842 9.70974 36.4062 9.50082 36.2281 9.2919C36.2687 9.25555 36.3094 9.21921 36.35 9.18286C36.6252 9.49136 36.9004 9.79985 37.1756 10.1084C37.1409 10.188 37.1061 10.2677 37.0714 10.3474C36.5736 10.3093 36.0757 10.2712 35.552 10.2694Z" fill="#121F27"/>
<path d="M33.7913 10.6689C33.7775 10.7162 33.7486 10.7354 33.7122 10.7859C33.5897 11.1081 33.4803 11.4076 33.3089 11.8768C32.8947 11.4239 32.5553 11.0527 32.2158 10.6815C32.2514 10.6419 32.2869 10.6023 32.3224 10.5626C32.6151 10.7925 32.9077 11.0223 33.2869 11.3201C33.3436 10.9375 33.3827 10.6734 33.43 10.3542C33.5485 10.451 33.6596 10.5417 33.7913 10.6689Z" fill="#121F27"/>
<path d="M15.9888 30.7585C15.9258 30.6823 15.9036 30.6168 15.8521 30.5329C15.7962 30.4391 15.7696 30.3639 15.7041 30.2768C15.7095 29.6904 16.1562 30.0348 16.4612 29.9372C16.3514 30.2135 16.1906 30.4914 15.9888 30.7585Z" fill="#C9E2ED"/>
<path d="M15.5723 25.3709C15.6172 25.3192 15.6842 25.299 15.7724 25.25C15.8171 25.2825 15.8406 25.3439 15.8641 25.4052C15.7742 25.4043 15.6843 25.4033 15.5723 25.3709Z" fill="#D2EDFB"/>
<path d="M15.7959 29.4524C15.8068 29.3947 15.8409 29.3577 15.875 29.3206C15.8903 29.3637 15.9056 29.4068 15.8943 29.4809C15.8514 29.4989 15.8353 29.486 15.7959 29.4524Z" fill="#181B1D"/>
<path d="M47.7825 24.5449C47.8006 24.5537 47.819 24.5617 47.8365 24.5715C48.204 24.7759 48.5964 25.066 48.3564 25.4851C48.258 25.6569 47.6996 25.5653 47.3504 25.5935C47.3453 25.5183 47.3401 25.4431 47.335 25.3679C47.5708 25.3679 47.8067 25.3679 48.1777 25.3679C47.9898 25.0846 47.8658 24.8976 47.7431 24.6505C47.7445 24.5902 47.7825 24.5449 47.7825 24.5449Z" fill="#232323"/>
<path d="M50.1584 24.721C50.1135 24.7163 50.0866 24.6948 50.0596 24.6733C50.0927 24.6628 50.1259 24.6523 50.1835 24.6543C50.2079 24.6667 50.1762 24.7042 50.1584 24.721Z" fill="#0D0D0B"/>
<path d="M47.7244 24.6119C47.6655 24.6048 47.6267 24.5761 47.5879 24.5474C47.6316 24.5328 47.6753 24.5183 47.7508 24.5243C47.7825 24.5449 47.7445 24.5902 47.7244 24.6119Z" fill="#232323"/>
<path d="M47.4263 24.4287C47.4314 24.4293 47.4211 24.428 47.4263 24.4287Z" fill="#232323"/>
<path d="M34.3251 18.7127C33.5155 19.7819 32.44 20.1234 31.1297 19.8747C31.4188 18.9277 30.4318 18.7966 30.0742 18.1634C30.9663 18.8346 31.6222 18.0734 32.3301 17.9371C31.966 18.2419 31.6328 18.4781 31.3226 18.7415C31.252 18.8014 31.2611 18.9552 31.243 19.0959C31.2792 19.1556 31.3059 19.1853 31.3333 19.2193C31.334 19.2236 31.3316 19.2321 31.3316 19.2321C31.4155 19.6146 31.6529 19.7137 32.0302 19.6806C32.8865 19.6057 33.5749 19.2202 34.2217 18.6356C34.2928 18.6684 34.309 18.6905 34.3251 18.7127Z" fill="#181B1D"/>
<path d="M31.2334 19.0658C31.261 18.9552 31.2519 18.8014 31.3225 18.7415C31.6327 18.4781 31.9659 18.2419 32.3294 17.9826C32.4542 18.6881 31.9116 18.9211 31.3765 19.2134C31.3315 19.2321 31.3339 19.2236 31.3396 19.1841C31.308 19.1183 31.2707 19.092 31.2334 19.0658Z" fill="#D0E9F5"/>
<path d="M34.2559 18.6106C34.307 18.4893 34.3787 18.4036 34.4505 18.3179C34.482 18.3365 34.5134 18.3552 34.5449 18.3739C34.4954 18.4746 34.4459 18.5754 34.3606 18.6944C34.3087 18.6906 34.2926 18.6684 34.2559 18.6106Z" fill="#181B1D"/>
<path d="M39.9805 18.4479C40.4094 18.5641 40.8383 18.6804 41.2673 18.7966C41.3224 18.7603 41.3776 18.7239 41.4328 18.6876C41.2352 18.2357 41.0375 17.7838 40.8476 17.2694C40.8554 17.2069 40.8918 17.1624 40.8918 17.1624C41.153 17.5924 41.5138 17.9938 41.6484 18.4603C41.7928 18.9606 41.5107 19.1711 41.0116 19.0132C40.6575 18.9011 40.3331 18.6946 39.9891 18.4882C39.9826 18.446 39.9805 18.4479 39.9805 18.4479Z" fill="#181B1D"/>
<path d="M40.6398 17.0885C40.6158 17.082 40.6177 17.0513 40.6084 17.039C40.638 17.0453 40.6769 17.0638 40.7049 17.1096C40.6939 17.1369 40.6995 17.1298 40.6995 17.1298C40.6995 17.1298 40.6638 17.095 40.6398 17.0885Z" fill="#181B1D"/>
<path d="M40.8362 17.2279C40.7838 17.228 40.7511 17.207 40.7093 17.1579C40.7003 17.1298 40.6947 17.1369 40.6924 17.1417C40.7358 17.1334 40.7814 17.1204 40.8597 17.1348C40.8922 17.1624 40.8558 17.2068 40.8362 17.2279Z" fill="#181B1D"/>
<path d="M39.9837 18.4453C39.9557 18.4186 39.9271 18.3926 39.8984 18.3665C39.9299 18.3707 39.9614 18.375 39.9869 18.4135C39.9808 18.4479 39.983 18.446 39.9837 18.4453Z" fill="#181B1D"/>
<path d="M40.0985 17.2405C40.0809 17.223 40.0678 17.2015 40.0547 17.1799C40.0673 17.1847 40.0799 17.1896 40.1019 17.2109C40.1112 17.2275 40.103 17.2364 40.0985 17.2405Z" fill="#A2D9FA"/>
<path d="M25.6203 54.4559C25.7259 54.381 25.8191 54.3505 25.9417 54.2972C26.0107 54.2706 26.0504 54.2634 26.09 54.2633C26.4575 54.2628 26.8867 54.2628 26.8824 54.7403C26.8809 54.8981 26.486 55.1613 26.2521 55.1842C25.8349 55.2252 25.5102 55.0224 25.6203 54.4559Z" fill="#FCB0C2"/>
<path d="M45.7745 28.1361C45.7198 28.1222 45.688 28.0849 45.6562 28.0476C45.6998 28.0354 45.7433 28.0233 45.8146 28.0381C45.8274 28.0809 45.8125 28.0968 45.7745 28.1361Z" fill="#0D0D0B"/>
<path d="M37.2792 31.6611C37.245 31.5848 37.2446 31.4831 37.2441 31.3813C37.2787 31.4222 37.3133 31.463 37.3631 31.5428C37.3566 31.5997 37.3348 31.6176 37.2792 31.6611Z" fill="#FD1817"/>
<path d="M37.1252 31.104C37.1535 31.1289 37.1588 31.1778 37.1641 31.2267C37.1434 31.1938 37.1228 31.1609 37.1252 31.104Z" fill="#FD1817"/>
<path d="M37.5179 31.2001C37.4926 31.1671 37.4924 31.106 37.4922 31.045C37.5091 31.0873 37.5261 31.1297 37.5179 31.2001Z" fill="#FD1817"/>
<path d="M33.042 29.7314C33.0128 29.6624 33.0093 29.5742 33.0059 29.486C33.0392 29.5216 33.0725 29.5572 33.111 29.6313C33.1 29.684 33.0839 29.6981 33.042 29.7314Z" fill="#FD1817"/>
<path d="M31.9136 26.156C31.9455 26.2207 31.9505 26.3083 31.9554 26.3958C31.9223 26.3627 31.8892 26.3295 31.8447 26.2607C31.8511 26.2096 31.8689 26.1942 31.9136 26.156Z" fill="#FD1817"/>
<path d="M14.2383 40.2698C14.4092 39.7258 14.7113 39.2786 15.262 39.4186C15.5693 39.4966 15.9115 39.8934 16.0158 40.2179C16.2225 40.8617 15.797 41.484 15.2395 41.5448C14.6783 41.606 14.2661 41.1036 14.2383 40.2698Z" fill="#527A4C"/>
<path d="M39.9571 42.8233C40.0183 42.9782 40.0757 43.0891 40.0918 43.2056C40.1756 43.8115 39.8802 44.3546 39.4048 44.455C38.8912 44.5635 38.5487 44.3273 38.3526 43.8669C38.1327 43.3509 38.3353 42.6941 38.7981 42.4378C39.2843 42.1685 39.6373 42.3961 39.9571 42.8233Z" fill="#527A4C"/>
<path d="M45.6123 32.4207C45.6394 32.3693 45.6657 32.367 45.7316 32.3605C46.0125 32.745 46.2538 33.1336 46.4952 33.5221C46.5877 33.507 46.6803 33.4919 46.7728 33.4767C46.897 33.0092 47.0213 32.5417 47.1252 32.1508C47.4258 32.6837 47.3053 33.2757 46.6771 33.9321C46.0559 33.6405 45.6822 33.1685 45.6123 32.4207Z" fill="#161616"/>
<path d="M31.2422 19.0959C31.27 19.092 31.3074 19.1183 31.3382 19.1798C31.305 19.1853 31.2784 19.1556 31.2422 19.0959Z" fill="#F4F9FA"/>
</svg>
