<svg width="182" height="36" viewBox="0 0 182 36" fill="none" xmlns="http://www.w3.org/2000/svg">
<mask id="path-1-outside-1_7_2556" maskUnits="userSpaceOnUse" x="1.68311" y="8" width="180" height="24" fill="black">
<rect fill="white" x="1.68311" y="8" width="180" height="24"/>
<path d="M4.90711 25V12.292H7.73311V25H4.90711ZM12.7731 25V12.292H15.6171V25H12.7731ZM6.59911 19.69V17.242H13.7091V19.69H6.59911ZM17.8035 25V16.252H20.5575V25H17.8035ZM19.1895 15.046C18.7575 15.046 18.3975 14.902 18.1095 14.614C17.8335 14.314 17.6955 13.954 17.6955 13.534C17.6955 13.102 17.8335 12.742 18.1095 12.454C18.3975 12.166 18.7575 12.022 19.1895 12.022C19.6215 12.022 19.9755 12.166 20.2515 12.454C20.5275 12.742 20.6655 13.102 20.6655 13.534C20.6655 13.954 20.5275 14.314 20.2515 14.614C19.9755 14.902 19.6215 15.046 19.1895 15.046ZM25.6829 25.216C25.1669 25.216 24.6569 25.15 24.1529 25.018C23.6609 24.886 23.1989 24.7 22.7669 24.46C22.3469 24.208 21.9869 23.92 21.6869 23.596L23.2529 22.012C23.5409 22.324 23.8829 22.57 24.2789 22.75C24.6749 22.918 25.1069 23.002 25.5749 23.002C25.8989 23.002 26.1449 22.954 26.3129 22.858C26.4929 22.762 26.5829 22.63 26.5829 22.462C26.5829 22.246 26.4749 22.084 26.2589 21.976C26.0549 21.856 25.7909 21.754 25.4669 21.67C25.1429 21.574 24.8009 21.472 24.4409 21.364C24.0809 21.256 23.7389 21.106 23.4149 20.914C23.0909 20.722 22.8269 20.458 22.6229 20.122C22.4189 19.774 22.3169 19.336 22.3169 18.808C22.3169 18.244 22.4609 17.758 22.7489 17.35C23.0369 16.93 23.4449 16.6 23.9729 16.36C24.5009 16.12 25.1189 16 25.8269 16C26.5709 16 27.2549 16.132 27.8789 16.396C28.5149 16.648 29.0309 17.026 29.4269 17.53L27.8609 19.114C27.5849 18.79 27.2729 18.562 26.9249 18.43C26.5889 18.298 26.2589 18.232 25.9349 18.232C25.6229 18.232 25.3889 18.28 25.2329 18.376C25.0769 18.46 24.9989 18.586 24.9989 18.754C24.9989 18.934 25.1009 19.078 25.3049 19.186C25.5089 19.294 25.7729 19.39 26.0969 19.474C26.4209 19.558 26.7629 19.66 27.1229 19.78C27.4829 19.9 27.8249 20.062 28.1489 20.266C28.4729 20.47 28.7369 20.746 28.9409 21.094C29.1449 21.43 29.2469 21.874 29.2469 22.426C29.2469 23.278 28.9229 23.956 28.2749 24.46C27.6389 24.964 26.7749 25.216 25.6829 25.216ZM31.983 25V12.634H34.737V25H31.983ZM30.003 18.592V16.252H36.717V18.592H30.003ZM41.9667 25.198C41.0667 25.198 40.2507 25 39.5187 24.604C38.7987 24.196 38.2287 23.644 37.8087 22.948C37.3887 22.252 37.1787 21.472 37.1787 20.608C37.1787 19.744 37.3887 18.97 37.8087 18.286C38.2287 17.602 38.7987 17.062 39.5187 16.666C40.2387 16.258 41.0547 16.054 41.9667 16.054C42.8787 16.054 43.6947 16.252 44.4147 16.648C45.1347 17.044 45.7047 17.59 46.1247 18.286C46.5447 18.97 46.7547 19.744 46.7547 20.608C46.7547 21.472 46.5447 22.252 46.1247 22.948C45.7047 23.644 45.1347 24.196 44.4147 24.604C43.6947 25 42.8787 25.198 41.9667 25.198ZM41.9667 22.696C42.3627 22.696 42.7107 22.612 43.0107 22.444C43.3107 22.264 43.5387 22.018 43.6947 21.706C43.8627 21.382 43.9467 21.016 43.9467 20.608C43.9467 20.2 43.8627 19.846 43.6947 19.546C43.5267 19.234 43.2927 18.994 42.9927 18.826C42.7047 18.646 42.3627 18.556 41.9667 18.556C41.5827 18.556 41.2407 18.646 40.9407 18.826C40.6407 18.994 40.4067 19.234 40.2387 19.546C40.0707 19.858 39.9867 20.218 39.9867 20.626C39.9867 21.022 40.0707 21.382 40.2387 21.706C40.4067 22.018 40.6407 22.264 40.9407 22.444C41.2407 22.612 41.5827 22.696 41.9667 22.696ZM48.1258 25V16.252H50.8798V25H48.1258ZM50.8798 20.194L49.7278 19.294C49.9558 18.274 50.3398 17.482 50.8798 16.918C51.4198 16.354 52.1698 16.072 53.1298 16.072C53.5498 16.072 53.9158 16.138 54.2278 16.27C54.5518 16.39 54.8338 16.582 55.0738 16.846L53.4358 18.916C53.3158 18.784 53.1658 18.682 52.9858 18.61C52.8058 18.538 52.6018 18.502 52.3738 18.502C51.9178 18.502 51.5518 18.646 51.2758 18.934C51.0118 19.21 50.8798 19.63 50.8798 20.194ZM55.8074 25V16.252H58.5614V25H55.8074ZM57.1934 15.046C56.7614 15.046 56.4014 14.902 56.1134 14.614C55.8374 14.314 55.6994 13.954 55.6994 13.534C55.6994 13.102 55.8374 12.742 56.1134 12.454C56.4014 12.166 56.7614 12.022 57.1934 12.022C57.6254 12.022 57.9794 12.166 58.2554 12.454C58.5314 12.742 58.6694 13.102 58.6694 13.534C58.6694 13.954 58.5314 14.314 58.2554 14.614C57.9794 14.902 57.6254 15.046 57.1934 15.046ZM64.1548 25.18C63.3508 25.18 62.6308 24.982 61.9948 24.586C61.3708 24.19 60.8728 23.65 60.5008 22.966C60.1408 22.282 59.9608 21.502 59.9608 20.626C59.9608 19.75 60.1408 18.97 60.5008 18.286C60.8728 17.602 61.3708 17.062 61.9948 16.666C62.6308 16.27 63.3508 16.072 64.1548 16.072C64.7428 16.072 65.2708 16.186 65.7388 16.414C66.2188 16.642 66.6088 16.96 66.9088 17.368C67.2088 17.764 67.3768 18.22 67.4128 18.736V22.516C67.3768 23.032 67.2088 23.494 66.9088 23.902C66.6208 24.298 66.2368 24.61 65.7568 24.838C65.2768 25.066 64.7428 25.18 64.1548 25.18ZM64.7128 22.696C65.3008 22.696 65.7748 22.504 66.1348 22.12C66.4948 21.724 66.6748 21.226 66.6748 20.626C66.6748 20.218 66.5908 19.858 66.4228 19.546C66.2668 19.234 66.0388 18.994 65.7388 18.826C65.4508 18.646 65.1148 18.556 64.7308 18.556C64.3468 18.556 64.0048 18.646 63.7048 18.826C63.4168 18.994 63.1828 19.234 63.0028 19.546C62.8348 19.858 62.7508 20.218 62.7508 20.626C62.7508 21.022 62.8348 21.376 63.0028 21.688C63.1708 22 63.4048 22.246 63.7048 22.426C64.0048 22.606 64.3408 22.696 64.7128 22.696ZM66.5668 25V22.642L66.9808 20.518L66.5668 18.394V16.252H69.2668V25H66.5668ZM71.2059 25V11.932H73.9599V25H71.2059ZM81.487 25V22.516H84.637C85.405 22.516 86.077 22.366 86.653 22.066C87.229 21.754 87.673 21.304 87.985 20.716C88.297 20.128 88.453 19.432 88.453 18.628C88.453 17.824 88.291 17.134 87.967 16.558C87.655 15.982 87.211 15.538 86.635 15.226C86.071 14.914 85.405 14.758 84.637 14.758H81.397V12.292H84.673C85.633 12.292 86.515 12.448 87.319 12.76C88.135 13.06 88.843 13.498 89.443 14.074C90.055 14.638 90.523 15.31 90.847 16.09C91.183 16.858 91.351 17.71 91.351 18.646C91.351 19.57 91.183 20.422 90.847 21.202C90.523 21.982 90.061 22.654 89.461 23.218C88.861 23.782 88.153 24.22 87.337 24.532C86.533 24.844 85.657 25 84.709 25H81.487ZM79.579 25V12.292H82.405V25H79.579ZM97.2173 25.198C96.2693 25.198 95.4233 25.006 94.6793 24.622C93.9473 24.226 93.3713 23.68 92.9513 22.984C92.5313 22.288 92.3213 21.502 92.3213 20.626C92.3213 19.75 92.5253 18.97 92.9333 18.286C93.3533 17.59 93.9173 17.044 94.6253 16.648C95.3333 16.252 96.1313 16.054 97.0193 16.054C97.8833 16.054 98.6453 16.24 99.3053 16.612C99.9653 16.984 100.481 17.5 100.853 18.16C101.237 18.82 101.429 19.576 101.429 20.428C101.429 20.584 101.417 20.752 101.393 20.932C101.381 21.1 101.351 21.298 101.303 21.526L93.7613 21.544V19.654L100.133 19.636L98.9453 20.428C98.9333 19.924 98.8553 19.51 98.7113 19.186C98.5673 18.85 98.3513 18.598 98.0633 18.43C97.7873 18.25 97.4453 18.16 97.0373 18.16C96.6053 18.16 96.2273 18.262 95.9033 18.466C95.5913 18.658 95.3453 18.934 95.1653 19.294C94.9973 19.654 94.9133 20.092 94.9133 20.608C94.9133 21.124 95.0033 21.568 95.1833 21.94C95.3753 22.3 95.6393 22.582 95.9753 22.786C96.3233 22.978 96.7313 23.074 97.1993 23.074C97.6313 23.074 98.0213 23.002 98.3693 22.858C98.7173 22.702 99.0233 22.474 99.2873 22.174L100.799 23.686C100.367 24.19 99.8453 24.568 99.2333 24.82C98.6213 25.072 97.9493 25.198 97.2173 25.198ZM108.598 20.374V18.178H111.334C111.682 18.178 112 18.106 112.288 17.962C112.576 17.818 112.804 17.608 112.972 17.332C113.14 17.056 113.224 16.72 113.224 16.324C113.224 15.94 113.14 15.61 112.972 15.334C112.804 15.058 112.576 14.848 112.288 14.704C112 14.56 111.682 14.488 111.334 14.488H108.598V12.292H111.748C112.552 12.292 113.278 12.454 113.926 12.778C114.574 13.102 115.084 13.57 115.456 14.182C115.84 14.782 116.032 15.496 116.032 16.324C116.032 17.152 115.84 17.872 115.456 18.484C115.084 19.084 114.574 19.552 113.926 19.888C113.278 20.212 112.552 20.374 111.748 20.374H108.598ZM106.438 25V12.292H109.264V25H106.438ZM121.377 25.198C120.573 25.198 119.859 25.036 119.235 24.712C118.623 24.376 118.143 23.92 117.795 23.344C117.447 22.756 117.273 22.084 117.273 21.328V16.252H120.027V21.292C120.027 21.592 120.075 21.85 120.171 22.066C120.279 22.282 120.435 22.45 120.639 22.57C120.843 22.69 121.089 22.75 121.377 22.75C121.785 22.75 122.109 22.624 122.349 22.372C122.589 22.108 122.709 21.748 122.709 21.292V16.252H125.463V21.31C125.463 22.078 125.289 22.756 124.941 23.344C124.593 23.92 124.113 24.376 123.501 24.712C122.889 25.036 122.181 25.198 121.377 25.198ZM132.97 25V20.014C132.97 19.558 132.826 19.192 132.538 18.916C132.262 18.628 131.908 18.484 131.476 18.484C131.176 18.484 130.912 18.55 130.684 18.682C130.456 18.802 130.276 18.982 130.144 19.222C130.012 19.45 129.946 19.714 129.946 20.014L128.884 19.492C128.884 18.808 129.034 18.208 129.334 17.692C129.634 17.176 130.048 16.78 130.576 16.504C131.116 16.216 131.722 16.072 132.394 16.072C133.042 16.072 133.612 16.228 134.104 16.54C134.608 16.84 135.004 17.242 135.292 17.746C135.58 18.25 135.724 18.802 135.724 19.402V25H132.97ZM127.192 25V16.252H129.946V25H127.192ZM138.63 25V12.634H141.384V25H138.63ZM136.65 18.592V16.252H143.364V18.592H136.65ZM148.055 25.18C147.251 25.18 146.531 24.982 145.895 24.586C145.271 24.19 144.773 23.65 144.401 22.966C144.041 22.282 143.861 21.502 143.861 20.626C143.861 19.75 144.041 18.97 144.401 18.286C144.773 17.602 145.271 17.062 145.895 16.666C146.531 16.27 147.251 16.072 148.055 16.072C148.643 16.072 149.171 16.186 149.639 16.414C150.119 16.642 150.509 16.96 150.809 17.368C151.109 17.764 151.277 18.22 151.313 18.736V22.516C151.277 23.032 151.109 23.494 150.809 23.902C150.521 24.298 150.137 24.61 149.657 24.838C149.177 25.066 148.643 25.18 148.055 25.18ZM148.613 22.696C149.201 22.696 149.675 22.504 150.035 22.12C150.395 21.724 150.575 21.226 150.575 20.626C150.575 20.218 150.491 19.858 150.323 19.546C150.167 19.234 149.939 18.994 149.639 18.826C149.351 18.646 149.015 18.556 148.631 18.556C148.247 18.556 147.905 18.646 147.605 18.826C147.317 18.994 147.083 19.234 146.903 19.546C146.735 19.858 146.651 20.218 146.651 20.626C146.651 21.022 146.735 21.376 146.903 21.688C147.071 22 147.305 22.246 147.605 22.426C147.905 22.606 148.241 22.696 148.613 22.696ZM150.467 25V22.642L150.881 20.518L150.467 18.394V16.252H153.167V25H150.467ZM154.602 28.924C153.966 28.924 153.426 28.816 152.982 28.6C152.538 28.396 152.148 28.102 151.812 27.718L153.522 26.008C153.654 26.164 153.792 26.272 153.936 26.332C154.068 26.404 154.224 26.44 154.404 26.44C154.668 26.44 154.884 26.362 155.052 26.206C155.232 26.05 155.322 25.81 155.322 25.486V16.252H158.076V25.45C158.076 26.158 157.926 26.77 157.626 27.286C157.326 27.802 156.912 28.204 156.384 28.492C155.868 28.78 155.274 28.924 154.602 28.924ZM156.726 15.046C156.294 15.046 155.934 14.902 155.646 14.614C155.37 14.314 155.232 13.954 155.232 13.534C155.232 13.102 155.37 12.742 155.646 12.454C155.934 12.166 156.294 12.022 156.726 12.022C157.158 12.022 157.512 12.166 157.788 12.454C158.064 12.742 158.202 13.102 158.202 13.534C158.202 13.954 158.064 14.314 157.788 14.614C157.512 14.902 157.158 15.046 156.726 15.046ZM164.348 25.198C163.4 25.198 162.554 25.006 161.81 24.622C161.078 24.226 160.502 23.68 160.082 22.984C159.662 22.288 159.452 21.502 159.452 20.626C159.452 19.75 159.656 18.97 160.064 18.286C160.484 17.59 161.048 17.044 161.756 16.648C162.464 16.252 163.262 16.054 164.15 16.054C165.014 16.054 165.776 16.24 166.436 16.612C167.096 16.984 167.612 17.5 167.984 18.16C168.368 18.82 168.56 19.576 168.56 20.428C168.56 20.584 168.548 20.752 168.524 20.932C168.512 21.1 168.482 21.298 168.434 21.526L160.892 21.544V19.654L167.264 19.636L166.076 20.428C166.064 19.924 165.986 19.51 165.842 19.186C165.698 18.85 165.482 18.598 165.194 18.43C164.918 18.25 164.576 18.16 164.168 18.16C163.736 18.16 163.358 18.262 163.034 18.466C162.722 18.658 162.476 18.934 162.296 19.294C162.128 19.654 162.044 20.092 162.044 20.608C162.044 21.124 162.134 21.568 162.314 21.94C162.506 22.3 162.77 22.582 163.106 22.786C163.454 22.978 163.862 23.074 164.33 23.074C164.762 23.074 165.152 23.002 165.5 22.858C165.848 22.702 166.154 22.474 166.418 22.174L167.93 23.686C167.498 24.19 166.976 24.568 166.364 24.82C165.752 25.072 165.08 25.198 164.348 25.198ZM173.075 25.216C172.559 25.216 172.049 25.15 171.545 25.018C171.053 24.886 170.591 24.7 170.159 24.46C169.739 24.208 169.379 23.92 169.079 23.596L170.645 22.012C170.933 22.324 171.275 22.57 171.671 22.75C172.067 22.918 172.499 23.002 172.967 23.002C173.291 23.002 173.537 22.954 173.705 22.858C173.885 22.762 173.975 22.63 173.975 22.462C173.975 22.246 173.867 22.084 173.651 21.976C173.447 21.856 173.183 21.754 172.859 21.67C172.535 21.574 172.193 21.472 171.833 21.364C171.473 21.256 171.131 21.106 170.807 20.914C170.483 20.722 170.219 20.458 170.015 20.122C169.811 19.774 169.709 19.336 169.709 18.808C169.709 18.244 169.853 17.758 170.141 17.35C170.429 16.93 170.837 16.6 171.365 16.36C171.893 16.12 172.511 16 173.219 16C173.963 16 174.647 16.132 175.271 16.396C175.907 16.648 176.423 17.026 176.819 17.53L175.253 19.114C174.977 18.79 174.665 18.562 174.317 18.43C173.981 18.298 173.651 18.232 173.327 18.232C173.015 18.232 172.781 18.28 172.625 18.376C172.469 18.46 172.391 18.586 172.391 18.754C172.391 18.934 172.493 19.078 172.697 19.186C172.901 19.294 173.165 19.39 173.489 19.474C173.813 19.558 174.155 19.66 174.515 19.78C174.875 19.9 175.217 20.062 175.541 20.266C175.865 20.47 176.129 20.746 176.333 21.094C176.537 21.43 176.639 21.874 176.639 22.426C176.639 23.278 176.315 23.956 175.667 24.46C175.031 24.964 174.167 25.216 173.075 25.216Z"/>
</mask>
<path d="M4.90711 25V12.292H7.73311V25H4.90711ZM12.7731 25V12.292H15.6171V25H12.7731ZM6.59911 19.69V17.242H13.7091V19.69H6.59911ZM17.8035 25V16.252H20.5575V25H17.8035ZM19.1895 15.046C18.7575 15.046 18.3975 14.902 18.1095 14.614C17.8335 14.314 17.6955 13.954 17.6955 13.534C17.6955 13.102 17.8335 12.742 18.1095 12.454C18.3975 12.166 18.7575 12.022 19.1895 12.022C19.6215 12.022 19.9755 12.166 20.2515 12.454C20.5275 12.742 20.6655 13.102 20.6655 13.534C20.6655 13.954 20.5275 14.314 20.2515 14.614C19.9755 14.902 19.6215 15.046 19.1895 15.046ZM25.6829 25.216C25.1669 25.216 24.6569 25.15 24.1529 25.018C23.6609 24.886 23.1989 24.7 22.7669 24.46C22.3469 24.208 21.9869 23.92 21.6869 23.596L23.2529 22.012C23.5409 22.324 23.8829 22.57 24.2789 22.75C24.6749 22.918 25.1069 23.002 25.5749 23.002C25.8989 23.002 26.1449 22.954 26.3129 22.858C26.4929 22.762 26.5829 22.63 26.5829 22.462C26.5829 22.246 26.4749 22.084 26.2589 21.976C26.0549 21.856 25.7909 21.754 25.4669 21.67C25.1429 21.574 24.8009 21.472 24.4409 21.364C24.0809 21.256 23.7389 21.106 23.4149 20.914C23.0909 20.722 22.8269 20.458 22.6229 20.122C22.4189 19.774 22.3169 19.336 22.3169 18.808C22.3169 18.244 22.4609 17.758 22.7489 17.35C23.0369 16.93 23.4449 16.6 23.9729 16.36C24.5009 16.12 25.1189 16 25.8269 16C26.5709 16 27.2549 16.132 27.8789 16.396C28.5149 16.648 29.0309 17.026 29.4269 17.53L27.8609 19.114C27.5849 18.79 27.2729 18.562 26.9249 18.43C26.5889 18.298 26.2589 18.232 25.9349 18.232C25.6229 18.232 25.3889 18.28 25.2329 18.376C25.0769 18.46 24.9989 18.586 24.9989 18.754C24.9989 18.934 25.1009 19.078 25.3049 19.186C25.5089 19.294 25.7729 19.39 26.0969 19.474C26.4209 19.558 26.7629 19.66 27.1229 19.78C27.4829 19.9 27.8249 20.062 28.1489 20.266C28.4729 20.47 28.7369 20.746 28.9409 21.094C29.1449 21.43 29.2469 21.874 29.2469 22.426C29.2469 23.278 28.9229 23.956 28.2749 24.46C27.6389 24.964 26.7749 25.216 25.6829 25.216ZM31.983 25V12.634H34.737V25H31.983ZM30.003 18.592V16.252H36.717V18.592H30.003ZM41.9667 25.198C41.0667 25.198 40.2507 25 39.5187 24.604C38.7987 24.196 38.2287 23.644 37.8087 22.948C37.3887 22.252 37.1787 21.472 37.1787 20.608C37.1787 19.744 37.3887 18.97 37.8087 18.286C38.2287 17.602 38.7987 17.062 39.5187 16.666C40.2387 16.258 41.0547 16.054 41.9667 16.054C42.8787 16.054 43.6947 16.252 44.4147 16.648C45.1347 17.044 45.7047 17.59 46.1247 18.286C46.5447 18.97 46.7547 19.744 46.7547 20.608C46.7547 21.472 46.5447 22.252 46.1247 22.948C45.7047 23.644 45.1347 24.196 44.4147 24.604C43.6947 25 42.8787 25.198 41.9667 25.198ZM41.9667 22.696C42.3627 22.696 42.7107 22.612 43.0107 22.444C43.3107 22.264 43.5387 22.018 43.6947 21.706C43.8627 21.382 43.9467 21.016 43.9467 20.608C43.9467 20.2 43.8627 19.846 43.6947 19.546C43.5267 19.234 43.2927 18.994 42.9927 18.826C42.7047 18.646 42.3627 18.556 41.9667 18.556C41.5827 18.556 41.2407 18.646 40.9407 18.826C40.6407 18.994 40.4067 19.234 40.2387 19.546C40.0707 19.858 39.9867 20.218 39.9867 20.626C39.9867 21.022 40.0707 21.382 40.2387 21.706C40.4067 22.018 40.6407 22.264 40.9407 22.444C41.2407 22.612 41.5827 22.696 41.9667 22.696ZM48.1258 25V16.252H50.8798V25H48.1258ZM50.8798 20.194L49.7278 19.294C49.9558 18.274 50.3398 17.482 50.8798 16.918C51.4198 16.354 52.1698 16.072 53.1298 16.072C53.5498 16.072 53.9158 16.138 54.2278 16.27C54.5518 16.39 54.8338 16.582 55.0738 16.846L53.4358 18.916C53.3158 18.784 53.1658 18.682 52.9858 18.61C52.8058 18.538 52.6018 18.502 52.3738 18.502C51.9178 18.502 51.5518 18.646 51.2758 18.934C51.0118 19.21 50.8798 19.63 50.8798 20.194ZM55.8074 25V16.252H58.5614V25H55.8074ZM57.1934 15.046C56.7614 15.046 56.4014 14.902 56.1134 14.614C55.8374 14.314 55.6994 13.954 55.6994 13.534C55.6994 13.102 55.8374 12.742 56.1134 12.454C56.4014 12.166 56.7614 12.022 57.1934 12.022C57.6254 12.022 57.9794 12.166 58.2554 12.454C58.5314 12.742 58.6694 13.102 58.6694 13.534C58.6694 13.954 58.5314 14.314 58.2554 14.614C57.9794 14.902 57.6254 15.046 57.1934 15.046ZM64.1548 25.18C63.3508 25.18 62.6308 24.982 61.9948 24.586C61.3708 24.19 60.8728 23.65 60.5008 22.966C60.1408 22.282 59.9608 21.502 59.9608 20.626C59.9608 19.75 60.1408 18.97 60.5008 18.286C60.8728 17.602 61.3708 17.062 61.9948 16.666C62.6308 16.27 63.3508 16.072 64.1548 16.072C64.7428 16.072 65.2708 16.186 65.7388 16.414C66.2188 16.642 66.6088 16.96 66.9088 17.368C67.2088 17.764 67.3768 18.22 67.4128 18.736V22.516C67.3768 23.032 67.2088 23.494 66.9088 23.902C66.6208 24.298 66.2368 24.61 65.7568 24.838C65.2768 25.066 64.7428 25.18 64.1548 25.18ZM64.7128 22.696C65.3008 22.696 65.7748 22.504 66.1348 22.12C66.4948 21.724 66.6748 21.226 66.6748 20.626C66.6748 20.218 66.5908 19.858 66.4228 19.546C66.2668 19.234 66.0388 18.994 65.7388 18.826C65.4508 18.646 65.1148 18.556 64.7308 18.556C64.3468 18.556 64.0048 18.646 63.7048 18.826C63.4168 18.994 63.1828 19.234 63.0028 19.546C62.8348 19.858 62.7508 20.218 62.7508 20.626C62.7508 21.022 62.8348 21.376 63.0028 21.688C63.1708 22 63.4048 22.246 63.7048 22.426C64.0048 22.606 64.3408 22.696 64.7128 22.696ZM66.5668 25V22.642L66.9808 20.518L66.5668 18.394V16.252H69.2668V25H66.5668ZM71.2059 25V11.932H73.9599V25H71.2059ZM81.487 25V22.516H84.637C85.405 22.516 86.077 22.366 86.653 22.066C87.229 21.754 87.673 21.304 87.985 20.716C88.297 20.128 88.453 19.432 88.453 18.628C88.453 17.824 88.291 17.134 87.967 16.558C87.655 15.982 87.211 15.538 86.635 15.226C86.071 14.914 85.405 14.758 84.637 14.758H81.397V12.292H84.673C85.633 12.292 86.515 12.448 87.319 12.76C88.135 13.06 88.843 13.498 89.443 14.074C90.055 14.638 90.523 15.31 90.847 16.09C91.183 16.858 91.351 17.71 91.351 18.646C91.351 19.57 91.183 20.422 90.847 21.202C90.523 21.982 90.061 22.654 89.461 23.218C88.861 23.782 88.153 24.22 87.337 24.532C86.533 24.844 85.657 25 84.709 25H81.487ZM79.579 25V12.292H82.405V25H79.579ZM97.2173 25.198C96.2693 25.198 95.4233 25.006 94.6793 24.622C93.9473 24.226 93.3713 23.68 92.9513 22.984C92.5313 22.288 92.3213 21.502 92.3213 20.626C92.3213 19.75 92.5253 18.97 92.9333 18.286C93.3533 17.59 93.9173 17.044 94.6253 16.648C95.3333 16.252 96.1313 16.054 97.0193 16.054C97.8833 16.054 98.6453 16.24 99.3053 16.612C99.9653 16.984 100.481 17.5 100.853 18.16C101.237 18.82 101.429 19.576 101.429 20.428C101.429 20.584 101.417 20.752 101.393 20.932C101.381 21.1 101.351 21.298 101.303 21.526L93.7613 21.544V19.654L100.133 19.636L98.9453 20.428C98.9333 19.924 98.8553 19.51 98.7113 19.186C98.5673 18.85 98.3513 18.598 98.0633 18.43C97.7873 18.25 97.4453 18.16 97.0373 18.16C96.6053 18.16 96.2273 18.262 95.9033 18.466C95.5913 18.658 95.3453 18.934 95.1653 19.294C94.9973 19.654 94.9133 20.092 94.9133 20.608C94.9133 21.124 95.0033 21.568 95.1833 21.94C95.3753 22.3 95.6393 22.582 95.9753 22.786C96.3233 22.978 96.7313 23.074 97.1993 23.074C97.6313 23.074 98.0213 23.002 98.3693 22.858C98.7173 22.702 99.0233 22.474 99.2873 22.174L100.799 23.686C100.367 24.19 99.8453 24.568 99.2333 24.82C98.6213 25.072 97.9493 25.198 97.2173 25.198ZM108.598 20.374V18.178H111.334C111.682 18.178 112 18.106 112.288 17.962C112.576 17.818 112.804 17.608 112.972 17.332C113.14 17.056 113.224 16.72 113.224 16.324C113.224 15.94 113.14 15.61 112.972 15.334C112.804 15.058 112.576 14.848 112.288 14.704C112 14.56 111.682 14.488 111.334 14.488H108.598V12.292H111.748C112.552 12.292 113.278 12.454 113.926 12.778C114.574 13.102 115.084 13.57 115.456 14.182C115.84 14.782 116.032 15.496 116.032 16.324C116.032 17.152 115.84 17.872 115.456 18.484C115.084 19.084 114.574 19.552 113.926 19.888C113.278 20.212 112.552 20.374 111.748 20.374H108.598ZM106.438 25V12.292H109.264V25H106.438ZM121.377 25.198C120.573 25.198 119.859 25.036 119.235 24.712C118.623 24.376 118.143 23.92 117.795 23.344C117.447 22.756 117.273 22.084 117.273 21.328V16.252H120.027V21.292C120.027 21.592 120.075 21.85 120.171 22.066C120.279 22.282 120.435 22.45 120.639 22.57C120.843 22.69 121.089 22.75 121.377 22.75C121.785 22.75 122.109 22.624 122.349 22.372C122.589 22.108 122.709 21.748 122.709 21.292V16.252H125.463V21.31C125.463 22.078 125.289 22.756 124.941 23.344C124.593 23.92 124.113 24.376 123.501 24.712C122.889 25.036 122.181 25.198 121.377 25.198ZM132.97 25V20.014C132.97 19.558 132.826 19.192 132.538 18.916C132.262 18.628 131.908 18.484 131.476 18.484C131.176 18.484 130.912 18.55 130.684 18.682C130.456 18.802 130.276 18.982 130.144 19.222C130.012 19.45 129.946 19.714 129.946 20.014L128.884 19.492C128.884 18.808 129.034 18.208 129.334 17.692C129.634 17.176 130.048 16.78 130.576 16.504C131.116 16.216 131.722 16.072 132.394 16.072C133.042 16.072 133.612 16.228 134.104 16.54C134.608 16.84 135.004 17.242 135.292 17.746C135.58 18.25 135.724 18.802 135.724 19.402V25H132.97ZM127.192 25V16.252H129.946V25H127.192ZM138.63 25V12.634H141.384V25H138.63ZM136.65 18.592V16.252H143.364V18.592H136.65ZM148.055 25.18C147.251 25.18 146.531 24.982 145.895 24.586C145.271 24.19 144.773 23.65 144.401 22.966C144.041 22.282 143.861 21.502 143.861 20.626C143.861 19.75 144.041 18.97 144.401 18.286C144.773 17.602 145.271 17.062 145.895 16.666C146.531 16.27 147.251 16.072 148.055 16.072C148.643 16.072 149.171 16.186 149.639 16.414C150.119 16.642 150.509 16.96 150.809 17.368C151.109 17.764 151.277 18.22 151.313 18.736V22.516C151.277 23.032 151.109 23.494 150.809 23.902C150.521 24.298 150.137 24.61 149.657 24.838C149.177 25.066 148.643 25.18 148.055 25.18ZM148.613 22.696C149.201 22.696 149.675 22.504 150.035 22.12C150.395 21.724 150.575 21.226 150.575 20.626C150.575 20.218 150.491 19.858 150.323 19.546C150.167 19.234 149.939 18.994 149.639 18.826C149.351 18.646 149.015 18.556 148.631 18.556C148.247 18.556 147.905 18.646 147.605 18.826C147.317 18.994 147.083 19.234 146.903 19.546C146.735 19.858 146.651 20.218 146.651 20.626C146.651 21.022 146.735 21.376 146.903 21.688C147.071 22 147.305 22.246 147.605 22.426C147.905 22.606 148.241 22.696 148.613 22.696ZM150.467 25V22.642L150.881 20.518L150.467 18.394V16.252H153.167V25H150.467ZM154.602 28.924C153.966 28.924 153.426 28.816 152.982 28.6C152.538 28.396 152.148 28.102 151.812 27.718L153.522 26.008C153.654 26.164 153.792 26.272 153.936 26.332C154.068 26.404 154.224 26.44 154.404 26.44C154.668 26.44 154.884 26.362 155.052 26.206C155.232 26.05 155.322 25.81 155.322 25.486V16.252H158.076V25.45C158.076 26.158 157.926 26.77 157.626 27.286C157.326 27.802 156.912 28.204 156.384 28.492C155.868 28.78 155.274 28.924 154.602 28.924ZM156.726 15.046C156.294 15.046 155.934 14.902 155.646 14.614C155.37 14.314 155.232 13.954 155.232 13.534C155.232 13.102 155.37 12.742 155.646 12.454C155.934 12.166 156.294 12.022 156.726 12.022C157.158 12.022 157.512 12.166 157.788 12.454C158.064 12.742 158.202 13.102 158.202 13.534C158.202 13.954 158.064 14.314 157.788 14.614C157.512 14.902 157.158 15.046 156.726 15.046ZM164.348 25.198C163.4 25.198 162.554 25.006 161.81 24.622C161.078 24.226 160.502 23.68 160.082 22.984C159.662 22.288 159.452 21.502 159.452 20.626C159.452 19.75 159.656 18.97 160.064 18.286C160.484 17.59 161.048 17.044 161.756 16.648C162.464 16.252 163.262 16.054 164.15 16.054C165.014 16.054 165.776 16.24 166.436 16.612C167.096 16.984 167.612 17.5 167.984 18.16C168.368 18.82 168.56 19.576 168.56 20.428C168.56 20.584 168.548 20.752 168.524 20.932C168.512 21.1 168.482 21.298 168.434 21.526L160.892 21.544V19.654L167.264 19.636L166.076 20.428C166.064 19.924 165.986 19.51 165.842 19.186C165.698 18.85 165.482 18.598 165.194 18.43C164.918 18.25 164.576 18.16 164.168 18.16C163.736 18.16 163.358 18.262 163.034 18.466C162.722 18.658 162.476 18.934 162.296 19.294C162.128 19.654 162.044 20.092 162.044 20.608C162.044 21.124 162.134 21.568 162.314 21.94C162.506 22.3 162.77 22.582 163.106 22.786C163.454 22.978 163.862 23.074 164.33 23.074C164.762 23.074 165.152 23.002 165.5 22.858C165.848 22.702 166.154 22.474 166.418 22.174L167.93 23.686C167.498 24.19 166.976 24.568 166.364 24.82C165.752 25.072 165.08 25.198 164.348 25.198ZM173.075 25.216C172.559 25.216 172.049 25.15 171.545 25.018C171.053 24.886 170.591 24.7 170.159 24.46C169.739 24.208 169.379 23.92 169.079 23.596L170.645 22.012C170.933 22.324 171.275 22.57 171.671 22.75C172.067 22.918 172.499 23.002 172.967 23.002C173.291 23.002 173.537 22.954 173.705 22.858C173.885 22.762 173.975 22.63 173.975 22.462C173.975 22.246 173.867 22.084 173.651 21.976C173.447 21.856 173.183 21.754 172.859 21.67C172.535 21.574 172.193 21.472 171.833 21.364C171.473 21.256 171.131 21.106 170.807 20.914C170.483 20.722 170.219 20.458 170.015 20.122C169.811 19.774 169.709 19.336 169.709 18.808C169.709 18.244 169.853 17.758 170.141 17.35C170.429 16.93 170.837 16.6 171.365 16.36C171.893 16.12 172.511 16 173.219 16C173.963 16 174.647 16.132 175.271 16.396C175.907 16.648 176.423 17.026 176.819 17.53L175.253 19.114C174.977 18.79 174.665 18.562 174.317 18.43C173.981 18.298 173.651 18.232 173.327 18.232C173.015 18.232 172.781 18.28 172.625 18.376C172.469 18.46 172.391 18.586 172.391 18.754C172.391 18.934 172.493 19.078 172.697 19.186C172.901 19.294 173.165 19.39 173.489 19.474C173.813 19.558 174.155 19.66 174.515 19.78C174.875 19.9 175.217 20.062 175.541 20.266C175.865 20.47 176.129 20.746 176.333 21.094C176.537 21.43 176.639 21.874 176.639 22.426C176.639 23.278 176.315 23.956 175.667 24.46C175.031 24.964 174.167 25.216 173.075 25.216Z" fill="#FDFDFD"/>
<path d="M4.90711 25H1.90711V28H4.90711V25ZM4.90711 12.292V9.292H1.90711V12.292H4.90711ZM7.73311 12.292H10.7331V9.292H7.73311V12.292ZM7.73311 25V28H10.7331V25H7.73311ZM12.7731 25H9.77311V28H12.7731V25ZM12.7731 12.292V9.292H9.77311V12.292H12.7731ZM15.6171 12.292H18.6171V9.292H15.6171V12.292ZM15.6171 25V28H18.6171V25H15.6171ZM6.59911 19.69H3.59911V22.69H6.59911V19.69ZM6.59911 17.242V14.242H3.59911V17.242H6.59911ZM13.7091 17.242H16.7091V14.242H13.7091V17.242ZM13.7091 19.69V22.69H16.7091V19.69H13.7091ZM7.90711 25V12.292H1.90711V25H7.90711ZM4.90711 15.292H7.73311V9.292H4.90711V15.292ZM4.73311 12.292V25H10.7331V12.292H4.73311ZM7.73311 22H4.90711V28H7.73311V22ZM15.7731 25V12.292H9.77311V25H15.7731ZM12.7731 15.292H15.6171V9.292H12.7731V15.292ZM12.6171 12.292V25H18.6171V12.292H12.6171ZM15.6171 22H12.7731V28H15.6171V22ZM9.59911 19.69V17.242H3.59911V19.69H9.59911ZM6.59911 20.242H13.7091V14.242H6.59911V20.242ZM10.7091 17.242V19.69H16.7091V17.242H10.7091ZM13.7091 16.69H6.59911V22.69H13.7091V16.69ZM17.8035 25H14.8035V28H17.8035V25ZM17.8035 16.252V13.252H14.8035V16.252H17.8035ZM20.5575 16.252H23.5575V13.252H20.5575V16.252ZM20.5575 25V28H23.5575V25H20.5575ZM18.1095 14.614L15.9017 16.6452L15.944 16.6911L15.9882 16.7353L18.1095 14.614ZM18.1095 12.454L15.9882 10.3327L15.9657 10.3552L15.9436 10.3783L18.1095 12.454ZM20.2515 14.614L22.4175 16.6897L22.4386 16.6677L22.4593 16.6452L20.2515 14.614ZM20.8035 25V16.252H14.8035V25H20.8035ZM17.8035 19.252H20.5575V13.252H17.8035V19.252ZM17.5575 16.252V25H23.5575V16.252H17.5575ZM20.5575 22H17.8035V28H20.5575V22ZM19.1895 12.046C19.3117 12.046 19.4971 12.0675 19.7097 12.1526C19.9258 12.239 20.1023 12.3642 20.2309 12.4927L15.9882 16.7353C16.8756 17.6227 18.0155 18.046 19.1895 18.046V12.046ZM20.3173 12.5828C20.4209 12.6954 20.526 12.8515 20.6003 13.0452C20.674 13.2374 20.6955 13.4098 20.6955 13.534H14.6955C14.6955 14.6813 15.0995 15.7732 15.9017 16.6452L20.3173 12.5828ZM20.6955 13.534C20.6955 13.6411 20.6776 13.8122 20.6003 14.0138C20.5214 14.2197 20.4041 14.3956 20.2755 14.5297L15.9436 10.3783C15.0856 11.2736 14.6955 12.3988 14.6955 13.534H20.6955ZM20.2309 14.5753C20.1023 14.7038 19.9258 14.829 19.7097 14.9154C19.4971 15.0005 19.3117 15.022 19.1895 15.022V9.022C18.0155 9.022 16.8756 9.44529 15.9882 10.3327L20.2309 14.5753ZM19.1895 15.022C19.0683 15.022 18.8744 15.0007 18.6486 14.9089C18.4177 14.815 18.2264 14.6767 18.0856 14.5297L22.4175 10.3783C21.5255 9.44754 20.3639 9.022 19.1895 9.022V15.022ZM18.0856 14.5297C17.957 14.3956 17.8397 14.2197 17.7608 14.0138C17.6835 13.8122 17.6655 13.6411 17.6655 13.534H23.6655C23.6655 12.3988 23.2755 11.2736 22.4175 10.3783L18.0856 14.5297ZM17.6655 13.534C17.6655 13.4098 17.6871 13.2374 17.7608 13.0452C17.8351 12.8515 17.9402 12.6954 18.0437 12.5828L22.4593 16.6452C23.2616 15.7732 23.6655 14.6813 23.6655 13.534H17.6655ZM18.0856 12.5383C18.2264 12.3913 18.4177 12.253 18.6486 12.1591C18.8744 12.0673 19.0683 12.046 19.1895 12.046V18.046C20.3639 18.046 21.5255 17.6205 22.4175 16.6897L18.0856 12.5383ZM24.1529 25.018L23.3755 27.9155L23.3842 27.9178L23.3928 27.9201L24.1529 25.018ZM22.7669 24.46L21.2234 27.0325L21.2663 27.0582L21.31 27.0825L22.7669 24.46ZM21.6869 23.596L19.5535 21.4868L17.5355 23.5281L19.4856 25.6342L21.6869 23.596ZM23.2529 22.012L25.4573 19.9772L23.3273 17.6696L21.1195 19.9028L23.2529 22.012ZM24.2789 22.75L23.0375 25.4811L23.0722 25.4969L23.1073 25.5117L24.2789 22.75ZM26.3129 22.858L24.9011 20.2109L24.8625 20.2315L24.8245 20.2533L26.3129 22.858ZM26.2589 21.976L24.7378 24.5618L24.8259 24.6136L24.9173 24.6593L26.2589 21.976ZM25.4669 21.67L24.6146 24.5464L24.6641 24.561L24.714 24.574L25.4669 21.67ZM23.4149 20.914L24.9443 18.3331L24.9443 18.3331L23.4149 20.914ZM22.6229 20.122L20.0348 21.6392L20.0465 21.6591L20.0585 21.6789L22.6229 20.122ZM22.7489 17.35L25.1998 19.0801L25.2116 19.0634L25.2231 19.0466L22.7489 17.35ZM23.9729 16.36L22.7315 13.6289L22.7315 13.6289L23.9729 16.36ZM27.8789 16.396L26.71 19.1589L26.7417 19.1723L26.7738 19.185L27.8789 16.396ZM29.4269 17.53L31.5603 19.6392L33.4208 17.7573L31.7859 15.6765L29.4269 17.53ZM27.8609 19.114L25.5772 21.0594L27.6965 23.5473L29.9943 21.2232L27.8609 19.114ZM26.9249 18.43L25.8279 21.2223L25.8444 21.2287L25.8609 21.235L26.9249 18.43ZM25.2329 18.376L26.6552 21.0174L26.7314 20.9764L26.8052 20.931L25.2329 18.376ZM26.0969 19.474L25.344 22.378L25.344 22.378L26.0969 19.474ZM27.1229 19.78L28.0716 16.934L28.0716 16.9339L27.1229 19.78ZM28.1489 20.266L29.7473 17.7273L29.7473 17.7273L28.1489 20.266ZM28.9409 21.094L26.3528 22.6112L26.3645 22.6311L26.3765 22.6509L28.9409 21.094ZM28.2749 24.46L26.4331 22.0919L26.4223 22.1003L26.4117 22.1088L28.2749 24.46ZM25.6829 22.216C25.4259 22.216 25.1713 22.1835 24.913 22.1159L23.3928 27.9201C24.1425 28.1165 24.9079 28.216 25.6829 28.216V22.216ZM24.9303 22.1205C24.6679 22.0501 24.4349 21.9548 24.2238 21.8375L21.31 27.0825C21.9629 27.4452 22.6539 27.7219 23.3755 27.9155L24.9303 22.1205ZM24.3104 21.8875C24.1076 21.7658 23.9755 21.6521 23.8882 21.5578L19.4856 25.6342C19.9983 26.1879 20.5862 26.6502 21.2234 27.0325L24.3104 21.8875ZM23.8203 25.7052L25.3863 24.1212L21.1195 19.9028L19.5535 21.4868L23.8203 25.7052ZM21.0485 24.0468C21.6146 24.6601 22.2864 25.1397 23.0375 25.4811L25.5203 20.0189C25.4794 20.0003 25.4672 19.9879 25.4573 19.9772L21.0485 24.0468ZM23.1073 25.5117C23.9054 25.8503 24.74 26.002 25.5749 26.002V20.002C25.521 20.002 25.4884 19.9972 25.4725 19.9942C25.4573 19.9912 25.4514 19.9886 25.4506 19.9883L23.1073 25.5117ZM25.5749 26.002C26.1096 26.002 26.9702 25.9377 27.8013 25.4627L24.8245 20.2533C25.0943 20.0991 25.3195 20.0427 25.4279 20.0215C25.5397 19.9997 25.5968 20.002 25.5749 20.002V26.002ZM27.7247 25.5051C28.6321 25.0211 29.5829 23.9953 29.5829 22.462H23.5829C23.5829 21.9759 23.724 21.4556 24.0367 20.997C24.33 20.5669 24.6787 20.3296 24.9011 20.2109L27.7247 25.5051ZM29.5829 22.462C29.5829 21.829 29.416 21.1414 28.9981 20.5144C28.5926 19.9062 28.0644 19.5247 27.6005 19.2927L24.9173 24.6593C24.6694 24.5353 24.3032 24.2888 24.0058 23.8426C23.6958 23.3776 23.5829 22.879 23.5829 22.462H29.5829ZM27.78 19.3902C27.2595 19.0841 26.7115 18.8935 26.2198 18.766L24.714 24.574C24.7483 24.5829 24.7746 24.5906 24.7939 24.5967C24.8131 24.6028 24.8237 24.6067 24.8267 24.6079C24.8297 24.6091 24.8233 24.6067 24.8089 24.5999C24.7946 24.5931 24.7701 24.5808 24.7378 24.5618L27.78 19.3902ZM26.3192 18.7936C25.9988 18.6987 25.66 18.5977 25.3029 18.4905L23.5789 24.2375C23.9418 24.3463 24.287 24.4493 24.6146 24.5464L26.3192 18.7936ZM25.3029 18.4905C25.1769 18.4527 25.059 18.4011 24.9443 18.3331L21.8855 23.4949C22.4188 23.8109 22.9849 24.0593 23.5789 24.2375L25.3029 18.4905ZM24.9443 18.3331C24.9961 18.3638 25.0483 18.4038 25.0952 18.4507C25.1417 18.4971 25.1713 18.5387 25.1873 18.5651L20.0585 21.6789C20.5066 22.417 21.1189 23.0406 21.8855 23.4949L24.9443 18.3331ZM25.211 18.6048C25.3477 18.8381 25.3169 18.9632 25.3169 18.808H19.3169C19.3169 19.7088 19.4901 20.7099 20.0348 21.6392L25.211 18.6048ZM25.3169 18.808C25.3169 18.7825 25.3199 18.8099 25.3013 18.8728C25.2817 18.9388 25.2474 19.0126 25.1998 19.0801L20.298 15.6199C19.6075 16.5982 19.3169 17.7078 19.3169 18.808H25.3169ZM25.2231 19.0466C25.2115 19.0634 25.199 19.079 25.1864 19.0926C25.1739 19.106 25.1636 19.1151 25.1575 19.12C25.1447 19.1304 25.1574 19.117 25.2143 19.0911L22.7315 13.6289C21.7766 14.063 20.9128 14.7228 20.2747 15.6534L25.2231 19.0466ZM25.2143 19.0911C25.2762 19.063 25.4547 19 25.8269 19V13C24.7831 13 23.7256 13.177 22.7315 13.6289L25.2143 19.0911ZM25.8269 19C26.2089 19 26.4906 19.0661 26.71 19.1589L29.0478 13.6331C28.0192 13.1979 26.9329 13 25.8269 13V19ZM26.7738 19.185C26.9509 19.2552 27.0219 19.3249 27.0679 19.3835L31.7859 15.6765C31.0399 14.7271 30.0789 14.0408 28.984 13.607L26.7738 19.185ZM27.2935 15.4208L25.7275 17.0048L29.9943 21.2232L31.5603 19.6392L27.2935 15.4208ZM30.1446 17.1686C29.5885 16.5158 28.8735 15.9606 27.9889 15.625L25.8609 21.235C25.774 21.202 25.7027 21.1608 25.6499 21.1222C25.5986 21.0847 25.576 21.058 25.5772 21.0594L30.1446 17.1686ZM28.0219 15.6377C27.3762 15.3841 26.6748 15.232 25.9349 15.232V21.232C25.8919 21.232 25.8583 21.2275 25.8371 21.2232C25.8164 21.2191 25.8129 21.2163 25.8279 21.2223L28.0219 15.6377ZM25.9349 15.232C25.4127 15.232 24.5157 15.2948 23.6606 15.821L26.8052 20.931C26.5097 21.1128 26.2556 21.1807 26.1282 21.2068C25.9973 21.2337 25.9236 21.232 25.9349 21.232V15.232ZM23.8106 15.7346C23.3606 15.9769 22.8718 16.3645 22.5066 16.9544C22.1362 17.5528 21.9989 18.1886 21.9989 18.754H27.9989C27.9989 19.1514 27.9006 19.6402 27.6082 20.1126C27.321 20.5765 26.9492 20.8591 26.6552 21.0174L23.8106 15.7346ZM21.9989 18.754C21.9989 20.3706 23.0406 21.3817 23.9012 21.8374L26.7086 16.5346C26.8986 16.6352 27.2325 16.8521 27.5235 17.2629C27.8392 17.7086 27.9989 18.2361 27.9989 18.754H21.9989ZM23.9012 21.8374C24.3811 22.0914 24.8856 22.2591 25.344 22.378L26.8498 16.57C26.763 16.5475 26.7088 16.5297 26.6811 16.5196C26.6522 16.5091 26.6656 16.5119 26.7086 16.5346L23.9012 21.8374ZM25.344 22.378C25.5941 22.4428 25.8705 22.5248 26.1742 22.626L28.0716 16.9339C27.6554 16.7952 27.2477 16.6732 26.8498 16.57L25.344 22.378ZM26.1742 22.626C26.304 22.6693 26.4281 22.7277 26.5505 22.8047L29.7473 17.7273C29.2217 17.3963 28.6618 17.1307 28.0716 16.934L26.1742 22.626ZM26.5505 22.8047C26.5048 22.7759 26.4604 22.7399 26.422 22.6997C26.384 22.66 26.3622 22.6271 26.3528 22.6112L31.529 19.5768C31.0952 18.8368 30.5002 18.2013 29.7473 17.7273L26.5505 22.8047ZM26.3765 22.6509C26.2881 22.5053 26.2562 22.3925 26.2466 22.3507C26.2376 22.3118 26.2469 22.3303 26.2469 22.426H32.2469C32.2469 21.5366 32.087 20.4952 31.5053 19.5371L26.3765 22.6509ZM26.2469 22.426C26.2469 22.4645 26.2417 22.3958 26.2971 22.28C26.3227 22.2265 26.3532 22.1802 26.383 22.1439C26.3973 22.1266 26.4097 22.1136 26.4188 22.1047C26.4279 22.0959 26.4332 22.0919 26.4331 22.0919L30.1167 26.8281C31.5271 25.7311 32.2469 24.1629 32.2469 22.426H26.2469ZM26.4117 22.1088C26.4634 22.0677 26.3315 22.216 25.6829 22.216V28.216C27.2183 28.216 28.8144 27.8603 30.1381 26.8112L26.4117 22.1088ZM31.983 25H28.983V28H31.983V25ZM31.983 12.634V9.634H28.983V12.634H31.983ZM34.737 12.634H37.737V9.634H34.737V12.634ZM34.737 25V28H37.737V25H34.737ZM30.003 18.592H27.003V21.592H30.003V18.592ZM30.003 16.252V13.252H27.003V16.252H30.003ZM36.717 16.252H39.717V13.252H36.717V16.252ZM36.717 18.592V21.592H39.717V18.592H36.717ZM34.983 25V12.634H28.983V25H34.983ZM31.983 15.634H34.737V9.634H31.983V15.634ZM31.737 12.634V25H37.737V12.634H31.737ZM34.737 22H31.983V28H34.737V22ZM33.003 18.592V16.252H27.003V18.592H33.003ZM30.003 19.252H36.717V13.252H30.003V19.252ZM33.717 16.252V18.592H39.717V16.252H33.717ZM36.717 15.592H30.003V21.592H36.717V15.592ZM39.5187 24.604L38.0397 27.2141L38.0653 27.2286L38.0913 27.2426L39.5187 24.604ZM37.8087 22.948L40.3773 21.398L40.3773 21.398L37.8087 22.948ZM37.8087 18.286L35.2522 16.7162L35.2522 16.7162L37.8087 18.286ZM39.5187 16.666L40.9645 19.2946L40.9812 19.2855L40.9978 19.2761L39.5187 16.666ZM46.1247 18.286L43.5562 19.836L43.5621 19.8459L43.5682 19.8558L46.1247 18.286ZM46.1247 22.948L48.6933 24.498L48.6933 24.498L46.1247 22.948ZM44.4147 24.604L45.8605 27.2326L45.8772 27.2235L45.8938 27.2141L44.4147 24.604ZM43.0107 22.444L44.4765 25.0615L44.5157 25.0396L44.5542 25.0165L43.0107 22.444ZM43.6947 21.706L41.0315 20.325L41.0213 20.3446L41.0114 20.3644L43.6947 21.706ZM43.6947 19.546L41.0533 20.9683L41.0651 20.9902L41.0772 21.0118L43.6947 19.546ZM42.9927 18.826L41.4027 21.37L41.4639 21.4083L41.5269 21.4435L42.9927 18.826ZM40.9407 18.826L42.4065 21.4435L42.4457 21.4216L42.4842 21.3985L40.9407 18.826ZM40.2387 19.546L42.8801 20.9683L42.8801 20.9683L40.2387 19.546ZM40.2387 21.706L37.5755 23.087L37.5862 23.1077L37.5973 23.1283L40.2387 21.706ZM40.9407 22.444L39.3972 25.0165L39.4357 25.0396L39.4749 25.0615L40.9407 22.444ZM41.9667 22.198C41.5235 22.198 41.2045 22.1051 40.9462 21.9654L38.0913 27.2426C39.2969 27.8949 40.6099 28.198 41.9667 28.198V22.198ZM40.9978 21.9939C40.7175 21.8351 40.5262 21.6447 40.3773 21.398L35.2402 24.498C35.9313 25.6433 36.88 26.5569 38.0397 27.2141L40.9978 21.9939ZM40.3773 21.398C40.2575 21.1994 40.1787 20.9614 40.1787 20.608H34.1787C34.1787 21.9826 34.52 23.3046 35.2402 24.498L40.3773 21.398ZM40.1787 20.608C40.1787 20.2542 40.2574 20.0314 40.3652 19.8558L35.2522 16.7162C34.52 17.9086 34.1787 19.2338 34.1787 20.608H40.1787ZM40.3652 19.8558C40.5064 19.626 40.6889 19.4462 40.9645 19.2946L38.073 14.0374C36.9085 14.6778 35.9511 15.578 35.2522 16.7162L40.3652 19.8558ZM40.9978 19.2761C41.2218 19.1491 41.5189 19.054 41.9667 19.054V13.054C40.5905 13.054 39.2557 13.3669 38.0397 14.0559L40.9978 19.2761ZM41.9667 19.054C42.4299 19.054 42.739 19.1502 42.969 19.2766L45.8605 14.0194C44.6504 13.3538 43.3275 13.054 41.9667 13.054V19.054ZM42.969 19.2766C43.2316 19.4211 43.4121 19.5972 43.5562 19.836L48.6933 16.736C47.9974 15.5828 47.0379 14.6669 45.8605 14.0194L42.969 19.2766ZM43.5682 19.8558C43.676 20.0314 43.7547 20.2542 43.7547 20.608H49.7547C49.7547 19.2338 49.4134 17.9086 48.6812 16.7162L43.5682 19.8558ZM43.7547 20.608C43.7547 20.9614 43.676 21.1994 43.5562 21.398L48.6933 24.498C49.4135 23.3046 49.7547 21.9826 49.7547 20.608H43.7547ZM43.5562 21.398C43.4073 21.6447 43.216 21.8351 42.9357 21.9939L45.8938 27.2141C47.0535 26.5569 48.0022 25.6433 48.6933 24.498L43.5562 21.398ZM42.969 21.9754C42.739 22.1018 42.4299 22.198 41.9667 22.198V28.198C43.3275 28.198 44.6504 27.8982 45.8605 27.2326L42.969 21.9754ZM41.9667 25.696C42.7973 25.696 43.6647 25.5162 44.4765 25.0615L41.5449 19.8265C41.6437 19.7711 41.7394 19.7364 41.8208 19.7168C41.9002 19.6976 41.9524 19.696 41.9667 19.696V25.696ZM44.5542 25.0165C45.3419 24.5439 45.966 23.8716 46.378 23.0476L41.0114 20.3644C41.0555 20.2763 41.1196 20.1789 41.2064 20.0852C41.2932 19.9915 41.3847 19.921 41.4672 19.8715L44.5542 25.0165ZM46.358 23.087C46.7722 22.288 46.9467 21.4392 46.9467 20.608H40.9467C40.9467 20.6055 40.9471 20.5726 40.9597 20.5174C40.9727 20.4609 40.9956 20.3942 41.0315 20.325L46.358 23.087ZM46.9467 20.608C46.9467 19.7827 46.7741 18.9049 46.3122 18.0802L41.0772 21.0118C40.9514 20.7871 40.9467 20.6173 40.9467 20.608H46.9467ZM46.3361 18.1237C45.9065 17.3259 45.2718 16.6639 44.4585 16.2085L41.5269 21.4435C41.4321 21.3904 41.3345 21.3179 41.2452 21.2263C41.1564 21.1352 41.0941 21.0441 41.0533 20.9683L46.3361 18.1237ZM44.5827 16.282C43.7433 15.7574 42.83 15.556 41.9667 15.556V21.556C41.8954 21.556 41.6661 21.5346 41.4027 21.37L44.5827 16.282ZM41.9667 15.556C41.0937 15.556 40.2083 15.7669 39.3972 16.2535L42.4842 21.3985C42.3884 21.456 42.2859 21.4983 42.1857 21.5247C42.0872 21.5507 42.0105 21.556 41.9667 21.556V15.556ZM39.4749 16.2085C38.6616 16.6639 38.0269 17.3259 37.5973 18.1237L42.8801 20.9683C42.8393 21.0441 42.777 21.1352 42.6882 21.2263C42.599 21.3179 42.5013 21.3904 42.4065 21.4435L39.4749 16.2085ZM37.5973 18.1237C37.1605 18.935 36.9867 19.7973 36.9867 20.626H42.9867C42.9867 20.6281 42.9864 20.6665 42.9712 20.7317C42.9556 20.7987 42.9271 20.881 42.8801 20.9683L37.5973 18.1237ZM36.9867 20.626C36.9867 21.4609 37.1677 22.3007 37.5755 23.087L42.902 20.325C42.9343 20.3874 42.9573 20.4516 42.9712 20.5113C42.9849 20.57 42.9867 20.6107 42.9867 20.626H36.9867ZM37.5973 23.1283C38.0177 23.909 38.6282 24.5551 39.3972 25.0165L42.4842 19.8715C42.559 19.9164 42.6389 19.978 42.7139 20.0569C42.7887 20.1355 42.8432 20.215 42.8801 20.2837L37.5973 23.1283ZM39.4749 25.0615C40.2732 25.5086 41.1306 25.696 41.9667 25.696V19.696C41.9943 19.696 42.0546 19.6992 42.1378 19.7196C42.2226 19.7404 42.3152 19.7754 42.4065 19.8265L39.4749 25.0615ZM48.1258 25H45.1258V28H48.1258V25ZM48.1258 16.252V13.252H45.1258V16.252H48.1258ZM50.8798 16.252H53.8798V13.252H50.8798V16.252ZM50.8798 25V28H53.8798V25H50.8798ZM50.8798 20.194L49.0329 22.5581L53.8798 26.3447V20.194H50.8798ZM49.7278 19.294L46.8001 18.6396L46.3863 20.4905L47.8809 21.6581L49.7278 19.294ZM50.8798 16.918L53.0467 18.9927L50.8798 16.918ZM54.2278 16.27L53.0589 19.0329L53.1218 19.0595L53.1859 19.0832L54.2278 16.27ZM55.0738 16.846L57.4264 18.7076L59.0059 16.7115L57.2936 14.828L55.0738 16.846ZM53.4358 18.916L51.216 20.934L53.5944 23.5502L55.7884 20.7776L53.4358 18.916ZM52.9858 18.61L51.8716 21.3954L51.8716 21.3954L52.9858 18.61ZM51.2758 18.934L49.1098 16.8583L49.1079 16.8603L51.2758 18.934ZM51.1258 25V16.252H45.1258V25H51.1258ZM48.1258 19.252H50.8798V13.252H48.1258V19.252ZM47.8798 16.252V25H53.8798V16.252H47.8798ZM50.8798 22H48.1258V28H50.8798V22ZM52.7267 17.8299L51.5747 16.9299L47.8809 21.6581L49.0329 22.5581L52.7267 17.8299ZM52.6556 19.9484C52.8034 19.2871 52.9925 19.0493 53.0467 18.9927L48.7129 14.8433C47.6871 15.9147 47.1082 17.2609 46.8001 18.6396L52.6556 19.9484ZM53.0467 18.9927C53.0267 19.0136 53.0002 19.0363 52.9694 19.0565C52.9388 19.0766 52.9145 19.0873 52.9031 19.0916C52.8811 19.0999 52.9408 19.072 53.1298 19.072V13.072C51.5523 13.072 49.944 13.5574 48.7129 14.8433L53.0467 18.9927ZM53.1298 19.072C53.2416 19.072 53.194 19.09 53.0589 19.0329L55.3967 13.5071C54.6377 13.186 53.858 13.072 53.1298 13.072V19.072ZM53.1859 19.0832C53.1226 19.0598 53.0567 19.0265 52.9939 18.9838C52.9316 18.9413 52.8852 18.8983 52.854 18.864L57.2936 14.828C56.7413 14.2204 56.0594 13.7492 55.2698 13.4568L53.1859 19.0832ZM52.7213 14.9844L51.0833 17.0544L55.7884 20.7776L57.4264 18.7076L52.7213 14.9844ZM55.6556 16.898C55.2041 16.4013 54.6647 16.0504 54.1 15.8246L51.8716 21.3954C51.6669 21.3136 51.4275 21.1667 51.216 20.934L55.6556 16.898ZM54.1 15.8246C53.5091 15.5882 52.9174 15.502 52.3738 15.502V21.502C52.2862 21.502 52.1025 21.4878 51.8716 21.3954L54.1 15.8246ZM52.3738 15.502C51.2281 15.502 50.0345 15.8934 49.1098 16.8583L53.4418 21.0097C53.2842 21.1741 53.082 21.3127 52.8557 21.4017C52.6378 21.4874 52.4627 21.502 52.3738 21.502V15.502ZM49.1079 16.8603C48.1025 17.9114 47.8798 19.2212 47.8798 20.194H53.8798C53.8798 20.0388 53.9211 20.5086 53.4437 21.0077L49.1079 16.8603ZM55.8074 25H52.8074V28H55.8074V25ZM55.8074 16.252V13.252H52.8074V16.252H55.8074ZM58.5614 16.252H61.5614V13.252H58.5614V16.252ZM58.5614 25V28H61.5614V25H58.5614ZM56.1134 14.614L53.9057 16.6452L53.948 16.6911L53.9921 16.7353L56.1134 14.614ZM56.1134 12.454L53.9921 10.3327L53.9696 10.3552L53.9475 10.3783L56.1134 12.454ZM58.2554 14.614L60.4214 16.6897L60.4426 16.6677L60.4632 16.6452L58.2554 14.614ZM58.8074 25V16.252H52.8074V25H58.8074ZM55.8074 19.252H58.5614V13.252H55.8074V19.252ZM55.5614 16.252V25H61.5614V16.252H55.5614ZM58.5614 22H55.8074V28H58.5614V22ZM57.1934 12.046C57.3156 12.046 57.501 12.0675 57.7136 12.1526C57.9298 12.239 58.1062 12.3642 58.2348 12.4927L53.9921 16.7353C54.8795 17.6227 56.0194 18.046 57.1934 18.046V12.046ZM58.3212 12.5828C58.4248 12.6954 58.5299 12.8515 58.6042 13.0452C58.6779 13.2374 58.6994 13.4098 58.6994 13.534H52.6994C52.6994 14.6813 53.1034 15.7732 53.9057 16.6452L58.3212 12.5828ZM58.6994 13.534C58.6994 13.6411 58.6815 13.8122 58.6042 14.0138C58.5253 14.2197 58.408 14.3956 58.2794 14.5297L53.9475 10.3783C53.0895 11.2736 52.6994 12.3988 52.6994 13.534H58.6994ZM58.2348 14.5753C58.1062 14.7038 57.9298 14.829 57.7136 14.9154C57.501 15.0005 57.3156 15.022 57.1934 15.022V9.022C56.0194 9.022 54.8795 9.44529 53.9921 10.3327L58.2348 14.5753ZM57.1934 15.022C57.0722 15.022 56.8783 15.0007 56.6526 14.9089C56.4216 14.815 56.2303 14.6767 56.0895 14.5297L60.4214 10.3783C59.5295 9.44754 58.3678 9.022 57.1934 9.022V15.022ZM56.0895 14.5297C55.9609 14.3956 55.8436 14.2197 55.7647 14.0138C55.6874 13.8122 55.6694 13.6411 55.6694 13.534H61.6694C61.6694 12.3988 61.2794 11.2736 60.4214 10.3783L56.0895 14.5297ZM55.6694 13.534C55.6694 13.4098 55.691 13.2374 55.7647 13.0452C55.839 12.8515 55.9441 12.6954 56.0477 12.5828L60.4632 16.6452C61.2655 15.7732 61.6694 14.6813 61.6694 13.534H55.6694ZM56.0895 12.5383C56.2303 12.3913 56.4216 12.253 56.6526 12.1591C56.8783 12.0673 57.0722 12.046 57.1934 12.046V18.046C58.3678 18.046 59.5295 17.6205 60.4214 16.6897L56.0895 12.5383ZM61.9948 24.586L60.3873 27.119L60.3982 27.1259L60.4091 27.1327L61.9948 24.586ZM60.5008 22.966L57.8461 24.3632L57.8556 24.3813L57.8654 24.3993L60.5008 22.966ZM60.5008 18.286L57.8654 16.8527L57.8556 16.8707L57.8461 16.8888L60.5008 18.286ZM61.9948 16.666L60.4091 14.1193L60.3982 14.1261L60.3873 14.133L61.9948 16.666ZM65.7388 16.414L64.4249 19.111L64.4382 19.1175L64.4516 19.1238L65.7388 16.414ZM66.9088 17.368L64.4919 19.1452L64.5046 19.1625L64.5175 19.1796L66.9088 17.368ZM67.4128 18.736H70.4128V18.6315L70.4055 18.5272L67.4128 18.736ZM67.4128 22.516L70.4055 22.7248L70.4128 22.6205V22.516H67.4128ZM66.9088 23.902L64.4919 22.1248L64.4872 22.1311L64.4826 22.1375L66.9088 23.902ZM65.7568 24.838L64.4696 22.1282L64.4696 22.1282L65.7568 24.838ZM66.1348 22.12L68.3234 24.1718L68.3392 24.155L68.3546 24.138L66.1348 22.12ZM66.4228 19.546L63.7395 20.8876L63.7599 20.9283L63.7814 20.9683L66.4228 19.546ZM65.7388 18.826L64.1488 21.37L64.21 21.4083L64.273 21.4435L65.7388 18.826ZM63.7048 18.826L65.2164 21.4173L65.2324 21.408L65.2483 21.3985L63.7048 18.826ZM63.0028 19.546L60.4043 18.0468L60.3823 18.085L60.3614 18.1237L63.0028 19.546ZM63.0028 21.688L60.3614 23.1103L60.3614 23.1103L63.0028 21.688ZM66.5668 25H63.5668V28H66.5668V25ZM66.5668 22.642L63.6222 22.0681L63.5668 22.3524V22.642H66.5668ZM66.9808 20.518L69.9254 21.0919L70.0373 20.518L69.9254 19.9441L66.9808 20.518ZM66.5668 18.394H63.5668V18.6836L63.6222 18.9679L66.5668 18.394ZM66.5668 16.252V13.252H63.5668V16.252H66.5668ZM69.2668 16.252H72.2668V13.252H69.2668V16.252ZM69.2668 25V28H72.2668V25H69.2668ZM64.1548 22.18C63.8686 22.18 63.7057 22.1173 63.5805 22.0393L60.4091 27.1327C61.5559 27.8467 62.833 28.18 64.1548 28.18V22.18ZM63.6023 22.053C63.4321 21.945 63.2781 21.7936 63.1363 21.5327L57.8654 24.3993C58.4675 25.5064 59.3095 26.435 60.3873 27.119L63.6023 22.053ZM63.1556 21.5688C63.051 21.3701 62.9608 21.0807 62.9608 20.626H56.9608C56.9608 21.9233 57.2306 23.1939 57.8461 24.3632L63.1556 21.5688ZM62.9608 20.626C62.9608 20.1713 63.051 19.8819 63.1556 19.6832L57.8461 16.8888C57.2306 18.0581 56.9608 19.3287 56.9608 20.626H62.9608ZM63.1363 19.7193C63.2781 19.4584 63.4321 19.307 63.6023 19.199L60.3873 14.133C59.3095 14.817 58.4675 15.7456 57.8654 16.8527L63.1363 19.7193ZM63.5805 19.2127C63.7057 19.1347 63.8686 19.072 64.1548 19.072V13.072C62.833 13.072 61.556 13.4053 60.4091 14.1193L63.5805 19.2127ZM64.1548 19.072C64.3468 19.072 64.4164 19.1068 64.4249 19.111L67.0527 13.717C66.1252 13.2652 65.1388 13.072 64.1548 13.072V19.072ZM64.4516 19.1238C64.4696 19.1323 64.481 19.139 64.4872 19.1429C64.4934 19.1468 64.4958 19.1488 64.4955 19.1486C64.4952 19.1483 64.4939 19.1472 64.4924 19.1456C64.4909 19.144 64.4907 19.1435 64.4919 19.1452L69.3258 15.5908C68.7174 14.7635 67.931 14.1341 67.026 13.7042L64.4516 19.1238ZM64.5175 19.1796C64.4929 19.147 64.4653 19.0999 64.4448 19.0441C64.4245 18.9892 64.4206 18.9517 64.4201 18.9448L70.4055 18.5272C70.3307 17.4551 69.967 16.4367 69.3001 15.5564L64.5175 19.1796ZM64.4128 18.736V22.516H70.4128V18.736H64.4128ZM64.4201 22.3072C64.4205 22.3009 64.424 22.2694 64.4404 22.2243C64.457 22.1787 64.4777 22.144 64.4919 22.1248L69.3258 25.6792C69.9699 24.8032 70.3309 23.7947 70.4055 22.7248L64.4201 22.3072ZM64.4826 22.1375C64.4871 22.1312 64.4927 22.1245 64.4989 22.118C64.5051 22.1115 64.5101 22.107 64.513 22.1047C64.5159 22.1023 64.515 22.1034 64.5088 22.1073C64.5026 22.1112 64.49 22.1185 64.4696 22.1282L67.044 27.5478C67.9371 27.1236 68.7275 26.5018 69.335 25.6665L64.4826 22.1375ZM64.4696 22.1282C64.433 22.1456 64.3455 22.18 64.1548 22.18V28.18C65.1402 28.18 66.1206 27.9864 67.044 27.5478L64.4696 22.1282ZM64.7128 25.696C66.0227 25.696 67.3268 25.2349 68.3234 24.1718L63.9462 20.0682C64.0544 19.9527 64.2054 19.8434 64.383 19.7715C64.5533 19.7025 64.678 19.696 64.7128 19.696V25.696ZM68.3546 24.138C69.2785 23.1218 69.6748 21.8749 69.6748 20.626H63.6748C63.6748 20.626 63.6748 20.6212 63.6755 20.6119C63.6763 20.6027 63.6777 20.5891 63.6806 20.5715C63.6864 20.5359 63.6977 20.4872 63.7184 20.4297C63.7632 20.3058 63.834 20.191 63.915 20.102L68.3546 24.138ZM69.6748 20.626C69.6748 19.7973 69.5011 18.935 69.0642 18.1237L63.7814 20.9683C63.7344 20.881 63.7059 20.7987 63.6903 20.7317C63.6751 20.6665 63.6748 20.6281 63.6748 20.626H69.6748ZM69.1061 18.2044C68.6854 17.363 68.0372 16.6747 67.2046 16.2085L64.273 21.4435C64.1705 21.3861 64.0611 21.3049 63.9598 21.1982C63.8588 21.0919 63.787 20.9827 63.7395 20.8876L69.1061 18.2044ZM67.3288 16.282C66.5039 15.7664 65.6016 15.556 64.7308 15.556V21.556C64.6876 21.556 64.6045 21.5508 64.4946 21.5213C64.3823 21.4913 64.2631 21.4414 64.1488 21.37L67.3288 16.282ZM64.7308 15.556C63.8578 15.556 62.9724 15.7669 62.1613 16.2535L65.2483 21.3985C65.1525 21.456 65.05 21.4983 64.9498 21.5247C64.8513 21.5507 64.7746 21.556 64.7308 21.556V15.556ZM62.1932 16.2347C61.418 16.6869 60.8237 17.3198 60.4043 18.0468L65.6014 21.0452C65.5758 21.0895 65.5311 21.1547 65.4613 21.2263C65.3906 21.2989 65.3072 21.3644 65.2164 21.4173L62.1932 16.2347ZM60.3614 18.1237C59.9246 18.935 59.7508 19.7973 59.7508 20.626H65.7508C65.7508 20.6281 65.7505 20.6665 65.7353 20.7317C65.7197 20.7987 65.6912 20.881 65.6442 20.9683L60.3614 18.1237ZM59.7508 20.626C59.7508 21.4592 59.9314 22.3118 60.3614 23.1103L65.6442 20.2657C65.6874 20.3459 65.716 20.4254 65.7328 20.4959C65.7491 20.5648 65.7508 20.6111 65.7508 20.626H59.7508ZM60.3614 23.1103C60.7818 23.891 61.3923 24.5371 62.1613 24.9985L65.2483 19.8535C65.323 19.8984 65.403 19.96 65.478 20.0389C65.5528 20.1175 65.6072 20.197 65.6442 20.2657L60.3614 23.1103ZM62.1613 24.9985C62.9573 25.4761 63.8329 25.696 64.7128 25.696V19.696C64.7708 19.696 64.8559 19.7033 64.958 19.7307C65.0612 19.7583 65.1603 19.8007 65.2483 19.8535L62.1613 24.9985ZM69.5668 25V22.642H63.5668V25H69.5668ZM69.5114 23.2159L69.9254 21.0919L64.0362 19.9441L63.6222 22.0681L69.5114 23.2159ZM69.9254 19.9441L69.5114 17.8201L63.6222 18.9679L64.0362 21.0919L69.9254 19.9441ZM69.5668 18.394V16.252H63.5668V18.394H69.5668ZM66.5668 19.252H69.2668V13.252H66.5668V19.252ZM66.2668 16.252V25H72.2668V16.252H66.2668ZM69.2668 22H66.5668V28H69.2668V22ZM71.2059 25H68.2059V28H71.2059V25ZM71.2059 11.932V8.932H68.2059V11.932H71.2059ZM73.9599 11.932H76.9599V8.932H73.9599V11.932ZM73.9599 25V28H76.9599V25H73.9599ZM74.2059 25V11.932H68.2059V25H74.2059ZM71.2059 14.932H73.9599V8.932H71.2059V14.932ZM70.9599 11.932V25H76.9599V11.932H70.9599ZM73.9599 22H71.2059V28H73.9599V22ZM81.487 25H78.487V28H81.487V25ZM81.487 22.516V19.516H78.487V22.516H81.487ZM86.653 22.066L88.0388 24.7267L88.0604 24.7155L88.0818 24.7039L86.653 22.066ZM87.967 16.558L85.3291 17.9869L85.3405 18.0079L85.3523 18.0288L87.967 16.558ZM86.635 15.226L85.1828 17.8511L85.1944 17.8575L85.2061 17.8639L86.635 15.226ZM81.397 14.758H78.397V17.758H81.397V14.758ZM81.397 12.292V9.292H78.397V12.292H81.397ZM87.319 12.76L86.2337 15.5568L86.2586 15.5665L86.2838 15.5757L87.319 12.76ZM89.443 14.074L87.3654 16.2382L87.3874 16.2593L87.4099 16.2801L89.443 14.074ZM90.847 16.09L88.0765 17.2408L88.0873 17.2667L88.0985 17.2925L90.847 16.09ZM90.847 21.202L88.0917 20.0151L88.084 20.0331L88.0765 20.0512L90.847 21.202ZM87.337 24.532L86.2656 21.7298L86.2586 21.7325L86.2517 21.7352L87.337 24.532ZM79.579 25H76.579V28H79.579V25ZM79.579 12.292V9.292H76.579V12.292H79.579ZM82.405 12.292H85.405V9.292H82.405V12.292ZM82.405 25V28H85.405V25H82.405ZM84.487 25V22.516H78.487V25H84.487ZM81.487 25.516H84.637V19.516H81.487V25.516ZM84.637 25.516C85.7996 25.516 86.9632 25.2869 88.0388 24.7267L85.2672 19.4053C85.1908 19.4451 85.0103 19.516 84.637 19.516V25.516ZM88.0818 24.7039C89.1861 24.1057 90.0509 23.223 90.635 22.1221L85.3349 19.3099C85.3082 19.3601 85.2892 19.3806 85.2825 19.3875C85.276 19.394 85.2612 19.4081 85.2241 19.4281L88.0818 24.7039ZM90.635 22.1221C91.2199 21.0198 91.453 19.8212 91.453 18.628H85.453C85.453 19.0428 85.374 19.2362 85.3349 19.3099L90.635 22.1221ZM91.453 18.628C91.453 17.4198 91.2076 16.2 90.5817 15.0872L85.3523 18.0288C85.3743 18.068 85.453 18.2282 85.453 18.628H91.453ZM90.6049 15.1291C90.0157 14.0414 89.1516 13.1773 88.0638 12.5881L85.2061 17.8639C85.2704 17.8987 85.2943 17.9226 85.3291 17.9869L90.6049 15.1291ZM88.0872 12.6009C87.0007 11.9999 85.8157 11.758 84.637 11.758V17.758C84.9942 17.758 85.1413 17.8281 85.1828 17.8511L88.0872 12.6009ZM84.637 11.758H81.397V17.758H84.637V11.758ZM84.397 14.758V12.292H78.397V14.758H84.397ZM81.397 15.292H84.673V9.292H81.397V15.292ZM84.673 15.292C85.3036 15.292 85.8128 15.3935 86.2337 15.5568L88.4043 9.9632C87.2172 9.50254 85.9623 9.292 84.673 9.292V15.292ZM86.2838 15.5757C86.729 15.7394 87.0777 15.9619 87.3654 16.2382L91.5206 11.9098C90.6083 11.034 89.5409 10.3806 88.3542 9.94426L86.2838 15.5757ZM87.4099 16.2801C87.6978 16.5453 87.9165 16.8556 88.0765 17.2408L93.6175 14.9392C93.1295 13.7644 92.4122 12.7307 91.476 11.8679L87.4099 16.2801ZM88.0985 17.2925C88.2503 17.6393 88.351 18.0755 88.351 18.646H94.351C94.351 17.3445 94.1157 16.0767 93.5955 14.8875L88.0985 17.2925ZM88.351 18.646C88.351 19.1981 88.2525 19.6419 88.0917 20.0151L93.6022 22.3889C94.1134 21.2021 94.351 19.9419 94.351 18.646H88.351ZM88.0765 20.0512C87.9109 20.4498 87.6891 20.7662 87.4063 21.0321L91.5157 25.4039C92.4328 24.5418 93.135 23.5142 93.6175 22.3528L88.0765 20.0512ZM87.4063 21.0321C87.1078 21.3126 86.7393 21.5487 86.2656 21.7298L88.4084 27.3342C89.5666 26.8913 90.6141 26.2514 91.5157 25.4039L87.4063 21.0321ZM86.2517 21.7352C85.8265 21.9002 85.3226 22 84.709 22V28C85.9913 28 87.2394 27.7878 88.4223 27.3288L86.2517 21.7352ZM84.709 22H81.487V28H84.709V22ZM82.579 25V12.292H76.579V25H82.579ZM79.579 15.292H82.405V9.292H79.579V15.292ZM79.405 12.292V25H85.405V12.292H79.405ZM82.405 22H79.579V28H82.405V22ZM94.6793 24.622L93.2518 27.2606L93.2775 27.2745L93.3034 27.2879L94.6793 24.622ZM92.9513 22.984L95.5199 21.434L92.9513 22.984ZM92.9333 18.286L90.3647 16.736L90.3608 16.7426L90.3568 16.7492L92.9333 18.286ZM100.853 18.16L98.2398 19.633L98.2499 19.6509L98.2602 19.6687L100.853 18.16ZM101.393 20.932L98.4196 20.5355L98.4075 20.6266L98.4009 20.7183L101.393 20.932ZM101.303 21.526L101.31 24.526L103.739 24.5202L104.239 22.144L101.303 21.526ZM93.7613 21.544H90.7613V24.5512L93.7685 24.544L93.7613 21.544ZM93.7613 19.654L93.7528 16.654L90.7613 16.6625V19.654H93.7613ZM100.133 19.636L101.797 22.1322L110.084 16.6079L100.125 16.636L100.133 19.636ZM98.9453 20.428L95.9461 20.4994L96.0758 25.9465L100.609 22.9242L98.9453 20.428ZM98.7113 19.186L95.9539 20.3678L95.9617 20.3861L95.9699 20.4044L98.7113 19.186ZM98.0633 18.43L96.4245 20.9428L96.4871 20.9837L96.5517 21.0213L98.0633 18.43ZM95.9033 18.466L97.4756 21.021L97.4887 21.0129L97.5017 21.0047L95.9033 18.466ZM95.1653 19.294L92.482 17.9524L92.4639 17.9886L92.4467 18.0253L95.1653 19.294ZM95.1833 21.94L92.4828 23.2467L92.5085 23.2997L92.5362 23.3518L95.1833 21.94ZM95.9753 22.786L94.4184 25.3504L94.4716 25.3827L94.5261 25.4127L95.9753 22.786ZM98.3693 22.858L99.5163 25.6301L99.5567 25.6134L99.5965 25.5955L98.3693 22.858ZM99.2873 22.174L101.409 20.0527L99.1476 17.7916L97.0352 20.1921L99.2873 22.174ZM100.799 23.686L103.077 25.6384L104.885 23.5291L102.921 21.5647L100.799 23.686ZM99.2333 24.82L98.091 22.046L99.2333 24.82ZM97.2173 22.198C96.6841 22.198 96.3204 22.093 96.0552 21.9561L93.3034 27.2879C94.5262 27.919 95.8545 28.198 97.2173 28.198V22.198ZM96.1067 21.9834C95.8337 21.8356 95.6566 21.6605 95.5199 21.434L90.3827 24.534C91.086 25.6995 92.0609 26.6164 93.2518 27.2606L96.1067 21.9834ZM95.5199 21.434C95.404 21.242 95.3213 20.9997 95.3213 20.626H89.3213C89.3213 22.0043 89.6586 23.334 90.3827 24.534L95.5199 21.434ZM95.3213 20.626C95.3213 20.2354 95.4061 19.9965 95.5098 19.8228L90.3568 16.7492C89.6444 17.9435 89.3213 19.2646 89.3213 20.626H95.3213ZM95.5019 19.836C95.6534 19.5849 95.8373 19.4075 96.0898 19.2663L93.1608 14.0297C91.9973 14.6805 91.0532 15.5951 90.3647 16.736L95.5019 19.836ZM96.0898 19.2663C96.3087 19.1438 96.5943 19.054 97.0193 19.054V13.054C95.6683 13.054 94.3579 13.3602 93.1608 14.0297L96.0898 19.2663ZM97.0193 19.054C97.4407 19.054 97.6818 19.1407 97.8323 19.2255L100.778 13.9985C99.6088 13.3393 98.3259 13.054 97.0193 13.054V19.054ZM97.8323 19.2255C98.0151 19.3285 98.1368 19.4501 98.2398 19.633L103.467 16.687C102.826 15.5499 101.915 14.6395 100.778 13.9985L97.8323 19.2255ZM98.2602 19.6687C98.3478 19.8192 98.4293 20.0432 98.4293 20.428H104.429C104.429 19.1088 104.127 17.8208 103.446 16.6513L98.2602 19.6687ZM98.4293 20.428C98.4293 20.432 98.4289 20.4662 98.4196 20.5355L104.367 21.3285C104.406 21.0378 104.429 20.736 104.429 20.428H98.4293ZM98.4009 20.7183C98.4015 20.7103 98.4009 20.7222 98.3956 20.7571C98.3905 20.7914 98.3817 20.8411 98.3676 20.908L104.239 22.144C104.305 21.8292 104.361 21.49 104.386 21.1457L98.4009 20.7183ZM101.296 18.526L93.7541 18.544L93.7685 24.544L101.31 24.526L101.296 18.526ZM96.7613 21.544V19.654H90.7613V21.544H96.7613ZM93.7698 22.654L100.142 22.636L100.125 16.636L93.7528 16.654L93.7698 22.654ZM98.4692 17.1398L97.2812 17.9318L100.609 22.9242L101.797 22.1322L98.4692 17.1398ZM101.944 20.3566C101.927 19.6112 101.81 18.7716 101.453 17.9676L95.9699 20.4044C95.9318 20.3189 95.9259 20.2748 95.9297 20.2949C95.9334 20.3148 95.9433 20.3793 95.9461 20.4994L101.944 20.3566ZM101.469 18.0042C101.097 17.1371 100.473 16.3623 99.5749 15.8387L96.5517 21.0213C96.4078 20.9374 96.2745 20.8268 96.1635 20.6974C96.0545 20.5702 95.9897 20.4513 95.9539 20.3678L101.469 18.0042ZM99.7021 15.9172C98.834 15.351 97.8883 15.16 97.0373 15.16V21.16C97.0023 21.16 96.7406 21.149 96.4245 20.9428L99.7021 15.9172ZM97.0373 15.16C96.1143 15.16 95.167 15.3845 94.3049 15.9273L97.5017 21.0047C97.4051 21.0656 97.3044 21.1078 97.2114 21.1329C97.1208 21.1573 97.0583 21.16 97.0373 21.16V15.16ZM94.331 15.911C93.4965 16.4246 92.8865 17.1433 92.482 17.9524L97.8486 20.6356C97.8306 20.6716 97.7923 20.7369 97.7243 20.8131C97.6551 20.8908 97.5703 20.9627 97.4756 21.021L94.331 15.911ZM92.4467 18.0253C92.0467 18.8827 91.9133 19.7794 91.9133 20.608H97.9133C97.9133 20.5108 97.9214 20.464 97.9226 20.4575C97.9236 20.4524 97.9164 20.493 97.8838 20.5627L92.4467 18.0253ZM91.9133 20.608C91.9133 21.4669 92.0629 22.3789 92.4828 23.2467L97.8838 20.6333C97.8981 20.663 97.9075 20.6875 97.9133 20.7051C97.9191 20.7226 97.921 20.7321 97.921 20.732C97.9208 20.731 97.9133 20.6929 97.9133 20.608H91.9133ZM92.5362 23.3518C92.9715 24.168 93.6042 24.8561 94.4184 25.3504L97.5322 20.2216C97.5935 20.2589 97.6574 20.3093 97.7154 20.3712C97.7728 20.4326 97.8096 20.4893 97.8304 20.5282L92.5362 23.3518ZM94.5261 25.4127C95.3907 25.8898 96.3147 26.074 97.1993 26.074V20.074C97.1702 20.074 97.1838 20.071 97.2294 20.0817C97.2771 20.093 97.3463 20.1161 97.4245 20.1593L94.5261 25.4127ZM97.1993 26.074C97.9675 26.074 98.7551 25.945 99.5163 25.6301L97.2222 20.0859C97.2367 20.0799 97.2488 20.0759 97.2577 20.0733C97.2666 20.0707 97.2713 20.0698 97.2712 20.0699C97.2709 20.0699 97.2487 20.074 97.1993 20.074V26.074ZM99.5965 25.5955C100.355 25.2555 101.006 24.7624 101.539 24.1559L97.0352 20.1921C97.0347 20.1926 97.0451 20.181 97.0673 20.1644C97.09 20.1475 97.116 20.1322 97.1421 20.1205L99.5965 25.5955ZM97.166 24.2953L98.678 25.8073L102.921 21.5647L101.409 20.0527L97.166 24.2953ZM98.5215 21.7336C98.3969 21.879 98.2636 21.9749 98.091 22.046L100.376 27.594C101.427 27.1611 102.338 26.501 103.077 25.6384L98.5215 21.7336ZM98.091 22.046C97.878 22.1337 97.5991 22.198 97.2173 22.198V28.198C98.2995 28.198 99.3646 28.0103 100.376 27.594L98.091 22.046ZM108.598 20.374H105.598V23.374H108.598V20.374ZM108.598 18.178V15.178H105.598V18.178H108.598ZM112.288 17.962L110.947 15.2787L110.947 15.2787L112.288 17.962ZM112.288 14.704L110.947 17.3873L110.947 17.3873L112.288 14.704ZM108.598 14.488H105.598V17.488H108.598V14.488ZM108.598 12.292V9.292H105.598V12.292H108.598ZM115.456 14.182L112.893 15.7402L112.911 15.7699L112.93 15.7992L115.456 14.182ZM115.456 18.484L112.915 16.8895L112.911 16.8963L112.907 16.9032L115.456 18.484ZM113.926 19.888L115.268 22.5713L115.288 22.5614L115.307 22.5513L113.926 19.888ZM106.438 25H103.438V28H106.438V25ZM106.438 12.292V9.292H103.438V12.292H106.438ZM109.264 12.292H112.264V9.292H109.264V12.292ZM109.264 25V28H112.264V25H109.264ZM111.598 20.374V18.178H105.598V20.374H111.598ZM108.598 21.178H111.334V15.178H108.598V21.178ZM111.334 21.178C112.11 21.178 112.892 21.0141 113.63 20.6453L110.947 15.2787C111.021 15.2415 111.098 15.2147 111.171 15.1981C111.244 15.1817 111.3 15.178 111.334 15.178V21.178ZM113.63 20.6453C114.424 20.2481 115.075 19.6479 115.535 18.8918L110.41 15.7722C110.465 15.681 110.542 15.5826 110.643 15.4899C110.744 15.3971 110.849 15.3275 110.947 15.2787L113.63 20.6453ZM115.535 18.8918C116.047 18.0501 116.224 17.1462 116.224 16.324H110.224C110.224 16.2938 110.233 16.0619 110.41 15.7722L115.535 18.8918ZM116.224 16.324C116.224 15.4944 116.039 14.6021 115.535 13.7742L110.41 16.8938C110.242 16.6179 110.224 16.3856 110.224 16.324H116.224ZM115.535 13.7742C115.075 13.0181 114.424 12.4179 113.63 12.0207L110.947 17.3873C110.849 17.3385 110.744 17.2689 110.643 17.1761C110.542 17.0834 110.465 16.985 110.41 16.8938L115.535 13.7742ZM113.63 12.0207C112.892 11.6519 112.11 11.488 111.334 11.488V17.488C111.3 17.488 111.244 17.4843 111.171 17.4679C111.098 17.4513 111.021 17.4245 110.947 17.3873L113.63 12.0207ZM111.334 11.488H108.598V17.488H111.334V11.488ZM111.598 14.488V12.292H105.598V14.488H111.598ZM108.598 15.292H111.748V9.292H108.598V15.292ZM111.748 15.292C112.138 15.292 112.397 15.3675 112.585 15.4613L115.268 10.0947C114.159 9.54045 112.966 9.292 111.748 9.292V15.292ZM112.585 15.4613C112.734 15.5358 112.818 15.6167 112.893 15.7402L118.02 12.6238C117.351 11.5233 116.415 10.6682 115.268 10.0947L112.585 15.4613ZM112.93 15.7992C112.957 15.8422 113.032 15.9742 113.032 16.324H119.032C119.032 15.0178 118.724 13.7218 117.983 12.5648L112.93 15.7992ZM113.032 16.324C113.032 16.6722 112.958 16.822 112.915 16.8895L117.998 20.0785C118.723 18.922 119.032 17.6318 119.032 16.324H113.032ZM112.907 16.9032C112.83 17.0276 112.73 17.1288 112.545 17.2247L115.307 22.5513C116.418 21.9752 117.339 21.1404 118.006 20.0648L112.907 16.9032ZM112.585 17.2047C112.397 17.2985 112.138 17.374 111.748 17.374V23.374C112.966 23.374 114.159 23.1255 115.268 22.5713L112.585 17.2047ZM111.748 17.374H108.598V23.374H111.748V17.374ZM109.438 25V12.292H103.438V25H109.438ZM106.438 15.292H109.264V9.292H106.438V15.292ZM106.264 12.292V25H112.264V12.292H106.264ZM109.264 22H106.438V28H109.264V22ZM119.235 24.712L117.791 27.3417L117.822 27.3585L117.853 27.3745L119.235 24.712ZM117.795 23.344L115.213 24.872L115.22 24.8837L115.227 24.8953L117.795 23.344ZM117.273 16.252V13.252H114.273V16.252H117.273ZM120.027 16.252H123.027V13.252H120.027V16.252ZM120.171 22.066L117.43 23.2844L117.457 23.3467L117.488 23.4076L120.171 22.066ZM120.639 22.57L122.16 19.9842L122.16 19.9842L120.639 22.57ZM122.349 22.372L124.522 24.441L124.546 24.4158L124.569 24.39L122.349 22.372ZM122.709 16.252V13.252H119.709V16.252H122.709ZM125.463 16.252H128.463V13.252H125.463V16.252ZM124.941 23.344L127.509 24.8953L127.516 24.8837L127.523 24.872L124.941 23.344ZM123.501 24.712L124.905 27.3634L124.925 27.3527L124.945 27.3417L123.501 24.712ZM121.377 22.198C120.985 22.198 120.757 22.1218 120.618 22.0495L117.853 27.3745C118.961 27.9502 120.161 28.198 121.377 28.198V22.198ZM120.679 22.0823C120.512 21.9906 120.427 21.8991 120.363 21.7927L115.227 24.8953C115.859 25.9409 116.734 26.7614 117.791 27.3417L120.679 22.0823ZM120.377 21.816C120.331 21.7388 120.273 21.6052 120.273 21.328H114.273C114.273 22.5628 114.563 23.7732 115.213 24.872L120.377 21.816ZM120.273 21.328V16.252H114.273V21.328H120.273ZM117.273 19.252H120.027V13.252H117.273V19.252ZM117.027 16.252V21.292H123.027V16.252H117.027ZM117.027 21.292C117.027 21.9027 117.124 22.5964 117.43 23.2844L122.913 20.8476C123.026 21.1036 123.027 21.2813 123.027 21.292H117.027ZM117.488 23.4076C117.849 24.1307 118.404 24.7357 119.118 25.1558L122.16 19.9842C122.466 20.1643 122.709 20.4333 122.854 20.7244L117.488 23.4076ZM119.118 25.1558C119.874 25.6002 120.67 25.75 121.377 25.75V19.75C121.508 19.75 121.813 19.7798 122.16 19.9842L119.118 25.1558ZM121.377 25.75C122.452 25.75 123.617 25.3904 124.522 24.441L120.177 20.303C120.36 20.1103 120.59 19.9564 120.839 19.8595C121.078 19.7665 121.273 19.75 121.377 19.75V25.75ZM124.569 24.39C125.439 23.4333 125.709 22.2798 125.709 21.292H119.709C119.709 21.2605 119.713 21.1357 119.773 20.9553C119.837 20.7648 119.951 20.5503 120.129 20.354L124.569 24.39ZM125.709 21.292V16.252H119.709V21.292H125.709ZM122.709 19.252H125.463V13.252H122.709V19.252ZM122.463 16.252V21.31H128.463V16.252H122.463ZM122.463 21.31C122.463 21.6086 122.401 21.7461 122.359 21.816L127.523 24.872C128.177 23.7659 128.463 22.5474 128.463 21.31H122.463ZM122.373 21.7927C122.309 21.8991 122.224 21.9906 122.057 22.0823L124.945 27.3417C126.002 26.7614 126.877 25.9409 127.509 24.8953L122.373 21.7927ZM122.097 22.0606C121.983 22.1213 121.771 22.198 121.377 22.198V28.198C122.591 28.198 123.795 27.9507 124.905 27.3634L122.097 22.0606ZM132.97 25H129.97V28H132.97V25ZM132.538 18.916L130.372 20.9917L130.416 21.0378L130.462 21.082L132.538 18.916ZM130.684 18.682L132.081 21.3368L132.135 21.3086L132.187 21.2783L130.684 18.682ZM130.144 19.222L132.74 20.7251L132.757 20.6966L132.773 20.6678L130.144 19.222ZM129.946 20.014L128.623 22.7063L132.946 24.8314V20.014H129.946ZM128.884 19.492H125.884V21.3602L127.561 22.1843L128.884 19.492ZM130.576 16.504L131.966 19.1627L131.977 19.1569L131.988 19.1511L130.576 16.504ZM134.104 16.54L132.498 19.0735L132.533 19.0962L132.57 19.1179L134.104 16.54ZM135.724 25V28H138.724V25H135.724ZM127.192 25H124.192V28H127.192V25ZM127.192 16.252V13.252H124.192V16.252H127.192ZM129.946 16.252H132.946V13.252H129.946V16.252ZM129.946 25V28H132.946V25H129.946ZM135.97 25V20.014H129.97V25H135.97ZM135.97 20.014C135.97 18.8683 135.579 17.6747 134.614 16.75L130.462 21.082C130.298 20.9244 130.16 20.7222 130.071 20.4959C129.985 20.278 129.97 20.1029 129.97 20.014H135.97ZM134.704 16.8403C133.812 15.9095 132.651 15.484 131.476 15.484V21.484C131.355 21.484 131.161 21.4627 130.935 21.3709C130.704 21.277 130.513 21.1387 130.372 20.9917L134.704 16.8403ZM131.476 15.484C130.723 15.484 129.926 15.6543 129.181 16.0857L132.187 21.2783C131.898 21.4457 131.63 21.484 131.476 21.484V15.484ZM129.287 16.0272C128.506 16.4385 127.912 17.0555 127.516 17.7762L132.773 20.6678C132.64 20.9085 132.407 21.1655 132.081 21.3368L129.287 16.0272ZM127.548 17.7189C127.117 18.4641 126.946 19.2607 126.946 20.014H132.946C132.946 20.1673 132.908 20.4359 132.74 20.7251L127.548 17.7189ZM131.27 17.3217L130.208 16.7997L127.561 22.1843L128.623 22.7063L131.27 17.3217ZM131.884 19.492C131.884 19.3697 131.898 19.295 131.907 19.2566C131.916 19.2203 131.925 19.2053 131.928 19.1999L126.741 16.1841C126.138 17.2215 125.884 18.3568 125.884 19.492H131.884ZM131.928 19.1999C131.936 19.1862 131.941 19.1792 131.943 19.1768C131.945 19.1746 131.945 19.1747 131.943 19.1759C131.942 19.1772 131.942 19.1772 131.944 19.1758C131.946 19.1743 131.953 19.1696 131.966 19.1627L129.186 13.8453C128.156 14.3841 127.325 15.1796 126.741 16.1841L131.928 19.1999ZM131.988 19.1511C132.052 19.1169 132.165 19.072 132.394 19.072V13.072C131.279 13.072 130.18 13.3151 129.164 13.8569L131.988 19.1511ZM132.394 19.072C132.476 19.072 132.512 19.0817 132.516 19.0826C132.518 19.0832 132.516 19.0828 132.511 19.0805C132.506 19.0782 132.501 19.0756 132.498 19.0735L135.711 14.0065C134.686 13.3563 133.545 13.072 132.394 13.072V19.072ZM132.57 19.1179C132.634 19.156 132.659 19.1847 132.687 19.2344L137.897 16.2576C137.349 15.2993 136.583 14.524 135.639 13.9621L132.57 19.1179ZM132.687 19.2344C132.708 19.2695 132.724 19.3058 132.724 19.402H138.724C138.724 18.2982 138.453 17.2305 137.897 16.2576L132.687 19.2344ZM132.724 19.402V25H138.724V19.402H132.724ZM135.724 22H132.97V28H135.724V22ZM130.192 25V16.252H124.192V25H130.192ZM127.192 19.252H129.946V13.252H127.192V19.252ZM126.946 16.252V25H132.946V16.252H126.946ZM129.946 22H127.192V28H129.946V22ZM138.63 25H135.63V28H138.63V25ZM138.63 12.634V9.634H135.63V12.634H138.63ZM141.384 12.634H144.384V9.634H141.384V12.634ZM141.384 25V28H144.384V25H141.384ZM136.65 18.592H133.65V21.592H136.65V18.592ZM136.65 16.252V13.252H133.65V16.252H136.65ZM143.364 16.252H146.364V13.252H143.364V16.252ZM143.364 18.592V21.592H146.364V18.592H143.364ZM141.63 25V12.634H135.63V25H141.63ZM138.63 15.634H141.384V9.634H138.63V15.634ZM138.384 12.634V25H144.384V12.634H138.384ZM141.384 22H138.63V28H141.384V22ZM139.65 18.592V16.252H133.65V18.592H139.65ZM136.65 19.252H143.364V13.252H136.65V19.252ZM140.364 16.252V18.592H146.364V16.252H140.364ZM143.364 15.592H136.65V21.592H143.364V15.592ZM145.895 24.586L144.288 27.119L144.299 27.1259L144.31 27.1327L145.895 24.586ZM144.401 22.966L141.746 24.3632L141.756 24.3813L141.766 24.3993L144.401 22.966ZM144.401 18.286L141.766 16.8527L141.756 16.8707L141.746 16.8888L144.401 18.286ZM145.895 16.666L144.31 14.1193L144.299 14.1261L144.288 14.133L145.895 16.666ZM149.639 16.414L148.325 19.111L148.339 19.1175L148.352 19.1238L149.639 16.414ZM150.809 17.368L148.392 19.1452L148.405 19.1625L148.418 19.1796L150.809 17.368ZM151.313 18.736H154.313V18.6315L154.306 18.5272L151.313 18.736ZM151.313 22.516L154.306 22.7248L154.313 22.6205V22.516H151.313ZM150.809 23.902L148.392 22.1248L148.388 22.1311L148.383 22.1375L150.809 23.902ZM149.657 24.838L148.37 22.1282L148.37 22.1282L149.657 24.838ZM150.035 22.12L152.224 24.1718L152.24 24.155L152.255 24.138L150.035 22.12ZM150.323 19.546L147.64 20.8876L147.66 20.9283L147.682 20.9683L150.323 19.546ZM149.639 18.826L148.049 21.37L148.11 21.4083L148.173 21.4435L149.639 18.826ZM147.605 18.826L149.117 21.4173L149.133 21.408L149.149 21.3985L147.605 18.826ZM146.903 19.546L144.305 18.0468L144.283 18.085L144.262 18.1237L146.903 19.546ZM146.903 21.688L144.262 23.1103L144.262 23.1103L146.903 21.688ZM150.467 25H147.467V28H150.467V25ZM150.467 22.642L147.523 22.0681L147.467 22.3524V22.642H150.467ZM150.881 20.518L153.826 21.0919L153.938 20.518L153.826 19.9441L150.881 20.518ZM150.467 18.394H147.467V18.6836L147.523 18.9679L150.467 18.394ZM150.467 16.252V13.252H147.467V16.252H150.467ZM153.167 16.252H156.167V13.252H153.167V16.252ZM153.167 25V28H156.167V25H153.167ZM148.055 22.18C147.769 22.18 147.606 22.1173 147.481 22.0393L144.31 27.1327C145.456 27.8467 146.733 28.18 148.055 28.18V22.18ZM147.503 22.053C147.332 21.945 147.179 21.7936 147.037 21.5327L141.766 24.3993C142.368 25.5064 143.21 26.435 144.288 27.119L147.503 22.053ZM147.056 21.5688C146.951 21.3701 146.861 21.0807 146.861 20.626H140.861C140.861 21.9233 141.131 23.1939 141.746 24.3632L147.056 21.5688ZM146.861 20.626C146.861 20.1713 146.951 19.8819 147.056 19.6832L141.746 16.8888C141.131 18.0581 140.861 19.3287 140.861 20.626H146.861ZM147.037 19.7193C147.179 19.4584 147.332 19.307 147.503 19.199L144.288 14.133C143.21 14.817 142.368 15.7456 141.766 16.8527L147.037 19.7193ZM147.481 19.2127C147.606 19.1347 147.769 19.072 148.055 19.072V13.072C146.733 13.072 145.456 13.4053 144.31 14.1193L147.481 19.2127ZM148.055 19.072C148.247 19.072 148.317 19.1068 148.325 19.111L150.953 13.717C150.026 13.2652 149.039 13.072 148.055 13.072V19.072ZM148.352 19.1238C148.37 19.1323 148.381 19.139 148.388 19.1429C148.394 19.1468 148.396 19.1488 148.396 19.1486C148.396 19.1483 148.394 19.1472 148.393 19.1456C148.391 19.144 148.391 19.1435 148.392 19.1452L153.226 15.5908C152.618 14.7635 151.831 14.1341 150.926 13.7042L148.352 19.1238ZM148.418 19.1796C148.393 19.147 148.366 19.0999 148.345 19.0441C148.325 18.9892 148.321 18.9517 148.32 18.9448L154.306 18.5272C154.231 17.4551 153.867 16.4367 153.2 15.5564L148.418 19.1796ZM148.313 18.736V22.516H154.313V18.736H148.313ZM148.32 22.3072C148.321 22.3009 148.324 22.2694 148.341 22.2243C148.357 22.1787 148.378 22.144 148.392 22.1248L153.226 25.6792C153.87 24.8032 154.231 23.7947 154.306 22.7248L148.32 22.3072ZM148.383 22.1375C148.388 22.1312 148.393 22.1245 148.399 22.118C148.405 22.1115 148.411 22.107 148.413 22.1047C148.416 22.1023 148.415 22.1034 148.409 22.1073C148.403 22.1112 148.39 22.1185 148.37 22.1282L150.944 27.5478C151.837 27.1236 152.628 26.5018 153.235 25.6665L148.383 22.1375ZM148.37 22.1282C148.333 22.1456 148.246 22.18 148.055 22.18V28.18C149.041 28.18 150.021 27.9864 150.944 27.5478L148.37 22.1282ZM148.613 25.696C149.923 25.696 151.227 25.2349 152.224 24.1718L147.847 20.0682C147.955 19.9527 148.106 19.8434 148.283 19.7715C148.454 19.7025 148.578 19.696 148.613 19.696V25.696ZM152.255 24.138C153.179 23.1218 153.575 21.8749 153.575 20.626H147.575C147.575 20.626 147.575 20.6212 147.576 20.6119C147.577 20.6027 147.578 20.5891 147.581 20.5715C147.587 20.5359 147.598 20.4872 147.619 20.4297C147.664 20.3058 147.734 20.191 147.815 20.102L152.255 24.138ZM153.575 20.626C153.575 19.7973 153.401 18.935 152.965 18.1237L147.682 20.9683C147.635 20.881 147.606 20.7987 147.591 20.7317C147.575 20.6665 147.575 20.6281 147.575 20.626H153.575ZM153.006 18.2044C152.586 17.363 151.938 16.6747 151.105 16.2085L148.173 21.4435C148.071 21.3861 147.962 21.3049 147.86 21.1982C147.759 21.0919 147.687 20.9827 147.64 20.8876L153.006 18.2044ZM151.229 16.282C150.404 15.7664 149.502 15.556 148.631 15.556V21.556C148.588 21.556 148.505 21.5508 148.395 21.5213C148.283 21.4913 148.164 21.4414 148.049 21.37L151.229 16.282ZM148.631 15.556C147.758 15.556 146.873 15.7669 146.062 16.2535L149.149 21.3985C149.053 21.456 148.95 21.4983 148.85 21.5247C148.752 21.5507 148.675 21.556 148.631 21.556V15.556ZM146.094 16.2347C145.318 16.6869 144.724 17.3198 144.305 18.0468L149.502 21.0452C149.476 21.0895 149.432 21.1547 149.362 21.2263C149.291 21.2989 149.208 21.3644 149.117 21.4173L146.094 16.2347ZM144.262 18.1237C143.825 18.935 143.651 19.7973 143.651 20.626H149.651C149.651 20.6281 149.651 20.6665 149.636 20.7317C149.62 20.7987 149.592 20.881 149.545 20.9683L144.262 18.1237ZM143.651 20.626C143.651 21.4592 143.832 22.3118 144.262 23.1103L149.545 20.2657C149.588 20.3459 149.616 20.4254 149.633 20.4959C149.65 20.5648 149.651 20.6111 149.651 20.626H143.651ZM144.262 23.1103C144.682 23.891 145.293 24.5371 146.062 24.9985L149.149 19.8535C149.223 19.8984 149.303 19.96 149.378 20.0389C149.453 20.1175 149.508 20.197 149.545 20.2657L144.262 23.1103ZM146.062 24.9985C146.858 25.4761 147.733 25.696 148.613 25.696V19.696C148.671 19.696 148.756 19.7033 148.858 19.7307C148.962 19.7583 149.061 19.8007 149.149 19.8535L146.062 24.9985ZM153.467 25V22.642H147.467V25H153.467ZM153.412 23.2159L153.826 21.0919L147.937 19.9441L147.523 22.0681L153.412 23.2159ZM153.826 19.9441L153.412 17.8201L147.523 18.9679L147.937 21.0919L153.826 19.9441ZM153.467 18.394V16.252H147.467V18.394H153.467ZM150.467 19.252H153.167V13.252H150.467V19.252ZM150.167 16.252V25H156.167V16.252H150.167ZM153.167 22H150.467V28H153.167V22ZM152.982 28.6L154.295 25.9023L154.265 25.8878L154.235 25.874L152.982 28.6ZM151.812 27.718L149.691 25.5967L147.706 27.5813L149.555 29.6935L151.812 27.718ZM153.522 26.008L155.812 24.0702L153.706 21.5812L151.401 23.8867L153.522 26.008ZM153.936 26.332L155.373 23.6983L155.235 23.6231L155.09 23.5628L153.936 26.332ZM155.052 26.206L153.087 23.9389L153.049 23.9726L153.011 24.0076L155.052 26.206ZM155.322 16.252V13.252H152.322V16.252H155.322ZM158.076 16.252H161.076V13.252H158.076V16.252ZM157.626 27.286L155.033 25.7781L155.033 25.7781L157.626 27.286ZM156.384 28.492L154.948 25.8583L154.935 25.8653L154.922 25.8724L156.384 28.492ZM155.646 14.614L153.438 16.6452L153.481 16.6911L153.525 16.7353L155.646 14.614ZM155.646 12.454L153.525 10.3327L153.502 10.3552L153.48 10.3783L155.646 12.454ZM157.788 14.614L159.954 16.6897L159.975 16.6677L159.996 16.6452L157.788 14.614ZM154.602 25.924C154.295 25.924 154.23 25.8706 154.295 25.9023L151.67 31.2977C152.623 31.7614 153.638 31.924 154.602 31.924V25.924ZM154.235 25.874C154.192 25.8543 154.14 25.8227 154.07 25.7425L149.555 29.6935C150.156 30.3813 150.885 30.9377 151.73 31.326L154.235 25.874ZM153.934 29.8393L155.644 28.1293L151.401 23.8867L149.691 25.5967L153.934 29.8393ZM151.232 27.9458C151.58 28.3567 152.084 28.8104 152.782 29.1012L155.09 23.5628C155.5 23.7336 155.729 23.9713 155.812 24.0702L151.232 27.9458ZM152.5 28.9657C153.152 29.3212 153.821 29.44 154.404 29.44V23.44C154.628 23.44 154.985 23.4868 155.373 23.6983L152.5 28.9657ZM154.404 29.44C155.303 29.44 156.287 29.1536 157.094 28.4044L153.011 24.0076C153.223 23.8108 153.475 23.6575 153.745 23.5598C154.009 23.4646 154.24 23.44 154.404 23.44V29.44ZM157.017 28.4731C158.068 27.5623 158.322 26.351 158.322 25.486H152.322C152.322 25.269 152.397 24.5377 153.087 23.9389L157.017 28.4731ZM158.322 25.486V16.252H152.322V25.486H158.322ZM155.322 19.252H158.076V13.252H155.322V19.252ZM155.076 16.252V25.45H161.076V16.252H155.076ZM155.076 25.45C155.076 25.5925 155.061 25.6803 155.05 25.7258C155.044 25.7486 155.039 25.7625 155.037 25.7694C155.035 25.7729 155.034 25.7752 155.034 25.7764C155.033 25.7776 155.033 25.7781 155.033 25.7781L160.22 28.7939C160.832 27.7412 161.076 26.5886 161.076 25.45H155.076ZM155.033 25.7781C155.016 25.8075 155.005 25.8185 155.001 25.8222C154.997 25.826 154.983 25.8389 154.948 25.8583L157.821 31.1257C158.826 30.5773 159.642 29.7876 160.22 28.7939L155.033 25.7781ZM154.922 25.8724C154.911 25.8784 154.834 25.924 154.602 25.924V31.924C155.715 31.924 156.825 31.6816 157.846 31.1116L154.922 25.8724ZM156.726 12.046C156.848 12.046 157.034 12.0675 157.246 12.1526C157.463 12.239 157.639 12.3642 157.768 12.4927L153.525 16.7353C154.412 17.6227 155.552 18.046 156.726 18.046V12.046ZM157.854 12.5828C157.958 12.6954 158.063 12.8515 158.137 13.0452C158.211 13.2374 158.232 13.4098 158.232 13.534H152.232C152.232 14.6813 152.636 15.7732 153.438 16.6452L157.854 12.5828ZM158.232 13.534C158.232 13.6411 158.214 13.8122 158.137 14.0138C158.058 14.2197 157.941 14.3956 157.812 14.5297L153.48 10.3783C152.622 11.2736 152.232 12.3988 152.232 13.534H158.232ZM157.768 14.5753C157.639 14.7038 157.463 14.829 157.246 14.9154C157.034 15.0005 156.848 15.022 156.726 15.022V9.022C155.552 9.022 154.412 9.44529 153.525 10.3327L157.768 14.5753ZM156.726 15.022C156.605 15.022 156.411 15.0007 156.185 14.9089C155.954 14.815 155.763 14.6767 155.622 14.5297L159.954 10.3783C159.062 9.44754 157.901 9.022 156.726 9.022V15.022ZM155.622 14.5297C155.494 14.3956 155.376 14.2197 155.298 14.0138C155.22 13.8122 155.202 13.6411 155.202 13.534H161.202C161.202 12.3988 160.812 11.2736 159.954 10.3783L155.622 14.5297ZM155.202 13.534C155.202 13.4098 155.224 13.2374 155.298 13.0452C155.372 12.8515 155.477 12.6954 155.58 12.5828L159.996 16.6452C160.798 15.7732 161.202 14.6813 161.202 13.534H155.202ZM155.622 12.5383C155.763 12.3913 155.954 12.253 156.185 12.1591C156.411 12.0673 156.605 12.046 156.726 12.046V18.046C157.901 18.046 159.062 17.6205 159.954 16.6897L155.622 12.5383ZM161.81 24.622L160.383 27.2606L160.408 27.2745L160.434 27.2879L161.81 24.622ZM160.082 22.984L162.651 21.434L160.082 22.984ZM160.064 18.286L157.496 16.736L157.492 16.7426L157.488 16.7492L160.064 18.286ZM167.984 18.16L165.371 19.633L165.381 19.6509L165.391 19.6687L167.984 18.16ZM168.524 20.932L165.55 20.5355L165.538 20.6266L165.532 20.7183L168.524 20.932ZM168.434 21.526L168.441 24.526L170.87 24.5202L171.37 22.144L168.434 21.526ZM160.892 21.544H157.892V24.5512L160.899 24.544L160.892 21.544ZM160.892 19.654L160.884 16.654L157.892 16.6625V19.654H160.892ZM167.264 19.636L168.928 22.1322L177.215 16.6079L167.256 16.636L167.264 19.636ZM166.076 20.428L163.077 20.4994L163.207 25.9465L167.74 22.9242L166.076 20.428ZM165.842 19.186L163.085 20.3678L163.093 20.3861L163.101 20.4044L165.842 19.186ZM165.194 18.43L163.555 20.9428L163.618 20.9837L163.683 21.0213L165.194 18.43ZM163.034 18.466L164.606 21.021L164.62 21.0129L164.633 21.0047L163.034 18.466ZM162.296 19.294L159.613 17.9524L159.595 17.9886L159.578 18.0253L162.296 19.294ZM162.314 21.94L159.614 23.2467L159.639 23.2997L159.667 23.3518L162.314 21.94ZM163.106 22.786L161.549 25.3504L161.602 25.3827L161.657 25.4127L163.106 22.786ZM165.5 22.858L166.647 25.6301L166.688 25.6134L166.727 25.5955L165.5 22.858ZM166.418 22.174L168.539 20.0527L166.278 17.7916L164.166 20.1921L166.418 22.174ZM167.93 23.686L170.208 25.6384L172.016 23.5291L170.051 21.5647L167.93 23.686ZM166.364 24.82L165.222 22.046L166.364 24.82ZM164.348 22.198C163.815 22.198 163.451 22.093 163.186 21.9561L160.434 27.2879C161.657 27.919 162.985 28.198 164.348 28.198V22.198ZM163.238 21.9834C162.965 21.8356 162.787 21.6605 162.651 21.434L157.514 24.534C158.217 25.6995 159.192 26.6164 160.383 27.2606L163.238 21.9834ZM162.651 21.434C162.535 21.242 162.452 20.9997 162.452 20.626H156.452C156.452 22.0043 156.789 23.334 157.514 24.534L162.651 21.434ZM162.452 20.626C162.452 20.2354 162.537 19.9965 162.641 19.8228L157.488 16.7492C156.775 17.9435 156.452 19.2646 156.452 20.626H162.452ZM162.633 19.836C162.784 19.5849 162.968 19.4075 163.221 19.2663L160.292 14.0297C159.128 14.6805 158.184 15.5951 157.496 16.736L162.633 19.836ZM163.221 19.2663C163.44 19.1438 163.725 19.054 164.15 19.054V13.054C162.799 13.054 161.489 13.3602 160.292 14.0297L163.221 19.2663ZM164.15 19.054C164.572 19.054 164.813 19.1407 164.963 19.2255L167.909 13.9985C166.74 13.3393 165.457 13.054 164.15 13.054V19.054ZM164.963 19.2255C165.146 19.3285 165.268 19.4501 165.371 19.633L170.598 16.687C169.957 15.5499 169.046 14.6395 167.909 13.9985L164.963 19.2255ZM165.391 19.6687C165.479 19.8192 165.56 20.0432 165.56 20.428H171.56C171.56 19.1088 171.258 17.8208 170.577 16.6513L165.391 19.6687ZM165.56 20.428C165.56 20.432 165.56 20.4662 165.55 20.5355L171.498 21.3285C171.537 21.0378 171.56 20.736 171.56 20.428H165.56ZM165.532 20.7183C165.532 20.7103 165.532 20.7222 165.527 20.7571C165.521 20.7914 165.513 20.8411 165.499 20.908L171.37 22.144C171.436 21.8292 171.492 21.49 171.517 21.1457L165.532 20.7183ZM168.427 18.526L160.885 18.544L160.899 24.544L168.441 24.526L168.427 18.526ZM163.892 21.544V19.654H157.892V21.544H163.892ZM160.901 22.654L167.273 22.636L167.256 16.636L160.884 16.654L160.901 22.654ZM165.6 17.1398L164.412 17.9318L167.74 22.9242L168.928 22.1322L165.6 17.1398ZM169.075 20.3566C169.058 19.6112 168.941 18.7716 168.584 17.9676L163.101 20.4044C163.063 20.3189 163.057 20.2748 163.061 20.2949C163.064 20.3148 163.074 20.3793 163.077 20.4994L169.075 20.3566ZM168.6 18.0042C168.228 17.1371 167.603 16.3623 166.706 15.8387L163.683 21.0213C163.539 20.9374 163.405 20.8268 163.294 20.6974C163.185 20.5702 163.121 20.4513 163.085 20.3678L168.6 18.0042ZM166.833 15.9172C165.965 15.351 165.019 15.16 164.168 15.16V21.16C164.133 21.16 163.871 21.149 163.555 20.9428L166.833 15.9172ZM164.168 15.16C163.245 15.16 162.298 15.3845 161.436 15.9273L164.633 21.0047C164.536 21.0656 164.435 21.1078 164.342 21.1329C164.252 21.1573 164.189 21.16 164.168 21.16V15.16ZM161.462 15.911C160.627 16.4246 160.017 17.1433 159.613 17.9524L164.979 20.6356C164.961 20.6716 164.923 20.7369 164.855 20.8131C164.786 20.8908 164.701 20.9627 164.606 21.021L161.462 15.911ZM159.578 18.0253C159.178 18.8827 159.044 19.7794 159.044 20.608H165.044C165.044 20.5108 165.052 20.464 165.053 20.4575C165.054 20.4524 165.047 20.493 165.015 20.5627L159.578 18.0253ZM159.044 20.608C159.044 21.4669 159.194 22.3789 159.614 23.2467L165.015 20.6333C165.029 20.663 165.038 20.6875 165.044 20.7051C165.05 20.7226 165.052 20.7321 165.052 20.732C165.052 20.731 165.044 20.6929 165.044 20.608H159.044ZM159.667 23.3518C160.102 24.168 160.735 24.8561 161.549 25.3504L164.663 20.2216C164.724 20.2589 164.788 20.3093 164.846 20.3712C164.904 20.4326 164.94 20.4893 164.961 20.5282L159.667 23.3518ZM161.657 25.4127C162.522 25.8898 163.446 26.074 164.33 26.074V20.074C164.301 20.074 164.315 20.071 164.36 20.0817C164.408 20.093 164.477 20.1161 164.555 20.1593L161.657 25.4127ZM164.33 26.074C165.098 26.074 165.886 25.945 166.647 25.6301L164.353 20.0859C164.368 20.0799 164.38 20.0759 164.389 20.0733C164.397 20.0707 164.402 20.0698 164.402 20.0699C164.402 20.0699 164.38 20.074 164.33 20.074V26.074ZM166.727 25.5955C167.486 25.2555 168.137 24.7624 168.67 24.1559L164.166 20.1921C164.166 20.1926 164.176 20.181 164.198 20.1644C164.221 20.1475 164.247 20.1322 164.273 20.1205L166.727 25.5955ZM164.297 24.2953L165.809 25.8073L170.051 21.5647L168.539 20.0527L164.297 24.2953ZM165.652 21.7336C165.528 21.879 165.394 21.9749 165.222 22.046L167.506 27.594C168.558 27.1611 169.469 26.501 170.208 25.6384L165.652 21.7336ZM165.222 22.046C165.009 22.1337 164.73 22.198 164.348 22.198V28.198C165.43 28.198 166.495 28.0103 167.506 27.594L165.222 22.046ZM171.545 25.018L170.768 27.9155L170.777 27.9178L170.785 27.9201L171.545 25.018ZM170.159 24.46L168.616 27.0325L168.659 27.0582L168.703 27.0825L170.159 24.46ZM169.079 23.596L166.946 21.4868L164.928 23.5281L166.878 25.6342L169.079 23.596ZM170.645 22.012L172.85 19.9772L170.72 17.6696L168.512 19.9028L170.645 22.012ZM171.671 22.75L170.43 25.4811L170.465 25.4969L170.5 25.5117L171.671 22.75ZM173.705 22.858L172.294 20.2109L172.255 20.2315L172.217 20.2533L173.705 22.858ZM173.651 21.976L172.13 24.5618L172.218 24.6136L172.31 24.6593L173.651 21.976ZM172.859 21.67L172.007 24.5464L172.057 24.561L172.107 24.574L172.859 21.67ZM170.807 20.914L172.337 18.3331L172.337 18.3331L170.807 20.914ZM170.015 20.122L167.427 21.6392L167.439 21.6591L167.451 21.6789L170.015 20.122ZM170.141 17.35L172.592 19.0801L172.604 19.0634L172.616 19.0466L170.141 17.35ZM171.365 16.36L170.124 13.6289L170.124 13.6289L171.365 16.36ZM175.271 16.396L174.103 19.1589L174.134 19.1723L174.166 19.185L175.271 16.396ZM176.819 17.53L178.953 19.6392L180.813 17.7573L179.178 15.6765L176.819 17.53ZM175.253 19.114L172.97 21.0594L175.089 23.5473L177.387 21.2232L175.253 19.114ZM174.317 18.43L173.221 21.2223L173.237 21.2287L173.254 21.235L174.317 18.43ZM172.625 18.376L174.048 21.0174L174.124 20.9764L174.198 20.931L172.625 18.376ZM173.489 19.474L172.737 22.378L172.737 22.378L173.489 19.474ZM174.515 19.78L175.464 16.934L175.464 16.9339L174.515 19.78ZM175.541 20.266L177.14 17.7273L177.14 17.7273L175.541 20.266ZM176.333 21.094L173.745 22.6112L173.757 22.6311L173.769 22.6509L176.333 21.094ZM175.667 24.46L173.826 22.0919L173.815 22.1003L173.804 22.1088L175.667 24.46ZM173.075 22.216C172.818 22.216 172.564 22.1835 172.306 22.1159L170.785 27.9201C171.535 28.1165 172.3 28.216 173.075 28.216V22.216ZM172.323 22.1205C172.06 22.0501 171.827 21.9548 171.616 21.8375L168.703 27.0825C169.355 27.4452 170.047 27.7219 170.768 27.9155L172.323 22.1205ZM171.703 21.8875C171.5 21.7658 171.368 21.6521 171.281 21.5578L166.878 25.6342C167.391 26.1879 167.979 26.6502 168.616 27.0325L171.703 21.8875ZM171.213 25.7052L172.779 24.1212L168.512 19.9028L166.946 21.4868L171.213 25.7052ZM168.441 24.0468C169.007 24.6601 169.679 25.1397 170.43 25.4811L172.913 20.0189C172.872 20.0003 172.86 19.9879 172.85 19.9772L168.441 24.0468ZM170.5 25.5117C171.298 25.8503 172.133 26.002 172.967 26.002V20.002C172.914 20.002 172.881 19.9972 172.865 19.9942C172.85 19.9912 172.844 19.9886 172.843 19.9883L170.5 25.5117ZM172.967 26.002C173.502 26.002 174.363 25.9377 175.194 25.4627L172.217 20.2533C172.487 20.0991 172.712 20.0427 172.82 20.0215C172.932 19.9997 172.989 20.002 172.967 20.002V26.002ZM175.117 25.5051C176.025 25.0211 176.975 23.9953 176.975 22.462H170.975C170.975 21.9759 171.117 21.4556 171.429 20.997C171.723 20.5669 172.071 20.3296 172.294 20.2109L175.117 25.5051ZM176.975 22.462C176.975 21.829 176.809 21.1414 176.391 20.5144C175.985 19.9062 175.457 19.5247 174.993 19.2927L172.31 24.6593C172.062 24.5353 171.696 24.2888 171.398 23.8426C171.088 23.3776 170.975 22.879 170.975 22.462H176.975ZM175.173 19.3902C174.652 19.0841 174.104 18.8935 173.612 18.766L172.107 24.574C172.141 24.5829 172.167 24.5906 172.186 24.5967C172.206 24.6028 172.216 24.6067 172.219 24.6079C172.222 24.6091 172.216 24.6067 172.201 24.5999C172.187 24.5931 172.163 24.5808 172.13 24.5618L175.173 19.3902ZM173.712 18.7936C173.391 18.6987 173.053 18.5977 172.696 18.4905L170.971 24.2375C171.334 24.3463 171.68 24.4493 172.007 24.5464L173.712 18.7936ZM172.696 18.4905C172.57 18.4527 172.452 18.4011 172.337 18.3331L169.278 23.4949C169.811 23.8109 170.377 24.0593 170.971 24.2375L172.696 18.4905ZM172.337 18.3331C172.389 18.3638 172.441 18.4038 172.488 18.4507C172.534 18.4971 172.564 18.5387 172.58 18.5651L167.451 21.6789C167.899 22.417 168.511 23.0406 169.278 23.4949L172.337 18.3331ZM172.604 18.6048C172.74 18.8381 172.709 18.9632 172.709 18.808H166.709C166.709 19.7088 166.883 20.7099 167.427 21.6392L172.604 18.6048ZM172.709 18.808C172.709 18.7825 172.712 18.8099 172.694 18.8728C172.674 18.9388 172.64 19.0126 172.592 19.0801L167.691 15.6199C167 16.5982 166.709 17.7078 166.709 18.808H172.709ZM172.616 19.0466C172.604 19.0634 172.592 19.079 172.579 19.0926C172.566 19.106 172.556 19.1151 172.55 19.12C172.537 19.1304 172.55 19.117 172.607 19.0911L170.124 13.6289C169.169 14.063 168.305 14.7228 167.667 15.6534L172.616 19.0466ZM172.607 19.0911C172.669 19.063 172.847 19 173.219 19V13C172.176 13 171.118 13.177 170.124 13.6289L172.607 19.0911ZM173.219 19C173.602 19 173.883 19.0661 174.103 19.1589L176.44 13.6331C175.412 13.1979 174.325 13 173.219 13V19ZM174.166 19.185C174.343 19.2552 174.415 19.3249 174.461 19.3835L179.178 15.6765C178.432 14.7271 177.471 14.0408 176.377 13.607L174.166 19.185ZM174.686 15.4208L173.12 17.0048L177.387 21.2232L178.953 19.6392L174.686 15.4208ZM177.537 17.1686C176.981 16.5158 176.266 15.9606 175.381 15.625L173.254 21.235C173.167 21.202 173.095 21.1608 173.042 21.1222C172.991 21.0847 172.969 21.058 172.97 21.0594L177.537 17.1686ZM175.414 15.6377C174.769 15.3841 174.067 15.232 173.327 15.232V21.232C173.284 21.232 173.251 21.2275 173.23 21.2232C173.209 21.2191 173.205 21.2163 173.221 21.2223L175.414 15.6377ZM173.327 15.232C172.805 15.232 171.908 15.2948 171.053 15.821L174.198 20.931C173.902 21.1128 173.648 21.1807 173.521 21.2068C173.39 21.2337 173.316 21.232 173.327 21.232V15.232ZM171.203 15.7346C170.753 15.9769 170.264 16.3645 169.899 16.9544C169.529 17.5528 169.391 18.1886 169.391 18.754H175.391C175.391 19.1514 175.293 19.6402 175.001 20.1126C174.714 20.5765 174.342 20.8591 174.048 21.0174L171.203 15.7346ZM169.391 18.754C169.391 20.3706 170.433 21.3817 171.294 21.8374L174.101 16.5346C174.291 16.6352 174.625 16.8521 174.916 17.2629C175.232 17.7086 175.391 18.2361 175.391 18.754H169.391ZM171.294 21.8374C171.774 22.0914 172.278 22.2591 172.737 22.378L174.242 16.57C174.156 16.5475 174.101 16.5297 174.074 16.5196C174.045 16.5091 174.058 16.5119 174.101 16.5346L171.294 21.8374ZM172.737 22.378C172.987 22.4428 173.263 22.5248 173.567 22.626L175.464 16.9339C175.048 16.7952 174.64 16.6732 174.242 16.57L172.737 22.378ZM173.567 22.626C173.697 22.6693 173.821 22.7277 173.943 22.8047L177.14 17.7273C176.614 17.3963 176.054 17.1307 175.464 16.934L173.567 22.626ZM173.943 22.8047C173.897 22.7759 173.853 22.7399 173.815 22.6997C173.777 22.66 173.755 22.6271 173.745 22.6112L178.922 19.5768C178.488 18.8368 177.893 18.2013 177.14 17.7273L173.943 22.8047ZM173.769 22.6509C173.681 22.5053 173.649 22.3925 173.639 22.3507C173.63 22.3118 173.639 22.3303 173.639 22.426H179.639C179.639 21.5366 179.48 20.4952 178.898 19.5371L173.769 22.6509ZM173.639 22.426C173.639 22.4645 173.634 22.3958 173.69 22.28C173.715 22.2265 173.746 22.1802 173.776 22.1439C173.79 22.1266 173.802 22.1136 173.811 22.1047C173.821 22.0959 173.826 22.0919 173.826 22.0919L177.509 26.8281C178.92 25.7311 179.639 24.1629 179.639 22.426H173.639ZM173.804 22.1088C173.856 22.0677 173.724 22.216 173.075 22.216V28.216C174.611 28.216 176.207 27.8603 177.531 26.8112L173.804 22.1088Z" fill="#0800E2" mask="url(#path-1-outside-1_7_2556)"/>
</svg>
