<svg width="667" height="666" viewBox="0 0 667 666" fill="none" xmlns="http://www.w3.org/2000/svg">
<path d="M560.812 549.804C549.959 546.006 539.468 542.812 529.426 538.528C519.706 534.382 510.447 529.114 499.425 523.552C502.837 531.933 505.711 538.993 508.653 546.22C520.57 538.076 534.422 545.482 547.564 566.619C542.774 572.143 541.583 572.564 525.585 574.248C528.355 582.654 522.453 583.582 516.873 583.855C499.503 584.704 485.516 578.03 476.309 562.78C462.174 539.37 452.781 514.019 447.742 487.007C447.449 485.433 446.988 483.891 446.529 482.024C431.366 484.558 416.575 487.321 401.696 489.449C376.7 493.024 351.534 495.392 327.259 486.047C317.845 482.423 309.355 476.296 300.484 471.237C297.473 469.519 294.475 467.735 291.661 465.708C283.625 459.919 277.246 452.387 275.37 442.581C274.092 435.901 269.827 432.257 266.376 427.386C260.245 418.73 253.671 417.937 244.038 421.186C227.321 426.823 210.059 430.783 191.868 435.764C189.42 426.63 186.827 417.906 184.806 409.047C183.646 403.966 181.497 401.955 176.048 401.652C166.116 401.1 156.248 399.315 146.36 397.993C118.509 394.27 100.267 367.616 106.709 340.089C108.925 330.618 114.588 324.019 122.232 318.239C132.419 310.537 142.062 302.005 151.247 293.091C152.985 291.405 151.496 286.272 151.496 281.474C175.742 279.073 194.547 263.587 214.052 253.495C204.997 239.548 196.116 225.661 186.924 211.99C185.853 210.398 183.157 209.593 181.062 209.115C164.571 205.35 159.353 199.373 159.695 182.075C159.929 170.289 160.977 158.455 162.654 146.79C163.596 140.238 162.308 135.425 157.926 130.761C156.33 129.062 156.065 126.065 155.193 123.66C157.93 123.401 160.894 122.32 163.365 123.027C173.046 125.796 177.314 133.717 179.162 142.885C181.074 152.368 181.966 162.06 183.51 171.627C184.046 174.95 185.195 178.171 186.603 181.385C196.138 124.83 228.388 93.9676 286.454 88.8999C282.689 87.4875 280.397 86.5481 278.054 85.771C275.628 84.9663 273.122 84.4092 270.702 83.5869C262.578 80.826 254.257 78.5085 246.431 75.0407C239.209 71.8407 234.744 65.6537 234.054 57.4193C233.886 55.4225 235.321 53.2865 236.019 51.2145C238.014 51.9551 240.924 52.089 241.851 53.5381C246.687 61.0954 253.101 62.3248 261.606 61.8155C272.423 61.1678 283.483 61.9995 294.234 63.6083C309.95 65.9602 315.79 73.3569 316.053 89.5999C316.122 93.8888 317.023 96.1628 321.242 97.9787C367.194 117.76 389.553 169.464 375.164 213.73C374.815 214.804 374.904 216.025 374.695 218.106C394.204 217.068 413.457 216.707 431.652 209.542C434.632 208.368 437.613 203.924 438.278 200.523C440.447 189.412 441.699 178.102 442.917 166.825C443.141 164.748 441.702 162.403 440.779 160.295C437.294 152.34 435.298 144.237 437.975 134.765C441.096 135.175 444.211 135.584 447.668 136.038C452.321 131.565 456.359 126.852 456.749 119.034C457.013 113.757 460.383 108.642 462.749 102.445C467.431 105.996 470.901 108.628 474.527 111.378C476.233 108.632 477.998 105.792 479.993 102.582C489.193 107.581 493.274 116.053 498.885 123.539C510.737 139.355 511.223 157.983 513.054 176.031C514.905 194.282 513.988 212.809 514.682 231.199C515.247 246.178 509.578 258.129 498.111 266.91C473.628 285.659 449.371 304.959 418.107 311.988C419.745 319.515 417.364 324.83 413.694 330.849C410.505 336.08 411.296 343.828 410.345 350.346C423.907 344.897 436.199 338.424 449.264 335.146C461.918 331.972 475.484 330.244 488.443 331.105C523.786 333.455 540.987 358.082 531.8 392.841C528.757 404.352 528.005 413.957 532.689 425.541C539.522 442.436 535.465 459.636 526.323 475.153C523.43 480.063 524.326 484.085 528.025 486.874C543.757 498.737 560.245 509.354 579.1 515.491C580.607 515.981 582.235 516.084 583.73 516.352C589.774 502.003 608.021 495.997 627.183 503.146C623.495 510.2 619.941 516.997 616.191 524.169C623.646 526.379 620.751 531.393 617.268 535.823C605.435 550.875 590.092 556.421 571.522 552.459C568.114 551.732 564.752 550.78 560.812 549.804ZM514.36 404.469C514.216 404.41 514.072 404.35 513.928 404.29C514.085 404.539 514.243 404.788 514 405.753C513.545 406.04 513.09 406.327 511.793 406.194C508.658 404.073 505.522 401.952 502.46 399.88C500.059 404.625 498.175 408.349 495.091 412.171C494.396 412.559 493.701 412.947 492.422 413.263C492.422 413.263 492.015 412.833 492.865 411.956C494.778 407.829 496.691 403.702 498.81 399.132C489.727 396.623 482.637 398.271 475.791 402.532C474.576 403.289 472.422 402.481 471.696 401.755C479.362 394.844 488.553 393.807 498.401 394.542C496.868 393.386 495.29 392.661 493.657 392.111C449.124 377.115 404.695 378.485 360.479 393.391C345.04 398.596 330.26 405.27 317.898 417.993C305.903 429.933 300.492 444.435 301.322 461.483C301.571 466.589 303.471 470.094 307.822 473.005C325.998 485.17 346.159 489.434 367.465 488.914C400.1 488.117 431.956 481.905 463.732 473.637C473.703 487.007 486.708 493.733 503.188 489.562C517.747 485.877 524.826 474.35 529.561 459.7C534.644 442.386 533.101 426.106 521.825 410.592C521.231 409.693 520.638 408.794 520.089 406.73C520.148 405.954 520.207 405.179 521.081 404.865C521.987 405.698 522.893 406.531 524.811 408.292C526.977 399.178 528.881 391.171 530.923 382.576C524.066 388.373 518.469 393.105 513.001 397.728C514.744 399.333 516.943 401.357 518.182 403.513C516.978 403.963 515.773 404.414 514.36 404.469ZM215.381 264.247C219.559 263.071 223.737 261.895 228.074 260.674C221.823 253.462 215.946 254.617 209.073 260.061C203.827 263.071 198.582 266.082 193.336 269.092C193.525 269.534 193.715 269.976 193.904 270.417C200.698 268.347 207.492 266.277 215.381 264.247ZM320.796 320.724C322.724 327.52 324.653 334.316 326.891 342.226C330.838 356.981 334.784 371.736 338.631 386.119C353.03 381.977 367 377.958 382.049 373.981C386.893 374.201 390.264 372.124 392.847 367.843C395.998 362.621 399.376 357.461 403.268 352.805C408.221 346.878 408.69 340.25 408.088 332.835C397.014 335.939 386.365 339.123 375.612 341.884C363.321 345.04 350.937 347.82 337.956 350.047C334.784 347.038 331.612 344.028 328.322 339.955C326.426 333.134 324.531 326.312 322.236 318.391C320.328 311.249 318.512 304.08 316.485 296.974C314.715 290.77 315.23 285.08 320.259 279.551C325.443 277.554 330.627 275.558 336.931 273.297C356.717 267.822 376.503 262.348 396.653 256.773C390.278 243.827 381.307 234.077 368.839 226.999C367.279 229.466 365.814 231.781 363.616 234.61C349.12 253.171 329.342 262.81 306.974 268.454C308.372 273.17 309.567 277.206 310.687 282.355C314.017 294.791 317.348 307.226 320.796 320.724ZM320 151.921C327.416 147.235 333.281 141.415 334.074 130.872C327.969 132.919 321.863 134.966 315.093 137.237C316.78 139.388 317.868 140.775 319.008 143.011C318.992 143.567 318.977 144.122 317.921 144.839C314.705 145.851 311.488 146.864 308.272 147.876C312.036 149.3 313.074 157.698 320 151.921ZM256.804 235.015C256.804 235.015 256.846 234.875 256.411 234.03C253.807 229.405 251.204 224.781 248.498 219.975C243.998 222.428 239.603 224.823 234.143 227.255C224.479 229.923 214.814 232.591 205.038 235.29C211.414 244.618 219.92 251.705 229.924 256.966C231.674 257.886 234.01 258.849 235.74 258.413C247.018 255.567 258.202 252.34 269.606 249.186C265.456 244.726 261.834 240.832 257.927 236.223C257.598 235.837 257.269 235.45 256.804 235.015ZM283.245 140.305C276.8 144.542 270.42 148.886 263.891 152.983C258.862 156.138 257.365 159.762 262.501 165.8C266.147 160.775 269.51 155.891 273.18 151.256C274.107 150.085 276.01 149.713 276.631 149.138C276.323 149.592 276.015 150.045 275.572 151.53C273.392 159.713 268.836 165.838 260.514 169.502C259.037 166.222 257.653 163.148 255.35 158.03C251.17 163.026 247.565 167.014 244.356 171.307C242.767 173.432 240.599 176.332 240.94 178.518C242.446 188.166 244.769 197.681 246.796 207.245C247.462 207.242 248.128 207.239 248.793 207.236C250.605 204.184 252.417 201.132 254.147 198.218C255.471 199.945 256.814 201.696 259.475 205.166C264.278 196.55 268.369 189.212 272.214 182.315C268.712 181.607 266.684 181.198 264.656 180.788C266.997 176.764 269.056 172.515 271.861 168.86C272.648 167.834 275.631 168.556 277.606 168.476C276.512 171.939 275.418 175.401 273.911 180.171C277.178 182.824 281.684 186.484 287.073 190.86C288.637 186.342 289.583 183.605 290.745 180.25C292.475 183.05 293.871 185.31 295.756 188.36C302.039 179.209 307.152 170.549 306.726 160.736C303.016 160.127 297.729 160.515 297.085 158.938C294.177 151.82 303.133 154.057 304.874 150.204C304.015 148.125 303.188 146.124 302.286 143.94C306.446 143.613 309.97 143.336 314.152 143.008C305.707 132.039 302.668 131.197 291.89 136.117C290.003 136.979 288.185 138 285.707 138.864C285.188 139.164 284.67 139.463 283.245 140.305ZM264.331 236.221C263.704 236.123 263.078 236.025 262.451 235.927C262.785 236.62 263.119 237.314 264.021 238.787C268.175 241.479 272.503 246.667 276.448 246.381C287.042 245.615 297.472 242.507 307.967 240.328C301.532 238.763 295.082 238.997 288.656 238.703C280.678 238.338 272.718 237.536 264.331 236.221ZM244.942 70.3452C250.612 72.2359 256.62 76.3459 261.877 75.5174C270.615 74.1404 278.871 69.593 288.129 66.0776C275.251 64.1375 262.912 64.2497 250.414 65.6497C246.062 61.8843 241.711 58.1189 236.969 54.0157C236.713 61.0866 239.54 65.8015 244.942 70.3452ZM489.018 558.192C493.306 551.135 499.373 549.404 507.101 552.695C503.434 543.609 499.492 535.368 496.837 526.717C495.09 521.026 492.792 516.341 487.554 512.117C484.869 506.832 481.235 501.814 479.719 496.202C477.305 487.267 472.001 487.806 464.38 489.573C462.46 489.416 460.539 489.259 457.662 488.75C456.018 488.282 454.374 487.813 452.04 487.149C457.704 516.624 468.301 543.034 484.327 567.969C485.87 564.345 487.058 561.556 489.018 558.192ZM579.185 540.14C577.35 532.255 579.464 526.049 586.581 523.345C573.946 517.731 561.769 512.32 549.035 506.147C541.457 501.264 533.88 496.381 526.283 491.486C521.631 501.537 519.482 503.609 507.526 508.523C504.747 508.677 501.967 508.83 498.087 508.733C495.669 508.189 493.252 507.646 490.539 507.035C496.806 522.228 560.834 551.201 582.754 549.076C581.616 546.47 580.5 543.914 579.185 540.14ZM406.151 375.488C405.081 378.83 406.504 379.547 409.568 379.239C432.07 376.977 454.369 378.584 476.11 383.339C474.474 377.189 472.876 371.178 471.61 364.11C473.06 348.174 482.007 339.14 497.189 335.702C470.305 330.589 445.888 337.236 422.027 349.054C410.905 354.563 406.373 362.629 406.151 375.488ZM293.809 192.2C292.865 191.618 291.179 190.422 291.084 190.542C287.446 195.098 284.009 192.261 280.684 190.25C278.58 188.977 276.696 187.326 275.138 186.161C271.529 191.91 268.927 198.335 264.379 202.621C260.302 206.463 254.084 207.951 248.952 210.409C254.37 231.878 268.181 240.51 297.674 234.744C296.416 231.255 295.175 227.814 294.228 223.389C295.339 224.711 297.104 225.877 297.448 227.38C299.086 234.53 303.337 237.825 310.403 236.999C318.591 236.042 326.775 234.967 334.901 233.585C341.792 232.414 343.54 227.509 343.035 221.017C342.811 218.139 342.746 214.942 343.727 212.324C349.247 197.6 346.845 189.605 332.919 182.821C324.741 178.837 319.926 172.6 316.471 164.618C315.563 162.52 314.401 160.535 312.921 157.649C308.511 167.436 309.089 171.836 314.393 175.475C314.027 176.08 313.661 176.685 313.295 177.29C311.532 176.276 309.769 175.262 309.745 175.248C304.323 181.342 299.111 187.202 293.809 192.2ZM450.899 240.186C445.05 231.195 439.202 222.204 434.124 214.398C412.79 217.259 391.856 220.067 368.967 223.137C384.536 231.903 394.531 243.802 401.9 259.339C403.137 261.798 404.801 264.132 405.538 266.737C409.496 280.722 413.224 294.775 417.112 309.105C444.242 301.451 467.513 288.041 488.7 268.796C472.137 263.987 461.538 252.817 450.899 240.186ZM488.38 128.47C482.385 128.57 476.298 128.028 470.41 128.892C452.687 131.493 451.341 132.654 448.683 150.342C445.959 168.471 444.038 186.726 441.619 206.101C452.282 211.23 463.741 216.742 475.972 222.836C487.345 227.224 498.603 232.155 513.334 231.114C512.161 208.506 511.022 186.57 509.867 164.31C503.5 164.31 499.174 164.31 494.521 164.31C493.337 156.56 492.209 149.18 490.996 141.242C495.548 141.242 499.653 141.242 503.805 141.242C502.646 131.709 500.931 130.31 488.38 128.47ZM155.894 352.648C150.341 366.1 149.068 379.987 151.987 395.458C160.823 396.469 169.939 397.966 179.109 398.482C214.176 400.457 247.957 394.891 281.028 379.262C281.421 373.188 281.814 367.115 282.451 360.003C282.345 359.307 282.24 358.611 282.317 356.744C279.789 346.06 277.501 335.307 274.53 324.752C273.942 322.663 270.736 321.337 268.738 319.66C268.257 320.201 267.776 320.742 267.295 321.283C273.358 334.845 273.111 349.296 272.89 364.719C265.974 365.782 259.058 366.845 252.246 366.785C254.282 351.975 250.099 338.224 244.979 324.727C244.467 323.375 241.457 322.345 239.58 322.3C228.653 322.042 217.685 322.672 206.794 321.972C186.378 320.66 165.177 333.051 155.894 352.648ZM212.786 181.453C215.187 189.59 217.589 197.727 219.715 206.952C216.917 222.235 212.522 226.879 200.573 227.178C203.435 232.475 219.289 230.609 235.177 223.099C239.278 221.039 243.38 218.979 246.484 217.421C243.473 204.917 240.181 193.358 238.149 181.573C237.503 177.832 239.067 172.451 241.571 169.593C258.55 150.208 279.009 135.454 303.533 128.071C317.925 123.738 333.142 122.24 347.214 119.611C315.951 84.884 252.408 82.5611 215.92 123.238C202.421 138.135 194.362 155.535 191.814 176.541C200.548 171.423 206.64 175.24 212.786 181.453ZM299.809 336.436C299.209 337.623 298.61 338.81 298.033 339.952C301.418 341.149 304.384 342.198 307.659 343.356C305.021 353.466 299.181 360.447 291.573 365.576C287.29 368.463 285.03 371.156 284.952 376.61C284.918 379.009 282.145 382.445 279.782 383.531C272.409 386.919 264.78 389.93 256.99 392.13C244.527 395.649 231.854 398.399 219.048 401.528C221.011 408.628 222.988 415.782 225.034 423.183C262.783 412.686 299.797 402.394 336.929 392.069C323.689 342.683 310.689 294.195 297.467 244.877C260.085 255.252 223.075 265.523 185.47 275.96C189.105 289.518 192.47 302.489 196.201 315.35C196.587 316.68 199.125 318.133 200.72 318.204C211.863 318.696 223.024 319.103 234.17 318.926C237.368 318.876 240.591 316.954 243.706 315.651C250.382 312.857 256.995 309.908 264.465 306.661C265.372 311.405 265.885 314.092 266.115 315.294C269.898 317.235 273.566 318.019 275.383 320.32C277.766 323.338 279.958 323.875 283.519 323.922C290.241 324.012 296.951 325.118 304.799 325.918C302.739 330.458 301.583 333.003 299.809 336.436ZM400.35 325.195C403.47 324.298 406.572 323.329 409.713 322.52C414.877 321.191 416.263 317.882 414.917 312.894C410.75 297.448 406.677 281.975 402.468 266.54C401.157 261.734 398.409 259.622 393.115 261.128C371.931 267.154 350.669 272.897 329.453 278.809C324.701 280.133 322.61 282.852 324.149 288.295C328.504 303.69 332.577 319.17 336.599 334.659C338.032 340.181 340.907 341.769 346.352 340.19C363.933 335.092 381.597 330.291 400.35 325.195ZM351.439 393.167C368.307 388.271 385.175 383.375 402.221 378.428C403.616 371.065 405.19 362.756 407.075 352.809C402.118 359.955 398.289 366.054 393.826 371.627C392.005 373.901 389.009 375.738 386.204 376.565C372.398 380.636 358.462 384.254 344.612 388.176C342.987 388.636 340.219 390.221 340.328 390.89C341.233 396.465 336.675 395.82 334.137 396.281C312.524 400.209 295.988 412.852 280.896 427.991C279.198 429.695 277.442 432.13 277.186 434.399C275.982 445.08 287.296 461.123 297.769 464.221C299.18 437 303.171 425.509 319.499 412.306C328.816 404.772 340.053 399.7 351.439 393.167ZM167.433 332.363C172.777 328.784 178.121 325.205 184.496 320.936C178.922 321.609 174.388 321.95 169.928 322.731C151.57 325.945 138.713 338.398 136.374 356.686C135.249 365.488 136.192 374.581 136.398 383.538C136.566 390.858 140.397 394.605 148.049 394.589C145.528 371.352 148.429 349.729 167.433 332.363ZM169.356 280.35C164.602 281.806 159.848 283.262 154.803 284.807C157.077 293.369 159.034 301.128 161.275 308.801C161.656 310.105 163.111 311.784 164.316 312.028C173.744 313.939 183.231 315.542 193.331 317.353C189.662 303.72 186.096 290.467 182.455 276.939C178.009 278.089 174.23 279.067 169.356 280.35ZM124.818 384.369C127.655 386.192 130.492 388.015 133.994 390.266C127.828 352.052 136.102 326.663 171.298 318.646C144.221 315.395 122.214 330.876 118.661 356.761C117.406 365.903 115.149 376.209 124.818 384.369ZM522.252 350.936C518.427 347.726 514.603 344.516 510.038 340.685C504.502 358.689 492.602 369.531 479.113 378.785C484.273 388.309 494.007 390.896 502.294 385.282C512.974 378.047 519.333 367.565 523.559 355.565C523.929 354.516 523.121 353.038 522.252 350.936ZM192.73 426.399C194.178 427.88 195.941 430.843 197.024 430.605C205.249 428.796 213.341 426.361 221.934 423.994C219.695 415.822 217.678 408.462 215.887 401.926C205.569 401.926 196.19 401.926 186.262 401.926C188.444 410.35 190.379 417.815 192.73 426.399ZM166.247 194.217C167.422 196.612 167.977 199.973 169.877 201.236C178.283 206.825 187.722 207.618 199.359 206.597C182.792 193.127 180.025 175.242 177.769 155.973C169.789 168.144 165.497 179.832 166.247 194.217ZM446.095 216.575C443.475 214.605 440.854 212.635 438.234 210.665C439.294 213.858 441.146 216.131 443.127 218.28C457.473 233.842 472.563 248.475 492.402 256.668C502.081 260.665 505.693 258.461 508.072 247.924C485.175 242.843 465.749 230.605 446.095 216.575ZM344.112 233.761C332.439 237.326 320.766 240.892 309.083 244.461C310.229 250.936 311.309 257.043 312.7 264.905C323.207 259.612 333.09 255.072 342.536 249.731C349.502 245.792 349.939 240.763 344.112 233.761ZM308.298 73.6883C293.41 67.4713 279.619 71.3248 265.074 77.9578C281.426 83.8907 296.619 89.4036 311.813 94.9164C312.534 94.2947 313.255 93.6731 313.976 93.0514C312.332 86.8796 310.689 80.7077 308.298 73.6883ZM269.615 345.262C268.152 337.696 266.69 330.131 265.157 322.198C258.906 322.665 253.773 323.049 249.485 323.369C252.276 337.644 254.884 350.979 257.509 364.403C261.116 363.873 265.444 363.236 269.752 362.602C269.752 356.917 269.752 351.733 269.615 345.262ZM494.697 361.333C498.921 354.859 503.146 348.385 508.14 340.731C495.435 338.279 486.779 340.918 480.321 349.309C474.294 357.14 473.779 365.882 477.524 376.359C483.535 371.154 488.779 366.614 494.697 361.333ZM115.575 354.122C119.92 331.31 134.99 319.97 156.263 315.184C138.268 315.248 120.712 316.24 111.711 335.534C105.893 348.003 107.732 364.89 115.363 372.718C115.363 366.676 115.363 361.014 115.575 354.122ZM383.607 336.396C393.498 333.44 403.388 330.484 413.279 327.529C413.034 326.73 412.789 325.931 412.544 325.133C391.552 330.962 370.561 336.794 349.568 342.619C338.712 345.631 335.805 344 332.884 333.261C328.64 317.653 324.406 302.042 320.167 286.432C319.015 289.104 318.496 291.72 319.099 294.032C323.03 309.11 327.026 324.175 331.378 339.131C333.398 346.073 338.427 348.651 345.515 346.806C357.883 343.586 370.179 340.079 383.607 336.396ZM489.671 502.412C498.394 507.057 507.025 506.953 515.277 501.414C522.226 496.749 524.227 489.986 521.052 482.595C509.962 494.313 496.473 496.165 480.895 493.398C483.532 496.2 486.169 499.002 489.671 502.412ZM499.273 242.199C502.777 243.062 506.281 243.925 510.573 244.983C510.983 241.032 511.3 237.987 511.65 234.614C490.1 234.824 472.549 223.955 453.952 216.783C453.604 217.694 453.256 218.605 452.907 219.516C468.017 226.931 483.127 234.346 499.273 242.199ZM504.988 393.354C513.553 395.102 519.212 390.326 523.852 384.108C529.427 376.637 529.993 367.415 525.833 359.175C520.696 372.582 512.491 383.303 499.949 390.984C501.961 391.902 502.983 392.368 504.988 393.354ZM300.141 406.683C287.268 409.849 274.396 413.015 260.189 416.51C265.562 421.867 269.773 426.065 273.342 429.623C282.305 422.203 291.086 414.933 300.141 406.683ZM168.601 141.679C162.032 154.67 162.739 168.683 162.364 181.854C165.66 174.152 168.616 165.781 172.715 158.037C177.78 148.469 177.935 143.123 171.478 134.125C170.704 136.337 169.93 138.55 168.601 141.679ZM480.871 262.471C486.533 264.077 492.287 269.157 498.64 262.12C478.437 256.409 463.811 243.264 448.868 230.529C457.088 243.308 466.5 254.708 480.871 262.471ZM211.724 210.147C213.207 209.277 216.018 208.305 215.962 207.555C215.525 201.745 214.688 195.945 213.534 190.234C213.377 189.455 210.325 188.327 209.4 188.838C206.113 190.654 200.748 192.869 200.509 195.364C199.437 206.557 202.243 209.839 211.724 210.147ZM143.477 312.051C148.291 311.665 153.105 311.278 158.375 310.855C156.991 305.926 155.643 301.128 154.04 295.421C147.475 301.318 141.686 306.518 134.502 312.971C138.371 312.62 140.329 312.442 143.477 312.051ZM504.642 151.168C504.097 148.981 503.552 146.793 503.111 145.027C499.928 145.027 497.478 145.027 494.67 145.027C495.708 150.749 496.655 155.973 497.56 160.969C500.848 160.969 503.324 160.969 506.354 160.969C505.783 157.826 505.287 155.095 504.642 151.168ZM355.658 213.206C353.102 212.224 350.546 211.243 346.584 209.721C346.183 216.857 345.832 223.106 345.443 230.028C349.604 228.345 353.081 226.938 357.191 225.276C354.597 222.929 352.728 221.238 350.263 219.008C352.48 217.176 354.46 215.538 355.658 213.206ZM194.058 184.512C195.446 186.348 196.835 188.184 197.917 189.614C202.161 187.717 206.173 185.923 212.438 183.123C206.85 180.712 203.169 178.227 199.244 177.73C196.393 177.368 191.755 178.219 194.058 184.512ZM214.647 214.447C210.414 213.756 206.18 213.065 201.683 212.33C200.599 215.558 199.599 218.537 198.615 221.469C206.783 225.07 209.487 223.969 214.647 214.447ZM361.885 231.622C362.998 229.8 364.112 227.979 366.114 224.702C359.441 227.61 354.48 229.771 349.52 231.932C350.295 235.78 350.946 239.01 351.785 243.174C355.395 239.057 358.306 235.738 361.885 231.622ZM451.404 480.291C451.205 480.412 450.978 480.505 450.816 480.665C450.706 480.775 450.593 481.084 450.639 481.126C456.146 486.211 462.493 486.879 469.914 485.364C462.192 477.314 462.192 477.314 451.404 480.291ZM305.086 261.455C305.655 262.634 306.225 263.813 306.795 264.992C307.57 264.838 308.345 264.683 309.12 264.528C307.904 258.213 306.744 251.883 305.303 245.621C305.232 245.31 302.718 245.581 300.819 245.581C302.331 251.05 303.624 255.729 305.086 261.455ZM166.409 127.648C163.856 126.655 161.303 125.661 158.75 124.667C158.535 125.089 158.32 125.51 158.105 125.931C160.911 129.62 163.717 133.308 166.522 136.997C167.021 136.886 167.52 136.775 168.019 136.665C167.774 133.875 167.529 131.085 166.409 127.648ZM188.271 184.702C190.647 189.899 193.022 195.096 195.397 200.294C196.468 199.666 197.539 199.039 198.609 198.411C195.513 193.854 192.418 189.298 188.271 184.702ZM507.04 398.39C506.935 398.021 506.829 397.653 506.723 397.285C506.321 397.685 505.92 398.085 505.518 398.485C505.877 398.602 506.236 398.718 507.04 398.39Z" fill="#0A0C0E"/>
<path d="M539.981 284.234C543.179 280.343 542.951 277.119 541.12 272.896C533.035 254.249 536.87 234.668 550.792 220.658C564.497 206.868 583.936 203.6 602.401 211.496C604.844 212.54 608.383 211.949 611.097 211.084C615.696 209.618 619.904 206.821 624.529 205.508C631.102 203.643 634.658 206.954 633.116 213.788C631.998 218.743 629.713 223.568 627.192 228.007C625.173 231.562 624.672 234.388 626.016 238.472C632.011 256.693 628.487 273.227 615.16 286.812C601.821 300.409 585.678 303.573 567.57 298.205C564.552 297.311 560.68 298.332 557.487 299.373C552.458 301.013 547.829 304.127 542.738 305.319C536.883 306.691 533.677 303.157 535.005 297.208C535.966 292.903 538.102 288.871 539.981 284.234ZM550.293 226.089C533.415 249.143 539.016 279.229 562.833 291.839C583.931 276.277 602.411 257.794 617.812 236.218C618.948 234.627 618.32 230.408 616.991 228.517C601.281 206.159 571.14 204.807 550.293 226.089ZM593.363 269.852C584.522 277.791 575.682 285.73 566.916 293.603C581.147 300.848 600.073 297.314 612.588 284.906C625.206 272.396 628.928 252.94 621.876 237.953C612.692 248.259 603.382 258.707 593.363 269.852ZM540.602 290.394C540.063 291.687 539.182 292.948 539.058 294.281C538.834 296.698 539.06 299.158 539.099 301.6C541.5 301.459 544.127 301.906 546.254 301.054C550.605 299.312 554.687 296.873 559.073 294.621C554.064 289.989 549.777 286.026 545.182 281.777C543.691 284.527 542.364 286.974 540.602 290.394ZM621.709 228.61C624.57 223.35 628.004 218.313 630.096 212.753C631.555 208.878 628.013 207.764 625.071 208.808C620.015 210.601 615.186 213.058 610.145 215.288C614.297 220.146 617.616 224.03 621.709 228.61Z" fill="#0D1417"/>
<path d="M0.871094 435.075C3.75426 410.305 17.5693 394.543 39.5351 390.353C58.7598 386.685 78.8614 396.575 88.2765 414.334C97.3715 431.489 95.3494 452.133 83.1383 466.794C70.3188 482.185 50.1996 488.006 32.0985 481.561C13.2443 474.847 1.36718 457.415 0.871094 435.075ZM35.3289 452.476C36.4565 461.646 37.5841 470.815 38.671 479.654C58.6577 482.54 76.5072 474.375 82.78 460.167C76.3573 454.582 68.0928 450.027 68.9237 439.648C69.526 432.125 66.4973 426.671 60.8633 422.741C55.7389 419.166 50.199 416.118 44.5847 413.387C39.2857 410.81 36.1504 406.992 35.3349 401.108C35.0585 399.113 34.6265 397.141 34.2574 395.114C13.2414 401.326 0.849944 425.854 5.22771 439.523C10.1093 438.849 14.8731 437.708 19.6538 437.63C30.0506 437.46 34.078 441.206 35.3289 452.476ZM45.367 409.942C51.5719 413.578 58.5273 416.363 63.737 421.127C67.6808 424.733 71.7123 430.904 71.6316 435.864C71.4538 446.792 77.3321 452.134 85.0009 457.171C93.1286 443.399 92.115 424.389 82.1576 411.044C71.1933 396.35 56.5004 390.98 38.4529 393.998C37.8033 400.495 38.3177 406.081 45.367 409.942ZM35.4378 474.23C34.101 467.844 31.6553 461.454 31.6743 455.071C31.7069 444.113 29.0098 440.222 18.1777 440.757C13.743 440.976 9.37597 442.615 5.03151 443.596C8.27633 460.397 18.2621 472.826 31.6595 477.67C33.9827 478.51 36.3863 479.859 35.4378 474.23Z" fill="#0A1113"/>
<path d="M208.412 527.757C213.403 525.062 217.777 522.361 222.314 519.981C228.222 516.881 233.608 520.19 231.836 526.541C228.395 538.875 231.714 547.444 241.842 554.802C247.591 558.979 245.698 565.419 238.48 565.99C226.392 566.945 218.876 572.181 215.785 584.341C215.246 586.462 212.005 589.144 209.926 589.223C207.897 589.299 205.742 586.395 203.683 584.747C203.347 584.478 203.162 583.959 203.006 583.519C199.624 573.976 193.967 567.814 182.988 569.252C181.659 569.426 180.223 568.944 178.861 568.649C173.072 567.398 170.72 562.152 175.184 558.392C185.152 549.996 188.119 540.771 183.763 528.098C181.715 522.141 186.604 518.86 192.507 521.268C197.667 523.373 202.75 525.677 208.412 527.757ZM227.659 523.124C224.933 523.958 221.652 524.079 219.579 525.752C211.673 532.133 203.935 532.605 195.55 526.871C193.237 525.289 190.321 524.619 185.892 522.793C186.925 528.686 187.188 532.853 188.43 536.693C190.653 543.57 189.274 548.855 183.88 553.698C180.914 556.362 178.969 560.206 176.563 563.518C180.381 564.566 184.227 566.577 188.011 566.464C196.013 566.223 200.367 569.99 203.146 577.144C204.502 580.635 206.854 583.725 208.755 586.997C209.559 586.96 210.362 586.923 211.166 586.887C213.193 582.283 215.417 577.757 217.191 573.055C218.944 568.406 221.677 565.861 226.816 565.366C231.708 564.895 236.499 563.329 242.79 561.918C240.586 559.098 239.676 557.071 238.126 556.091C227.952 549.649 224.5 540.829 228.146 529.113C228.613 527.612 228.259 525.847 227.659 523.124Z" fill="#0C0D0B"/>
<path d="M441.519 0.626587C444.494 2.1863 447.052 3.91216 449.491 5.79811C449.913 6.12446 449.977 7.13314 449.958 7.81967C449.642 19.4078 454.792 26.579 465.947 29.727C468.331 30.3995 471.719 33.7989 471.584 35.7194C471.406 38.2636 468.255 40.6209 466.293 42.9823C465.879 43.48 465.113 43.7485 464.457 43.9521C454.985 46.8964 451.092 53.3628 451.275 63.4255C451.333 66.599 448.441 69.8283 446.9 73.0321C443.799 71.4763 439.684 70.7195 437.784 68.2184C431.5 59.9473 424.165 58.4619 414.754 61.5788C411.972 62.5002 407.02 61.8912 405.492 59.975C404.006 58.1118 405.534 53.6603 405.953 50.3736C406.095 49.2602 406.723 48.1025 407.413 47.1874C412.376 40.6095 411.674 34.2801 406.926 27.9382C405.674 26.2652 404.715 24.3263 403.839 22.4066C401.226 16.6837 404.492 11.0574 410.042 13.0124C423.621 17.796 432.447 12.1803 439.902 1.60866C440.152 1.25447 440.67 1.09642 441.519 0.626587ZM407.488 22.5566C413.816 31.464 417.351 40.4535 409.562 50.6085C408.086 52.5336 408.191 55.7165 407.567 58.3191C410.201 58.2881 413.039 58.9004 415.433 58.1132C425.071 54.9441 432.934 56.5284 439.105 65.3017C440.643 67.4888 443.487 68.7237 446.896 71.2645C447.71 66.1566 448.767 62.7187 448.702 59.3031C448.542 50.9301 452.02 45.4822 459.784 42.6936C461.95 41.9157 463.975 40.6703 465.973 39.4797C469.135 37.5951 470.314 34.7856 466.098 33.5127C453.249 29.6333 446.369 21.6876 446.551 7.64629C446.597 4.09406 443.562 1.81273 441.173 5.35599C433.359 16.9433 423.449 20.6897 410.2 16.5636C406.221 15.3244 405.331 18.0825 407.488 22.5566Z" fill="#0C0D0B"/>
<path d="M665.873 353.814C668.504 359.304 665.694 361.587 661.391 361.809C655.195 362.128 651.747 365.035 649.863 370.924C649.253 372.832 646.766 375.672 645.546 375.474C643.529 375.147 640.956 373.058 640.186 371.079C638.005 365.475 634.473 363.164 628.601 363.188C626.462 363.196 623.144 361.586 622.505 359.882C621.884 358.227 623.382 354.608 625.037 353.414C630.498 349.474 629.898 344.629 628.656 339.088C628.212 337.108 628.554 333.926 629.815 332.86C631.044 331.821 634.414 331.99 635.959 333.014C641.353 336.59 646.062 336.29 651.2 332.479C652.72 331.352 655.764 331.088 657.446 331.883C658.636 332.445 659.649 335.791 659.124 337.317C656.553 344.792 660.097 349.405 665.873 353.814ZM636.436 336.822C635.002 336.353 633.568 335.884 630.62 334.921C635.317 345.151 632.665 352.687 624.689 359.089C635.051 358.647 641.596 363.015 645.337 373.298C647.102 361.852 654.661 358.414 664.52 357.012C654.638 351.707 654 343.424 656.253 333.654C649.358 336.43 644.358 342.982 636.436 336.822Z" fill="#0D0F0D"/>
<path d="M66.6535 199.138C67.3103 200.902 67.9926 202.374 67.7128 203.622C66.1876 210.423 67.6499 215.586 73.5 220.049C77.9908 223.475 76.5423 227.845 70.6881 228.569C64.2039 229.37 60.131 232.056 58.2213 238.538C57.724 240.226 55.4164 242.694 54.2372 242.534C52.3829 242.282 49.9203 240.455 49.226 238.682C46.7324 232.313 42.3953 230.098 35.8647 229.906C30.0792 229.735 28.4828 225.549 32.728 221.531C37.7431 216.785 39.0039 212.085 37.129 205.331C35.5357 199.591 39.1034 196.909 44.1659 199.977C49.945 203.479 54.6918 203.306 60.017 199.388C61.4791 198.312 64.1297 198.911 66.6535 199.138ZM64.3635 206.203C64.3635 204.666 64.3635 203.13 64.3635 199.914C56.3439 208.177 48.3331 207.068 40.0065 201.29C40.6691 207.096 42.3754 211.785 41.3148 215.696C40.2939 219.46 36.412 222.42 32.2989 227.612C44.5845 224.831 49.8198 230.792 53.8067 239.82C56.3076 229.207 62.9678 224.951 73.2859 225.055C69.2271 218.705 60.5553 216.101 64.3635 206.203Z" fill="#0D0F0D"/>
<path d="M331.156 535.111C333.219 538.375 335.243 541.125 337.506 543.654C341.418 548.029 340.647 551.935 334.958 552.54C328.055 553.273 324.418 556.548 322.046 563.025C320.104 568.326 316.028 568.532 313.694 563.357C310.676 556.663 306.44 553.923 299.244 553.899C294.391 553.883 292.722 549.405 296.37 546.057C301.927 540.958 303.097 535.731 301.085 528.527C299.763 523.794 303.501 521.035 307.788 523.643C313.988 527.416 319.034 527.027 324.889 522.974C329.135 520.035 331.754 522.034 331.771 527.424C331.779 529.781 331.418 532.14 331.156 535.111ZM303.476 551.191C312.774 549.304 313.214 558.711 318.447 564.281C320.476 553.306 326.944 548.779 337.246 548.386C328.522 542.541 325.591 534.975 328.617 524.624C320.43 531.744 312.609 531.64 303.89 525.483C308.29 535.728 305.408 543.341 296.745 549.828C299.72 550.477 301.05 550.768 303.476 551.191Z" fill="#0C0D0B"/>
<path d="M584.43 80.0598C584.335 77.6604 584.096 75.795 583.851 73.9306C583.24 69.2881 586.039 68.0774 589.247 69.7652C593.195 71.8422 596.235 71.8534 600.005 69.4376C604.123 66.7993 606.457 69.1301 605.619 73.4621C604.778 77.8137 606.176 80.4664 609.191 83.2334C612.455 86.2286 612.023 89.4724 607.429 90.22C603.298 90.8922 600.973 92.4968 599.382 96.5463C597.532 101.251 594.828 100.95 591.836 96.8753C590.244 94.7063 587.835 92.4626 585.383 91.7751C578.077 89.7266 577.592 88.7491 582.604 82.834C583.206 82.124 583.726 81.3426 584.43 80.0598ZM604.247 87.6922C604.959 86.8921 606.437 85.7464 606.263 85.3454C604.482 81.2461 602.432 77.2678 600.775 73.9023C597.007 73.9023 592.208 73.9023 588.538 73.9023C587.303 78.2859 585.959 83.0578 584.849 87.0003C588.141 89.2564 592.196 92.0354 595.623 94.3836C597.772 92.517 600.476 90.1685 604.247 87.6922Z" fill="#0D0F0D"/>
<path d="M127.11 19.9186C125.629 24.473 126.554 27.5242 129.994 30.2967C133.796 33.3611 133.529 36.8383 128.428 37.6126C124.135 38.2642 122.026 40.1307 120.426 44.0308C118.796 48.0003 115.748 49.0906 113.481 44.5517C111.587 40.7583 109.073 39.086 104.98 38.6323C100.076 38.0887 99.4244 35.7396 102.335 31.41C104.069 28.829 105.021 25.1816 105.007 22.0196C104.984 16.6945 106.86 16.1817 111.415 17.2838C114.374 17.9998 117.959 17.6885 120.844 16.6394C124.311 15.3784 126.137 15.8327 127.11 19.9186ZM116.924 22.5773C114.14 21.8642 111.356 21.151 107.226 20.0933C111.385 26.4537 108.399 30.7607 105.077 33.7655C109.215 36.6555 113.269 39.4858 116.455 41.711C119.885 39.0281 123.824 35.9468 126.656 33.7319C125.149 29.3863 123.579 24.8615 121.949 20.1617C121.223 20.5383 119.605 21.3777 116.924 22.5773Z" fill="#0C0D0B"/>
<path d="M132.22 256.78C128.554 252.494 126.293 247.101 119.559 247.895C119.281 247.928 117.474 242.921 118.227 242.162C121.55 238.812 122.667 235.648 121.372 230.815C120.307 226.84 122.942 224.874 126.723 226.873C130.628 228.938 133.829 228.989 137.654 226.399C140.506 224.467 143.465 225.672 143.06 229.758C142.606 234.333 143.294 237.911 147.107 240.933C147.967 241.615 147.021 246.446 146.836 246.45C140.141 246.616 137.689 251.862 134.662 256.486C134.389 256.902 133.373 256.815 132.22 256.78ZM124.365 245.616C127.472 247.736 130.578 249.857 132.729 251.324C136.277 248.511 139.948 245.6 142.866 243.286C141.481 239.155 139.907 234.461 138.666 230.761C134.655 230.981 129.817 231.246 126.632 231.42C124.794 235.439 122.942 239.282 121.365 243.239C121.194 243.668 122.616 244.756 124.365 245.616Z" fill="#0F0E09"/>
<path d="M432.754 665.742C430.834 665.271 428.583 664.898 427.966 663.672C426.006 659.779 423.629 657.627 418.979 657.508C414.975 657.405 413.532 654.134 416.304 651.163C419.342 647.906 420.36 644.883 419.539 640.48C418.696 635.955 421.132 634.03 425.241 636.297C428.965 638.352 431.873 637.86 435.46 635.77C439.302 633.531 441.21 635.29 441.432 640.015C441.576 643.081 442.775 646.446 444.483 648.994C446.489 651.984 448.022 655.598 443.941 656.044C437.564 656.74 435.762 661.178 432.754 665.742ZM420.46 651.091C419.762 651.89 419.064 652.689 419.076 652.675C423.418 655.607 427.477 658.349 430.783 660.582C434.031 658.03 437.857 655.024 441.056 652.511C439.71 648.656 438.008 643.783 436.761 640.211C432.135 640.211 427.478 640.211 423.377 640.211C422.742 643.117 421.955 646.721 420.46 651.091Z" fill="#080B0C"/>
<path d="M300.119 335.992C301.584 333.003 302.739 330.457 304.8 325.918C296.952 325.118 290.242 324.012 283.52 323.922C279.959 323.875 277.767 323.338 275.383 320.319C273.567 318.019 269.899 317.234 266.115 315.294C265.886 314.092 265.372 311.405 264.466 306.661C256.996 309.908 250.383 312.857 243.707 315.651C240.592 316.954 237.369 318.875 234.171 318.926C223.025 319.102 211.863 318.695 200.721 318.203C199.125 318.133 196.588 316.679 196.202 315.35C192.471 302.489 189.106 289.518 185.471 275.959C223.076 265.523 260.085 255.252 297.468 244.877C310.69 294.195 323.69 342.683 336.93 392.069C299.798 402.394 262.784 412.686 225.035 423.183C222.989 415.781 221.012 408.628 219.049 401.528C231.855 398.399 244.528 395.649 256.991 392.13C264.781 389.93 272.41 386.919 279.783 383.531C282.145 382.445 284.918 379.009 284.953 376.61C285.031 371.155 287.291 368.463 291.573 365.576C299.182 360.447 305.021 353.466 307.66 343.355C304.385 342.197 301.418 341.148 298.034 339.952C298.611 338.81 299.21 337.623 300.119 335.992ZM298.368 281.835C295.99 272.786 293.613 263.738 291.145 254.345C277.537 258.171 264.686 261.784 251.12 265.598C253.847 275.668 256.39 285.058 259.147 295.24C272.817 290.988 285.589 287.015 298.368 281.835Z" fill="#FB9B00"/>
<path d="M528.937 460.552C524.827 474.349 517.748 485.876 503.189 489.561C486.708 493.733 473.703 487.007 463.732 473.637C431.957 481.904 400.1 488.117 367.466 488.913C346.159 489.434 325.998 485.169 307.822 473.005C303.471 470.093 301.571 466.589 301.323 461.482C300.492 444.434 305.904 429.933 318.84 417.896C324.836 420.623 329.827 423.571 334.955 426.247C352.987 435.66 372.82 435.679 392.31 437.771C403.968 439.022 415.902 440.13 427.011 443.618C445.986 449.576 464.46 457.219 483.05 464.409C498.048 470.21 512.611 472.592 526.263 461.063C526.873 460.548 528.033 460.707 528.937 460.552Z" fill="#D3EEFE"/>
<path d="M529.249 460.126C528.033 460.708 526.873 460.548 526.262 461.063C512.611 472.592 498.048 470.21 483.05 464.409C464.46 457.219 445.986 449.576 427.011 443.618C415.902 440.13 403.968 439.022 392.309 437.771C372.819 435.679 352.987 435.661 334.954 426.247C329.827 423.571 324.836 420.624 319.277 417.729C330.26 405.27 345.04 398.595 360.479 393.391C404.695 378.485 449.124 377.115 493.657 392.111C495.291 392.661 496.868 393.385 498.401 394.542C488.553 393.807 479.363 394.844 470.974 402.074C470.068 402.986 469.886 403.579 469.248 404.42C467.934 406.139 467.075 407.609 465.791 409.219C464.921 410.986 464.478 412.611 463.541 414.546C460.096 423.862 461.109 432.513 465.475 440.779C465.862 441.512 467.263 441.69 468.291 442.039C468.389 441.952 468.169 442.095 467.666 442.446C469.375 445.374 471.587 447.951 473.82 450.581C473.84 450.635 473.95 450.666 474.009 451.214C475.17 452.703 476.272 453.646 477.35 454.724C477.325 454.859 477.751 454.983 477.751 454.983C477.751 454.983 478.184 454.939 478.691 455.155C482.148 455.69 485.098 456.009 488.011 456.225C487.973 456.121 487.766 456.187 487.249 456.681C492.527 457.764 498.322 458.355 504.491 458.907C506.165 458.2 507.466 457.532 509.446 456.473C510.242 454.902 510.362 453.721 510.825 452.637C511.549 452.001 511.928 451.268 512.491 450.871C512.926 451.222 513.178 451.236 513.695 451.745C514.82 451.709 515.678 451.177 516.998 450.3C516.506 449.369 515.551 448.784 514.948 448.503C516.488 447.763 517.677 446.72 519.484 445.919C520.604 445.029 521.105 443.897 521.54 442.728C521.474 442.691 521.609 442.746 522.131 442.455C522.77 441.371 522.887 440.579 523.266 439.605C523.725 438.927 523.585 438.566 523.623 438.083C523.785 431.858 523.431 425.891 523.326 419.698C523.711 418.921 523.51 418.57 522.949 417.885C522.337 415.689 521.749 414.025 521.445 412.095C521.912 411.643 522.095 411.458 522.277 411.272C533.102 426.106 534.645 442.386 529.249 460.126Z" fill="#FDFDFD"/>
<path d="M219.99 205.863C217.589 197.727 215.188 189.59 213.066 180.634C213.582 177.292 213.977 174.772 214.02 172.246C214.102 167.406 213.692 162.542 214.008 157.724C214.773 146.062 215.838 134.42 216.782 122.77C252.409 82.5608 315.952 84.8837 347.215 119.611C333.142 122.24 317.926 123.738 303.533 128.071C279.01 135.454 258.551 150.208 241.571 169.592C239.067 172.451 237.504 177.832 238.149 181.573C240.182 193.357 243.474 204.916 246.484 217.42C243.38 218.979 239.279 221.039 234.24 222.926C228.865 217.124 224.428 211.493 219.99 205.863ZM284.701 127.88C287.068 126.011 289.768 124.447 291.744 122.218C298.573 114.511 295.877 105.524 286.066 102.637C276.794 99.9094 263.022 104.475 257.11 112.235C251.205 119.987 253.471 128.955 262.993 130.569C269.622 131.692 276.832 129.264 284.701 127.88Z" fill="#FBFBFC"/>
<path d="M399.79 325.285C381.597 330.291 363.933 335.092 346.352 340.189C340.907 341.768 338.033 340.181 336.599 334.659C332.577 319.169 328.504 303.69 324.15 288.295C322.61 282.852 324.702 280.133 329.454 278.809C350.67 272.897 371.931 267.154 393.116 261.128C398.409 259.622 401.157 261.734 402.468 266.54C406.677 281.974 410.75 297.447 414.918 312.894C416.263 317.882 414.878 321.191 409.713 322.52C406.572 323.329 403.47 324.298 399.79 325.285ZM333.627 288.624C327.981 296.191 333.563 306.11 341.205 306.878C346.997 307.46 351.173 304.898 353.242 299.502C355.228 294.323 353.739 289.637 349.362 286.392C344.133 282.515 339.01 283.263 333.627 288.624ZM341.322 319.917C343.753 321.653 346.013 324.21 348.687 324.79C350.087 325.093 353.096 322.259 353.825 320.256C355.314 316.162 353.505 312.508 349.175 311.711C344.197 310.794 341.444 313.633 341.322 319.917Z" fill="#B2DFFC"/>
<path d="M279.978 379.709C247.958 394.891 214.177 400.457 179.11 398.482C169.94 397.965 160.823 396.469 151.988 395.458C149.069 379.986 150.342 366.1 156.565 352.807C172.381 356.555 187.367 361.537 202.714 363.336C218.009 365.129 233.666 363.729 249.831 363.729C250.199 364.394 251.171 366.151 252.143 367.908C259.059 366.845 265.975 365.781 273.603 364.065C275.07 361.395 275.825 359.377 276.877 356.566C278.521 356.987 280.328 357.451 282.136 357.915C282.241 358.611 282.346 359.307 282.04 360.961C281.078 367.849 280.528 373.779 279.978 379.709Z" fill="#D2EDFC"/>
<path d="M475.201 222.253C463.743 216.741 452.284 211.23 441.621 206.101C444.04 186.726 445.961 168.471 448.685 150.342C451.343 132.654 452.689 131.493 470.412 128.892C476.3 128.027 482.387 128.57 488.885 129.42C488.45 144.878 488.565 159.56 486.296 173.849C483.705 190.166 478.992 206.133 475.201 222.253Z" fill="#FDFDFD"/>
<path d="M451.331 241.113C461.538 252.817 472.137 263.987 488.7 268.796C467.513 288.04 444.242 301.451 417.112 309.104C413.224 294.774 409.496 280.722 405.538 266.737C404.801 264.131 403.137 261.798 402.076 258.589C418.612 252.263 434.971 246.688 451.331 241.113Z" fill="#D2EEFD"/>
<path d="M252.194 367.346C251.17 366.151 250.198 364.394 249.83 363.729C233.665 363.729 218.008 365.129 202.713 363.336C187.366 361.537 172.38 356.555 156.979 352.492C165.176 333.051 186.378 320.66 206.794 321.972C217.685 322.671 228.653 322.042 239.58 322.3C241.457 322.345 244.467 323.375 244.979 324.726C250.098 338.224 254.282 351.974 252.194 367.346Z" fill="#FDFDFD"/>
<path d="M293.899 193.061C299.111 187.201 304.323 181.342 309.745 175.247C309.77 175.262 311.533 176.276 313.295 177.29C313.661 176.685 314.027 176.079 314.393 175.474C309.089 171.836 308.512 167.435 312.922 157.649C314.402 160.534 315.563 162.519 316.472 164.618C319.926 172.6 324.741 178.836 332.92 182.821C346.845 189.605 349.247 197.6 343.728 212.323C342.746 214.941 342.811 218.139 343.035 221.017C343.54 227.508 341.792 232.413 334.902 233.585C326.775 234.967 318.591 236.042 310.404 236.999C303.337 237.825 299.086 234.529 297.449 227.38C297.104 225.876 295.339 224.71 293.686 223.588C292.703 222.052 292.263 220.318 292.118 219.744C290.608 221.166 288.897 224.164 287.189 224.163C276.208 224.155 265.226 223.496 259.186 213.809C263.953 208.133 268.32 202.839 272.804 197.65C274.194 196.041 275.902 194.716 277.352 193.814C278.935 198.393 278.788 203.888 285.376 205.22C285.376 202.054 285.376 199.734 285.881 197.392C288.89 195.934 291.395 194.497 293.899 193.061ZM300.729 218.44C300.374 219.349 300.02 220.259 299.665 221.168C300.451 221.364 301.236 221.561 302.545 222.652C315.498 228.855 327.85 229.182 338.562 219.652C337.607 214.88 336.804 210.864 336.688 206.206C338.364 202.583 340.04 198.96 341.945 194.844C334.003 199.165 327.201 202.867 320.69 206.409C321.844 207.11 323.701 208.237 326.456 209.683C329.112 209.953 331.768 210.222 333.829 210.431C336.556 219.036 332.277 221.592 325.315 223.206C317.362 225.051 310.241 223.302 302.828 219.887C302.58 219.589 302.436 219.246 303.055 218.57C303.079 218.277 303.103 217.985 303.126 217.693C302.611 217.785 302.095 217.877 300.729 218.44Z" fill="#F5F7F8"/>
<path d="M286.336 138.948C288.186 138 290.003 136.979 291.891 136.117C302.668 131.197 305.707 132.038 314.152 143.007C309.97 143.336 306.446 143.613 302.286 143.94C303.188 146.124 304.015 148.125 304.874 150.204C303.134 154.057 294.178 151.82 297.085 158.937C297.729 160.515 303.016 160.127 306.726 160.736C307.152 170.548 302.039 179.209 295.756 188.36C293.871 185.31 292.475 183.05 290.745 180.25C289.584 183.605 288.637 186.341 287.073 190.86C281.685 186.484 277.178 182.824 273.911 180.171C275.418 175.401 276.512 171.938 277.606 168.476C275.631 168.556 272.649 167.834 271.862 168.86C269.056 172.515 266.997 176.763 264.656 180.788C266.684 181.197 268.712 181.607 272.214 182.315C268.369 189.212 264.278 196.55 259.475 205.166C256.814 201.696 255.472 199.945 254.147 198.218C252.417 201.132 250.605 204.184 248.793 207.236C248.128 207.239 247.462 207.242 246.797 207.245C244.769 197.681 242.446 188.166 240.94 178.518C240.599 176.332 242.767 173.432 244.356 171.307C247.565 167.013 251.17 163.026 255.35 158.03C257.654 163.147 259.037 166.222 260.514 169.502C268.836 165.837 273.392 159.713 276.109 151.056C278.498 152.764 280.349 154.945 282.499 157.478C287.326 151.334 287.612 145.301 286.336 138.948Z" fill="#A1D9FA"/>
<path d="M475.588 222.544C478.992 206.133 483.705 190.166 486.296 173.849C488.565 159.56 488.45 144.878 489.394 129.704C500.934 130.31 502.649 131.708 503.808 141.241C499.655 141.241 495.55 141.241 490.998 141.241C492.212 149.18 493.339 156.56 494.524 164.31C499.177 164.31 503.503 164.31 509.869 164.31C511.025 186.57 512.163 208.505 513.336 231.114C498.606 232.155 487.347 227.224 475.588 222.544Z" fill="#D1ECFA"/>
<path d="M451.115 240.65C434.972 246.689 418.612 252.263 401.857 258.142C394.531 243.801 384.536 231.903 368.967 223.136C391.856 220.067 412.79 217.259 434.124 214.398C439.202 222.204 445.05 231.195 451.115 240.65Z" fill="#FCFCFC"/>
<path d="M350.932 393.343C340.053 399.7 328.816 404.772 319.499 412.306C303.171 425.509 299.18 437 297.769 464.22C287.296 461.123 275.982 445.08 277.186 434.398C277.442 432.13 279.198 429.694 280.896 427.991C295.988 412.851 312.524 400.209 334.137 396.281C336.675 395.82 341.233 396.465 340.328 390.89C340.219 390.221 342.987 388.636 344.612 388.176C358.462 384.253 372.397 380.636 386.204 376.565C389.009 375.738 392.005 373.901 393.826 371.627C398.289 366.054 402.118 359.954 407.075 352.808C405.19 362.756 403.616 371.065 402.221 378.427C385.175 383.375 368.307 388.271 350.932 393.343Z" fill="#64C3F3"/>
<path d="M406.759 374.523C406.373 362.629 410.905 354.563 422.027 349.054C445.888 337.236 470.304 330.589 497.189 335.702C482.006 339.139 473.059 348.174 470.941 364.442C469.63 364.51 468.957 363.956 468.35 364.022C451.889 365.823 435.387 367.357 419.013 369.78C415.069 370.363 408.365 368.686 408.034 376.441C407.609 375.802 407.184 375.162 406.759 374.523Z" fill="#FBFBFC"/>
<path d="M338.594 350.763C350.938 347.82 363.322 345.04 375.613 341.884C386.366 339.122 397.015 335.938 408.089 332.835C408.691 340.25 408.222 346.878 403.268 352.805C399.377 357.461 395.998 362.621 392.848 367.843C390.265 372.123 386.894 374.201 381.004 373.727C370.231 368.751 360.396 364.239 350.824 359.208C346.478 356.924 342.654 353.61 338.594 350.763Z" fill="#FBFBFC"/>
<path d="M499.189 508.983C501.969 508.83 504.749 508.676 508.44 508.941C515.689 511.509 521.889 514.558 528.397 515.582C536.682 516.886 544.702 515.279 549.594 506.909C561.771 512.32 573.949 517.731 586.583 523.345C579.466 526.048 577.352 532.254 578.68 540.783C564.306 537.685 550.259 534.514 536.622 530.046C522.915 525.554 509.989 519.09 499.189 508.983Z" fill="#65C5FA"/>
<path d="M487.89 513.098C492.794 516.341 495.092 521.026 496.839 526.717C499.494 535.367 503.437 543.609 507.103 552.695C499.375 549.403 493.308 551.135 488.217 558.205C480.77 545.782 473.295 533.715 467.748 520.789C463.455 510.783 461.574 499.704 458.621 489.101C460.542 489.259 462.462 489.416 465.008 490.21C466.87 493.632 467.835 496.586 469.394 499.169C473.693 506.294 478.399 513.043 487.89 513.098Z" fill="#64C4F8"/>
<path d="M496.294 412.072C498.178 408.348 500.062 404.625 502.463 399.88C505.525 401.951 508.66 404.073 512.379 406.784C514.07 408.575 515.177 409.776 516.515 411.474C516.203 414.376 515.66 416.78 514.931 419.515C514.177 420.974 513.607 422.102 512.98 423.758C512.723 424.959 512.525 425.631 512.167 426.535C511.896 427.312 511.786 427.858 511.14 428.51C510.031 430.205 509.457 431.794 508.895 433.392C508.908 433.402 508.887 433.377 508.305 433.332C507.178 435.239 506.635 437.191 506.117 439.13C506.143 439.117 506.156 439.06 505.84 438.49C503.725 439.205 502.026 440.674 500.109 441.738C493.542 445.382 486.899 448.884 479.844 452.091C477.586 451.383 475.769 451.025 473.953 450.666C473.953 450.666 473.843 450.635 474.434 450.357C472.742 447.417 470.457 444.756 468.172 442.094C468.172 442.094 468.391 441.952 468.737 441.627C469.329 439.609 469.576 437.916 469.812 436.234C469.802 436.244 469.777 436.261 470.151 436.895C471.687 436.151 472.848 434.771 474.001 433.397C473.993 433.402 473.979 433.416 474.429 434.038C475.978 433.064 477.077 431.467 478.246 429.483C479.468 427.706 480.62 426.316 482.107 425.632C484.092 425.613 485.74 424.888 487.717 423.869C488.257 423.06 488.469 422.545 488.895 421.642C490.079 418.447 491.048 415.64 492.017 412.833C492.017 412.833 492.425 413.263 492.931 413.732C494.389 413.491 495.342 412.781 496.294 412.072Z" fill="#65C4F7"/>
<path d="M167.056 332.694C148.429 349.729 145.528 371.352 148.049 394.589C140.397 394.604 136.566 390.858 136.398 383.538C136.192 374.581 135.249 365.488 136.374 356.686C138.713 338.398 151.569 325.944 169.928 322.731C174.388 321.95 178.922 321.609 184.496 320.936C178.121 325.205 172.777 328.784 167.056 332.694Z" fill="#64C3F4"/>
<path d="M169.903 280.197C174.229 279.067 178.009 278.089 182.455 276.938C186.096 290.467 189.662 303.72 193.331 317.353C183.231 315.542 173.744 313.939 164.316 312.028C163.111 311.783 161.656 310.105 161.275 308.801C159.034 301.128 157.077 293.369 154.803 284.806C159.848 283.261 164.602 281.805 169.903 280.197Z" fill="#F97200"/>
<path d="M364.35 234.097C365.814 231.781 367.279 229.466 368.84 226.999C381.308 234.076 390.278 243.827 396.654 256.772C376.504 262.348 356.718 267.822 336.529 272.933C338.054 271.338 339.954 270.062 341.911 268.885C353.495 261.922 361.749 252.269 365.098 238.783C365.447 237.375 364.627 235.666 364.35 234.097Z" fill="#FAFAFA"/>
<path d="M124.409 384.035C115.149 376.209 117.406 365.903 118.661 356.761C122.214 330.876 144.221 315.395 171.298 318.646C136.102 326.663 127.829 352.052 133.994 390.266C130.492 388.015 127.655 386.192 124.409 384.035Z" fill="#64C3F4"/>
<path d="M522.559 351.347C523.124 353.037 523.931 354.516 523.562 355.565C519.335 367.564 512.976 378.047 502.297 385.281C494.009 390.896 484.275 388.308 479.115 378.785C492.604 369.531 504.504 358.689 510.04 340.685C514.605 344.516 518.43 347.726 522.559 351.347Z" fill="#65C4F7"/>
<path d="M258.211 236.937C261.834 240.831 265.456 244.725 269.605 249.186C258.202 252.34 247.017 255.567 235.74 258.413C234.01 258.849 231.673 257.886 229.924 256.966C219.919 251.705 211.414 244.617 205.037 235.29C214.813 232.591 224.478 229.923 234.683 227.797C235.281 229.083 235.338 229.828 235.198 231.036C231.503 235.981 230.812 241.164 235.16 244.721C237.857 246.928 242.894 248.081 246.211 247.172C252.071 245.564 252.746 239.963 252.37 234.427C254.203 234.602 255.525 234.738 256.846 234.874C256.846 234.874 256.803 235.015 256.807 235.493C257.277 236.293 257.744 236.615 258.211 236.937Z" fill="#D1EBF7"/>
<path d="M338.276 350.405C342.655 353.61 346.479 356.924 350.825 359.208C360.397 364.239 370.232 368.751 380.465 373.707C367.001 377.958 353.031 381.977 338.632 386.119C334.785 371.736 330.839 356.981 327.203 341.67C327.823 341.082 328.132 341.051 328.441 341.019C331.613 344.028 334.785 347.038 338.276 350.405Z" fill="#D2ECFA"/>
<path d="M406.457 375.005C407.186 375.162 407.611 375.801 408.036 376.441C408.367 368.686 415.071 370.363 419.015 369.779C435.389 367.357 451.89 365.823 468.351 364.022C468.959 363.956 469.632 364.509 470.776 364.971C472.877 371.178 474.476 377.189 476.112 383.339C454.371 378.584 432.071 376.977 409.569 379.239C406.505 379.547 405.082 378.829 406.457 375.005Z" fill="#D1EBF9"/>
<path d="M277.464 193.261C275.902 194.716 274.195 196.041 272.804 197.65C268.321 202.839 263.953 208.133 259.186 213.809C265.226 223.496 276.208 224.155 287.189 224.163C288.898 224.164 290.609 221.166 292.118 219.744C292.264 220.318 292.703 222.052 293.539 224.08C295.176 227.814 296.417 231.255 297.675 234.744C268.182 240.51 254.37 231.877 248.953 210.409C254.085 207.95 260.303 206.463 264.38 202.621C268.928 198.335 271.53 191.91 275.139 186.161C276.697 187.325 278.581 188.977 280.685 190.25C284.01 192.261 287.447 195.098 291.084 190.542C291.18 190.422 292.866 191.618 293.855 192.63C291.395 194.498 288.891 195.934 285.482 197.118C282.207 195.664 279.836 194.462 277.464 193.261Z" fill="#D1EBF7"/>
<path d="M363.983 234.353C364.627 235.666 365.447 237.375 365.097 238.783C361.749 252.269 353.495 261.922 341.911 268.885C339.953 270.062 338.053 271.338 335.969 273.065C330.627 275.558 325.443 277.554 319.274 279.777C315.78 280.416 313.272 280.828 310.763 281.241C309.568 277.205 308.372 273.17 306.975 268.454C329.342 262.81 349.12 253.171 363.983 234.353Z" fill="#D2EDFB"/>
<path d="M192.522 425.84C190.379 417.815 188.445 410.349 186.262 401.925C196.19 401.925 205.569 401.925 215.888 401.925C217.679 408.462 219.695 415.822 221.934 423.994C213.341 426.36 205.249 428.796 197.024 430.604C195.941 430.843 194.178 427.879 192.522 425.84Z" fill="#F97200"/>
<path d="M481.772 424.926C480.62 426.316 479.469 427.706 477.718 429.342C476.072 430.864 475.025 432.14 473.979 433.416C473.979 433.416 473.994 433.402 473.564 433.086C472.016 433.933 470.897 435.097 469.778 436.261C469.778 436.261 469.802 436.245 469.309 436.036C467.364 431.914 465.913 428.002 464.641 423.813C464.95 423.082 464.882 422.662 464.887 421.647C464.786 418.758 464.412 416.498 464.037 414.237C464.481 412.611 464.925 410.986 466.356 409.914C469.266 408.81 473.168 407.923 469.706 404.171C469.889 403.578 470.071 402.986 470.479 402.394C472.425 402.481 474.58 403.289 475.795 402.532C482.64 398.271 489.731 396.623 498.813 399.132C496.695 403.702 494.781 407.829 492.443 412.394C491.049 415.64 490.08 418.447 488.922 420.909C488.276 420.411 487.82 420.259 487.056 420.149C485.814 421.297 484.879 422.403 483.558 423.708C482.705 424.246 482.238 424.586 481.772 424.926Z" fill="#65C4F7"/>
<path d="M166.127 193.643C165.496 179.832 169.788 168.143 177.769 155.973C180.025 175.241 182.792 193.127 199.359 206.597C187.721 207.618 178.283 206.825 169.877 201.236C167.977 199.972 167.421 196.612 166.127 193.643Z" fill="#F67100"/>
<path d="M216.351 123.004C215.838 134.42 214.773 146.062 214.008 157.724C213.691 162.542 214.102 167.405 214.019 172.246C213.976 174.772 213.581 177.292 212.873 180.164C206.64 175.24 200.548 171.422 191.814 176.54C194.362 155.534 202.421 138.135 216.351 123.004Z" fill="#D2ECFA"/>
<path d="M446.495 216.885C465.751 230.605 485.177 242.843 508.075 247.923C505.696 258.461 502.083 260.664 492.405 256.668C472.565 248.474 457.475 233.841 443.129 218.28C441.148 216.131 439.297 213.858 438.236 210.665C440.857 212.635 443.477 214.605 446.495 216.885Z" fill="#64C3F2"/>
<path d="M344.611 233.517C349.94 240.762 349.503 245.792 342.537 249.73C333.091 255.072 323.209 259.612 312.702 264.905C311.31 257.043 310.23 250.936 309.084 244.461C320.767 240.892 332.44 237.326 344.611 233.517Z" fill="#D1EBF7"/>
<path d="M308.672 74.1118C310.689 80.7074 312.332 86.8793 313.975 93.0511C313.254 93.6728 312.534 94.2945 311.813 94.9161C296.619 89.4033 281.426 83.8905 265.074 77.9575C279.619 71.3245 293.41 67.4711 308.672 74.1118Z" fill="#F87201"/>
<path d="M498.639 508.858C509.989 519.09 522.915 525.555 536.622 530.046C550.259 534.514 564.306 537.685 578.78 541.391C580.502 543.914 581.618 546.47 582.756 549.076C560.836 551.2 496.808 522.228 490.541 507.035C493.254 507.645 495.672 508.189 498.639 508.858Z" fill="#33B0ED"/>
<path d="M269.683 345.905C269.752 351.732 269.752 356.917 269.752 362.602C265.444 363.236 261.116 363.872 257.509 364.403C254.884 350.979 252.276 337.644 249.484 323.369C253.772 323.049 258.906 322.665 265.156 322.198C266.69 330.13 268.152 337.696 269.683 345.905Z" fill="#B0DCF7"/>
<path d="M494.363 361.703C488.782 366.613 483.537 371.154 477.526 376.359C473.782 365.882 474.296 357.14 480.323 349.309C486.781 340.918 495.438 338.279 508.142 340.731C503.148 348.385 498.924 354.859 494.363 361.703Z" fill="#64C4F6"/>
<path d="M115.469 354.737C115.363 361.014 115.363 366.676 115.363 372.718C107.731 364.89 105.893 348.002 111.71 335.533C120.712 316.24 138.268 315.247 156.263 315.184C134.99 319.97 119.92 331.31 115.469 354.737Z" fill="#62C0ED"/>
<path d="M549.316 506.528C544.702 515.279 536.682 516.886 528.397 515.583C521.889 514.558 515.689 511.509 509.037 508.941C519.484 503.608 521.634 501.537 526.285 491.485C533.882 496.381 541.459 501.263 549.316 506.528Z" fill="#33B0EF"/>
<path d="M458.143 488.926C461.575 499.704 463.455 510.783 467.749 520.789C473.296 533.715 480.771 545.782 487.832 558.493C487.06 561.556 485.873 564.344 484.33 567.968C468.304 543.033 457.707 516.623 452.043 487.148C454.377 487.813 456.021 488.281 458.143 488.926Z" fill="#33B0EF"/>
<path d="M383.056 336.544C370.179 340.079 357.883 343.586 345.515 346.806C338.428 348.651 333.399 346.073 331.379 339.131C327.026 324.175 323.03 309.109 319.099 294.032C318.496 291.719 319.015 289.104 320.168 286.431C324.406 302.041 328.64 317.653 332.885 333.261C335.805 344 338.712 345.63 349.568 342.618C370.561 336.794 391.553 330.961 412.545 325.132C412.79 325.931 413.034 326.73 413.279 327.528C403.389 330.484 393.498 333.44 383.056 336.544Z" fill="#63C2E4"/>
<path d="M489.242 502.108C486.172 499.002 483.535 496.2 480.898 493.398C496.476 496.165 509.965 494.313 521.055 482.595C524.23 489.986 522.229 496.749 515.28 501.414C507.028 506.953 498.397 507.057 489.242 502.108Z" fill="#AFDBF4"/>
<path d="M498.758 241.98C483.13 234.346 468.02 226.931 452.91 219.516C453.259 218.605 453.607 217.694 453.955 216.783C472.552 223.955 490.103 234.824 511.653 234.614C511.302 237.987 510.986 241.032 510.576 244.982C506.284 243.925 502.78 243.062 498.758 241.98Z" fill="#63C2EE"/>
<path d="M504.498 393.094C502.985 392.368 501.964 391.902 499.951 390.984C512.493 383.302 520.699 372.582 525.835 359.174C529.995 367.415 529.429 376.637 523.854 384.108C519.214 390.326 513.555 395.102 504.498 393.094Z" fill="#64C3F2"/>
<path d="M300.005 407.173C291.087 414.933 282.305 422.202 273.342 429.623C269.773 426.064 265.563 421.867 260.189 416.51C274.396 413.015 287.269 409.849 300.005 407.173Z" fill="#D2ECF7"/>
<path d="M168.878 141.221C169.929 138.55 170.703 136.337 171.485 134.128C177.934 143.123 177.78 148.469 172.715 158.037C168.615 165.781 165.659 174.152 162.363 181.854C162.739 168.683 162.032 154.67 168.878 141.221Z" fill="#F67100"/>
<path d="M480.426 262.184C466.503 254.708 457.091 243.308 448.871 230.529C463.815 243.264 478.44 256.409 498.643 262.12C492.29 269.157 486.536 264.077 480.426 262.184Z" fill="#63C2EE"/>
<path d="M282.226 357.33C280.328 357.451 278.521 356.988 276.876 356.566C275.824 359.377 275.07 361.395 273.844 363.543C273.111 349.296 273.358 334.845 267.295 321.283C267.776 320.742 268.257 320.201 268.738 319.66C270.736 321.337 273.942 322.662 274.53 324.752C277.501 335.307 279.789 346.06 282.226 357.33Z" fill="#EAEFF0"/>
<path d="M211.132 210.174C202.242 209.839 199.436 206.557 200.508 195.364C200.747 192.869 206.113 190.654 209.399 188.837C210.324 188.326 213.376 189.455 213.533 190.234C214.687 195.945 215.524 201.744 215.961 207.555C216.017 208.304 213.206 209.277 211.132 210.174Z" fill="#64C3F4"/>
<path d="M219.853 206.408C224.428 211.494 228.865 217.124 233.745 222.988C219.29 230.609 203.436 232.475 200.574 227.177C212.523 226.878 216.917 222.235 219.853 206.408Z" fill="#D2ECF7"/>
<path d="M250.553 66.6216C262.913 64.2495 275.251 64.1373 288.129 66.0774C278.872 69.5928 270.616 74.1401 261.877 75.5172C256.621 76.3457 250.613 72.2356 245.23 69.8753C246.726 68.9723 247.933 68.5388 249.567 67.9757C250.207 67.4046 250.42 66.9632 250.591 66.5276C250.548 66.5334 250.553 66.6216 250.553 66.6216Z" fill="#F87200"/>
<path d="M487.724 512.607C478.401 513.043 473.694 506.293 469.395 499.169C467.837 496.586 466.871 493.631 465.561 490.387C472.004 487.806 477.308 487.267 479.722 496.202C481.238 501.814 484.873 506.832 487.724 512.607Z" fill="#33B0ED"/>
<path d="M264.749 236.922C272.717 237.535 280.677 238.338 288.656 238.703C295.082 238.997 301.531 238.762 307.967 240.328C297.471 242.506 287.041 245.614 276.448 246.381C272.502 246.667 268.174 241.479 264.074 238.143C264.335 237.306 264.542 237.114 264.749 236.922Z" fill="#62C0ED"/>
<path d="M277.464 148.974C276.01 149.713 274.107 150.084 273.18 151.256C269.511 155.89 266.147 160.775 262.501 165.8C257.365 159.762 258.862 156.138 263.891 152.982C270.42 148.885 276.8 144.542 284.149 140.345C284.163 144.256 283.273 148.126 282.188 152.843C279.85 150.928 278.657 149.951 277.464 148.974Z" fill="#8AD2F3"/>
<path d="M519.146 403.38C516.947 401.356 514.748 399.333 513.004 397.728C518.472 393.105 524.069 388.373 530.927 382.576C528.884 391.171 526.98 399.178 524.814 408.292C522.896 406.53 521.99 405.698 520.603 404.359C519.883 403.51 519.558 403.353 519.146 403.38Z" fill="#CEE6F0"/>
<path d="M142.882 312.157C140.329 312.441 138.371 312.619 134.502 312.971C141.686 306.518 147.475 301.318 154.04 295.42C155.643 301.128 156.991 305.925 158.375 310.854C153.105 311.278 148.291 311.664 142.882 312.157Z" fill="#F4F5F5"/>
<path d="M504.72 151.765C505.291 155.094 505.787 157.826 506.357 160.969C503.327 160.969 500.851 160.969 497.564 160.969C496.658 155.973 495.711 150.749 494.674 145.026C497.482 145.026 499.931 145.026 503.115 145.026C503.555 146.793 504.1 148.98 504.72 151.765Z" fill="#AFDBF4"/>
<path d="M356.05 213.553C354.461 215.537 352.48 217.175 350.263 219.008C352.728 221.238 354.597 222.929 357.191 225.275C353.081 226.938 349.604 228.344 345.443 230.027C345.832 223.106 346.184 216.856 346.585 209.721C350.546 211.242 353.102 212.224 356.05 213.553Z" fill="#61BDE9"/>
<path d="M193.708 184.152C191.756 178.219 196.393 177.368 199.245 177.729C203.169 178.227 206.85 180.712 212.438 183.123C206.173 185.923 202.161 187.717 197.917 189.614C196.835 188.183 195.447 186.347 193.708 184.152Z" fill="#63C2F0"/>
<path d="M214.518 214.949C209.487 223.969 206.784 225.07 198.615 221.468C199.599 218.537 200.6 215.558 201.684 212.33C206.181 213.064 210.414 213.756 214.518 214.949Z" fill="#61BDE9"/>
<path d="M235.396 230.572C235.339 229.828 235.282 229.083 235.217 227.778C239.604 224.823 243.998 222.428 248.499 219.974C251.204 224.781 253.808 229.405 256.629 234.452C255.525 234.738 254.204 234.602 251.993 234.1C246.994 226.879 241.473 227.296 235.396 230.572Z" fill="#E7EBEC"/>
<path d="M334.13 131.92C333.282 141.414 327.417 147.235 319.178 151.713C318.558 149.23 318.76 146.954 318.962 144.678C318.978 144.122 318.993 143.566 319.498 142.548C324.701 138.697 329.416 135.308 334.13 131.92Z" fill="#AFDBF4"/>
<path d="M310.727 281.798C313.273 280.828 315.781 280.416 318.84 279.991C315.232 285.079 314.717 290.77 316.486 296.974C318.513 304.08 320.329 311.249 321.946 318.971C321.33 319.588 321.004 319.625 320.679 319.661C317.349 307.226 314.019 294.79 310.727 281.798Z" fill="#E3E3E3"/>
<path d="M361.55 232.02C358.305 235.738 355.394 239.057 351.785 243.174C350.946 239.01 350.295 235.78 349.52 231.932C354.479 229.771 359.44 227.609 366.113 224.702C364.111 227.979 362.998 229.8 361.55 232.02Z" fill="#D0E8F3"/>
<path d="M451.929 480.178C462.195 477.313 462.195 477.313 469.916 485.364C462.496 486.879 456.148 486.21 450.641 481.126C450.595 481.083 450.708 480.774 450.819 480.665C450.981 480.505 451.207 480.412 451.929 480.178Z" fill="#B2DFFC"/>
<path d="M210.055 259.906C215.947 254.616 221.824 253.462 228.075 260.674C223.738 261.895 219.56 263.071 214.656 263.82C212.639 262.231 211.347 261.069 210.055 259.906Z" fill="#CEE6F0"/>
<path d="M249.139 68.1054C247.932 68.5388 246.725 68.9723 245.006 69.4085C239.54 65.8013 236.712 61.0864 236.969 54.0155C241.711 58.1187 246.062 61.8841 250.483 66.1355C250.552 66.6216 250.547 66.5334 250.202 66.6708C249.618 67.2407 249.379 67.673 249.139 68.1054Z" fill="#C53E00"/>
<path d="M305.003 260.932C303.625 255.729 302.332 251.05 300.82 245.581C302.719 245.581 305.233 245.31 305.305 245.621C306.745 251.883 307.905 258.212 309.121 264.528C308.346 264.683 307.571 264.837 306.796 264.992C306.226 263.813 305.657 262.634 305.003 260.932Z" fill="#C5DAE0"/>
<path d="M334.103 131.396C329.416 135.308 324.701 138.697 319.472 142.124C317.869 140.775 316.781 139.388 315.094 137.237C321.864 134.966 327.97 132.919 334.103 131.396Z" fill="#F4F5F5"/>
<path d="M209.563 259.983C211.346 261.069 212.638 262.231 214.108 263.8C207.492 266.277 200.698 268.347 193.904 270.417C193.714 269.975 193.525 269.534 193.336 269.092C198.582 266.082 203.827 263.071 209.563 259.983Z" fill="#EAEFF0"/>
<path d="M277.048 149.056C278.657 149.951 279.85 150.929 282.188 152.843C283.273 148.126 284.163 144.256 284.602 140.074C284.67 139.463 285.188 139.164 286.022 138.906C287.612 145.301 287.326 151.334 282.499 157.478C280.349 154.946 278.498 152.764 276.177 150.541C276.015 150.045 276.323 149.592 277.048 149.056Z" fill="#2D2F30"/>
<path d="M166.847 127.972C167.529 131.085 167.774 133.875 168.019 136.664C167.52 136.775 167.022 136.886 166.523 136.997C163.717 133.308 160.911 129.619 158.105 125.93C158.32 125.509 158.535 125.088 158.75 124.667C161.303 125.661 163.856 126.655 166.847 127.972Z" fill="#C53E00"/>
<path d="M188.797 184.721C192.418 189.297 195.514 193.854 198.61 198.411C197.539 199.038 196.468 199.666 195.397 200.293C193.022 195.096 190.647 189.899 188.797 184.721Z" fill="#DD4E06"/>
<path d="M318.441 144.758C318.759 146.954 318.557 149.23 318.703 151.838C313.074 157.698 312.035 149.3 308.271 147.876C311.488 146.864 314.705 145.851 318.441 144.758Z" fill="#63C2EE"/>
<path d="M320.736 320.193C321.003 319.625 321.328 319.588 322.145 319.521C324.531 326.312 326.426 333.134 328.38 340.487C328.131 341.051 327.822 341.082 327.047 341.113C324.652 334.316 322.724 327.52 320.736 320.193Z" fill="#C5DAE0"/>
<path d="M280.502 379.486C280.527 373.779 281.076 367.849 281.916 361.48C281.813 367.115 281.42 373.188 280.502 379.486Z" fill="#EAEFF0"/>
<path d="M518.665 403.446C519.557 403.353 519.883 403.51 520.196 404.128C520.21 405.179 520.151 405.954 519.589 407.31C519.091 408.75 519.097 409.609 518.397 410.584C517.221 410.791 516.752 410.884 516.284 410.976C515.177 409.776 514.07 408.575 512.801 406.994C513.093 406.326 513.548 406.04 514.248 405.355C514.493 404.956 514.571 404.865 514.571 404.865C515.776 404.414 516.981 403.963 518.665 403.446Z" fill="#10171A"/>
<path d="M519.103 410.468C519.097 409.609 519.091 408.75 519.566 407.893C520.641 408.794 521.234 409.693 522.053 410.932C522.097 411.458 521.914 411.643 521.107 411.96C520.023 411.551 519.563 411.009 519.103 410.468Z" fill="#FDFDFD"/>
<path d="M506.82 398.612C506.238 398.718 505.879 398.601 505.52 398.485C505.921 398.085 506.323 397.685 506.725 397.285C506.831 397.653 506.937 398.021 506.82 398.612Z" fill="#10171A"/>
<path d="M263.791 237.753C263.119 237.314 262.785 236.62 262.451 235.927C263.078 236.025 263.705 236.123 264.541 236.572C264.543 237.114 264.336 237.306 263.791 237.753Z" fill="#62C0ED"/>
<path d="M495.695 412.121C495.342 412.781 494.39 413.491 493.223 413.767C493.704 412.946 494.399 412.558 495.695 412.121Z" fill="#10171A"/>
<path d="M514.448 404.997C514.245 404.788 514.088 404.539 513.93 404.29C514.074 404.35 514.218 404.409 514.466 404.667C514.57 404.865 514.492 404.956 514.448 404.997Z" fill="#10171A"/>
<path d="M258.068 236.58C257.744 236.615 257.277 236.293 256.875 235.517C257.268 235.45 257.597 235.836 258.068 236.58Z" fill="#E7EBEC"/>
<path d="M550.626 225.705C571.139 204.807 601.281 206.159 616.991 228.517C618.32 230.408 618.948 234.627 617.812 236.219C602.411 257.794 583.931 276.277 562.832 291.839C539.015 279.229 533.415 249.143 550.626 225.705Z" fill="#F8FDD3"/>
<path d="M593.718 269.503C603.382 258.707 612.692 248.259 621.876 237.953C628.928 252.94 625.206 272.396 612.588 284.906C600.073 297.313 581.147 300.848 566.916 293.603C575.682 285.73 584.522 277.791 593.718 269.503Z" fill="#F7FBD3"/>
<path d="M540.819 289.907C542.363 286.974 543.689 284.527 545.181 281.776C549.776 286.026 554.062 289.989 559.072 294.621C554.686 296.873 550.604 299.312 546.253 301.054C544.126 301.906 541.498 301.459 539.098 301.6C539.059 299.158 538.832 296.698 539.057 294.281C539.181 292.948 540.061 291.687 540.819 289.907Z" fill="#046DD5"/>
<path d="M621.321 228.261C617.615 224.029 614.297 220.146 610.145 215.288C615.186 213.058 620.015 210.601 625.071 208.808C628.013 207.764 631.555 208.878 630.096 212.753C628.003 218.313 624.57 223.35 621.321 228.261Z" fill="#056FD7"/>
<path d="M35.3514 451.889C34.0781 441.206 30.0507 437.46 19.6539 437.63C14.8732 437.708 10.1093 438.849 5.22774 439.523C0.84997 425.854 13.2415 401.326 34.2574 395.114C34.6265 397.141 35.0586 399.113 35.3349 401.108C36.1504 406.992 39.2857 410.81 44.5847 413.388C50.1991 416.118 55.7389 419.166 60.8633 422.741C66.4973 426.671 69.526 432.125 68.9237 439.648C68.0929 450.027 76.3574 454.582 82.7801 460.167C76.5072 474.375 58.6577 482.54 38.671 479.654C37.5841 470.815 36.4565 461.646 35.3514 451.889Z" fill="#D3EEFC"/>
<path d="M44.892 409.712C38.3179 406.081 37.8035 400.495 38.4532 393.998C56.5007 390.98 71.1936 396.35 82.1579 411.044C92.1152 424.389 93.1288 443.399 85.0012 457.171C77.3324 452.134 71.4541 446.792 71.6318 435.864C71.7125 430.904 67.6811 424.733 63.7373 421.127C58.5276 416.363 51.5722 413.578 44.892 409.712Z" fill="#78B65E"/>
<path d="M35.5384 474.798C36.388 479.859 33.9844 478.51 31.6612 477.67C18.2638 472.826 8.27802 460.397 5.0332 443.596C9.37766 442.615 13.7447 440.976 18.1794 440.757C29.0115 440.222 31.7086 444.113 31.676 455.071C31.657 461.454 34.1027 467.844 35.5384 474.798Z" fill="#77B55D"/>
<path d="M227.973 523.664C228.26 525.847 228.614 527.612 228.147 529.113C224.501 540.829 227.953 549.649 238.128 556.091C239.677 557.072 240.587 559.098 242.791 561.918C236.5 563.329 231.71 564.895 226.818 565.366C221.679 565.862 218.946 568.406 217.192 573.055C215.419 577.757 213.194 582.284 211.167 586.887C210.364 586.924 209.56 586.96 208.757 586.997C206.855 583.725 204.504 580.635 203.147 577.144C200.369 569.99 196.014 566.223 188.013 566.464C184.228 566.578 180.382 564.566 176.564 563.518C178.97 560.206 180.915 556.362 183.882 553.699C189.276 548.855 190.654 543.57 188.431 536.693C187.19 532.853 186.926 528.686 185.894 522.794C190.322 524.619 193.238 525.289 195.552 526.871C203.936 532.605 211.674 532.133 219.58 525.752C221.653 524.079 224.934 523.958 227.973 523.664Z" fill="#FB9B00"/>
<path d="M407.248 22.0744C405.331 18.0824 406.221 15.3243 410.2 16.5635C423.449 20.6897 433.359 16.9433 441.173 5.35591C443.562 1.81266 446.597 4.09398 446.551 7.64622C446.369 21.6876 453.249 29.6333 466.098 33.5127C470.314 34.7855 469.135 37.5951 465.973 39.4796C463.975 40.6702 461.95 41.9156 459.784 42.6936C452.02 45.4821 448.542 50.93 448.702 59.303C448.767 62.7187 447.71 66.1565 446.896 71.2645C443.487 68.7236 440.643 67.4887 439.105 65.3017C432.934 56.5283 425.071 54.944 415.433 58.1131C413.039 58.9003 410.201 58.288 407.567 58.319C408.191 55.7164 408.086 52.5335 409.562 50.6084C417.351 40.4534 413.816 31.4639 407.248 22.0744Z" fill="#FB9B00"/>
<path d="M636.934 337.085C644.357 342.982 649.357 336.43 656.252 333.654C653.999 343.424 654.637 351.706 664.519 357.012C654.659 358.414 647.101 361.852 645.336 373.298C641.595 363.015 635.05 358.647 624.688 359.089C632.664 352.687 635.316 345.151 630.619 334.92C633.567 335.884 635.001 336.353 636.934 337.085Z" fill="#F79B00"/>
<path d="M64.2217 206.769C60.5552 216.101 69.227 218.705 73.2858 225.055C62.9677 224.95 56.3075 229.207 53.8066 239.819C49.8197 230.792 44.5844 224.831 32.2988 227.612C36.4119 222.42 40.2938 219.46 41.3147 215.695C42.3753 211.785 40.669 207.096 40.0064 201.29C48.3331 207.068 56.3438 208.177 64.3634 199.914C64.3634 203.13 64.3634 204.666 64.2217 206.769Z" fill="#F79B00"/>
<path d="M302.927 551.125C301.049 550.768 299.719 550.477 296.744 549.828C305.407 543.341 308.289 535.728 303.889 525.483C312.608 531.641 320.429 531.744 328.616 524.624C325.59 534.975 328.522 542.541 337.245 548.386C326.943 548.78 320.475 553.306 318.446 564.281C313.214 558.711 312.773 549.304 302.927 551.125Z" fill="#F79B00"/>
<path d="M603.714 87.756C600.476 90.1684 597.772 92.517 595.624 94.3835C592.197 92.0353 588.142 89.2564 584.85 87.0003C585.96 83.0578 587.304 78.2859 588.539 73.9022C592.209 73.9022 597.007 73.9022 600.776 73.9022C602.432 77.2677 604.482 81.246 606.264 85.3453C606.438 85.7463 604.959 86.8921 603.714 87.756Z" fill="#F49A00"/>
<path d="M117.456 22.3973C119.606 21.3778 121.224 20.5384 121.95 20.1618C123.58 24.8616 125.15 29.3864 126.657 33.732C123.826 35.9469 119.886 39.0282 116.457 41.7111C113.27 39.4859 109.217 36.6556 105.078 33.7656C108.401 30.7608 111.386 26.4537 107.228 20.0934C111.357 21.1511 114.141 21.8643 117.456 22.3973Z" fill="#F49A00"/>
<path d="M123.832 245.577C122.616 244.756 121.194 243.668 121.366 243.239C122.942 239.282 124.795 235.439 126.632 231.42C129.818 231.246 134.656 230.981 138.667 230.761C139.908 234.461 141.482 239.155 142.867 243.286C139.948 245.6 136.278 248.511 132.729 251.324C130.579 249.857 127.472 247.736 123.832 245.577Z" fill="#F49A00"/>
<path d="M420.813 650.708C421.955 646.721 422.742 643.117 423.377 640.211C427.478 640.211 432.135 640.211 436.761 640.211C438.008 643.783 439.71 648.656 441.056 652.511C437.857 655.024 434.031 658.03 430.783 660.582C427.477 658.349 423.418 655.607 419.076 652.675C419.064 652.689 419.762 651.89 420.813 650.708Z" fill="#EF9700"/>
<path d="M298.363 282.439C285.588 287.015 272.817 290.988 259.147 295.24C256.389 285.058 253.846 275.668 251.119 265.598C264.686 261.784 277.536 258.171 291.145 254.345C293.612 263.738 295.99 272.786 298.363 282.439ZM291.944 269.87C290.848 266.131 289.753 262.393 288.626 258.545C277.09 261.827 266.118 264.948 255.078 268.089C257.275 276.139 259.226 283.288 261.289 290.848C272.871 287.583 283.87 284.483 294.856 281.386C293.848 277.361 293.052 274.187 291.944 269.87Z" fill="#1A150C"/>
<path d="M511.675 428.405C511.785 427.859 511.896 427.312 512.651 427.167C514.174 426.027 515.052 424.488 515.93 422.948C514.966 423.042 514.002 423.136 513.038 423.23C513.607 422.102 514.176 420.974 515.306 420.206C518.236 419.849 520.605 419.134 522.975 418.418C523.513 418.57 523.713 418.921 522.601 419.691C521.645 424.703 521.564 429.501 521.751 434.288C521.805 435.655 522.636 436.991 523.11 438.341C523.587 438.566 523.727 438.927 522.361 439.564C521.332 440.717 521.472 441.732 521.611 442.746C521.611 442.746 521.476 442.691 520.907 442.313C519.848 443.182 519.358 444.43 518.868 445.678C517.679 446.72 516.49 447.763 514.678 448.995C513.473 449.634 512.892 450.084 512.31 450.534C511.931 451.268 511.551 452.001 510.117 453.002C508.965 454.468 508.867 455.666 508.77 456.864C507.468 457.532 506.167 458.2 504.818 458.201C499.103 457.085 493.436 456.636 487.768 456.187C487.768 456.187 487.976 456.121 487.633 455.772C488.573 454.378 489.889 453.372 491.134 452.282C496.154 447.889 501.151 443.47 506.156 439.06C506.156 439.06 506.143 439.117 506.673 439.038C507.764 437.099 508.326 435.238 508.887 433.377C508.887 433.377 508.907 433.402 509.286 433.91C510.335 432.413 511.005 430.409 511.675 428.405Z" fill="#64C3F4"/>
<path d="M505.84 438.491C501.151 443.47 496.154 447.889 491.134 452.282C489.889 453.372 488.573 454.378 487.67 455.876C485.101 456.009 482.15 455.69 478.914 455.13C478.628 454.89 478.468 454.466 478.928 453.965C479.688 453.123 479.986 452.782 480.285 452.44C486.899 448.884 493.542 445.382 500.109 441.738C502.026 440.674 503.725 439.205 505.84 438.491Z" fill="#0A0C0E"/>
<path d="M464.462 424.089C465.913 428.001 467.364 431.914 469.319 436.025C469.577 437.916 469.33 439.609 468.639 441.714C467.266 441.69 465.865 441.512 465.478 440.779C461.112 432.513 460.099 423.861 463.544 414.546C464.412 416.497 464.786 418.758 464.763 421.932C464.282 423.269 464.314 423.684 464.462 424.089Z" fill="#0A0C0E"/>
<path d="M523.627 438.083C522.637 436.991 521.806 435.656 521.752 434.288C521.565 429.501 521.646 424.704 522.353 419.917C523.434 425.891 523.788 431.858 523.627 438.083Z" fill="#0A0C0E"/>
<path d="M487.252 456.681C493.437 456.636 499.104 457.085 504.446 458.24C498.325 458.355 492.53 457.764 487.252 456.681Z" fill="#0A0C0E"/>
<path d="M522.952 417.885C520.606 419.134 518.237 419.849 515.492 419.874C515.661 416.78 516.203 414.376 516.515 411.474C516.753 410.884 517.221 410.791 518.397 410.584C519.564 411.009 520.023 411.551 520.824 412.226C521.752 414.025 522.34 415.688 522.952 417.885Z" fill="#0A0C0E"/>
<path d="M467.668 442.446C470.456 444.756 472.741 447.417 474.414 450.302C471.589 447.95 469.377 445.374 467.668 442.446Z" fill="#0A0C0E"/>
<path d="M474.012 451.214C475.77 451.025 477.586 451.384 479.844 452.091C479.987 452.782 479.688 453.123 478.734 453.965C477.815 454.337 477.581 454.378 477.376 454.588C476.274 453.646 475.172 452.703 474.012 451.214Z" fill="#0A0C0E"/>
<path d="M469.251 404.42C473.168 407.923 469.266 408.81 466.781 409.773C467.078 407.609 467.937 406.139 469.251 404.42Z" fill="#0A0C0E"/>
<path d="M512.494 450.871C512.892 450.084 513.474 449.634 514.327 448.692C515.554 448.784 516.509 449.369 516.203 450.336C514.439 450.896 513.936 451.073 513.432 451.25C513.181 451.236 512.929 451.222 512.494 450.871Z" fill="#10171A"/>
<path d="M519.487 445.919C519.359 444.43 519.848 443.182 520.974 442.349C521.108 443.897 520.607 445.029 519.487 445.919Z" fill="#0A0C0E"/>
<path d="M509.448 456.473C508.868 455.666 508.965 454.468 509.773 452.905C510.364 453.721 510.245 454.902 509.448 456.473Z" fill="#0A0C0E"/>
<path d="M477.353 454.724C477.582 454.378 477.815 454.337 478.273 454.466C478.469 454.466 478.629 454.889 478.408 454.914C478.187 454.939 477.754 454.982 477.754 454.982C477.754 454.982 477.328 454.859 477.353 454.724Z" fill="#65C4F7"/>
<path d="M522.132 442.455C521.471 441.732 521.332 440.717 522.099 439.745C522.889 440.579 522.772 441.371 522.132 442.455Z" fill="#0A0C0E"/>
<path d="M513.697 451.745C513.935 451.073 514.438 450.896 515.74 450.683C515.68 451.177 514.822 451.709 513.697 451.745Z" fill="#0A0C0E"/>
<path d="M284.242 128.152C276.833 129.264 269.623 131.692 262.993 130.569C253.471 128.955 251.206 119.987 257.11 112.235C263.022 104.474 276.795 99.9094 286.067 102.637C295.877 105.524 298.573 114.511 291.744 122.217C289.769 124.447 287.069 126.011 284.242 128.152ZM276.778 127.569C281.37 124.582 286.688 122.306 290.365 118.421C294.69 113.85 292.583 108.562 286.646 106.322C278.035 103.072 264.164 107.543 259.217 115.162C255.799 120.427 257.299 125.875 263.263 127.352C267.174 128.32 271.469 127.679 276.778 127.569Z" fill="#14191C"/>
<path d="M334.008 288.217C339.009 283.263 344.132 282.515 349.361 286.392C353.737 289.637 355.227 294.323 353.241 299.502C351.172 304.897 346.996 307.46 341.204 306.878C333.562 306.11 327.98 296.191 334.008 288.217ZM340.137 303.287C348.201 303.881 353.365 298.371 349.896 292.404C348.499 290 344.921 287.478 342.427 287.571C339.92 287.664 335.683 290.785 335.513 292.86C335.252 296.048 337.82 299.477 340.137 303.287Z" fill="#101112"/>
<path d="M341.25 319.364C341.444 313.632 344.196 310.793 349.175 311.711C353.504 312.508 355.314 316.161 353.824 320.256C353.096 322.259 350.086 325.093 348.687 324.79C346.013 324.21 343.753 321.653 341.25 319.364Z" fill="#211B0F"/>
<path d="M303.072 220.397C310.241 223.303 317.362 225.051 325.315 223.206C332.277 221.592 336.556 219.036 333.83 210.431C331.768 210.222 329.113 209.953 326.507 209.445C329.705 208.421 332.853 207.634 336.002 206.848C336.805 210.864 337.608 214.88 338.562 219.652C327.85 229.182 315.499 228.855 302.561 221.876C302.741 220.866 302.907 220.631 303.072 220.397Z" fill="#2D2F30"/>
<path d="M336.344 206.527C332.852 207.634 329.704 208.421 326.056 209.286C323.7 208.237 321.843 207.11 320.689 206.41C327.2 202.867 334.002 199.166 341.944 194.844C340.04 198.96 338.363 202.583 336.344 206.527Z" fill="#61BDE9"/>
<path d="M277.352 193.814C279.835 194.462 282.206 195.664 284.976 197.139C285.376 199.734 285.376 202.055 285.376 205.221C278.788 203.888 278.934 198.393 277.352 193.814Z" fill="#0D0F0D"/>
<path d="M302.397 218.857C302.437 219.246 302.58 219.589 302.95 220.142C302.907 220.631 302.741 220.866 302.299 221.429C301.237 221.561 300.451 221.364 299.666 221.168C300.021 220.259 300.375 219.349 301.352 218.434C301.974 218.427 302.397 218.857 302.397 218.857Z" fill="#2D2F30"/>
<path d="M301.775 218.198C302.094 217.877 302.61 217.785 303.125 217.693C303.102 217.985 303.078 218.278 302.725 218.714C302.395 218.858 301.973 218.427 301.775 218.198Z" fill="#2D2F30"/>
<path d="M511.139 428.51C511.004 430.409 510.334 432.413 509.273 433.9C509.456 431.794 510.03 430.205 511.139 428.51Z" fill="#0A0C0E"/>
<path d="M508.304 433.332C508.326 435.238 507.764 437.099 506.647 439.051C506.634 437.191 507.178 435.239 508.304 433.332Z" fill="#0A0C0E"/>
<path d="M470.152 436.895C470.897 435.097 472.016 433.933 473.573 433.081C472.849 434.772 471.688 436.151 470.152 436.895Z" fill="#0A0C0E"/>
<path d="M474.43 434.038C475.025 432.14 476.071 430.864 477.647 429.73C477.077 431.467 475.979 433.064 474.43 434.038Z" fill="#0A0C0E"/>
<path d="M512.979 423.758C514.002 423.136 514.966 423.042 515.93 422.948C515.052 424.488 514.174 426.027 512.811 426.935C512.524 425.631 512.722 424.959 512.979 423.758Z" fill="#0A0C0E"/>
<path d="M482.107 425.632C482.238 424.586 482.704 424.246 483.993 423.695C485.398 423.471 485.979 423.458 486.763 423.63C486.965 423.815 487.389 424.163 487.389 424.163C485.74 424.888 484.092 425.614 482.107 425.632Z" fill="#0A0C0E"/>
<path d="M488.706 421.296C488.469 422.545 488.257 423.06 487.717 423.869C487.389 424.163 486.965 423.815 487.002 423.095C487.147 421.619 487.255 420.863 487.363 420.106C487.819 420.258 488.275 420.411 488.706 421.296Z" fill="#0A0C0E"/>
<path d="M235.197 231.036C241.472 227.295 246.993 226.879 251.48 234.062C252.746 239.963 252.071 245.564 246.21 247.172C242.894 248.081 237.856 246.928 235.159 244.721C230.812 241.164 231.503 235.981 235.197 231.036ZM241.71 245.102C248.076 243.314 250.806 239.753 248.234 235.798C246.945 233.815 243.849 231.776 241.763 231.965C239.685 232.154 236.113 235.3 236.28 236.792C236.595 239.602 239.125 242.156 241.71 245.102Z" fill="#0D1417"/>
<path d="M487.056 420.149C487.256 420.863 487.148 421.619 486.801 422.911C485.98 423.458 485.399 423.471 484.381 423.497C484.879 422.403 485.814 421.297 487.056 420.149Z" fill="#10171A"/>
<path d="M464.639 423.813C464.312 423.684 464.281 423.27 464.488 422.561C464.88 422.662 464.949 423.082 464.639 423.813Z" fill="#10171A"/>
<path d="M249.566 67.9758C249.379 67.6731 249.618 67.2408 250.245 66.6652C250.42 66.9633 250.206 67.4048 249.566 67.9758Z" fill="#0A0C0E"/>
<path d="M292.1 270.441C293.052 274.186 293.848 277.361 294.856 281.386C283.87 284.483 272.871 287.583 261.289 290.848C259.226 283.288 257.275 276.139 255.078 268.089C266.118 264.948 277.09 261.827 288.626 258.545C289.753 262.392 290.848 266.131 292.1 270.441Z" fill="#FAF9F9"/>
<path d="M276.183 127.664C271.467 127.679 267.172 128.32 263.262 127.352C257.297 125.875 255.797 120.427 259.215 115.162C264.162 107.543 278.033 103.072 286.644 106.322C292.582 108.563 294.688 113.85 290.363 118.421C286.687 122.306 281.368 124.582 276.183 127.664Z" fill="#65C4F7"/>
<path d="M339.662 303.045C337.82 299.477 335.251 296.048 335.513 292.86C335.683 290.785 339.92 287.664 342.427 287.571C344.921 287.478 348.499 290 349.896 292.404C353.364 298.371 348.201 303.881 339.662 303.045Z" fill="#EF9700"/>
<path d="M241.223 244.959C239.126 242.156 236.596 239.602 236.281 236.792C236.114 235.3 239.686 232.154 241.764 231.965C243.85 231.776 246.946 233.815 248.235 235.798C250.807 239.753 248.077 243.314 241.223 244.959Z" fill="#63C2F0"/>
</svg>
